<svg xmlns="http://www.w3.org/2000/svg" viewBox="0 0 178 108"><defs><style>.cls-1{fill:#e1d8cc;}.cls-2{fill:#d7cdbf;}.cls-3{fill:#f4ecdf;}.cls-4{fill:#a58b74;isolation:isolate;opacity:0.23;}.cls-5{fill:#d3bfaa;}.cls-6{fill:#c4af99;}</style></defs><g id="Capa_2" data-name="Capa 2"><g id="Capa_1-2" data-name="Capa 1"><path class="cls-1" d="M41.94,11c3.82,4.16,16.69,18.15,14.26,36-.48,3.51-1.32,9.11-5.74,14.19-6.9,7.93-17.18,8.51-19.75,8.56A29.94,29.94,0,0,1,12.83,64.1C-.7,54.3-1.81,34.78,1.71,22.06,2.72,18.44,7.86,1.79,18.86.14c5-.75,10.17,1.69,12.54,2.8A33.17,33.17,0,0,1,41.94,11Z"/><path class="cls-2" d="M52.34,45.08c-.63-.19-1.4,6.27-7.13,10.63-.29.22-5.66,4.2-12.17,3.85C21.53,58.94,12.67,45.1,9.71,34c-3.6-13.48,1.07-24.6-.47-25-1.36-.31-5.42,8.38-6.9,17.75C1.59,31.5.33,40,4.17,49.57a29,29,0,0,0,8,12.06,28.18,28.18,0,0,0,16.64,6.79c3.05.17,10.52.58,16.65-4.52C53.76,57,53.16,45.33,52.34,45.08Z"/><path class="cls-3" d="M45.71,35.83c-.93.13-.62-9.47-7.83-18.06-1.32-1.6-7.23-8.61-16.11-9.58-5.87-.64-10.13,1.69-10.38,1-.31-.8,5.87-5.71,13.16-5.56,11.29.22,18.05,12.44,18.7,13.66C48,26.18,46.63,35.69,45.71,35.83Z"/><path class="cls-1" d="M139.61,22.17c1.73,5.73,7.56,25-3.22,41.16-2.12,3.18-5.58,8.22-12.26,11.16-10.43,4.58-20.61.54-23.13-.55A31.19,31.19,0,0,1,86.38,60.51C77.93,45,86.1,25.63,95.49,14.9c2.68-3,15.52-16.84,26.94-13.52,5.14,1.49,9,6.17,10.79,8.31A34.23,34.23,0,0,1,139.61,22.17Z"/><path class="cls-4" d="M57.17,19.82A5.28,5.28,0,0,0,53,19.54c-1.65.81-1.26,2.54-3.24,5.36A43.58,43.58,0,0,1,45,29.64c-2,1.84-2.59,2.33-2.89,3.46-.45,1.65.46,2.34.16,4-.35,1.94-1.82,2.46-3.08,4.08-2.6,3.31-1.75,7.93-1.25,10.8a20.84,20.84,0,0,0,2.57,6.88,10.5,10.5,0,0,0,2.59,3.46,8.8,8.8,0,0,0,4.74,1.92C55.18,64.23,65,23.8,57.17,19.82Z"/><path class="cls-5" d="M77.19,16.12c-3.58-4-5.33-4.05-5.94-4-1.48.07-1.67,1-3.77,1.34-2.74.5-3.38-.86-5.39-.37s-1.87,2-5.43,5.13c-2.65,2.36-3,1.73-4.2,3.31-2,2.56-1.07,4.08-3.31,6.5a29,29,0,0,1-3,2.61c-2.14,1.72-2.58,1.83-2.89,2.6-.65,1.64.79,2.59.37,4.52C43.26,39.29,42.15,39.44,41,41a9.61,9.61,0,0,0-.8,9.22A10.16,10.16,0,0,0,45,54.82c7.52,4,23.81,2.82,32.72-8,5.06-6.16,7.77-15.5,4.9-22.8A27.08,27.08,0,0,0,77.19,16.12Z"/><path class="cls-2" d="M133.56,59.78c-.52-.46-4.32,5.41-11.92,7.09-.37.08-7.45,1.52-13.57-1.72C97.25,59.41,95.21,42.07,97.58,30c2.88-14.63,12.65-23.3,11.33-24.33-1.17-.91-9.16,5.69-15,14.08-2.94,4.19-8.18,11.86-9,22.81-.28,3.74-.61,9.09,2.05,15.24a29.17,29.17,0,0,0,12.88,14c2.87,1.52,9.89,5.28,18.23,3.06C129.32,71.92,134.24,60.38,133.56,59.78Z"/><path class="cls-6" d="M80.68,33.28c-1.1-1.42-6-.61-8.22,1.94-1.4,1.62-.44,3.79-2.13,5-.92.66-1.6.38-3.32.76-2.42.53-3,1.49-5.39,2.73a15.86,15.86,0,0,1-9.41,1.93c-1.61-.25-3.63-.56-4.62-2-1.43-2.17.14-5.56,1.84-9.22,1.84-4,3.45-5.62,2.89-6.23-.89-.95-5.68,2.13-6.2,2.45-1.65,1.06-2.49,1.61-2.89,2.6-.75,1.86.69,3,.18,5s-2,2.21-3.08,3.73c-2,3-.49,8.7,2.34,11.41,6.5,6.25,21.6-1.41,22.35-1.8C75.3,46.3,82.54,35.65,80.68,33.28Z"/><path class="cls-4" d="M86.29,22.63c1-.68,5.26,3.12,7.74,7,3.13,4.84,3.38,9.48,3.57,12.74A33.65,33.65,0,0,1,95,56.75c-1,2.41-2.78,5.83-3.33,5.65-.72-.25,1.94-6.25,2.39-13C95,34.53,84.59,23.74,86.29,22.63Z"/><path class="cls-1" d="M72.26,12.25S86.68,17.33,93.07,31.1c.74,1.55,7.15,16-.93,29.71-1.36,2.3-6.7,11.32-17.82,13.7C63,77,54.06,70.61,51.65,68.89c-9.18-6.57-14-17.53-11.95-19.43.8-.75,2.11.44,7.53,1.08,3.61.43,6.28.75,9.56-.13,1.76-.47,5.63-1.5,8.26-4.65.91-1.1,1.11-1.78,2.16-2.29,2.58-1.25,5.33,1,6.38-.15.89-.92-.86-2.71.2-4.53.75-1.28,2-1,2.52-2.25.64-1.53-.94-2.77-.26-3.85s2.37-.22,3.34-1.24c1.26-1.31.37-4.65-1.19-6.87s-3.13-2.31-3.42-4.06,1-2.16.87-3.89C75.46,14,72.24,12.25,72.26,12.25Z"/><path class="cls-3" d="M131.52,47.87c-1-.29,3.87-9.43,1-20.95-.53-2.11-2.92-11.55-11.06-16.46-5.36-3.23-10.59-2.9-10.52-3.63.07-.9,8.37-2.9,15.35.5,10.8,5.26,11.57,20.08,11.62,21.56C138.27,39.56,132.47,48.15,131.52,47.87Z"/><path class="cls-4" d="M144.52,45.91c-.72-.77-2.59-.29-5.51.47a25.26,25.26,0,0,0-9.83,5.36A38.87,38.87,0,0,0,120,62c-1.69,2.85-3.41,5.61-4,9.66-.29,2.35-.86,6.6.72,7.47C121.82,81.89,148.1,49.68,144.52,45.91Z"/><path class="cls-1" d="M177.3,70.3c-1,5.53-4.48,24.14-20.56,33.32-3.17,1.8-8.26,4.63-15.15,4.36-10.74-.41-17.59-8-19.23-9.94a28.36,28.36,0,0,1-6.47-17.3c-.39-16.52,14.87-29.48,27.44-34.63,3.58-1.47,20.36-7.82,28.53-.35,3.68,3.37,4.92,8.9,5.49,11.42A31.73,31.73,0,0,1,177.3,70.3Z"/><path class="cls-3" d="M92.63,52.73c.6,0,2.75-8.6-.32-17.85C90,28.05,86,24.13,82.38,20.61c-1.13-1.1-3.82-3.72-4.61-3.2s.7,4.09,1.92,6.35a31.43,31.43,0,0,0,4.41,6,38,38,0,0,1,7,14.06C92.63,49.3,92.25,52.74,92.63,52.73Z"/><path class="cls-2" d="M73.61,45.71c0,.37-3.11-.67-6,.82a9.09,9.09,0,0,0-3.87,4.69,12.9,12.9,0,0,0-1,10,12.54,12.54,0,0,0,4.81,6.14c5.07,3.45,10.84,2,12.1,1.73a18.83,18.83,0,0,0,5.77-2.65,23.86,23.86,0,0,1-12.57,6.71c-7.54,1.35-13.78-1.69-15.84-2.74-3.92-2-6.19-4.33-9.09-7.34-1.49-1.55-9.24-9.59-7.53-11.9,1.14-1.56,5.26,1.32,13.74.57,3.28-.28,5.46-.48,7.68-2,3-2,3.1-4.42,5.86-5.26S73.67,45.35,73.61,45.71Z"/><path class="cls-4" d="M103.25,74.4c1-3.54-3.66-8.32-7.5-12.2a35.75,35.75,0,0,0-11.61-7.76A41.56,41.56,0,0,0,67.23,51c-4.58.05-8.91.16-12.46,3.22a12.75,12.75,0,0,0-3.93,6.44,15.61,15.61,0,0,0,2.28,10.94C57.94,79.59,100.42,83.88,103.25,74.4Z"/><path class="cls-1" d="M78.06,55c4.75,1.65,20.68,7.19,26.51,21.93,1.15,2.9,2.92,7.56,1.7,13.28-1.9,8.92-9.58,13.55-11.54,14.64a26.51,26.51,0,0,1-16.2,2.94c-14.65-2-23.93-16.63-26.69-27.87-.79-3.2-4-18.13,3.77-23.88,3.49-2.6,8.56-2.84,10.87-3A29.61,29.61,0,0,1,78.06,55Z"/><path class="cls-2" d="M100.78,77c-.56.11,1.62,5.4-.93,11.09-.13.28-2.58,5.54-7.72,7.91-9.13,4.21-21.93-2.84-29-10.18-8.58-8.92-9.78-19.41-11.12-19s-.55,8.65,2.33,16.49c1.44,3.92,4.14,11,11.22,16.8a26.63,26.63,0,0,0,11.37,6,25,25,0,0,0,15.76-1.55c2.43-1.11,8.36-3.83,10.88-10.26C107,85.59,101.52,76.87,100.78,77Z"/><path class="cls-3" d="M94.73,72.93c-.66.48-4.56-7.05-13.82-10.73-1.7-.66-9.28-3.7-16.54-.82-4.8,1.89-7.08,5.42-7.56,5s2.06-6.79,7.74-9.65c8.81-4.42,19.28,2.24,20.31,2.92C92.33,64.57,95.39,72.45,94.73,72.93Z"/><path class="cls-3" d="M174.26,63.06c-.12,0-.78-7.1-6.29-11-5.85-4.13-14-2.33-18.24-1.33-15.24,3.58-23.49,13.69-24,13.1s7.22-11.72,21.15-16.44c4.34-1.48,12.29-4.17,18.7-.54C173.52,51.4,174.42,63,174.26,63.06Z"/><path class="cls-2" d="M172.4,77.76c-1.14-.62-4.71,9.43-15.44,14.58a29.64,29.64,0,0,1-17.65,2.58c-12-2.23-18-12.48-19.86-11.11-1.39,1,1.09,7.43,5,12.11,2,2.41,8.91,9.64,19.62,9.59s17.2-7.18,20.15-10.37C171.27,87.59,173.48,78.33,172.4,77.76Z"/></g></g></svg>