<svg xmlns="http://www.w3.org/2000/svg" viewBox="0 0 631 533"><defs><style>.cls-1{fill:#f3faf6;}.cls-2{fill:#ab784d;}</style></defs><g id="Capa_2" data-name="Capa 2"><g id="Capa_1-2" data-name="Capa 1"><path class="cls-1" d="M439,475.68c26.35-9.41,29-14.4,77.85-39.36,49.09-25.05,57.84-26.42,66.41-40.59,10.84-17.93,9.86-40.64,5.18-61.06s-12.71-40.14-15-61c-3-27.22,4-54.39,8.73-81.38s6.85-55.95-5-80.63c-17.38-36.32-59.06-53-97.08-66.41-66.1-23.4-64.79-7.39-155.56-35-22.66-6.9-43.68-14.39-69.28-7.62C230.67,9.23,229,21.86,203.52,28c-31.29,7.57-42-8.29-72.31-2.6-33.82,6.35-55.1,32.56-57.93,36.16C50.6,90.32,62.63,111.07,42.87,172.87c-12,37.43-16.65,30.6-25.12,61C11.88,255-1.48,305.62,18.89,361.12,23.42,373.43,35.42,405,63.78,428.6a243.87,243.87,0,0,0,21.76,15.64,338.16,338.16,0,0,0,49.56,26.22c42.19,17.89,84.59,24.22,98.05,26,64,8.54,114.11-.11,147.07-6.06C398.18,487.15,416,483.89,439,475.68Z"/><path class="cls-2" d="M334.52,532.9c16,.76,44.94-2.78,102.86-9.84,42.77-5.22,56-7.79,71.87-12.66,27.16-8.34,26.48-12.56,49.31-18.29,41.39-10.37,64.31-1.71,70.89-14.66,5.75-11.28-6.23-28.46-8.07-31-4.93-6.88-11.11-11.34-22.67-17.21-29.49-15-41.38-12.14-64.25-24-18.46-9.58-12.71-12.49-30.85-22-30.81-16.22-61-15-71.46-14.4-16.56.89-23.44,4.07-42.36,8.44a384.72,384.72,0,0,1-91.42,9.89c-61.09-1.37-66.66-24.32-116-17.71-21.24,2.86-20.79,7.19-56.63,13.24C87.44,389.14,80,385.38,57,392.89c-12.15,3.94-55,18-56.92,42.65-1.33,17,17.33,32,26.07,39C40,485.73,54,490.24,64.39,493.07a287,287,0,0,0,85.18,9.74s23.05-1.17,43.06-.73c19.39.43,37.09,9.68,57.34,16.72C283.29,530.43,311.08,531.77,334.52,532.9Z"/></g></g></svg>