<svg xmlns="http://www.w3.org/2000/svg" viewBox="0 0 366 291"><defs><style>.cls-1{fill:#c1250d;}.cls-2{fill:#a40100;}.cls-3{fill:#3f2c2a;}.cls-4{fill:#faf3e6;}.cls-5{fill:#de2100;}.cls-6{fill:#b91c00;}.cls-7{fill:#fff;opacity:0.2;}.cls-8{fill:#7f8382;}</style></defs><g id="Capa_2" data-name="Capa 2"><g id="Capa_1-2" data-name="Capa 1"><path class="cls-1" d="M152.11,207.56c.18-2.95-1.69-5.25-3.54-7.44-3.52-4.19-6.79-5.54-14.71-9.69-6.33-3.31-10.26-5.6-18.07-10.24-7.3-4.33-8.21-5.14-9.13-6.14-1-1.17-7.17-8.08-6-17.13.87-6.51,5-10.52,10.05-15.33a39.7,39.7,0,0,1,11.57-8c5.59-2.51,10.24-3,15.71-3.47a89.45,89.45,0,0,1,19.62.52c12,1.43,12.2,2.93,23.35,4.51a94.54,94.54,0,0,0,32.4-.64c7.33-1.48,9.6-3.08,11-5.08,4.48-6.34.91-18.25-4.56-20-2.91-1-4.67,1.5-11.7,4-5,1.78-8.77,2.18-15.25,2.86-12.18,1.28-20.79-1.64-35.91-3.7-18.28-2.48-27.43-3.73-38.19-.35a50.87,50.87,0,0,0-24.76,16.7c-13.83,17.43-10.3,37.88-9.48,42.63s1.87,10.39,6.31,15.37c1.79,2,3.25,2.91,15.21,8.92,6.42,3.23,12.68,6.78,19.08,10.06,4,2.06,7.25,3.66,9.94,7.25,1.6,2.13,1.68,3.18,3.08,3.85C142.51,219,151.71,213.74,152.11,207.56Z"/><path class="cls-2" d="M192.71,142.75c4.8-4.47,16.75,3.18,18.52,4.34,3.29,2.18,11.21,7.41,11.76,16,.34,5.25-2.23,9.62-3.14,11.15-1.29,2.2-2.1,2.72-6.64,7.4-8,8.23-8.08,9.34-10,9.64-6.46,1-15.34-9.55-13.41-14.91,1.11-3.08,5.06-2.4,10.65-7.89,1.47-1.44,5.89-5.79,4.77-8.27-1.21-2.69-7.44,0-11.41-3.51C190.09,153.36,189.55,145.7,192.71,142.75Z"/><path class="cls-3" d="M100.33,122.9c-1.69.26-3.24,2.17-6.28,6-4,5-6,7.53-5.67,9.5.59,3.4,5.22,5,12.72,7.51,5.48,1.85,7.13,1.38,8,.61,1.25-1.15.31-2.63,1.69-4.9,1.75-2.9,4.51-2.53,5-4.45.21-.72.2-2.13-4.9-7C105.64,125,103,122.48,100.33,122.9Z"/><path class="cls-4" d="M112.23,140.21c.67-2.69-2.51-5.38-4.92-7.43s-8.21-7-12.44-4.92c-1.26.61-2.74,2-2.59,3.39.23,2.15,4.15,1.91,8.88,5.24s5.56,6.89,8.11,6.53A3.85,3.85,0,0,0,112.23,140.21Z"/><path class="cls-2" d="M203,211.38c1.5,2.8,1.15,3.3,2.65,5.38,2.7,3.73,5.39,4.28,14.68,9,6.3,3.2,7.32,4.1,12,6.07,3.73,1.56,5.66,2.35,8.38,2.79,3.5.57,6.07.27,6.23,1s-1.85,1.85-3.69,2.41c-3.47,1.07-6.61.07-9.14-.76-10.62-3.5-16-5.26-17.16-5.84-2.52-1.23-2.91-1.57-10.93-6.35-14.94-8.92-17.27-9.92-19.31-13.6-2.88-5.19-3.34-12.39-.89-13.84C189,195.76,198.44,202.91,203,211.38Z"/><path class="cls-3" d="M203,214.72c4.56,2,4.32,3.89,9.93,7,5.29,3,8.54,3,8.65,4.65s-3.2,3.71-6.25,4c-.69.07-2.57.16-7.69-2.56a52.45,52.45,0,0,1-9.93-6.89c-4.32-3.72-6.77-5.83-6.25-7C192.15,212.29,198.13,212.61,203,214.72Z"/><path class="cls-5" d="M232.59,124.69c3,1,5.45-2.08,16.21-9.49,8.75-6,13.19-9.06,16.55-9,11.12.09,18.9,18.1,19.21,18.85,7.82,18.66-1.4,37.33-3.92,42s-10.35,17.38-25.91,23.85c-10.65,4.44-20.12,4-25.28,3.68a57.88,57.88,0,0,1-21.06-5.28c-8.9-3.92-11-7.34-11.82-9-1.77-3.64-1.39-7.12-1.12-9.66.93-8.85,1-17.78,2-26.61,1.92-16.55,2.95-25.39-1.36-35a31.36,31.36,0,0,0-10.78-13.54,31,31,0,0,0-12.38-4.75,219.39,219.39,0,0,0-33.83-3.89c-18.76-.33-28.28-.5-41.69,1.84-12.32,2.15-18.48,3.23-24.21,7.66-9.72,7.49-14.83,20.21-14.27,32.24a40.51,40.51,0,0,0,9,23.33c16.55,20,47.13,15.34,52.81,14.32,7.7-1.38,5.41-2.59,19.24-6.34,19.94-5.41,29.9-8.11,40.18-5.09,3.76,1.11,7.13,2.78,9.89,1.05,3.71-2.34,4.75-9.86,2-14.38-1.9-3.09-6.31-6-24-5.52s-21.92,3.85-38.48,5.32c-18.59,1.65-35.33,2.92-43.19-6.75-.49-.61-5.53-7-3.5-12.9,1.55-4.49,6.43-6.5,10.67-8.18a45.56,45.56,0,0,1,19.41-3.07c42.12,2.87,48.53-1.2,55,6.19,5.33,6.13,5.71,14.44,6.43,30.16.54,12-1.28,14.92-.87,22.78.79,15.23,9.07,31.23,19.34,39.54,23.15,18.72,66.66,6.69,90.25-17.6,4.35-4.47,28.66-29.51,20.73-60-5.71-22-26.76-41.46-47.64-40.48-11.29.53-25.93,7.19-28.59,18.1C226,115.26,228.42,123.33,232.59,124.69Z"/><path class="cls-6" d="M227.37,106.88c-1-1.79,8.92-9.73,11.07-11.45,3.66-2.91,6.74-5.37,10.89-7.31,1.19-.56,12.21-5.55,24.58-2.63,15.79,3.73,23.64,18,27.4,24.76,9.55,17.3,7.72,34.23,6.91,40.84a77.26,77.26,0,0,1-11.79,32c-3.56,5.8-9.33,15-20.08,22.7C259.21,218,241,218.42,227.93,218.69c-9.12.19-20.43.3-32.51-5.78-8.6-4.33-15.75-10.88-15.16-11.85S187,204.13,196,207a78.92,78.92,0,0,0,28.11,3.18c8.75-.36,33.9-1.39,53.73-20.6,5.33-5.17,26-26.94,21.15-55.55-2.33-13.67-11.27-33.31-27.41-38.07C251.52,90,229,109.61,227.37,106.88Z"/><path class="cls-6" d="M173.48,135.92c-.72-.08.08,6.05-3.37,10.26-4.85,5.92-13.66,2.67-27.83,5.33-11,2.06-9.32,4.7-20.17,7.2-5.09,1.17-25.42,5.86-42.31-5.4a47.39,47.39,0,0,1-13.51-14c-4.21-6.94-5-12.71-5.4-12.6-.64.16-1.3,15,7.89,26.11,8.14,9.82,20,11.91,28.64,13.41a70.4,70.4,0,0,0,25.26-.44c10.74-2.15,9.79-4.61,23.19-7.47,8.91-1.9,17.21-2.5,22.3-3.35a11.17,11.17,0,0,1,3.6-.32c1.22.16,2.14.57,2.57.12s.14-1.06,0-1.4c-.45-1.76,0-3.63,0-5.45C173.94,138.87,174,136,173.48,135.92Z"/><path class="cls-3" d="M289.77,93.65c-.09,1.11-2,2.59-5.71,5.49-4.67,3.62-5.32,3.44-6.68,5.28-2.29,3.1-2,5.69-3.66,6-1.33.27-1.76-1.31-4.53-2.26-2.92-1-4.12.18-5.6-.86-1.19-.84-1.21-2.17-1.72-7.54-.62-6.52-1.14-7.47-.54-9.8a9.28,9.28,0,0,1,2.45-4.9c3.81-3.51,10.88-1.12,14.35.06C279,85.44,290.09,89.29,289.77,93.65Z"/><path class="cls-3" d="M230.74,100.65c1.8.31,1.52,4,3.77,9.69,2.82,7.14,6.33,9.16,5.17,11.85-.5,1.17-1.2.86-6.57,4.2-2.54,1.58-3,2-5.71,3.66-5.33,3.21-6.21,3.06-6.68,2.91-.77-.27-1.25-.87-3.33-6.36-1.8-4.72-2.51-7.08-2.81-8.07-1.92-6.51-1.57-7.49-1.18-8.08.69-1,1.45-.78,5.17-2.26a33.41,33.41,0,0,0,6.89-3.45C229.06,102.28,229.45,100.43,230.74,100.65Z"/><path class="cls-3" d="M308.22,144.24c.39.69.26,2.76,0,6.85a75.11,75.11,0,0,1-1.31,10.49c-.9,4.47-1.44,5-1.9,5.24-1.72,1-3.63-.83-8.3-2.76-7.38-3.06-10.56-1.79-11.81-4.37-.85-1.76.57-2.43,1.56-8.44.89-5.41.16-7.41,1.87-9,.52-.48,1.5-1.15,5.9-1.2C300.5,141,306.31,140.86,308.22,144.24Z"/><path class="cls-3" d="M259.69,187.22c-1.91.18-1.79,1.92-5,3.64-4.76,2.6-8.11.36-9.91,2.48-1.23,1.46-.3,3.28,1.61,10.93,2.41,9.67,2.17,11.79,4.22,12.82,1.36.67,4.37-.42,10.35-2.62,7.32-2.71,8.28-3.64,8.89-4.67,1.59-2.66.75-5.76-.15-9C268.17,195,263.92,186.81,259.69,187.22Z"/><path class="cls-3" d="M196.59,174c1.85,1.81.3,3.63,2,7,2.84,5.52,9.27,5,9.76,8.3.32,2.11-2.21,3.27-8.6,8.89-8.17,7.19-9.62,10.22-12.68,9.76-2.13-.32-3.71-2.5-6.85-6.85a33.4,33.4,0,0,1-4.81-8.89c-1.56-4.48-2.69-7.72-1.31-10.92s4.74-4.69,8.6-6.27C185.33,173.92,193.23,170.69,196.59,174Z"/><path class="cls-3" d="M204.45,145.54c-.63.32-.58.55-3.55,5.38-2.33,3.81-2.66,4.17-2.56,5,.29,2.59,3.8,2.74,4.52,5.74.62,2.6-1.5,4.49-.73,5.26s3.2-.63,7.58-3.05c9.31-5.17,10.76-5.84,10.89-7.46.15-2-1.76-3.49-5-6.12C212.61,147.92,207.67,143.94,204.45,145.54Z"/><path class="cls-3" d="M151.83,114.78c1,1.61.22,2.73,0,7.35-.26,5.27.6,6.75-.61,7.81-1,.9-2,.17-6.44.16-4.83,0-5.59.84-6.74,0-1.76-1.28-.71-3.75-1.23-10.27s-1.93-8.4-.61-9.65,4.54-.31,10.73,1.84C150.58,113.29,151.35,114,151.83,114.78Z"/><path class="cls-3" d="M198.7,114.61a2.48,2.48,0,0,1,.44.72c.54,1.41-.36,3.29-.56,9.92-.23,7.73.87,10-1,11.73-.95.88-3.49.87-8.56.86a46.43,46.43,0,0,1-9.66-1.1c-2.78-.53-4.18-.81-4.81-1.35-2.16-1.84-1-4.28-2.49-10.87-1-4.47-1.93-5.2-1.27-6.61.89-1.89,3.22-2,11-3.18C192.38,113.13,196.73,112,198.7,114.61Z"/><path class="cls-4" d="M146.93,112c.56.44,1.72,1.57,1.91,8.24,0,.61.23,9.62-1.61,9.93-.36.06-.53-.25-1.55-.41-1.28-.19-1.7.19-2.11,0-1.3-.55.64-5.17.11-10.58-.43-4.45-2.26-6.62-1.11-7.73C143.49,110.61,145.62,111,146.93,112Z"/><path class="cls-3" d="M156.58,88c1.07,2.41-4.72,4.54-6.44,11.65-1.48,6.13,1.6,9.57-.7,11.85-1.83,1.83-4.31.11-12-.07-8.37-.21-11.61,1.66-13.38-.48-1.39-1.67,0-3.48.38-8.85.54-9-3-12.08-.92-14.71,1.81-2.26,4.94-.93,15.63-.61C150.78,87.08,155.6,85.75,156.58,88Z"/><path class="cls-3" d="M162.86,136.23c2.49,1.44,2.87,4.87,3.38,9.34.43,3.89.92,8.21-1.38,9.81-1.44,1-2.44-.11-6,.15-5.51.41-7.42,3.41-9.35,2.3-1.48-.85-.76-2.85-1.69-8.73-1-6.66-2.63-8.29-1.37-10.12.35-.51,1-1.1,8.27-2.29C161.42,135.59,162.24,135.86,162.86,136.23Z"/><path class="cls-3" d="M114.59,145.57c1.41,1.74.23,3.49-.16,9.81-.47,7.63,1,9.34-.61,11s-3.89.86-13.64-.31c-10.21-1.22-13.15-1-14-2.91s1.46-3,4.6-9.19c3.63-7.1,3-10,5.83-11.34,1.31-.62,1.74-.14,9,.92C112.53,144.57,113.61,144.37,114.59,145.57Z"/><path class="cls-3" d="M84.5,119.61c-.59.74-1.15.88-1.64,1.91-1.41,2.94,1.08,6.1.31,6.74s-3.78-3.71-8.58-5.21c-6.82-2.13-12,3.39-14.72.92-1.71-1.55-1-4.9.16-10a27.6,27.6,0,0,1,5-11.65c2.35-3,4.87-6.26,8.13-6.12s5.47,3.76,8.12,8.27C82.05,105.74,87.79,115.5,84.5,119.61Z"/><path class="cls-3" d="M112.34,178.11c.15.65.18,1.73-3.27,6.38-4.06,5.47-6.08,8.2-8.58,8.42s-4.63-1.58-7.51-4.13c-2.7-2.4-6.2-5.54-5.83-9.19.17-1.63,1-2.18,5.52-7,6.14-6.44,7.28-8.18,8.73-7.78,1.93.54.85,4,3.95,7.6S111.73,175.56,112.34,178.11Z"/><path class="cls-3" d="M149.22,202.57c-2.91-.85-5.65.43-7.35,1.22-.61.28-7.27,3.5-7.82,8.89-.16,1.55.4,2.12,5.06,10.88,2.69,5.05,2.85,5.5,2.94,6.33.48,4.35-2.63,5.23-3.22,11-.33,3.1.32,5.42,1.37,9.17,1.19,4.24,2.17,4.87,2.74,5.1,1.69.7,3.69-.47,5.35-1.45a17.68,17.68,0,0,0,4.46-3.91c3-3.38,4.53-5.06,5-6.37,1.53-4.67-2.43-7-1-13.11.54-2.38,1.17-2.1,1.75-4.68,1-4.31-.17-8-1.08-10.78C155.57,209.34,153.79,203.89,149.22,202.57Z"/><path class="cls-4" d="M210.6,221c.77,1.29-3.8,6.21-5.62,5.38-.42-.19-.45-.57-1.29-1.14-1.07-.7-1.75-.58-1.85-.95-.13-.53,1.31-.92,2.81-2.34,1.69-1.59,2.08-3.16,2.86-3,.39.06.36.46,1.06,1C209.58,220.77,210.33,220.51,210.6,221Z"/><path class="cls-4" d="M278.19,86.37c1.07,2.17-5.92,4.94-6.88,11.2a32.62,32.62,0,0,0-.53,7c.11,1.25.34,2.41-.32,2.94s-2.44.22-3.35-.67c-1.31-1.29-.75-3.36.71-10,1.81-8.23,2.23-10.89,4.3-11.63a6.45,6.45,0,0,1,3.5-.06C276.66,85.32,277.81,85.61,278.19,86.37Z"/><path class="cls-4" d="M287.25,146.81c.49-1.8,8.12-1.82,15.43.53,3.26,1,5.32,2.2,5.54,3.75a17.68,17.68,0,0,1-.45,3.1c-.35,2.3-.28,2.46-.49,2.62-1.21.93-4.31-3.93-9.76-5.49-5.18-1.5-10.65.51-10.94-.58-.09-.35.48-.6.73-1.68S287.1,147.33,287.25,146.81Z"/><path class="cls-4" d="M256.61,190c2.54.59,3.57,3.74,5.24,9.13,1.95,6.29,2.85,12.93.82,14,0,0-.77.3-2.28.86-1.9.71-2,.73-2.09.7-1.46-.39.2-5.85-1.27-11.43-1.7-6.45-6.43-8.69-5.18-11.36C252.58,190.4,254.91,189.64,256.61,190Z"/><path class="cls-4" d="M216.34,150.92c1.43,2.62-12,13.21-13.37,11.85-.3-.29.07-1.05-.56-2.18-.47-.84-1-.86-1.16-1.31-.33-1.08,2.25-2.35,4.57-4.37,4-3.48,5.05-7.28,6.79-6.89a9.77,9.77,0,0,1,1.6,1.13A10.92,10.92,0,0,1,216.34,150.92Z"/><path class="cls-4" d="M223.49,106c2.17-.19,4.36,6.13,6,10.87,2.66,7.82,2.41,10.07,1.34,11-.21.19-.22.12-2.54,1.64-2.12,1.4-2.25,1.55-2.49,1.49-1.44-.36.52-6.15-1.43-12s-6.87-9.32-5.77-10.77c.33-.44.87-.24,3.07-1.3C223.08,106.2,223.1,106,223.49,106Z"/><path class="cls-4" d="M199.86,182.78c-.13-.47-.61-.6-1.23-1.82-.73-1.42-.53-2.13-.83-2.46-1.92-2.11-23.16,13.07-21.18,17.24.17.36.51.64,1.61,2.3,1.59,2.4,1.57,2.88,2,3,1.59.51,3.29-4.62,7.56-8.93C193.15,186.74,200.4,184.74,199.86,182.78Z"/><path class="cls-4" d="M158.94,136.42c1.38.29,1.55,4.15,1.94,8.68.5,5.68,1.16,10.28-.28,10.84-.18.07-.23,0-1.78.22s-1.6.28-1.76.23c-1.26-.42.09-5-.49-10.15-.55-4.8-2.59-8.61-1.4-9.35a9.92,9.92,0,0,1,1.87-.25A11.58,11.58,0,0,1,158.94,136.42Z"/><path class="cls-4" d="M199.11,123.28c-.74-1-3.12.17-6.06.65a8.69,8.69,0,0,1-1.14.12,41.58,41.58,0,0,1-9.35-1c-2.09-.41-9.48-1.85-10.31,0a6.11,6.11,0,0,0,.27,2.5,7.49,7.49,0,0,0,.56,2.13c1,1.39,3.89.46,8.17.75a12.66,12.66,0,0,1,2.17.3A30.3,30.3,0,0,0,188.6,130c2.42.35,9.26,1.33,10.36-1,.15-.31,0-.29.13-2.6S199.37,123.63,199.11,123.28Z"/><path class="cls-4" d="M143.6,86.93c1.32,1.25-1.88,4.72-3,10.15-1.5,7.49,2,14.09.16,14.91-.69.3-1.27-.59-3.4-.6-1.87,0-2.34.66-3.07.42-1.62-.52-1.69-4.53-1.4-13s.62-11.41,2.36-12.13c.57-.23.68,0,3.82.07C142.67,86.8,143.15,86.51,143.6,86.93Z"/><path class="cls-4" d="M84.5,119.61c0-.83-.23-3.43-8.65-8.83-6.57-4.22-10.21-6.56-12.95-5.06-2.5,1.36-3.59,5.55-2.49,6.64.59.58,1.64.1,3.15-.07,3.42-.39,6.16,1.15,8.77,2.62,6.52,3.66,7.74,9.28,10.09,8.67C83.75,123.24,84.51,121.16,84.5,119.61Z"/><path class="cls-4" d="M107.82,143.88c1.53.74.07,5.78-.73,11.79-.9,6.74-.42,10.6-2.4,11.34-.35.13-.41,0-3.78-.32-3.06-.31-3.24-.25-3.49-.5-1.32-1.31,2-4.87,3.6-10.94s.88-11.66,2.6-12a15.82,15.82,0,0,1,2.08.32A15.9,15.9,0,0,1,107.82,143.88Z"/><path class="cls-4" d="M106.66,174.05c.64,1.69-2.45,3.53-5.43,7.21-3.89,4.81-4.44,8.86-6.34,8.69-.34,0-.4-.16-2.88-2.42s-2.55-2.25-2.69-2.63c-.51-1.39.68-3.05,4.78-7.44,7.11-7.58,8.72-8.11,9.46-7.69.29.17.19.34.91,1.47C105.68,173.13,106.4,173.35,106.66,174.05Z"/><path class="cls-4" d="M158.63,224.5c-1.19,1.61-4.73-1.25-9.07-.15s-6.07,5.26-7.8,4.43c-.7-.33-.47-1.05-1.91-3.82-1.21-2.33-1.66-2.38-1.61-3,.18-2.78,8.46-4.15,11.74-4.69,6.65-1.1,7.87,0,8.26.65a7.56,7.56,0,0,1,.49,2.89C158.9,222.94,159,224,158.63,224.5Z"/><path class="cls-7" d="M163.35,99.57c.12-.63-14.67-5.3-32.44-6.83a133.93,133.93,0,0,0-41.18,3.6c-6.83,1.7-12.5,3.72-16.89,8.73-4.81,5.49-6.45,12.71-5.69,13.09s3.06-6.5,8.92-12.14c9.93-9.57,24.29-10,38.71-10.44,8.68-.26,15.79.47,29.79,1.9C157,98.75,163.28,100,163.35,99.57Z"/><path class="cls-7" d="M127.87,151.35c-.18-.88-14.37,4.91-31.88,0-12.62-3.53-20-10.69-20.49-10S83.25,151.88,96,155.53C112.38,160.23,128.06,152.29,127.87,151.35Z"/><path class="cls-7" d="M291,127.84a30.46,30.46,0,0,0-9.42-16.67c-1.17-1.08-11.52-10.28-22.87-7.8-9,2-13.82,10.25-14.8,9.41-.77-.67,1.58-6.43,6.47-9.91,6.82-4.85,16.67-3.93,23.45-.49C287.57,109.38,290.85,127.9,291,127.84Z"/><path class="cls-7" d="M187.81,102.91c.7-.23,4.84,7.1,6.58,16.44.39,2.08,1,6.33-.06,21.17-1.09,14.58-2.08,15.27-1.91,22.9.21,9.42.28,15.65,4.6,21,3.34,4.17,7.82,6.19,14,9,9.68,4.36,15.88,4.69,15.79,5.26-.13.83-13.2,1.81-25-5.26-2.81-1.68-6.16-3.69-8.86-7.68s-3.62-8.07-3.86-18.84c-.17-7.4.14-12.16,1-26.41.85-14.63.93-16.82.57-20.73C189.72,109.54,187.17,103.12,187.81,102.91Z"/><path class="cls-7" d="M109.62,180c.43-.46,4.48,4.05,12.59,8.4,8.6,4.61,10.93,3.22,17,7.55a28.89,28.89,0,0,1,9.74,11.25c3.34,7.09,3,14.72,2,14.94-1.37.3-1.29-13.62-11.25-21.49-6.09-4.8-9.89-2.57-18.64-8.56C113.67,187,109.13,180.51,109.62,180Z"/><path class="cls-7" d="M287.1,164.8c-.6-.28-2.56,5.11-8.43,12.13-6.29,7.5-11.73,10.49-11.34,11.07s8.18-2.09,13.71-8.7C286.38,172.91,287.8,165.12,287.1,164.8Z"/><path class="cls-7" d="M135.28,148.8c-.22-.64,6.89-4.75,15.87-6.12,9.45-1.43,17.79.65,17.76,1.36s-6.74,0-18.24,1.73C140.76,147.28,135.47,149.34,135.28,148.8Z"/><rect class="cls-8" x="21.31" y="14.03" width="12.2" height="263.02"/><rect class="cls-8" x="335.82" y="14.03" width="12.2" height="263.02"/><rect class="cls-8" x="72.42" y="14.03" width="5.81" height="258.95"/><rect class="cls-8" x="114.82" y="14.03" width="5.81" height="258.95"/><rect class="cls-8" x="161.07" y="14.03" width="5.81" height="258.95"/><rect class="cls-8" x="204.12" y="14.03" width="5.81" height="258.95"/><rect class="cls-8" x="248.44" y="14.03" width="5.81" height="258.95"/><rect class="cls-8" x="292.13" y="14.03" width="5.81" height="258.95"/><rect class="cls-8" width="366" height="22.36" rx="2.47"/><rect class="cls-8" y="268.64" width="366" height="22.36" rx="2.47"/></g></g></svg>