<svg xmlns="http://www.w3.org/2000/svg" viewBox="0 0 267 163"><defs><style>.cls-1{fill:#2c2d2b;}.cls-2{fill:#ffd500;}.cls-3{fill:#0e101a;}.cls-4{fill:#fff;}.cls-5{fill:#7f8382;}</style></defs><g id="Capa_2" data-name="Capa 2"><g id="Capa_1-2" data-name="Capa 1"><path class="cls-1" d="M89.74,86.38c.31.18-.26,2.32-1.62,4-.51.62-1.35,1.47-4.54,3-2.48,1.23-2.91,1.18-5.75,2.46a37.08,37.08,0,0,0-5.69,3A14,14,0,0,0,68,102.45,11.71,11.71,0,0,0,66,107a17.73,17.73,0,0,0,1.88,12,18.34,18.34,0,0,0,4,5,20.22,20.22,0,0,0,11,4.63,31.82,31.82,0,0,0,6.25,0,48.12,48.12,0,0,0,10.13-1.32c3.59-.92,4.22-1.67,13.5-5.46a25.37,25.37,0,0,1,4.61-1.85c.27,0,1.16-.21,1.28-.69s-.21-.74-.36-1c-.31-.42-.51-.42-.66-.72a1.47,1.47,0,0,1,.09-1.17c.34-.9.84-1.16,1.34-1.83a7,7,0,0,0,1-3.06c.12-.63,0-.34.28-2.57s.37-2.73-.06-3.4a5.51,5.51,0,0,1-.63-.85,3.59,3.59,0,0,1-.39-1.69,3.82,3.82,0,0,1,.39-2,6.48,6.48,0,0,1,1.52-1.57c.82-.72,1.08-.82,1.24-1.27a4.9,4.9,0,0,0,0-1.39c0-.75-.09-.92-.08-1.49s0-1,.21-1.25c.32-.44,1-.63,1.2-.43s-.07.47-.1,1.28a2.6,2.6,0,0,0,.22,1.31,1.7,1.7,0,0,0,1,.92,1.59,1.59,0,0,0,1,0,3,3,0,0,0,1.17-.68c.71-.58.67-.76,1.24-1.25a6.63,6.63,0,0,1,1.59-1,4.61,4.61,0,0,1,1.7-.62c.25,0,1.2-.11,1.39.32s-.12.74-.46,1-.54.09-1.38.15a3.36,3.36,0,0,0-1.1.15c-.41.16-.46.37-1.38,1.5-.57.69-.73.83-.71,1.1s.41.66.79.92a4.86,4.86,0,0,0,2.21.78,5.71,5.71,0,0,0,1.95,0,3.82,3.82,0,0,0,1.31-.44c.74-.41.89-.88,1.28-.82a.85.85,0,0,1,.61.82c0,.15-.08.4-.64.78a5.29,5.29,0,0,1-1.81.72c-1.12.31-.82.4-2.38.9l-2.16.69c-.39.06-.82.09-.92.36s.18.61.28.74.51.48,1.79,1a13,13,0,0,1,1.38.59c.48.25.66.38.68.57s-.23.57-.53.68-.51,0-1.42-.46c-1.08-.56-1.07-.64-1.75-1-.5-.23-.67-.26-1.17-.53a5,5,0,0,0-.75-.39c-.07,0-.91-.27-1.35.08s-.17.9-.17,2.56c0,1.25-.13,2.53-.13,2.53a5.1,5.1,0,0,0,0,2.1,4.32,4.32,0,0,0,.43,1,5.45,5.45,0,0,0,1,1.14c.35.35.44.39.53.39.33,0,.51-.48.82-.9a3.9,3.9,0,0,1,1.66-1.14c1.18-.6,2.31-2,3.89-3.93.54-.66,1.7-2.31,4-5.57,0,0,.84-1.2,2.44-3.53A24.49,24.49,0,0,0,142,94.93c.29-.63.59-1.47,1.2-3.14a23.68,23.68,0,0,1,.95-2.58,12.93,12.93,0,0,1,2-2.94c.35-.38.63-.65.81-.81,3.32-3.1,5.24-4.88,8-5.85a20.78,20.78,0,0,1,4.14-.88c2.08-.21,3.54,0,3.68-.52s-.75-1-1.22-1.31c-1.31-.89-1.94-.62-2.88-1.45a4.23,4.23,0,0,1-1.07-1.51,5,5,0,0,1-.36-2,3.5,3.5,0,0,1,.75-2.43c.15-.16.45-.41,2-.82,1.94-.49,2.13-.27,3.23-.67a11.28,11.28,0,0,0,2.47-1.42c1.51-1,1.77-1.48,1.89-1.79.2-.49.06-.64.33-1.22a4.92,4.92,0,0,1,1.13-1.43,11.13,11.13,0,0,1,1.25-1c.88-.69,1.06-.74,1.17-.68s.19.48.09.76-.54.42-1.05.84a3,3,0,0,0-1,1.56c0,.27-.21,1,.18,1.34s.65.21,1.13.16a3.62,3.62,0,0,0,1.55-.55,4.35,4.35,0,0,0,.87-.76c.59-.63.55-.86,1-1.14s1.19-.4,1.3-.21-.19.42-.71,1a8,8,0,0,1-1.12,1.13c-.6.48-.75.41-1.13.81-.23.23-.76.78-.62,1.26s.64.55,1,.66a6,6,0,0,0,2.68,0,4.92,4.92,0,0,1,2.09-.17c.45.1,1.07.35,1,.58,0,.39-1.89.54-2.09.55a17.63,17.63,0,0,1-2.05,0c-1.17-.05-1.5-.13-1.85.13a1.28,1.28,0,0,0-.45,1.27c.11.43.49.65.92.91a12.25,12.25,0,0,0,1.43.58c.64.29,1.14.52,1.14.8s-.61.56-1.13.63c-.72.09-1.13-.22-2.1-.58a11.54,11.54,0,0,0-2.18-.53,4.83,4.83,0,0,0-2.89,0,3.6,3.6,0,0,0-1.42,1.14c-.34.43-.57.73-.5,1s.76.48,2.15,1.13c1.19.56,1.19.78,1.82.9a4.31,4.31,0,0,0,2.33-.43,17.7,17.7,0,0,0,3.38-1.38,13.26,13.26,0,0,0,3-2.6c1.22-1.32,1.16-1.57,2.36-3a26,26,0,0,1,3.7-3.52,26.49,26.49,0,0,1,4-2.77,25.85,25.85,0,0,1,8.59-2.84,24.47,24.47,0,0,1,4.83-.35,11.78,11.78,0,0,1,3.18.53,4.32,4.32,0,0,1,1.67.82A4.09,4.09,0,0,1,207.87,62c.11.33.47,1.48.09,4.4a30.31,30.31,0,0,1-.67,3.37,20.51,20.51,0,0,1-1.11,3.61,13.32,13.32,0,0,1-2.11,3.48,14.1,14.1,0,0,1-5.18,3.67A21.67,21.67,0,0,1,194,82.16c-2.33.51-2.47.18-4.19.67a14.39,14.39,0,0,0-4.93,2.55c-2.06,1.65-1.33,2.06-3.45,3.7a31.34,31.34,0,0,0-3.63,3.27,3.15,3.15,0,0,0-.62,1.06,3,3,0,0,0,0,2c.32.68.87.71,2.15,1.41,1.64.89,1.53,1.27,3.61,2.46a9.41,9.41,0,0,0,2,.91,5.07,5.07,0,0,0,2.29.3,5.28,5.28,0,0,0,1.45-.43c.44-.21.45-.31.86-.48a3.89,3.89,0,0,1,1.53-.28c.69,0,1.09,0,1.43.24s.44.55.33.73-.59,0-1.56,0a2.08,2.08,0,0,0-1.47.4c-.17.16-.45.52-.34.78s.79.32,2.1.3c1.08,0,1.62,0,2.2-.09s.91-.16,1.26,0,.57.45,1,1,.67.95.53,1.12-.7-.08-.83-.14a4.45,4.45,0,0,1-.93-.64c-.46-.29-.71-.07-2.29,0-1.12,0-1.43,0-1.92.24s-.74.57-.67.78.44.14,1.43.22a8.67,8.67,0,0,1,1.48.19,3.4,3.4,0,0,1,1.67.74,2.9,2.9,0,0,1,.76,1.17c.17.51.25,1.22,0,1.32s-.42-.21-.73-.53c-.47-.49-.46-.66-.73-.92a2.73,2.73,0,0,0-1.79-.61c-.72,0-.74.16-1.53.1a3.6,3.6,0,0,1-1.32-.31,5,5,0,0,0-1-.52c-.25-.07-.65-.18-.81,0s0,.78.26,1.15c.49.73,1.08.64,1.45,1.36a1.72,1.72,0,0,1,.2.89c0,.69-.44,1.33-.63,1.29s0-.58-.32-1.17a2.55,2.55,0,0,0-1.2-1,11.83,11.83,0,0,1-1.93-1.67c-1.19-1-1.76-1.13-5.4-3.3-2.34-1.4-2-1.27-2.88-1.75a37.37,37.37,0,0,1-3.58-2,3.12,3.12,0,0,1-1.21-1.14,5.5,5.5,0,0,1-.4-2c-.1-1.11,0-1.24-.17-1.4-.66-.65-3.11.79-4,1.34a21.74,21.74,0,0,0-3.92,2.92,25.29,25.29,0,0,0-3.84,4.6c-1.71,2.59-1.55,3.24-3.1,6a36.14,36.14,0,0,1-5.2,7.12c-2.64,2.87-4,4.31-6.11,5.37l-7,3.42a1,1,0,0,0-.47.26c-.4.43-.22,1.12-.15,1.88a19.94,19.94,0,0,1-.08,2.24,22.34,22.34,0,0,1-.53,3.12c-.43,2.46-.64,3.68-.16,4.51a4.53,4.53,0,0,0,2.55,1.71,7.6,7.6,0,0,0,2.35.41,11.67,11.67,0,0,0,2.93-.19c.62-.12,1.35-.32,1.91-.46a8.12,8.12,0,0,1,1.66-.37,3,3,0,0,1,1.6.14c.05,0,1.14.51,1.12,1.24,0,.25-.15.56-.36.6s-.41-.39-.85-.69a2.51,2.51,0,0,0-1.87-.17c-.88.15-.77.41-2.08.79-1,.3-1.57.43-1.57.43-.7.17-.86.18-.91.31-.19.53,2,1.83,2.28,2a15.55,15.55,0,0,1,2.33,1.44,4.42,4.42,0,0,1,1,1.11,2.05,2.05,0,0,1,.46,1.33c-.06.52-.42,1-.66,1s-.19-.45-.46-1a4.25,4.25,0,0,0-1.09-1.33,11.39,11.39,0,0,0-1.88-1.44,7.77,7.77,0,0,0-2.21-1.14c-.54-.17-1.68-.51-2-.05-.23.3,0,.88.1,1.24s.35.55.52,1a2.74,2.74,0,0,1,.07,1.54c-.19.72-.74,1.57-1.18,1.49a.71.71,0,0,1-.45-.72c0-.35.34-.41.51-.79a2.07,2.07,0,0,0-.34-1.63,3,3,0,0,0-2.49-1.9,7.24,7.24,0,0,1-3.54-2.22,7.7,7.7,0,0,1-1.58-2.84,17.45,17.45,0,0,1-.77-3.23,5.9,5.9,0,0,0-.62-2.42,2.57,2.57,0,0,0-.94-1.05c-.87-.49-1.9-.06-2.8.23-1.67.54-.43-.17-4.63.83-4,.95-6.57,1.94-9.26,2.66-1.32.35-4,.7-9.42,1.39-10.94,1.39-12.87,1.37-14.06,1.33a50.38,50.38,0,0,1-9.13-1.15c-4-.85-6.75-1.43-10-3.33a19.53,19.53,0,0,1-6.31-5.59A21.16,21.16,0,0,1,62,121a30.25,30.25,0,0,1-1.62-11.89,15.8,15.8,0,0,1,1.54-6.58,14.81,14.81,0,0,1,3.47-4.4,16.93,16.93,0,0,1,6.28-3.62c1.38-.42,1.41-.21,4.79-1a42.38,42.38,0,0,0,4.21-1.06,18.4,18.4,0,0,0,6.71-3.79C88.89,87.34,89.49,86.24,89.74,86.38Z"/><path class="cls-2" d="M82.14,91.89c0,.26,1.35.34,2.45-.06a4,4,0,0,0,1.54-1c.53-.58,1-1.44.8-1.59s-.72.4-1.94,1.14C83.18,91.47,82.09,91.65,82.14,91.89Z"/><path class="cls-2" d="M69.61,98.26c.38.31,1.38-.05,3.35-.79a4.44,4.44,0,0,0,1.54-.83c.35-.31,1-1,.85-1.41-.06-.11-.23-.23-2.53.06a6.47,6.47,0,0,0-2.36.56,1.91,1.91,0,0,0-1.13,1A1.37,1.37,0,0,0,69.61,98.26Z"/><path class="cls-2" d="M64.2,104.5c.58,0,1-.66,1.31-1.1a4.1,4.1,0,0,0,.58-1.72c.07-.69.17-1.53-.28-1.82s-1.37.21-1.77.55a2.8,2.8,0,0,0-.81,1.32,2.56,2.56,0,0,0,.1,2.09C63.43,104,63.73,104.47,64.2,104.5Z"/><path class="cls-2" d="M61.48,115.82c.28,0,.62-.65,1.31-2a14.9,14.9,0,0,0,.76-1.82c.43-1.16.43-1.42.31-1.63a1.27,1.27,0,0,0-1.18-.5,1.86,1.86,0,0,0-1.31.92,3.51,3.51,0,0,0-.49,2.13C60.87,113.78,61,115.75,61.48,115.82Z"/><path class="cls-2" d="M66.65,116.7c-.32.35-1.42.09-1.81-.54-.2-.31-.07-.48-.1-1.63s-.16-1.29,0-1.77c.2-.63.7-1.22,1-1.14s0,.83.19,2C66.1,115.52,67,116.32,66.65,116.7Z"/><path class="cls-2" d="M67.42,125.41c-.39,0-.71-.31-1.37-1s-1-1.06-.91-1.45.2-.35,1.08-1.19.94-1,1.18-1c.55.06.84,1.16,1,1.59a3,3,0,0,1,0,1.95C68.27,124.56,68,125.35,67.42,125.41Z"/><path class="cls-2" d="M75.71,128.11a1.41,1.41,0,0,0-.4,1.14c.06.52.39.55.48,1.11,0,.3-.05.32-.13,1.07a2.59,2.59,0,0,0,0,1c.23.63,1.14.84,1.58.94a4.39,4.39,0,0,0,1.74,0,3.66,3.66,0,0,0,2-.78,1.79,1.79,0,0,0,.7-1.11c0-.53-.44-1-1.42-2a5.66,5.66,0,0,0-1.68-1.37,3.6,3.6,0,0,0-1.51-.36A1.77,1.77,0,0,0,75.71,128.11Z"/><path class="cls-2" d="M87,131.18c0-.47.54-.88,1.13-1.28a7.5,7.5,0,0,1,2.78-1.15c1.18-.23,2.2-.43,3,.18a1.85,1.85,0,0,1,.71,1.24c.06,1.05-1.13,1.86-1.87,2.16a5.42,5.42,0,0,1-2.24.21,6,6,0,0,1-2.18-.36C87.8,132,87.07,131.67,87,131.18Z"/><path class="cls-2" d="M100.63,132.63a1.79,1.79,0,0,1,0-1.51,4.22,4.22,0,0,1,2.67-2.16,5.25,5.25,0,0,1,2.55-.38,5.6,5.6,0,0,1,2.72,1.16c.58.42.88.63.87.94s-.29.53-2.3,1.45a13.55,13.55,0,0,1-2.55,1,6.35,6.35,0,0,1-2.31.14C101.59,133.2,100.94,133.12,100.63,132.63Z"/><path class="cls-2" d="M117.6,126.72c-.58-.31-.51-.68-1.28-1.41-.56-.53-.71-.45-1-.83a2,2,0,0,1-.27-1.75c.37-.86,1.61-1,2.37-1.12s.92.09,2,0a5.85,5.85,0,0,0,2.61-.58,18.71,18.71,0,0,0,1.57-1.25c1.18-.92,1.42-1,1.7-1a2.15,2.15,0,0,1,1.58,1,2.54,2.54,0,0,1,0,2.82,2.85,2.85,0,0,1-1.77,1c-1.1.24-1.48-.21-2.38.18a5.54,5.54,0,0,0-1.2.84c-.1.08-.35.29-1.14,1-1.06,1-1.19,1.17-1.57,1.25A2,2,0,0,1,117.6,126.72Z"/><path class="cls-2" d="M120.63,115.86a1,1,0,0,1,0-.77,2.22,2.22,0,0,1,.67-1c.07-.07,1.39-1.28,2.34-.79a1,1,0,0,1,.54.71c0,.09,0,.36-.9,1.21a3.4,3.4,0,0,1-1.24.91C121.61,116.21,120.88,116.25,120.63,115.86Z"/><path class="cls-2" d="M133.14,115.76a1,1,0,0,1-.46-.6,1.17,1.17,0,0,1,.56-1c.57-.39,1-.06,2.27-.12a3.75,3.75,0,0,0,2.26-.61c.45-.37.38-.6.82-.84a2.4,2.4,0,0,1,1.92,0c.39.15,1.11.41,1.22.94.15.76-1,1.54-1.43,1.82a9.31,9.31,0,0,1-2.41,1c-1.95.65-2.12.67-2.41.65A4.56,4.56,0,0,1,133.14,115.76Z"/><path class="cls-2" d="M138,106.94a1.77,1.77,0,0,1-.49-1.4c.07-.48.39-.76.93-1.25a3.25,3.25,0,0,1,1.58-1,2.08,2.08,0,0,1,1.89.49,2,2,0,0,1,.31,1.66,2.39,2.39,0,0,1-.94,1.59,2.47,2.47,0,0,1-1.65.38A2.26,2.26,0,0,1,138,106.94Z"/><path class="cls-2" d="M146.5,111.28a1.64,1.64,0,0,1,.07-1.62c.22-.37.41-.34,1.13-.91s.75-.82,1.31-1.18a3.31,3.31,0,0,1,1.7-.57,2.34,2.34,0,0,1,2,.74c.56.83,0,2.05-.44,2.88a4.18,4.18,0,0,1-.71,1.06,2.9,2.9,0,0,1-1.43.91,5.54,5.54,0,0,1-2.38-.63C146.8,111.61,146.63,111.49,146.5,111.28Z"/><path class="cls-2" d="M131.26,127.4A1.92,1.92,0,0,1,131,126c.16-.6.67-.89,1.62-1.44s1.4-.82,2-.77a2.6,2.6,0,0,1,1.78,1.09,2.11,2.11,0,0,1,.5,1.55,2.41,2.41,0,0,1-1.2,1.44,3.43,3.43,0,0,1-2,.76A3,3,0,0,1,131.26,127.4Z"/><path class="cls-2" d="M122.83,105.31a1.58,1.58,0,0,1-1.58-.41,1.41,1.41,0,0,1,.59-2.46,1.73,1.73,0,0,1,1.59.52,1.54,1.54,0,0,1,.42,1.1A1.51,1.51,0,0,1,122.83,105.31Z"/><path class="cls-2" d="M126,100.8a1.32,1.32,0,0,1-.57-.53c-.11-.21-.27-.64-.08-.9s1.13-.16,1.51,0c.57.23,1.31.77,1.21,1.17S126.79,101.19,126,100.8Z"/><path class="cls-2" d="M143.7,100.42a1.9,1.9,0,0,1-.64-1.32,2.39,2.39,0,0,1,.67-2,2.25,2.25,0,0,1,1.5-.61,1.85,1.85,0,0,1,1.55.56c.45.61.1,1.48-.1,2s-.59,1.48-1.54,1.7A1.77,1.77,0,0,1,143.7,100.42Z"/><path class="cls-2" d="M153.31,99.21c-.12,0-.28-.08-1.17-1.09a7,7,0,0,1-1.1-1.4,2.6,2.6,0,0,1,0-2.22,1.81,1.81,0,0,1,1.24-1c.45-.05.62.22,1.93,1.08,1.14.76,1.31.76,1.48,1.09.45.95-.36,2.13-.48,2.31S154.22,99.38,153.31,99.21Z"/><path class="cls-2" d="M158,92.39c-.83-.51-1.25-.77-1.48-1.17a2.41,2.41,0,0,1-.19-1.92,2.87,2.87,0,0,1,2.1-1.56,3.09,3.09,0,0,1,2.83.29,2.48,2.48,0,0,1,.8,1.7,3.26,3.26,0,0,1-.71,2c-.46.74-.83,1.33-1.46,1.44C159.46,93.28,159,93,158,92.39Z"/><path class="cls-2" d="M147.6,85.15c.22.56,1.2.69,1.58.74a2.5,2.5,0,0,0,1.93-.38,2.8,2.8,0,0,0,.82-1.63c.26-1,0-1.55.44-1.93s.61-.13.9-.45.42-1,.19-1.21c-.5-.47-2.6,1-3.69,1.9C148.85,83,147.26,84.29,147.6,85.15Z"/><path class="cls-2" d="M164.91,86.09a2.27,2.27,0,0,1-.53-1.13,1.75,1.75,0,0,1,.48-1.63c.44-.28.74.12,1.58,0,.3-.06.34-.12,1.55-.76s1.35-.68,1.54-.69a2.4,2.4,0,0,1,1.62.56,2,2,0,0,1,.54,2.71c-.23.35-.51.5-1.95,1a13.26,13.26,0,0,1-2.22.73A3.2,3.2,0,0,1,164.91,86.09Z"/><path class="cls-2" d="M136.76,132.55c-.31-.26-1,0-1.44.42a2.09,2.09,0,0,0-.17,2.3c.39.82,1.3,1.4,1.58,1.2s0-.53-.08-1.47C136.58,133.52,137.1,132.84,136.76,132.55Z"/><path class="cls-2" d="M138.82,139.71c-.26.17-.3.85.05,1.25a1.21,1.21,0,0,0,1.17.26c.48-.15.91-.61.82-.87s-.33-.13-1.09-.38S139,139.62,138.82,139.71Z"/><path class="cls-2" d="M177.27,96.76A1.34,1.34,0,0,0,176.13,98c0,.89,1,1.27,1.06,1.29a1.43,1.43,0,0,0,1.58-.29,1.42,1.42,0,0,0-.1-1.54A1.56,1.56,0,0,0,177.27,96.76Z"/><path class="cls-2" d="M184.06,101.83c-.05,0-.79.24-.81.62s.86.78,1.3.91c.78.23,1.92.25,2.06-.15s-.68-1.09-1.45-1.34A1.8,1.8,0,0,0,184.06,101.83Z"/><path class="cls-2" d="M178.23,85.76a2.77,2.77,0,0,1-1.68-.76,1.78,1.78,0,0,1-.49-1.68c.12-.3.3-.3.91-.82.89-.76.82-1,1.29-1.21a2,2,0,0,1,2,.33c.41.37.48.85.63,1.82.17,1.14.26,1.72-.09,2.11C180.24,86.17,179.09,85.93,178.23,85.76Z"/><path class="cls-2" d="M167.93,78.69a1.34,1.34,0,0,1-.48-1.29c.18-.55.93-.71,1.91-.92,1.25-.27,2.19-.47,3,.08.5.33,1.08,1,.91,1.53s-1,.57-2.68.78C168.59,79.13,168.17,78.9,167.93,78.69Z"/><path class="cls-2" d="M163.46,75.64c-.64.06-1.1-.67-1.16-.77a1.27,1.27,0,0,1-.19-1.1,1.23,1.23,0,0,1,1.24-.78,1.3,1.3,0,0,1,1.11,1.11A1.36,1.36,0,0,1,163.46,75.64Z"/><path class="cls-2" d="M162.38,70.55c-.8,0-1.2-.07-1.35-.33a1,1,0,0,1,.19-.91c.52-.68,1.64-.55,2.06-.49.07,0,1.58.2,1.64.76,0,.36-.58.69-.72.77A3.19,3.19,0,0,1,162.38,70.55Z"/><path class="cls-2" d="M168.85,68.65c-.33-.05-.58-.51-.58-.91,0,0,0-.63.43-.82a.85.85,0,0,1,1.05.47A1,1,0,0,1,168.85,68.65Z"/><path class="cls-2" d="M184.78,80.35a3.17,3.17,0,0,1-2-.57,1.63,1.63,0,0,1-.72-1.1c-.05-.8.84-1.38,1.09-1.54a4,4,0,0,1,3.12-.35,2.62,2.62,0,0,1,1.54.71,2,2,0,0,1,.54,2C187.93,80.47,186.13,80.4,184.78,80.35Z"/><path class="cls-2" d="M193.08,79.35a1.41,1.41,0,0,1-.54-1c0-.42.33-.6,1.34-1.45,1.32-1.11,1.43-1.33,1.91-1.4a1.8,1.8,0,0,1,1.59.47,1.9,1.9,0,0,1,.2,1.73,3.17,3.17,0,0,1-2,1.93A2.68,2.68,0,0,1,193.08,79.35Z"/><path class="cls-2" d="M194.86,70.94A3.81,3.81,0,0,1,193,70.8c-.76-.22-1.41-.4-1.59-1a1.47,1.47,0,0,1,.71-1.59c.31-.18.51-.12,1.68,0,1.66.16,2,.11,2.4.47a1.33,1.33,0,0,1,.49,1C196.62,70.58,195.05,70.9,194.86,70.94Z"/><path class="cls-2" d="M200.27,66.92a1.5,1.5,0,0,1-1.59-1.19,1.61,1.61,0,0,1,2.82-1.12A1.72,1.72,0,0,1,200.27,66.92Z"/><path class="cls-2" d="M192.92,66a2.34,2.34,0,0,1-1.29-.23,1.71,1.71,0,0,1-.92-1.58,1.74,1.74,0,0,1,.9-1.16,2.84,2.84,0,0,1,2.69-.2c.29.13,1.17.54,1.25,1.34a1.81,1.81,0,0,1-.85,1.49A2.79,2.79,0,0,1,192.92,66Z"/><path class="cls-2" d="M184.83,68.72a7.61,7.61,0,0,0,1.48-1.64c.43-.55.55-.73.52-1a1.11,1.11,0,0,0-.92-.81c-.56-.1-1,.29-1.81,1S183,67.2,183,67.72a1.32,1.32,0,0,0,.49,1.3C183.89,69.26,184.46,68.93,184.83,68.72Z"/><path class="cls-3" d="M192.09,58.36a3,3,0,0,0-1.83,1.5,2.86,2.86,0,0,0,.83,3.12,3.11,3.11,0,0,0,3.83.13,3,3,0,0,0,1.22-2.51,2.87,2.87,0,0,0-2-2.35A3.18,3.18,0,0,0,192.09,58.36Z"/><path class="cls-4" d="M192.57,58.83a.72.72,0,0,0-.69.66c0,.37.46.59.81.59s.68-.19.73-.48S193,58.79,192.57,58.83Z"/><path class="cls-3" d="M206.21,70.53a2.93,2.93,0,0,0-1-2.13,2.85,2.85,0,0,0-3.22.12,3.11,3.11,0,0,0-1,3.71A3,3,0,0,0,203.13,74a2.85,2.85,0,0,0,2.73-1.43A3,3,0,0,0,206.21,70.53Z"/><path class="cls-4" d="M205.65,70.89a.72.72,0,0,0-.49-.82c-.36-.06-.67.32-.75.66a.76.76,0,0,0,.31.82C205.06,71.7,205.58,71.35,205.65,70.89Z"/><rect class="cls-5" x="15.55" y="7.86" width="8.9" height="147.33"/><rect class="cls-5" x="244.98" y="7.86" width="8.9" height="147.33"/><rect class="cls-5" x="52.83" y="7.86" width="4.24" height="145.05"/><rect class="cls-5" x="83.76" y="7.86" width="4.24" height="145.05"/><rect class="cls-5" x="117.5" y="7.86" width="4.24" height="145.05"/><rect class="cls-5" x="148.9" y="7.86" width="4.24" height="145.05"/><rect class="cls-5" x="181.24" y="7.86" width="4.24" height="145.05"/><rect class="cls-5" x="213.11" y="7.86" width="4.24" height="145.05"/><rect class="cls-5" width="267" height="12.53" rx="2.47"/><rect class="cls-5" y="150.47" width="267" height="12.53" rx="2.47"/></g></g></svg>