<svg xmlns="http://www.w3.org/2000/svg" viewBox="0 0 148 41"><defs><style>.cls-1{fill:#c9c271;}.cls-2{fill:#d0c786;}.cls-3{fill:#ada16f;}.cls-4{fill:#9e986b;}.cls-5{fill:#acab87;isolation:isolate;opacity:0.72;}.cls-6{fill:#fbf5c7;}.cls-7{fill:#485949;}.cls-8{fill:#fff;}</style></defs><g id="Capa_2" data-name="Capa 2"><g id="Capa_1-2" data-name="Capa 1"><path class="cls-1" d="M118.94,34.22c-1.48.85-3.79,1.36-8.39,2.38s-6.79,1.06-13.15,2.06c-6.2,1-6.27,1.26-9.66,1.75a70.33,70.33,0,0,1-18.22,0A90.83,90.83,0,0,1,49,35.65c-3.64-1.31-7.65-3.14-15.66-6.83S25.48,25,21.89,23.58C14,20.54,10,19,6.38,18.5,3.58,18.1.48,18,0,16.44c-.14-.51,0-1.3,1.59-3A21,21,0,0,1,9.86,8.19c5.08-1.81,10-3.55,16.92-3.66,2.73,0,2.34.23,10,.48,3.76.13,6.39.21,8.86.16,4.9-.11,6.86-.73,15-2.06C65.82,2.26,71.4,1.36,78.24.72,84.68.13,87.89-.17,91.86.1c1.8.11,5.28.42,17.1,3.65C119.34,6.57,124.55,8,125.88,9.94,130.63,16.58,126.46,29.92,118.94,34.22Z"/><path class="cls-2" d="M115,13.44c0-2.84-9-5-12.32-5.76C93.84,5.59,87.23,6,68.05,7.41,49.47,8.79,49,8.91,45.34,8.92c-19.19,0-20,0-20,0A39.74,39.74,0,0,0,13,9.74c-4.42,1.07-9.4,3.19-9.18,4.36.13.73,2.22.75,6.18,1.22s8,1.46,12,2.11c24.7,3.95,26,4.76,34.08,5.48A134.39,134.39,0,0,0,95,20.72C101.16,19.57,115,17,115,13.44Z"/><path class="cls-3" d="M147.12,28.5c-1.09,1.95-2.67,2.44-9.4,5.26-8.08,3.42-7.74,3.55-9.36,3.85a22.07,22.07,0,0,1-11.91-1,19.93,19.93,0,0,1-7.66-4.85c-1.19-1.25-1.59-2.13-3-2.84-2-1-3.32-.38-6.52-.42-3.39-.05-3.54-.8-8.15-1.36a53.13,53.13,0,0,0-7.46-.29c-6.58,0-6.36-.46-16.67-.63C56,26,56,26.41,51.2,26a110.55,110.55,0,0,1-16.65-2.84C28.91,21.92,29,21.6,17.88,18.62,8.2,16,5.05,15.48,5.11,14.93c.15-1.29,17.49-.29,18.53-.23,10.49.63,11.12,1.38,22.66,2.07,9.1.55,13.79.81,20,0,3.36-.43,5-.89,9.25-1.18,5-.34,6.2.06,13.1-.17,1.53-.05,5.29-.18,10.09-.67,7.23-.73,9.58-1.49,10.59-1.85,3.7-1.31,4.32-2.43,7.06-3.71,6.33-2.95,14.49-2.3,20.68.84,1.73.89,8.66,4.4,10.42,11.46C147.85,22.89,148.6,25.85,147.12,28.5Z"/><path class="cls-4" d="M120.86,12.07c.14.31-5.79,1.56-7.52,6.13-1.52,4.05.66,9.65,4.51,12.45a12.93,12.93,0,0,0,7.66,2.23c3.13,0,3.87-.93,9.39-2,.42-.09,7.68-1.53,7.92-.71.17.57-3.13,2-7.49,3.91-5.79,2.52-8.7,3.77-10.41,3.94-.84.07-8.93.63-13.76-5.54-.43-.56-5.19-6.86-2.3-13.26C111.89,12.46,120.69,11.72,120.86,12.07Z"/><path class="cls-5" d="M130.26,15.53c.45.29,1.81,1.16,1.88,2.47.11,1.78-2.2,3.14-3.14,3.7-.42.26-6,3.5-8.73.79a4.83,4.83,0,0,1-1.15-2.34,4.72,4.72,0,0,1,.26-2.6C120.84,14.07,127,13.45,130.26,15.53Z"/><path class="cls-6" d="M138.59,23.74a4,4,0,0,1-4.22-3.81,4.24,4.24,0,0,1,8.44,0A4,4,0,0,1,138.59,23.74Z"/><path class="cls-7" d="M141.12,20.2A2.46,2.46,0,0,1,139,21.93a2.58,2.58,0,0,1-1.5-.18,2.66,2.66,0,0,1-1.14-1,2.45,2.45,0,0,1,.3-2.82,2.7,2.7,0,0,1,3.55.09,2.49,2.49,0,0,1,.73,1A2.46,2.46,0,0,1,141.12,20.2Z"/><path class="cls-8" d="M142,19.44a1.14,1.14,0,0,1-.3.35,1.07,1.07,0,0,1-.41.21,1.19,1.19,0,0,1-.46,0,1.11,1.11,0,0,1-.43-.15,1.18,1.18,0,0,1-.42-.44,1.14,1.14,0,0,1-.1-.6,1.33,1.33,0,0,1,.25-.41,1.05,1.05,0,0,1,.38-.27,1.16,1.16,0,0,1,.92,0,1.07,1.07,0,0,1,.57,1.27Z"/><path class="cls-8" d="M137.69,20.3a1.26,1.26,0,0,1,.09.54,1.42,1.42,0,0,1-.13.53,1.37,1.37,0,0,1-.33.43,1.16,1.16,0,0,1-.47.27,1.3,1.3,0,0,1-.91-.06,1.29,1.29,0,0,1-.65-.65,1.18,1.18,0,0,1-.12-.64,1.32,1.32,0,0,1,.22-.61A1.53,1.53,0,0,1,137.69,20.3Z"/></g></g></svg>