<svg xmlns="http://www.w3.org/2000/svg" viewBox="0 0 631 164.62"><defs><style>.cls-1{fill:#e9e1da;}</style></defs><g id="Capa_2" data-name="Capa 2"><g id="Capa_1-2" data-name="Capa 1"><path class="cls-1" d="M334.52,164.52c16,.76,44.94-2.77,102.86-9.83,42.77-5.22,56-7.78,71.87-12.65,27.15-8.33,26.48-12.55,49.31-18.27,41.39-10.37,64.31-1.71,70.89-14.65,5.75-11.27-6.23-28.43-8.08-31-4.92-6.88-11.1-11.33-22.66-17.2C569.22,46,557.33,48.82,534.46,37,516,27.4,521.75,24.49,503.61,15,472.79-1.26,442.63,0,432.15.57c-16.56.89-23.44,4.06-42.36,8.43a385.13,385.13,0,0,1-91.42,9.88c-61.09-1.36-66.66-24.29-116-17.69C161.09,4,161.54,8.37,125.7,14.42,87.44,20.89,80,17.13,57,24.64,44.84,28.57,2,42.59.07,67.24c-1.33,17,17.33,32,26.07,39C40,117.39,54,121.89,64.39,124.73c43.78,11.93,81.71,9.91,85.18,9.72,0,0,23.05-1.17,43.06-.72,19.39.43,37.09,9.67,57.34,16.7C283.29,162.05,311.08,163.39,334.52,164.52Z"/></g></g></svg>