<svg xmlns="http://www.w3.org/2000/svg" viewBox="0 0 529 183"><defs><style>.cls-1{fill:#b6eceb;fill-opacity:0.3;}</style></defs><g id="Capa_2" data-name="Capa 2"><g id="Capa_1-2" data-name="Capa 1"><path class="cls-1" d="M239.88,5.44c-.89,2.46-.85,7.62-5.45,12.87a30.48,30.48,0,0,1-12,7.55C197,34.64,52.2,25.86,46.7,41.44c-.19.54-.41,1.66.71,3.57a46.38,46.38,0,0,0,4.48,3.92c14.73,11.28,29.24,8.21,43.16,19.29,5.93,4.72,5.6,7.1,5.35,7.89-.94,3-7,4-9.92,4.53C83.16,81.8,41.82,88.19,18.75,94.8,2.44,99.43.2,102.7,0,104.85c-.47,5.39,11.06,10.65,13,11.52a48.15,48.15,0,0,0,15.61,4l92.13,11.45c7.37.9,15.2,2,20.83,6.34s7.55,13.14,1.83,17.4c-2.74,2-4.82,1.21-10.56,4.12-.47.24-9.85,5-9.16,8.86.73,4,13.2,5.53,16,5.87,74.76,8.64,100,7.68,100,7.68,52.79,1.84,90.3.41,123.89-.8,0,0,17.06,1.09,72.33-9.22,4.22-.79,13.45-2.61,15.09-7.75s-4.65-11.45-10.5-17.31c-8.21-8.23-15.53-11.67-15.62-18.45a6.05,6.05,0,0,1,.68-3.44c3.16-5.4,15.7-4.19,25.72-3.87,0,0,26.91.83,61.42-9.82,8.41-2.59,16.45-5.78,16.34-9.47s-7.68-7.09-8.12-7.29A22.54,22.54,0,0,0,515,92.9l-43.89-6.19c-3.77-.54-7.69-1.14-10.62-3.28s-4.32-6.35-1.89-8.94c1.58-1.67,4.14-2.16,6.6-2.57l51.29-8.62c5.18-.84,11.87-3.48,10.92-8.12-.5-2.42-3.53-4.24-5.58-5.22-28.5-13.61-61.7-13.07-61.7-13.07-6.31.1-17.84.61-19.18-3a3.41,3.41,0,0,1,.33-2.52c1.46-3.59,5.73-4,9.81-6.77,2.95-2,6.86-6,6.44-9-.84-5.71-17.37-8.22-21.79-8.85C387.37-.22,353.65.22,353.65.22,309.91.71,242.77-2.43,239.88,5.44Z"/></g></g></svg>