<svg xmlns="http://www.w3.org/2000/svg" viewBox="0 0 139 139"><defs><style>.cls-1{fill:#fe7754;fill-opacity:0.2;}.cls-2{fill:#ffcbbc;}.cls-3{fill:#f6ccbe;}.cls-4{fill:#87d7ef;}.cls-5{fill:#67bded;fill-opacity:0.5;}.cls-6{fill:#9be4fb;}</style></defs><g id="Capa_2" data-name="Capa 2"><g id="Capa_1-2" data-name="Capa 1"><circle class="cls-1" cx="69.5" cy="69.5" r="69.5"/><path class="cls-2" d="M99.65,76.89,73.16,19,48.94,73C45.27,79.56,41.69,86.2,42,93.73c.7,14.41,12.72,31,31.17,31s30.62-16.54,31.17-31C104.51,87.77,102.44,82.87,99.65,76.89Z"/><path class="cls-3" d="M85.18,56.39c-.87.38,3.41,8,4.93,20.44,1.12,9,2.75,22.27-5.3,30.27-5.3,5.28-12.66,6.14-14.81,6.39-9.59,1.12-16.62-3.24-17-2.37s6.07,6.32,14.82,7.66c6.77,1,16.6-.14,24.13-7.47a27.95,27.95,0,0,0,8.23-22.63c-.28-2.69-1.3-5.24-3.29-10.23C92.36,67.27,86.23,55.94,85.18,56.39Z"/><path class="cls-3" d="M72.54,29.43c-1.26-.28-2.56,9.29-9.64,23.19-3.63,7.15-6.25,10.46-8.11,17.92-1.48,5.95-1.85,11.92-1.14,12.07S55.54,74.38,61,63.38c5.06-10.15,8.75-12.14,11-20.94C73.58,36.12,73.57,29.65,72.54,29.43Z"/><path class="cls-4" d="M95.77,73.11,69.28,15.22l-24.22,54C41.4,75.78,37.81,82.42,38.14,90c.7,14.41,12.72,31,31.17,31s30.62-16.54,31.17-31C100.63,84,98.56,79.09,95.77,73.11Z"/><path class="cls-5" d="M81.3,52.61c-.87.37,3.41,8,4.94,20.44,1.11,9,2.74,22.27-5.31,30.27-5.3,5.28-12.66,6.14-14.81,6.39-9.59,1.12-16.62-3.25-17-2.37S55.23,113.66,64,115a28.58,28.58,0,0,0,24.13-7.48A27.91,27.91,0,0,0,96.33,84.9C96.05,82.21,95,79.65,93,74.67,88.49,63.49,82.36,52.16,81.3,52.61Z"/><path class="cls-6" d="M68.67,25.65C67.4,25.37,66.1,34.93,59,48.84,55.39,56,52.77,59.29,50.91,66.76c-1.47,5.95-1.85,11.92-1.14,12.07s1.89-8.23,7.38-19.23c5.06-10.15,8.75-12.14,11-20.94C69.7,32.34,69.69,25.87,68.67,25.65Z"/></g></g></svg>