<?xml version="1.0" encoding="utf-8"?>
<!-- Generator: Adobe Illustrator 24.0.0, SVG Export Plug-In . SVG Version: 6.00 Build 0)  -->
<svg version="1.1" id="Capa_1" xmlns="http://www.w3.org/2000/svg" xmlns:xlink="http://www.w3.org/1999/xlink" x="0px" y="0px"
	 viewBox="0 0 139 347.6" style="enable-background:new 0 0 139 347.6;" xml:space="preserve">
<style type="text/css">
	.st0{fill:#FE7754;fill-opacity:0.2;}
	.st1{opacity:0.16;}
	.st2{opacity:0.16;fill:#F6CCBE;enable-background:new    ;}
	.st3{fill:#F6CCBE;}
	.st4{fill:#FFCBBC;}
	.st5{opacity:0.16;fill:#53524F;enable-background:new    ;}
	.st6{fill:#A6A6A6;}
	.st7{fill:#C9C7C6;}
	.st8{fill:#909090;}
	.st9{fill:#53524F;}
	.st10{fill:#D3D0CD;}
	.st11{fill:#7D7C7A;}
	.st12{fill:#E4E1DD;}
	.st13{fill:#87D7EF;}
	.st14{fill:#67BDED;fill-opacity:0.5;}
	.st15{fill:#9BE4FB;}
</style>
<g id="Capa_2_1_">
	<g id="Capa_1-2">
		<circle class="st0" cx="69.5" cy="69.5" r="69.5"/>
		<g class="st1">
			<path class="st2" d="M47.4,78.1c0.8,0,1.6-0.4,2.4-0.3l0,0c1.3,0.1,1.8-1.3,2.9-1.6c-0.3,0.4-0.5,0.9-0.5,1.5
				c0.5,0.2,0.6-0.4,1-0.5c0.3-0.5,0.7-1,1.1-1.4c0.5-0.6,1.1-1.1,1.8-1.3l0,0h0.6c0.5,0,1,0,1.4-0.1c0.6,0,1.1,0.1,1.6,0.3
				c0.3,0.1,0.6,0.2,0.8,0.5c0.2,0.2,0.3,0.5,0.4,0.8c0.2,0.6,0.3,1.3,1.2,1.3c0.4,0,0.8,0.1,1-0.4c0.8,0.7,1.2,1.7,2.3,2
				c0.4,0.5,0.7,1,1.5,1.1s0.6,0.6,0.5,1.1l0,0c-0.6,0.2-1.2-0.6-1.8,0c1.7,0.7,3.5,0.9,5.3,0.6c1-0.2,2-0.2,2.9-0.1
				c1.9,0.3,3.9,0.1,5.8-0.4c1.3-0.2,2.5-1,3.1-2.2c0.5-0.3,0.8-0.7,0.9-1.3c0.1-0.4,0.2-1.1,0.9-1c-0.2,0.6-0.2,1.3,0.6,1.1
				c1-0.2,2.1,0.1,2.9,0.8c2,1.3,4.1,0.5,6.2,0.2c0.1,0,0.1-0.3,0.2-0.4c0.9,0.4,1.9,0.4,2.8,0.1c0.6-0.2,1.2-0.1,1.7,0.1
				c1.1,0.4,1.4,0.1,1.6-1.2c0.3-1.6,0.1-3.1-1.4-3.8c-1-0.5-1.7-1.5-1.9-2.6c-0.5-1.7-0.8-3.3,0.3-4.8c0.1-0.1,0.1-0.3,0.2-0.5
				c0.1-0.3,0.1-0.7,0-1c-0.1-0.3-0.2-0.6-0.5-0.9c-0.2-0.3-0.5-0.5-0.8-0.6c-0.3-0.2-0.7-0.2-1-0.2c-1.2,0-2.5-0.1-3.7-0.2
				c-2.4-0.2-4.7-0.7-7.2-0.4c-0.6-0.2-1,0.3-1.6,0.3c0,0.1,0,0.2,0,0.3c-0.7,0.8-1.6,1.4-2.5,1.8c-0.9,0.4-2,0.7-3,0.7
				c-3.1,0.2-6.2,0.1-9.3,0.1c-0.2,0-0.4,0-0.6-0.1h0.2c0.5-0.1,1.2,0,1.1-0.8c-0.8-0.8-2.1,0-2.8-0.9c-0.2-0.4-0.7-0.5-0.9-1.1
				c-0.3-1.4-0.9-1.5-2.2-0.5c0,0.4,0.8,0.3,0.6,0.9c-2.1,0-4.1,0.9-6.2-0.1c-0.2-0.1-0.4,0.1-0.6,0.1c-2.7-0.2-5.1,1.3-7.7,1.7
				c-0.4,0.1-0.5,0.4-0.6,0.7c0.1,0,0.3,0,0.4,0c-0.3,0.8,0.3,1.6,0.4,2.3c0.3,1.8,0.3,3.4-1.4,4.8c-1,0.6-1.8,1.5-2.3,2.6l0,0
				C44.3,76.9,45.1,78.1,47.4,78.1z M78.8,71.2L78.8,71.2L78.8,71.2z M78.1,73.6l-0.3-0.2c0.1,0,0.1-0.1,0.2-0.2
				C78,73.3,78,73.5,78.1,73.6L78.1,73.6z"/>
			<path class="st2" d="M104.4,105.1L104.4,105.1c-2.4-2.4-4.7-5-7.3-7.2c-1.2-0.7-2.7-0.9-4-0.5c-0.2,0-0.3,0-0.5,0
				c-0.8,0.1-1.6,0.4-2.2,1v0.1c-0.4,0-0.7-0.1-1.1-0.1c-1,0-1.8,0.3-2,1.4c-0.2-0.2-0.4-0.4-0.5-0.7c-0.1-0.2-0.2-0.5-0.2-0.8v-0.1
				c0.1,0.2,0.3,0.3,0.5,0.3c1-0.9,2.3-0.9,3.4-1.4c0.7-0.3,1.5-0.5,2.3-0.7h0.4c0.8-0.2,1.8-0.7,2.2-0.1c0.7,0.8,1.1,0.3,1.6,0.1
				c1.3-0.6,1.6-2.2,2.6-3c2.1-2,2.2-2.8,0.4-4.3c-1.1-0.8-1.4-2.3-0.7-3.4c0.5-0.8,0.9-1.8,0.9-2.8c0.3-2.7-1-3.8-3.6-3.1
				c-0.8,0.4-1.7,0.6-2.7,0.7c-2.7-0.2-5.5-0.1-8.2,0.4c-0.2-0.5-0.2-1.1-0.1-1.6c0.2-0.5-0.1-1.1-0.7-1.2c0,0,0,0,0,0
				c-0.1,0-0.2,0-0.4,0c-0.1,0-0.2,0-0.4,0.1c-0.1,0.1-0.2,0.1-0.3,0.2c-0.1,0.1-0.1,0.2-0.2,0.3c-0.5,1.6-1.7,2.3-3,2.9
				c-0.8,0.1-1.5,0.7-2.3,0.8c-0.6,0.1-1.1,0.7-1.8,0.5c-2.2-0.6-4.3-0.3-6.5-0.4c-0.7,0-1.3,0-1.9-0.2c-1-0.4-2.1-0.5-3.2-0.4
				c-0.6,0.1-1.1-0.3-1.2-0.8c0,0,0-0.1,0-0.1c-0.3-1.2-1.3-1.8-1.9-2.8c-0.2-0.3-0.5-0.4-0.8,0c-0.1,0.2-0.6,0.4-0.1,0.8
				c0.8,0.6,0.7,1.6,0.9,2.5l0,0c-0.4,0.7-1.1,1.3-1.6,2c-0.3,0.5-0.8,1-1.4,0.4c1.2-0.6,1-1.8,1.2-2.8c-1.3,0.1-2.6-0.1-3.7-0.6
				c-3.1-1.6-6.3-1.2-9.6-0.6c-1.3,0.2-1.7,1-1.7,2.2c0,1.4,0.1,2.8,0.6,4.1c0,0.1,0.1,0.3,0.1,0.4c0.1,1.4-0.5,2.8-1.5,3.7
				c-1.4,1.3-1.3,2,0.2,3.2c0.4,0.4,0.8,0.8,1.3,1.1s1.3,0.3,1.3,1.2c0.3,0,0.3-0.8,0.9-0.3s1.5,0.7,2.1,1.3
				c0.5,0.6,1.5,0.7,2.1,0.1c0,0,0.1-0.1,0.1-0.1c0.7-0.7,0.5-3.3-0.3-4.3s-1.3-0.6-1.8-0.1c0.2-0.3,0.3-0.6,0.3-0.9
				c0-0.3-0.1-0.7-0.3-0.9c-0.2-0.3,0-0.8-0.1-1.3v-0.2c0.5-0.1,1.1-0.1,1.6-0.1c1.5-0.3,2.1,0.3,2,1.8c0,0.3-0.1,0.8,0.3,0.7
				c1-0.3,1,0.3,1.3,1c0.4,0.9,0.8,0.9,1.8,0.2c0.1-0.1,0.4-0.1,0.5,0c0.5,0.7,1.4,0,1.9,0.6c-0.2,0.4-1,0.4-0.7,1.1
				c0.2,0.4,0.6,0.6,1,0.6l-0.1,0.1c-0.2,0.8,0.1,1.6,0.7,2.1c0.8,0.7,1.8,0.7,2.7,1.1c0.7,0.1,1.3,0.3,1.9,0.4
				c1.9,0.3,3.7,0.7,5.6-0.3c0-0.1,0-0.1,0-0.2c0.9,0.2,1.8,1,2.9,0.3c0,0.1,0,0.1,0.1,0.2c0.6,0.8,1.5,0.6,2.3,0.6
				c0.7-0.2,1.5-0.3,2.2-0.4c1.8,0.2,3.5-0.6,4.4-2.2c0.4-0.6,0.9-1.1,1.6-1.4c0.7-0.3,1.4-0.5,2.1-0.5c0.7,0,1.4-0.1,2-0.3
				c0,0.1,0,0.3,0,0.4c-0.8,0.5-2.1,0.2-2.6,1.3c0.3,0.4,0.5,0.9,0.7,1.5c-0.2-0.1-0.4-0.1-0.7-0.2c-0.4-0.1-0.6,0.2-0.9,0.4
				c-0.5,0.5-1,0.9-1.6,1.2c-3,1.2-6.2,1.8-9.4,1.8c-2.3,0-4.7,0-7-0.1c-0.6-0.2-1.3-0.4-2-0.3c-0.2,0.3-0.4,0.5-0.6,0.8
				c-1.2-0.2-2.4-0.3-3.5-0.3c-1.1-1.7-1.1-1.6-2.6-0.2c-0.1,0.1-0.2,0.2-0.3,0.3c-2.1,0.2-3.6,0.4-5-0.4c-0.8-0.5-1.4-1.1-1.9-1.9
				L50.3,98c-0.5-0.6-1.2-1.1-2-1.4c-0.7-0.3-1,0-1.2,0.6c-0.8,0.6-1.5,1.5-1.8,2.4c-0.3,0.8-0.8,1.4-1.3,2c-0.6,0.6-1.3,1-2,1.3
				c-0.6,0.3-1.1,0.6-1.6,1.1c-0.6,0.5-0.3,1-0.2,1.6s0.6,0.8,1,0.7c1,0.1,2,0.2,3,0.4c1.7,1.5,3.8,2.5,6.1,3c1,0.2,1.8-0.8,2.8-0.5
				c0.8,0.4,1.6,0.9,2.4,1.3c1.1,0.4,2.2,2.9,2.2,4.1s-0.3,2.1,0.3,3.1l0,0c0.4,0.6,0.7,1.4,1.4,1.6c2.6,0.5,5.1,1.4,7.8,1.7l0,0
				l0.3,0.1l0,0l0,0c0.5,0.3,1.1,0.4,1.7,0.3c2.4,0,4.9-0.2,7.3-0.1c1.8,0.1,3.6-0.4,5.2-1.3V120l0,0l1,0.1c0.1,0,0.2,0,0.3,0
				c0.1,0,0.2-0.1,0.2-0.1c1,0.3,1.5-0.6,2-1.2c1.1-0.3,1.9-0.8,1.9-2c0-0.4,0.2-0.7,0.4-1c0.5-1.6,1-3.3,1.7-4.8l1-0.7
				c0.6,0,1.1,0.6,1.7,0.2c1.4-0.8,3-0.6,4.5-0.9c0.9-0.4,2.1-0.2,2.7-1.2l0,0c1.9-0.3,3.9-0.1,5.6-1.3
				C105.3,106.3,105,105.7,104.4,105.1z M61.5,118.8L61.5,118.8L61.5,118.8L61.5,118.8z"/>
			<path class="st2" d="M46.2,44.8c1,0.8,1.4-0.1,2-0.6c0.3,0.5,0.2,1.2,0.8,1.5c-0.4,1-0.8,2.3-0.2,3.2c0.5,0.7,0.9,1.5,1,2.4
				c0.1,0.9,0.1,1.7-0.2,2.6c-0.2,1.1-0.9,1.9-2,2.2c0.3,0.2,0.6,0.4,1,0.5l0,0c-0.3,0.3-3.2,3.1-2.6,4.1c0.1,0.1,0.2,0.2,0.4,0.3
				c1.5,1,1.9,0.8,3.2-0.4c1.1,0.4,2.2,1.1,3.3,0.6c1.2-0.5,2.6-0.8,3.9-0.8c0.3,0.1,0.5,0,0.8-0.1l0,0c2.8-1.1,2.8-1.1,4.8-0.9
				c0,0.8,0.1,1.5,1.1,1.6c1.2-0.4,1.2-0.4,1.4,0.7c0.1,0.2,0.2,0.4,0.4,0.5c0.4,0.2,0.8,0.4,1.2,0.6c-0.2,0.8,0.5,0.7,0.9,0.8
				c0.7,0.1,1.4,0.1,2.1,0.1c0.8-0.2,1.7-0.3,2.6-0.2c3,0.6,6.1,0,8.8-1.5c0.5-0.9,1.5-1.5,1.7-2.5l0,0c0.6-0.2,1.1-0.7,1.7-0.4
				c0.3,0.1,0.5,0.5,0.8,0.2c0.6-0.7,1.1-0.2,1.7,0c0.5,0.3,1.3,0,1.6,0.5c0.8,0.8,1.8,1.4,2.9,1.7c1.2,0.6,2.6,0.5,3.7-0.3
				c1-0.4,1.8-1.4,3.1-1.5c0.6-0.1,1.3-1,1.4-2s-0.5-1.8-1.3-1.8c-2.4,0.2-3.5-1.2-2.9-3.4l0,0c0.8-1.1,1.6-2.2,2.2-3.3
				c0.8-1.4,0.5-2.2-0.9-3.3c-0.3-0.7-1.2-0.6-1.6-1.2c0.9,0.4,2-0.6,2.8,0.3c0.8,0.7,1.2,0.1,1.6-0.4c1.5-1.5,0.3-5-2.3-5.2
				c-0.5,0-1.1-0.1-1.6-0.4c-0.5-0.3-1-0.8-0.6-1.3c0.8-0.9,0.3-1.7,0.2-2.6c0.8-2.5,0.8-2.5-1.5-3.8c0,0-0.1-0.1-0.1-0.1
				c0.8-0.7,1.2-1.6,1.3-2.6c-0.5-1.5-2-1.6-3.2-2.1c-3-0.6-5.5,0.9-8.3,1.6c0,0.1-0.1,0.1-0.1,0.2c-1.7-0.6-1.9-0.5-2.5,1.2
				c0,0.2-0.1,0.4-0.3,0.5c-0.1,0.1-0.3,0.2-0.4,0.3c-0.4-0.1-0.7,0-1.1,0c-0.3,0.1-0.7,0.3-0.9,0.5c0,0.1,0,0.1,0,0.2
				c-1.6,0.2-3.2,0.3-4.8,0.3c-1.6,0-3-0.6-4.6-0.3c-0.5-0.7-1.5-1-1.7-2l-1.7-1.4c-1.1-0.1-2.3-0.3-2.5,1.4c0.6,0,0.4-0.9,1-0.8
				c0.2,0.4,0.3,0.8,0.6,1.1s0.8,0.4,0.5,1c-0.7,0.1-1.3-0.3-2,0c-1.2,0.8-3-0.1-4.1,1.2c0.8,0.8,0.9,0.9-0.2,1.4
				c0.4-1.3-1-1.1-1.7-1.5c1.7-1.4,1.8-1.6,1.5-2.8c-0.5-2.2-1.5-2.8-3.6-2.3c-1.9,0.3-3.7,0.8-4.1,3.1c0.1,0.7-0.2,1.4,0.3,2
				c-0.1,0.2,0,0.5-0.2,0.6c-1.1,1.1-1.5,2.8-0.9,4.2c0.1,0.5,0,1-0.2,1.4c-0.1,0.5-0.3,1-0.7,1.4c-0.3,0.4-0.8,0.7-1.3,0.9
				c-0.6,0.3-1.1,0.7-1.5,1.2l0,0c-0.5,0.5-0.4,1.2-0.7,1.7C45.3,43.3,45.5,44.3,46.2,44.8z M62.6,40.5L62.6,40.5
				c0.7,0.4,1.5,0.9,1.2,1.7c-0.5,1.3,0.5,1.3,1.1,1.6l0,0l0,0c1.9,2.7,4.8,2.7,7.6,2.9c1,0.6,1.9-0.1,2.9,0
				c1.6,0.2,3.2-0.4,4.2-1.7c0.6-0.9,1.4-1.6,2.4-2.1c0.2-1,1.2-1.7,2.3-1.5c0,0,0,0,0.1,0c0,0.1,0,0.2,0.1,0.2
				c0.9,1.1,1.2,2.6,2.1,3.8c-0.1,0-0.1,0-0.2,0.1c0,0-0.1,0.1-0.1,0.1c-2.1-1.8-2.9-1.8-5.2,0c-1,0.8-2,1.7-2.8,2.7
				c0,0,0,0.1,0,0.1c-2.9-0.2-5.8,0.1-8.8,0.1c-2.2-0.5-4.3-1.2-5.4-3.5c-0.1-0.3-0.5-0.7-0.9-0.4c-0.8,0.7-2,0.3-2.8,1
				c0,0.2-0.1,0.5-0.3,0.6c-0.5-0.7-2.3-0.7-1.3-2.2V44c0.8-0.9,1.5-1.8,2.1-2.8C61.2,40.5,62,40.2,62.6,40.5
				C62.6,40.5,62.7,40.5,62.6,40.5L62.6,40.5z M67.2,35l-0.2,0.2l-0.1,0L67.2,35L67.2,35z M74.9,34c0-0.1-0.1-0.1-0.1-0.2h-0.1H75
				C74.9,33.9,74.9,34,74.9,34L74.9,34z M73.9,33.9c-0.5,1.2-0.4-0.1-0.5-0.2C73.6,33.7,73.8,33.8,73.9,33.9
				C73.9,33.8,73.9,33.9,73.9,33.9L73.9,33.9z M83.7,33.8l-0.1-0.1h0.1L83.7,33.8z M89.3,32.9C89.3,32.9,89.3,33,89.3,32.9
				L89.3,32.9l-0.2-0.1c0,0,0.1-0.1,0.1-0.1C89.2,32.8,89.2,32.9,89.3,32.9L89.3,32.9z M52.9,53.3H53h0.1l0,0l-0.3,0.2L52.9,53.3z
				 M47.4,60.9l0.4-0.1C47.7,60.9,47.5,60.9,47.4,60.9L47.4,60.9z M79,61.5l0.1-0.3c0.1,0.1,0.2,0.2,0.3,0.3
				C79.2,61.5,79.1,61.5,79,61.5z"/>
		</g>
		<path class="st3" d="M50.5,96.7c0.4,1.1,1.2,2,2.2,2.7c1.8,1,3.6,0.4,6.7,0.3c2.3-0.1,2.8,0.2,6.3,0.5c12.6,1.1,20.8,1.8,26.7,1.3
			c0.8-0.1,3-0.3,4.2,1c0.8,0.8,1.1,2,0.7,3.1c-0.9,2-5.4,1.6-8.7,1.4c-19.2-1.3-28.8-2-34-0.4c-1.1,0.3-3.7,1.2-5.5,0
			c-2.5-1.7-3.1-5.2-1.4-7.7C48.4,97.8,49.4,97.1,50.5,96.7L50.5,96.7z"/>
		<path class="st4" d="M84.4,60.8c2.4-0.3,4.8,0.2,7.2,0.4c1.2,0.1,2.5,0.2,3.7,0.2c0.3,0,0.7,0.1,1,0.2c0.3,0.1,0.6,0.3,0.8,0.6
			c0.2,0.3,0.4,0.6,0.5,0.9c0.1,0.3,0.1,0.7,0,1c0,0.2-0.1,0.3-0.2,0.5c-1.1,1.6-0.7,3.2-0.2,4.8c0.2,1.1,0.9,2.1,1.9,2.6
			c1.5,0.8,1.7,2.3,1.4,3.8c-0.5,0.1-0.4,1.2-1.2,0.7c-0.6-0.4-1.4-0.9-1.2-1.6c0.4-1.4-0.6-1.9-1.4-2.1c-2.5-0.8-3.5-2.6-4.1-5
			c-0.2-0.6-0.5-1.2-1-1.7c-0.5-0.5-1-0.9-1.7-1.1c-0.7-0.2-1.3-0.2-2-0.3c-0.2-0.1-0.3-0.1-0.5-0.1C84.8,64.3,84.3,63.7,84.4,60.8z
			"/>
		<path class="st3" d="M56.5,83.5c-0.1,0.1-0.2,0.2-0.3,0.3c-0.1,0.1-0.3,0.1-0.4,0.1c-0.2,0.3-0.5,0.6-0.9,0.8
			c-0.8,0.3-1.7,0.4-2.5,0.2c-1.8-0.3-2.4,0.1-2.6,2.1c0.2,0.4,0.3,0.8,0.4,1.2c0.1,0.4-0.1,0.9,0.1,1.3c0.7,1.2,0.1,1.9-0.7,2.7
			c-1,0.7-2,1.7-3.3,0.4c-0.4-0.4-1.1,0.1-1.7-0.1c-1.5-1.2-1.6-2-0.2-3.2c0.5-0.4,1-1,1.2-1.7c0.3-0.6,0.4-1.3,0.3-2
			c-0.8-2.4,1.1-4.1,1.6-6.1c0.2-0.6,1.4-1,1.7-0.3c0.9,2,2.4,1.1,3.6,0.8c1.6-0.4,2.8,0.6,4.1,0.9C58.2,81.1,57.9,82.5,56.5,83.5z"
			/>
		<path class="st3" d="M53.2,52L53.2,52H53c-0.4,0.8-0.8,1.5-1.3,2.2c-1,1.2-2.8,1.4-4.1,0.4c1.1-0.2,1.8-1.1,2-2.2
			c0.2-0.8,0.3-1.7,0.2-2.5c-0.1-0.9-0.5-1.7-1-2.4c-0.6-0.9-0.2-2.1,0.2-3.2c1.7-1.1,4-1,5.6,0.3c0.6,0.6,1.1,1.3,1.5,2.1
			c0.1,1,0.5,2.1-1,2.6c-0.6,0.2-0.6,1-0.8,1.5S54,52.1,53.2,52z"/>
		<path class="st4" d="M95,27.1c0,1-0.5,2-1.3,2.6c-0.4,0.9-1.2,0.8-1.9,0.8c-0.9,0-1.8,0.3-2.5,0.9c-1.2,0-2.4-0.4-3.3-1.1
			c-0.4-0.3-0.8-0.7-1.1-1.1c-0.3-0.5-0.6-1-1-1.4c-0.3-0.4-0.8-0.8-0.4-1.4c2.7-0.6,5.3-2.1,8.3-1.6C93,25.5,94.5,25.6,95,27.1z"/>
		<path class="st4" d="M94.3,76.8c-0.4-0.3-1.1-0.2-1-1c-1.1-3.2-1.7-6.6-3.3-9.6c-0.2-0.5-0.4-1,0.1-1.5c0.6-0.1,1.2-0.1,1.4,0.7
			c0,0.3,0.2,0.5,0.3,0.7c0.2,0.2,0.4,0.4,0.7,0.5c0.4,0.2,0.7,0.6,0.8,1c-0.5,1.2,0.8,1.8,0.9,2.9c0.1,0.7,1.1,1.1,1.9,1.3
			c1,0.2,1.9,0.8,2.6,1.6c0.4,0.4,1.1,0.9-0.1,1.2c-0.2,0-0.2,0.6,0.1,0.6c0.9-0.1,0.5,0.9,1,1.1c0.7,0.6,0-1.6,1-0.5
			c-0.1,1.3-0.5,1.6-1.6,1.2c-0.6-0.2-1.2-0.2-1.8,0C96.2,77.3,95.2,77.3,94.3,76.8L94.3,76.8z"/>
		<path class="st4" d="M51.3,29.8c-0.5-0.6-0.2-1.3-0.3-2c0.4-2.3,2.2-2.8,4.1-3.1c2.2-0.5,3.1,0,3.6,2.3c0.3,1.2,0.2,1.4-1.5,2.8
			c0.8,0.4,2.3,0.2,1.6,1.8c-0.4,0.4-0.8,0.6-1.3,0.8c-0.5,0.2-1,0.2-1.5,0.2c-0.5-0.2-0.9-0.5-1.1-0.9c-0.8-0.7-1.4-1.8-2.8-1.3
			C51.5,30.7,51.5,30,51.3,29.8z"/>
		<path class="st3" d="M60.7,64.6c0.4-0.4,0.6-0.9,0.3-1.3s-0.8-0.2-1.3-0.2c-1.1,0.2-2.1,0.4-3.2,0.4c-1,0.1-1.9,0.5-2.6,1.2
			c-1.3,0.8-2.4,1-3.4-0.1c-0.3-0.3-0.6-0.5-1-0.7c-0.4-0.1-0.8-0.2-1.2-0.1c0.1-0.3,0.2-0.6,0.6-0.7c2.6-0.5,5-1.8,7.7-1.7
			c0.2,0,0.5-0.1,0.6,0c2.1,1,4.1,0.1,6.2,0.1c0.2-0.6-0.6-0.5-0.6-0.9c1.3-1,1.9-0.9,2.2,0.5c0.1,0.6,0.6,0.7,0.9,1.1
			c0.7,0.9,2,0.1,2.8,0.9c0.1,0.9-0.6,0.8-1.1,0.8c-0.7,0.1-1.5,0.1-2.3,0.1c-0.6-0.1-0.9-0.5-1.3-0.8s-1-0.4-1.2,0.3
			C62.1,64,62,65.4,60.7,64.6z"/>
		<path class="st4" d="M94,48.7c-0.1-0.7-0.4-1.4-0.9-2c-0.4-0.7-1.3-1.1-2.1-0.7c-0.7,0.3-1.6,0.4-2,1.2c-1.3-0.1-2.3-1-2.5-2.2
			c-0.3-0.6,0.1-0.7,0.5-0.7c0.9,0.5,1.6-0.3,2.5-0.3c0.6-0.1,1.2-0.2,1.9-0.3c1.2,0.1,2.5,0,3.7-0.3c0.4,0.5,1.3,0.5,1.6,1.2
			c0,1.1-0.3,2.2-0.7,3.3c-0.2,0.8-1,1.3-1.8,1.1C94.1,48.7,94.1,48.7,94,48.7z"/>
		<path class="st4" d="M45.4,73.5c0.7,1.1,0.7,1.1,1.5,0.2c1-1.3,2.1-2.5,3.1-3.8c0.3-0.3,0.5-0.7,1.1-0.5c0.2,0.1,0.4,0.3,0.5,0.5
			c0.1,0.2,0.1,0.5,0,0.7c-0.1,1.2-0.5,2.3-1.2,3.3c-0.7,0.7-0.9,1.3-0.4,2.1c0.1,0.1,0,0.3,0,0.5c-0.8-0.1-1.6,0.4-2.4,0.3
			C45.3,76.8,44.5,75.6,45.4,73.5z"/>
		<path class="st4" d="M97,104.5c1.2-0.6,1.6-2,1-3.2c0,0,0,0,0,0c1.2,0.2,2.2,0.3,1.7,1.8c-0.1,0.8-0.1,1.5,0,2.3
			c1.2,0.5,2.3-0.7,3.5-0.3c0.1,0,0.3-0.2,0.3-0.3c-0.4-1.2,0.7-0.7,1.1-1c0.6,0.6,0.9,1.2,0.3,2c-1.7,1.2-3.7,1.1-5.6,1.3
			c-2.1,0.7-3.4,0.3-4.4-1.4C95.3,104.7,96.1,104.6,97,104.5z"/>
		<path class="st4" d="M50.3,95.6c-0.6-0.6-1.5-0.8-2.1-1.3s-0.5,0.3-0.9,0.3c0-0.9-0.8-0.8-1.3-1.2s-0.9-0.7-1.3-1.1
			c1.6-1,2-1,3,0.6c0.4-0.9,1.3-0.8,1.9-1.2s1.4-1.8,2.5-0.4c0.8,1,1.1,3.6,0.3,4.3C51.9,96.2,51,96.2,50.3,95.6
			C50.4,95.7,50.3,95.6,50.3,95.6z"/>
		<path class="st3" d="M53.6,31.8c-0.8,0.7-0.4,1.8-0.9,2.6c-0.6,0.3-0.5,1.1-1,1.6s-1.1,1-1.7,0.1c0.2-0.4,0.3-0.9,0.2-1.4
			c-0.6-1.5-0.2-3.1,0.9-4.2c0.1-0.1,0.1-0.4,0.2-0.6c0.3,0,0.4,0.6,0.8,0.4c1.7-1,2.2,0.7,3.2,1.3C54.8,32,54,31.2,53.6,31.8z"/>
		<path class="st4" d="M95.3,33.7c-0.7,0.4-1.1,0.2-1.3-0.7c-0.5-1.7-1.1-1.8-2.3-0.3c-0.9,0.3-1.8-0.2-2.2-1.1
			c-0.4-1.4,0.7-1.3,1.4-1.4c0.9,0,1.9-0.2,2.8-0.4c0,0,0,0.1,0.1,0.1C96,31.2,96,31.2,95.3,33.7z"/>
		<path class="st3" d="M82,77.2l0.7,0.3c-0.6,1.2-1.7,2-3.1,2.2c-1.9,0.5-3.9,0.7-5.8,0.4c-1-0.1-2-0.1-2.9,0.1
			c-1.8,0.3-3.6,0.1-5.3-0.6c0.7-0.6,1.2,0.2,1.8,0c0.4,0,0.8,0,1.2-0.2c1-0.2,2-0.7,3,0c0.4,0.2,1.1,0,1.6-0.1
			c0.9-0.3,1.9-0.4,2.9-0.3c1.4,0.1,2.8-0.3,3.8-1.1C80.5,77.6,81.1,76.8,82,77.2z"/>
		<path class="st4" d="M58.2,116.6v-2.4c0.8,1.7,2.8,1.9,3.5,3.4c0.5-0.4-0.4-0.8,0.3-1c0.3-0.1,0.8-0.1,0.8,0.3
			c-0.2,1.8,1.3,1.6,2.2,2c0.8,0.4,1.7,0.2,2.4,0.9c-2.7-0.2-5.2-1.2-7.8-1.7C58.8,118,58.5,117.2,58.2,116.6z"/>
		<path class="st4" d="M90.3,109c-0.7-0.2-1.5-0.5-2.2-0.8c-0.6-0.5-1.5-0.4-2,0.1c-0.1,0.1-0.1,0.1-0.1,0.2
			c-0.4-1.5-0.1-2.9-0.1-4.4c0-0.3,0.1-0.7,0-0.8c-1-0.8-0.2-1.7-0.1-2.6c-0.4-0.6-0.5-1.2,0.3-1.4s1,0.3,1.1,1
			c0.3,2.2,1.8,3.2,3.6,3.9c0.7,0.1,1.4,0.3,2.1,0.6c0.8,0.3,1.4,0.6,0.3,1.3c-0.3,0.2-1,0.3-0.7,0.9s0.8,0.3,1.3,0.1
			c1.2-0.3,2.2-0.3,2.8,1c-1.5,0.4-3.1,0.1-4.5,0.9C91.4,109.6,90.9,109,90.3,109z"/>
		<path class="st4" d="M96.5,108.3c-0.9-0.4-2.1-1.3-2.7-0.6c-0.9,1.1-1.3,0.2-1.8,0c-1-0.5-1-1,0.1-1.5c0.4-0.2,0.8-0.4,1.2-0.5
			c-0.2-0.3-0.5-0.2-0.7-0.3c0.8-1.1,1.6-0.6,2.3,0c1,1.6,2.6,1.7,4.3,1.7C98.6,108.1,97.5,107.9,96.5,108.3z"/>
		<path class="st4" d="M87.3,107.5c-1-0.1-1.1-0.5-1-1.2c0.3-1.9-0.2-3.8-0.4-5.6c-0.3-0.3-0.7-0.6-1.2-0.7c-1.6,1.2-3,2.6-4.9,3.4
			c-0.8,0.3-1.5,0.7-2.1,1.3c-0.5,1.2,0.3,2.2,0.3,3.3c0,0.2,0.6,0.3,0.2,0.5c-1.5,0.7-0.9,1.6-0.4,2.5c0.2,0.5,0.4,1.1,0.4,1.7
			c0,0.2,0.1,0.3,0.1,0.4c0.2,0.4,0.3,0.9,0.8,0.9s0.6-0.6,0.7-1c0.1-0.3,0.3-0.7,0.5-1c0.3-0.4,0.3-1.3,1.2-1.1
			c0.8,0.1,1.4,0.8,1.4,1.7c0,0,0,0.1,0,0.1c-0.9-0.9-1.5-0.6-1.8,0.3c-0.8,1.9-0.4,4,0.9,5.6l1,0.1c0.1,0,0.2,0,0.3,0
			c0.1,0,0.2-0.1,0.3-0.2c0.9-1.1,1.5-2.4,1.6-3.8c0-0.5,0.3-1,0.7-1.3c1.3-1.2,2.5-2.6,3.7-3.9l0.9-0.7
			C89.7,107.8,88.4,107.7,87.3,107.5z"/>
		<path class="st3" d="M80.6,87.8c1.2,0.3,1.6-0.4,1.3-1.3c-0.2-0.8,0.5-0.3,0.6-0.6c1-0.2,1.7-1,1.8-2c-0.1-1.3,0.7-1.6,1.4-2
			c1-0.6,1.1-1.1,0.4-2c-0.2-0.5-0.2-1.1-0.1-1.6c0.2-0.5-0.1-1.1-0.7-1.2c0,0,0,0-0.1,0c-0.1,0-0.2,0-0.4,0c-0.1,0-0.2,0.1-0.4,0.1
			c-0.1,0.1-0.2,0.1-0.3,0.2c-0.1,0.1-0.1,0.2-0.2,0.3c-0.5,1.6-1.7,2.3-3,3c-0.1,0.4-0.6,0.8-0.3,1.2s0.7-0.1,1-0.2
			c1.4,0,1.7-1.2,2.3-2.1c-0.1,0.6-0.7,1.1-0.9,1.7c-0.7,2-2.4,3.5-4.5,4C77,85.8,75.2,86,73.3,86c-0.8,0-1.8-0.2-2.4,0.6
			c0,0.8,0.2,1.3,1.1,0.8c0.1-0.3,0.4-0.2,0.7-0.2c0.2,0.1,0.5,0.2,0.8,0.2c1.3-0.4,2.1,0,2.6,1.4c0.4,1.2,1.4,1.2,2.4,0.3
			C78.9,88.3,79.5,87.5,80.6,87.8z"/>
		<path class="st4" d="M98.2,54.4c-2.4,0.2-3.5-1.2-2.9-3.4c-0.2-0.9-0.5-1.9-0.9-2.7c-0.2-0.7-0.5-1.3-0.9-1.9
			c-0.3-0.4-0.6-0.7-1.1-0.8c-0.4-0.2-0.9-0.2-1.4-0.1c-0.9,0.2-2,0.3-2.1,1.6l0.3,0.3c0.1,0,0.2,0.1,0.3,0.1c0.1,0,0.2,0,0.3-0.1
			c1.9-0.7,1.7-0.6,2.4,1.4c0.5,1.7,0.3,3.7,1.4,5.2c-1.3,0.2-2.7,0.7-4,0.3c-0.3,0.4-0.7,0.3-1,0.2c-0.8-0.2-1.7-0.2-2.6,0
			c0.9,0.9,1.1,2.2,0.6,3.3c0.5,0.3,1.3,0,1.6,0.5c0.8,0.8,1.7,1.4,2.8,1.7c1.2,0.6,2.6,0.5,3.7-0.3c1-0.4,1.8-1.4,3.1-1.5
			c0.6-0.1,1.3-1,1.4-2S98.9,54.4,98.2,54.4z"/>
		<path class="st3" d="M75,66c3-0.1,5.7-0.8,7.7-3.3l0,0l0,0c-0.2,0.7-0.5,1.4-0.9,2c1.8,0.6,1,2.2,1.2,3.5c0.6-0.5,1-0.7,0.9-1.5
			c-0.1-0.9,0.4-1.7,1.3-1.8c0.2,0,0.4,0,0.6,0c0.8,0,2,1.1,2.4-0.6c-0.4-0.6-1-0.3-1.5-0.3c-1.1,0-1.6-0.3-1.6-1.5
			c0-0.3,0-0.6-0.1-1c-0.1-0.3-0.3-0.6-0.5-0.8c-0.6-0.2-1,0.3-1.6,0.3c0,0.1,0,0.2,0,0.3c-1.4,1.6-3.4,2.5-5.6,2.6
			c-3.1,0.1-6.2,0.1-9.3,0.1c-1.1,0.6-1.1,2.1-2.3,2.6c0.2,0.2,0.4,0.4,0.6,0.5c0.9,0.2,1.8,0.1,2.7-0.2c1.1-0.2,2.3,0.1,3.2-0.5
			C73,66.1,74,65.9,75,66z"/>
		<path class="st4" d="M63.1,56.6C62.6,53.7,61.8,53,59,53h-1.1c-0.3,0-0.6,0.2-0.9,0.4c-0.2,0.2-0.4,0.5-0.4,0.9l0,0
			c-1,0.4-2.4-0.4-3,1c-0.9,1.7-2.9,1.9-4.2,3.1c-0.4,0.5-0.9,0.8-1.4,1.1c-0.7,0.3-1.2-0.4-1.9-0.2c1.8,1.2,2.3,1.2,3.6-0.1
			c1.1,0.4,2.2,1,3.3,0.6c1.2-0.5,2.6-0.7,3.9-0.8c0.3,0.1,0.5,0,0.8-0.1l0,0c2.8-1.1,2.8-1.1,4.8-0.9c0.8-0.5,0.1-0.9,0-1.4
			C62.6,56.2,62.8,56.5,63.1,56.6z"/>
		<path class="st3" d="M79.6,47.8c-1.3,1-2.9,1-4.4,1c-1.4,0-2.8-0.3-4.2,0.3c-0.2-0.8-1.2-1-1.3-1.8c3,0,5.9-0.3,8.9-0.1
			C78.5,47.9,79.3,47.4,79.6,47.8z"/>
		<path class="st4" d="M97.3,96.6c-1.2-0.7-2.7-0.9-4.1-0.5c-0.2,0-0.3,0-0.5,0.1c-0.8,0.1-1.6,0.4-2.2,0.9c0,0,0,0.1,0,0.1
			c-0.4,0-0.7-0.1-1.1-0.1c-1,0-1.8,0.3-2,1.4c0.3,0.5,0.5,1.1,0.7,1.7c0.4,1.6,1.4,2.9,2.7,3.9c1.4-0.4,2.8-1,4.1-1.9
			c0.4,1,1.2,1.9,2.2,2.3c1.4-0.2,1.4-1.4,1.9-2.5c0.3,0.8,0.3,1.6,0.2,2.4c-0.1,1.1,0.5,1.5,1.5,1.4c1.6-0.2,3.3-0.2,4-2.1
			C102.1,101.4,99.9,98.8,97.3,96.6z"/>
		<path class="st4" d="M80.7,110.2c-0.3,1.5-1.6,2.4-1.5,4l-0.6-0.9c-0.6,1.5-1.3,2.9-2.9,3.6c-0.8,0.5-1.6,0.9-2.5,1.2l-0.1,0.2
			c-0.2,0.6-0.2,1.2-1.1,1.2c-0.7,0-1.3,0.1-2,0.1s-1.5-0.3-2.1,0.3c0.5,0.3,1.1,0.4,1.7,0.3c2.4,0,4.9-0.2,7.3-0.1
			c1.8,0.1,3.6-0.4,5.2-1.3c-0.2-1-0.1-2-1-2.8c-0.1-0.1-0.1-0.2-0.2-0.3c0-0.1,0-0.2,0.1-0.3c0.4-0.6,0.6-1.4,0.5-2.2
			c0-0.3,0.3-0.6,0.7-0.6c0.6,0,0.3,0.4,0.2,0.7s-0.1,0.5,0.3,0.6c0.2,0,0.5,0,0.5-0.2c0-0.8,0.6-1.5-0.1-2.4S81.2,111.1,80.7,110.2
			z"/>
		<path class="st3" d="M46.3,85.2c0-1.8,0.3-3.6,2-4.7c0.1-0.1,0.2-0.4,0.2-0.4c-1.6-1.3,0.5-0.7,0.5-1.1c0.7,1.8,0.7,1.8,2.6,1.6
			c0.3,0,0.6,0.1,0.8,0c1.2-0.2,2.3-0.4,3.3,0.5c0.1,0.1,0.3-0.1,0.5-0.1c0.7-0.2,1,0,1.2,0.7s0.1,1-0.6,1.2
			c-0.4,0.1-0.2,0.4-0.1,0.6c0.5,0.3,1.1,0.5,1.6-0.1c0.1-0.2,0.3-0.3,0.5-0.4c0.2-0.1,0.4-0.1,0.6-0.1c1.2-0.6,1-1.8,1.2-2.8
			c-1.3,0.1-2.6-0.1-3.7-0.6c-3.1-1.6-6.3-1.2-9.6-0.6c-1.3,0.2-1.7,1-1.7,2.2c-0.1,1.5,0.2,3,0.7,4.5
			C46.1,85.4,46.3,85.3,46.3,85.2z"/>
		<path class="st4" d="M48.5,95.3c-0.7-0.3-1,0-1.2,0.6c-0.8,0.6-1.5,1.5-1.8,2.4c-0.3,0.8-0.8,1.4-1.3,2c-0.6,0.6-1.3,1-2,1.3
			c-0.6,0.3-1.1,0.6-1.6,1.1c-0.6,0.5-0.3,1-0.2,1.6s0.6,0.8,1,0.7c1,0.1,2,0.2,3,0.4c0.7-0.7,0.8-1.3-0.2-1.8
			c-0.4-0.2-0.8-0.4-1.3-0.6s0-0.4,0.2-0.6c1.4-0.3,2.7-0.6,4.1-0.9c0.6-0.8,1.3-1.4,2.2-1.9c2.2-0.8,2.2-0.9,1.2-3
			C49.9,96.1,49.3,95.6,48.5,95.3z"/>
		<path class="st3" d="M60.4,91.3c-1-0.5-2.1-0.7-3.2-0.7c-1.4,0.1-2.7-0.9-2.8-2.3c0-0.9,0.7-1,1.2-1.3c0.8-0.3,1.1-1.1,0.9-1.9
			c-0.1-0.1-0.1-0.3-0.2-0.4c-0.1-0.3-0.2-0.6-0.3-0.9l-1,0.4l0,0l0,0c-0.7,0.3-1.5,0.4-2.2,0.1c-2.3-0.7-3.5,0.3-3.3,2.7l0,0l0.6,1
			c0.6-0.4,1.3-0.2,1.9-0.3c1.5-0.3,2.1,0.3,2,1.8c0,0.3-0.1,0.8,0.3,0.7c1-0.3,1,0.3,1.3,1c0.4,0.9,0.8,0.9,1.8,0.2
			c0.1-0.1,0.4-0.1,0.5,0c0.5,0.7,1.4,0,1.9,0.6c-0.2,0.4-1,0.4-0.7,1.1s0.7,0.6,1.2,0.6c0.6-0.3,1.6,0.1,1.6-0.9
			C61.8,92,61.1,91.6,60.4,91.3z"/>
		<path class="st4" d="M93,95.3c0-0.1,0-0.2,0-0.4c0-0.1-0.1-0.2-0.2-0.3c-0.1-0.1-0.2-0.2-0.3-0.2c-0.1-0.1-0.2-0.1-0.3-0.1
			c-0.2,0-0.4-0.1-0.5-0.2c-0.1-0.1-0.2-0.2-0.3-0.3h0.1c0.5-0.6,0.2-1-0.3-1.3c-0.3-0.2-0.9-0.3-0.9-0.7c-0.1-1.4-1.2-1.5-2.1-1.8
			c-1.8-0.5-2.1-1.5-1.7-3.3c0.2-1.1,1.3-1.6,1.4-2.5c0.1-1.4,0.8-1.1,1.6-0.9c0.7,0.1,1.3,0.2,1.9,0.5c1.4,1,2.7,0.6,3.9-0.2
			c0.6-0.4,1.2-0.8,1.9-0.3c0.3,0.5,0.3,1.1,0.2,1.7c-0.1,1.2-0.5,2.3-0.6,3.5c0,0,0,0.1,0,0.1c-0.4,0.2-0.5,0.7-0.6,1.1
			s0.2,1.2,0.3,1.8s0.3,1.2-0.4,1.4s-0.8-0.5-0.9-1c-0.4-1.3-1-1.5-1.9-0.5c-0.6,1.2-0.6,2.5,0.1,3.6c0.8-0.2,1.8-0.7,2.2-0.1
			c0.7,0.8,1.1,0.3,1.6,0.2c1.3-0.6,1.6-2.2,2.6-3c2.1-2,2.2-2.8,0.4-4.3c-1.1-0.8-1.4-2.3-0.7-3.4c0.5-0.8,0.8-1.8,0.9-2.8
			c0.3-2.7-0.9-3.8-3.6-3.1c-0.8,0.4-1.7,0.6-2.7,0.7c-2.7-0.2-5.4-0.1-8.1,0.4c-0.1,0.9-0.7,1.8-1.5,2.3c-0.2,0.1-0.3,0.2-0.4,0.3
			c-0.1,0.1-0.2,0.3-0.2,0.4c0,1.3-1,2-1.7,3c-1.9-0.3-0.2,1.3-0.9,1.7c-1.9-0.6-2.6-0.4-3.3,1.2c-1.2,0.6-2.2,0.3-2-0.7
			c0.3-1.7-0.9-1.3-1.7-1.3c-0.6,0.1-1.3,0.2-1.9,0.3c0.5,0.4,1.1,0.6,1.8,0.6c0.4,0,0,1.3,0.5,1.9c0.1,0.2,0.2,0.4,0.4,0.5
			c1.3,0.7,2,2,2,3.4c-0.1,0.1-0.1,0.3-0.1,0.4c-0.3,0.3-0.7,0.7-0.5,1.3c0.3,1-0.4,1.3-1.1,1c-1-0.4-1.5,0.1-2,0.8
			c-0.1,0.1-0.1,0.2-0.1,0.2c0,0.1,0,0.2,0.1,0.2c0.6,0.8,1.5,0.6,2.3,0.6c0.7-0.2,1.5-0.3,2.3-0.3c1.8,0.2,3.5-0.6,4.4-2.2
			c0.4-0.6,0.9-1.1,1.6-1.5c0.7-0.3,1.4-0.5,2.1-0.5c0.7,0,1.4-0.1,2-0.3c0,0.1,0,0.3,0,0.4c-0.8,0.5-2.1,0.2-2.6,1.3
			c0.7,0.7,0.5,2,1.6,2.4c1-0.9,2.3-0.9,3.4-1.4C91.4,95.6,92.2,95.4,93,95.3z"/>
		<path class="st3" d="M80.2,28.8c0.3-0.2,0.6-0.5,0.7-0.8c0.6-1.7,0.8-1.8,2.5-1.2c0.4,0.9,1.5,1.2,1.8,2.2c0,0-0.1,0.1-0.1,0.1
			c-0.3,0.3-0.2,0.8-0.3,1.1c-0.1,0.7-0.7,1.2-1.5,1.1c-0.1,0-0.1,0-0.2,0c-0.6-0.1-1-0.7-0.9-1.3c0,0,0-0.1,0-0.1
			c0-0.3-0.1-0.5-0.4-0.4c-0.9,0.4-1.6,1.1-2.7,1c-0.4-0.3-1.1-0.4-1-1.2c0.3-0.2,0.6-0.4,0.9-0.5C79.5,28.7,79.8,28.7,80.2,28.8
			L80.2,28.8z"/>
		<path class="st3" d="M84.8,96.6c1.3,1,0.3,2,0,2.9c-0.1-0.4-0.2-1-0.8-0.4c-0.3,0.3-0.7,0.7-0.9,1.1c-0.2,0.3-0.6,0.6-0.9,0.8
			c-0.4,0.2-0.8,0.2-1.2,0.2c-1.4-0.1-2.4,1.1-3.8,1c-1.3-0.7-2.7-1.4-4.3-0.7c-1.2,0-2.4-1.2-3.7-0.3c-0.4,0.3-1,0.3-0.9,1.1
			c0.1,0.4-0.4,0.4-0.7,0.3l-0.7-0.1l-1-1c1.3-0.3,1.2-1,0.7-1.9c2.3,0.1,4.7,0.2,7,0.1c3.2,0,6.4-0.6,9.4-1.8
			C83.7,97.6,84.3,97.1,84.8,96.6z"/>
		<path class="st3" d="M95,83.3c-1.3,1-1.9,1-3.2,0.1c-0.3-0.2-0.6-0.2-0.9-0.3c-1.2-0.2-2.4-0.4-3.7-0.7c0.6,1.6,0.6,1.6-0.9,2.5
			c-0.1,0.1-0.2,0.2-0.3,0.3c1,0.9,0,1.6-0.3,2.2c-0.5,0.8,0,1.2,0.4,1.7c0.5,0.5,1.1,0.9,1.7,1.2c0.7,0.3,1.4,0.4,2.1,0.3
			c-0.3,1-0.4,1.9,0.9,1.9c0.6,0,0.9,0.3,0.6,1c-0.2,1.2,1.2,1,1.6,1.6h0.4c0.4-1.2-0.2-2.4,0.3-3.6c0.3-0.3,0.5-0.7,0.8-1
			c1.8-2.3,3.1-4.8,3.1-7.8C96.8,82.4,95.7,82.6,95,83.3z"/>
		<path class="st4" d="M94,48.7c0.3,0.8,0.8,1.6,1.3,2.3c0.8-1.1,1.6-2.2,2.2-3.3c0.8-1.4,0.5-2.2-0.9-3.3c0,0.6-1,0.6-0.9,1.4
			C96.1,47.1,95.3,48.4,94,48.7C94,48.7,94,48.7,94,48.7z"/>
		<path class="st4" d="M77.9,104.9c-0.7-0.3-1.3,0.6-1.6,0.3c-1.2-0.8-2,0-3,0.3l0,0c-1.7-1.2-3.7-0.8-5.6-1c0,0.2,0,0.4-0.2,0.6
			c-0.1,0.1-0.2,0.2-0.3,0.3l-0.2-0.1c-0.7-0.2-1.4,0.2-2.1-0.2c-2-1.1-2.1-1.1-3.5,0.7c0.1,0.3,0.2,0.5,0.5,0.7
			c0.2,0.2,0.5,0.3,0.7,0.3c0.7,0.2,1.4,0.5,2,0.9c0.8,0.6,2.4,1,2.1,2.6c0,0.1,0.2,0.3,0.3,0.3c0.7-0.1,0.6,0.4,0.6,0.8
			c0,0.5,0.1,1.1,0.3,1.6l0,0c-0.6,1-0.2,2-0.2,3c0,0.8-0.7,1.7-1.3,1.7c-1.2,0-3.3-1.8-3.7-3c-0.1-0.3-0.1-0.7-0.3-0.9
			c-1.1-0.9-1.4-2.6-3.2-2.9c-0.8-0.2-1.4-0.8-1.8-1.5c-0.8-1.1-1.9-1.8-3.2-2.1c-0.8-0.2-1,0.1-1.1,0.8c0.8,0.4,1.6,0.9,2.4,1.3
			c1,0.4,2.2,2.9,2.2,4.1s-0.3,2.1,0.3,3.1c0.6-0.4,0.1-1,0.2-1.2c1.3,0.7,2.5,1.7,3.9,2.5c1.7,1,3.4,1.2,5.1,1.9l0.3,0.1
			c1.4-0.1,2.8,0.1,4.2,0c1.1-0.1,1.6-0.5,1.4-1.5c0.9,0.1,1.9-0.3,2.4-1.1c2.2-0.6,2.9-1.6,3-3.9c0-0.1,0-0.2,0-0.3l0,0
			c0.2-0.9-0.1-1.8-0.7-2.6c-0.5-0.6-0.5-1.2,0.4-1.5c0.3-0.1,0.6-0.3,0.8-0.6l-0.7-0.2C78.9,107,77.7,106,77.9,104.9z M68,113
			L68,113L68,113z M71.2,105.1L71.2,105.1L71.2,105.1C71.2,105,71.2,105.1,71.2,105.1L71.2,105.1z"/>
		<path class="st3" d="M86.4,35.3c0.5,0.4,1,0.7,1.6,0.9v0.1c2.3,1.1,3.9,3.2,6.4,3.9h0.9L95,39.3c-1.3-1.7-2.6-3.4-2-5.8
			c0.1-0.2-0.2-0.4-0.4-0.4s-0.8,0-1-0.4c-0.6-0.5-1.6-0.4-2.2-1.1c-0.9-0.9-2.3-0.9-3.3-1.5l0,0c-0.2-0.5-0.7-0.6-1-1
			c-1.2-0.3-0.5,0.6-0.6,1c0,0.7,1.3,1.4,0,2c-1.3,0.5-0.7,1-0.2,1.5S85.9,34.5,86.4,35.3z"/>
		<path class="st3" d="M59.2,82.8c-1-0.6-1.7,0.8-2.7,0.4c-0.3,0.1-0.6,0.3-0.7,0.5c0.1,1.4,0.1,2.6-1.3,3.5c-1,0.7-0.5,2,0.3,2.9
			c1.2,1.2,2.8,0.7,4.2,1.1c2.2,0.7,2.3,0.9,0.9,2.4c-0.1,0.8,0.1,1.6,0.7,2.1c0.8,0.7,1.8,0.7,2.7,1.1c0.7,0,1.3,0.3,1.9,0.4
			c1.9,0.3,3.7,0.7,5.6-0.3c0-0.1,0-0.1,0-0.2c1,0.2,1.9,1.1,2.9,0.3c0,0,0-0.1,0-0.1l0,0c0.7-0.3,1.4-0.5,2.2-0.5
			c0.7,0.1,1.3-0.5,1.4-1.2c0,0,0-0.1,0-0.1c0.1-0.5,0.2-0.9,0.3-1.4c0.3-1.6,0-2.9-1.5-3.8c-0.2-0.1-0.3-0.2-0.4-0.4
			c-0.1-0.2-0.2-0.3-0.3-0.5c-0.1-1.7-1.3-2.2-2.7-2.4c-0.3,0-0.6,0-0.9,0.2l-0.3,0.2c-0.3-0.1-0.5-0.3-0.4-0.8
			c-1.6-1.1-3.6-1.1-5.3-1.7c-0.7,0-0.8-1.1-1.6-1c0,0,0,0,0,0.1v-0.1l-0.9-1.5c0-0.1,0.1-0.2,0.1-0.2c0-0.8-0.1-1.5-1.1-1.7
			c-0.4,0.7-1.1,1.3-1.6,2C60.3,83,59.8,83.5,59.2,82.8z"/>
		<path class="st4" d="M54.1,72.1c0.2-0.7,0.5-1.4,1-2c0.5-0.8,1.4-0.7,2-1.3c0,0,0.3,0.6,0.8,0.6s1.1-0.2,1.2-0.7
			c0.2-1.5,1.3-2.7,1.5-4.2c0.1-0.2,0.2-0.3,0.3-0.4c0.1-0.1,0.3-0.2,0.5-0.2c0.7-0.1,0.8-0.6,0.7-1.2c0-0.1-0.1-0.2-0.1-0.3
			c-0.1-0.1-0.2-0.2-0.3-0.3c-0.1-0.1-0.2-0.1-0.3-0.1c-0.1,0-0.2,0-0.4,0c-2.2,0.3-4.5,0.1-6.4,1.5c-1,0.9-2.5,0.8-3.3-0.1
			c0,0,0,0,0,0c-0.5-0.6-1.4-0.7-2.1-0.2c0,0,0,0-0.1,0.1c-0.8,1,0,1.9,0.2,2.8c0.3,1.8,0.3,3.4-1.4,4.8c-1,0.6-1.8,1.6-2.3,2.6
			c0.4,1.4,0.8,1.6,1.7,0.6c0.8-0.8,1.3-1.7,2.1-2.5c0.5-0.5,0.8-1.2,1.8-1.4c0.1,1.2-0.3,2.5-1.1,3.4c-0.8,0.7-0.8,1.9-0.1,2.7
			c0.1,0.1,0.1,0.1,0.2,0.2c1.3,0.1,1.8-1.3,2.9-1.6C54.1,74.3,53.8,73.1,54.1,72.1z"/>
		<path class="st4" d="M88,77.1c2,1.3,4.1,0.5,6.2,0.2c0.1,0,0.1-0.3,0.2-0.4c0-0.7-0.7-0.8-0.9-1.3c-0.8-0.6-1.2-1.6-1-2.6
			c0.1-0.6,0-1.5-0.6-1.4c-1.6,0.2-2.2-0.6-2.6-1.9c0-0.2-0.3-0.3-0.5-0.4c-0.8-0.5-1.2-1.5-1.1-2.4c0.1-1.3-0.5-1.8-1.8-1.4
			c-0.7,0.4-1.3,1.1-1.4,1.9c0,0.8,0.6,1.2,1,1.8c1.2,1.4,1.1,2.5-0.3,3.5c-0.3,0.9-0.9,1.7-0.8,2.7c-0.2,0.6-0.2,1.3,0.6,1.1
			C86.1,76.1,87.2,76.4,88,77.1z"/>
		<path class="st4" d="M63.5,59.6c1.2-0.4,1.2-0.4,1.4,0.7c0.1,0.2,0.2,0.4,0.4,0.5c0.4,0.2,0.8,0.4,1.2,0.6c1.2,1,2.5,0.5,3.8,0.5
			c0-0.1,0.1-0.3,0.1-0.4h3.4c1.3,0,2.8,0.3,4-0.4c1.3-0.4,1.2-0.5,1.6-1.7c0.3-0.8,0.5-1.6,0.5-2.4c-1.1-1.3-1.7-3.1-3.3-4l0,0l0,0
			c-0.2-0.7,0.5-1.1,0.5-1.8c-1,0-1.7-0.8-2.6-0.3l0.1-0.4H70c-0.1,0.1-0.2,0.2-0.3,0.4l0,0c-0.4,0.1-0.9,0.1-1.2,0.7
			c-0.4,0.6-0.5,1.3-0.6,2.1c0.1,0.5,0,1-0.3,1.4c-0.8-1.4-1.6-1.5-2.7-0.2c-0.5,0.6-1.1,1-1.9,1.2c-0.3,0.1-0.7,0.2-0.8,0.6
			c0,0.5,0,0.9,0.2,1.4C62.4,58.8,62.5,59.5,63.5,59.6z"/>
		<path class="st3" d="M79.9,72.9c-0.6-1.3,0-2.7-0.7-4c-0.8-0.5-1.7-0.5-2.5-0.1c-0.6,0.4-1.1,0.2-1.7-0.3c0.5-0.3,1.1,0,1.3-0.6
			h-3.9H67c0.6,1,1.5,1.8,2.6,2.1c1,0.3,1.6,1.3,1.4,2.3c0,0,0,0.1,0,0.1c-0.2,1-0.3,1.6,1,1.1c0.1,0,0.1-0.1,0.2-0.1
			c0.1,0,0.1,0,0.2,0c0.1,0,0.1,0.1,0.2,0.1c0,0,0.1,0.1,0.1,0.2c0,0.1,0,0.2,0,0.2c0,0.1,0,0.2-0.1,0.2c0,0.1-0.1,0.1-0.2,0.2
			c-0.1,0.1-0.1,0.1-0.2,0.1c-0.3,0.1-0.6,0.2-0.9,0.3c-1.3,0-1.8,0.4-1.7,1.7c0.1,0.7-0.1,1.3-0.8,1.3s-1.3-0.2-1.4-1.1
			c0-0.6,0.1-1.1-0.4-1.5s-0.7-0.7-1.1-0.6s-0.1,0.7-0.3,1c-0.2,0.6-0.3,1.2-0.2,1.8c0.4,0.5,0.7,1,1.5,1.1s0.6,0.6,0.5,1.1
			c2,0.6,4,0,5.9-0.1c0.2-0.1,0.4-0.3,0.4-0.6c0.1-0.1,0.1-0.3,0.1-0.4c0.3-0.1,0.5-0.1,0.8-0.1c0.3,0,0.5,0.1,0.8,0.3
			c0.4,0.3,0.8,0.4,1.1-0.2s0.5-0.8,0.1-1.2s-0.4-0.8-0.7-1.2c0-0.1,0.1-0.2,0.1-0.3c0-0.3,0-0.6,0-0.9c-0.1-0.2-0.1-0.4-0.1-0.6
			c0-0.4-0.1-0.8,0.3-1c0.6,0.5,0.1,1.4,0.7,1.9c0.7,2,1.8,2.6,3.4,1.8c-0.7-0.7-0.8-1.8-0.1-2.5C80.6,74.3,81,73.4,79.9,72.9z
			 M77.9,72.1l0.2-0.2c0,0.1,0,0.2,0,0.3L77.9,72.1z M78.9,69.9L78.9,69.9L78.9,69.9z"/>
		<path class="st3" d="M67.7,102.5c0.3-0.1,0.7-0.1,0.3-0.6s-0.2-0.8,0.3-1c0.2,0,0.4,0.2,0.6,0c1.6-1.6,2.8,0.1,4.1,0.5
			c-0.8,0-1.5,0.1-1.8,1c-0.1,0.2-0.3,0.7-0.5,0.5C69.7,102.5,68.6,103.1,67.7,102.5z"/>
		<path class="st3" d="M77.2,102.2c1.3-0.8,2.6-1.6,4.3-1.5c0.6-0.1,1.1-0.2,1.6-0.5c-0.7,1.6-1.5,3-3.6,3c-0.1-0.5,1-0.6,0.3-1.2
			C79.1,102.2,78.2,103,77.2,102.2z"/>
		<path class="st4" d="M89,53.6c-1.6-0.5-3.4-0.1-4.7-1.4c0.8-0.5,1.3-1.5,1.2-2.5c-0.1-0.7,0.4-0.6,0.8-0.8c1-0.7,2.4-0.3,3.2-1.3
			c0-0.1,0-0.2,0-0.3c0-0.1-0.1-0.2-0.2-0.3c-1.1-0.5-2-1.4-2.6-2.5c-2.3-2-3-2-5.3-0.2c-1,0.8-2,1.7-2.9,2.6
			c-0.3,1,0.6,0.9,1.2,1.1c0.6-0.1,1.2-0.4,1.8-0.8c-1.6,1.7-3.4,3.1-6.1,2.8c-0.2,0-0.4,0.1-0.6,0.2c-0.5,0.5-0.6,1,0.2,1.1
			c1.3,0,1.5,0.8,1.6,1.8c1.3,1.2,1.8,3.1,3.5,4c1.5,0.1,2-1.5,3.3-1.9c-0.5,0.9-1.3,1.7-0.6,2.8c0.6-0.2,1.1-0.7,1.7-0.4
			c0.3,0.1,0.6,0.5,0.8,0.2c0.6-0.7,1.1-0.2,1.7,0c1.1-0.8,0.6-1.9,0.4-2.8c0.9-0.4,2,0.6,2.7-0.6c-0.1-0.2-0.2-0.4-0.3-0.5
			C89.3,53.8,89.1,53.7,89,53.6L89,53.6z"/>
		<path class="st3" d="M81.2,80.5c-0.8,0-1.5,0.7-2.3,0.8c-0.6,0.1-1.1,0.7-1.8,0.5c-2.2-0.6-4.3-0.3-6.5-0.4
			c-0.7,0.1-1.3,0-1.9-0.2c-1-0.4-2.1-0.5-3.2-0.4c-0.4,0.7-0.3,1.5,0.1,2.1c1.4,2,3.8,2.2,5.7,2.4c2.9,0.4,5.8,0.2,8.6-0.8
			c1.2-0.5,2.5-1.2,2.4-2.9C81.8,81.3,80.9,81.4,81.2,80.5z"/>
		<path class="st4" d="M97.2,38c-0.5,0-1.1-0.1-1.6-0.4c-0.5-0.3-1-0.8-0.5-1.3c0.8-0.9,0.3-1.7,0.1-2.6c-0.6-0.3-0.8-0.8-1.1-1.4
			s-0.7-1-1.4-0.9c-0.7,0-1.2,0.5-1.2,1.2c0,0,0,0,0,0.1c0.6,0.7,1,1.6,1,2.5c0,1.7,0.9,3.3,2.4,4.3c0,0.1,0,0.2,0.1,0.3
			c-0.2,0-0.4-0.1-0.6-0.1l-0.6-0.1c-1.1-0.6-2.1-1.3-3.2-2c-0.7-0.7-1.5-1.2-2.5-1.3c-0.3-0.7-1.3-0.7-1.7-1.3
			c-2.2-0.9-4.8,0.2-5,2.2c-0.1,1.3-0.1,2.7-0.1,4c0.2,0.3,0.5,0.3,0.9,0.4c0.2-1,1.2-1.7,2.2-1.5c0,0,0.1,0,0.1,0l0.1,0.2
			c1,1.2,1.3,2.8,2.3,4c0.1,0.1,0.2,0.2,0.3,0.2c0.1,0,0.3,0,0.4,0c1.9-0.5,3.9-0.7,5.8-0.7c0.6,0,1.2-0.3,1.6-0.8
			c0.9,0.4,2-0.6,2.8,0.3c0.8,0.7,1.2,0.1,1.6-0.4C101,41.7,99.8,38.1,97.2,38z"/>
		<path class="st4" d="M64.7,72.6c-1.3-0.9-2.4-1.9-3.5-3.1c-1-0.8-1.2-2.3-0.5-3.4c0.3-0.5,0.2-1.2-0.2-1.6c-0.7,1-1.8,1.7-1.6,3.1
			c0.1,0.7-0.3,1.4-1,1.6c-0.5-0.2-0.3-0.8-0.6-1.1s-0.3-0.6-0.6-0.4c-0.6,0.2-0.1,0.4,0,0.7s0.1,0.4-0.2,0.4
			c-2.1,0-2.3,1.7-2.8,3.1c-0.4,0.9,0,2.1-0.8,2.9c-0.3,0.4-0.5,0.9-0.5,1.5c0.5,0.2,0.6-0.4,1-0.5c0.3-0.5,0.7-1,1.1-1.4
			c0.5-0.6,1.1-1.1,1.8-1.3l0,0h0.6c0.5,0,1,0,1.5-0.1c0.6,0,1.1,0.1,1.6,0.3c0.3,0.1,0.6,0.2,0.8,0.5c0.2,0.2,0.3,0.5,0.4,0.8
			c0.2,0.6,0.3,1.3,1.2,1.3c0.4,0,0.8,0.1,1-0.4c-0.1-0.3-0.3-0.6-0.2-0.7s0.3,0.1,0.5,0.2s0.5,0.2,0.7-0.1s0.4-0.4,0.6-0.6
			c0.5-0.4,0.6-1,0.2-1.5C64.8,72.7,64.7,72.7,64.7,72.6z"/>
		<path class="st4" d="M85.6,68.5c-0.2-0.1-0.4-0.3-0.6-0.5c-0.1-0.2-0.2-0.4-0.3-0.7c0.5-0.5,0.6-1.3,1.3-1.6
			c0.1-0.1,0.1-0.3,0.1-0.4c0-0.2-0.1-0.3-0.2-0.4c-1.4-0.5-2,0-2.6,2.3c0.1-1.3,0-2.4-1.5-2.3c-0.7,0.3-0.7,1.2-1.4,1.6l0,0l0,0
			L76.2,68c-0.1,0.1-0.2,0.1-0.3,0.2c-0.1,0-0.2,0-0.3,0c-0.4,0-0.8-0.1-0.9,0.4s0.4,0.6,0.7,0.8c0.5,0.1,1,0,1.4-0.2
			c0.3-0.2,0.7-0.2,1-0.2c0.4,0,0.7,0.2,0.9,0.4c0.3,1.1,0,2.4,0.7,3.4c0.4,0.6,0.8,1.2,0.3,1.9c-0.6,0.7-0.6,1.8-0.2,2.6
			c-1.1-0.2-2.1-1-2.3-2.1c-0.3-0.7-0.1-1.6-1.1-1.8c-0.9,0.4-0.4,1.2-0.6,1.8v0.9c0.6,1.8,0.6,1.8-1.3,2c-0.4,0.1-0.8,0.3-1.1,0.7
			v0.6c1.3,0.5,2.6,0.1,3.9,0.1c1.4,0,2.8-0.6,3.7-1.6c0.2-0.2,0.4-0.3,0.7-0.5l0.2,0.1c0.1,0.1,0.3,0.1,0.5,0.1
			c0.2,0,0.3,0,0.4-0.1c0.2-0.1,0.4-0.3,0.6-0.5c0.2-0.2,0.3-0.5,0.3-0.7c0.1-0.4,0.2-1.1,0.9-1c0.8-0.6,1.2-1.6,1-2.6
			c1.4-0.2,2-0.6,1.5-1.4S86.9,69,85.6,68.5z"/>
		<path class="st4" d="M65.4,39.5c-0.5-0.7-0.3-1.6-0.6-2.5c-0.1-0.4,0.2-0.8-0.4-1.3c-0.9-0.7-0.7,0.6-1.2,0.6
			c-0.7-1.9-0.7-1.9-2.5-0.8l-0.3,0.2c-0.2,0-0.3,0-0.5,0c-1.4,0.4-2.8,0.9-4.1,1.4c0.4-1.8,1.1-3.4,0.1-5l-0.6-0.9
			c-0.6,0-1.3-0.4-1.7,0.3c0.7-0.2,0.8,0.3,0.9,0.8c0.5,3.1-1.2,5.5-2.9,7.8l0,0c-1.5,0.3-2.8,0.8-3.3,2.5c0.3,0.5,0.2,1.2,0.8,1.5
			c2.7-0.7,5.1-0.3,6.6,2.4c0.1,0.1,0.1,0.2,0.2,0.3c0.2,0.9,0.6,1.6,1.7,1.6c0.4,0.1,0.8,0,1.1-0.2c0.3-0.2,0.5-0.5,0.6-0.9
			c0.4-0.8,1.3-1.4,1-2.5C60,44.3,58,44.4,59,42.8l0,0c0.7-1,1.7-1.7,2.1-2.8c0.3-0.7,1-1,1.7-0.7c0,0,0,0,0,0l0,0
			c0.7,0.4,1.5,0.9,1.2,1.7c-0.5,1.3,0.5,1.3,1.1,1.6C66,41.8,66.2,40.5,65.4,39.5C65.4,39.6,65.4,39.6,65.4,39.5z"/>
		<path class="st4" d="M74.6,35c-0.7-0.9-0.8-1.7,0.4-2.3c0.4-0.5,0.9-0.5,1.5-0.5c2.2-0.1,4.3-1.3,5.4-3.2c0.2-0.3,0.4-0.7,0.8-0.5
			c0.4,0.2,0.5,0.6,0.4,1c0,0,0,0.1-0.1,0.1c-0.2,0.5-0.6,1.1,0.2,1.3s1.3-0.1,1.4-0.9c0.8,0.2,0.8,1.1,1.3,1.5
			c0.3,0.2,0,0.4-0.2,0.6c-0.5,0.5-1,0.5-1.8,0.2c1,1.2,2.4,1.5,2.7,3c-1.6-0.8-2.9-0.1-4.2,0.9c-0.2,0.2-0.4,0.5-0.4,0.8
			c-0.1,0.3,0,0.6,0.1,0.8c0.6,1.3,0,2.3-0.4,3.3c-0.2,0.1-0.5,0.2-0.7,0.4c-0.7,0.7-1,0.3-1.1-0.4s-0.3-0.9-0.9-0.6
			c-0.5-0.8-1.4-1.4-2.3-1.6c-1.1-0.7-0.8-1.9-0.9-2.9C75.5,35.3,75.2,35,74.6,35z"/>
		<path class="st3" d="M68.7,29.4c1.6-0.3,3.1,0.4,4.7,0.3c1.6,0.1,3.3,0,4.9-0.3c0.3,0.3,1,0.2,1,0.8c-0.1,0.3-0.3,0.6-0.6,0.8
			c-0.3,0.2-0.6,0.3-0.9,0.3c-2.4,0.1-4.8,1.2-7.3,0.4c-0.2,0-0.5,0-0.6,0.2c0,0.1,0,0.1,0,0.2c0,0,0,0.1,0,0.2c0,0,0.1,0.1,0.1,0.1
			c0,0,0.1,0.1,0.2,0.1c0.3,0.1,0.8-0.3,1,0.5c-1.5-0.1-3,1.6-4.4-0.5c0.6-0.1,1-0.5,1.3-1c0.2-0.1,0.6-0.2,0.4-0.3
			C67.3,30.3,67.9,29.9,68.7,29.4z"/>
		<path class="st4" d="M94,53.4c-0.4-0.6-0.7-1.3-0.6-2c0.2-1.7-0.8-3-1-4.6c0-0.1,0-0.2-0.1-0.3c-0.1-0.1-0.1-0.2-0.2-0.2
			c-0.1-0.1-0.2-0.1-0.3-0.1c-0.1,0-0.2,0-0.3,0.1c-0.7,0.4-1.6,0.4-2,1.1c-0.3,0.5-0.9,0.2-1.3,0.4c-0.6,0.4-1.7-0.2-2,0.9
			c-0.4,0.2-1.3-0.7-1.3,0.5c0,1.5,0,1.5-1.2,2.2c-0.4,0.2-0.2,0.5-0.1,0.7c0.8,0.7,1.7,1.2,2.7,1.6c0.9-0.1,1.7,0,2.5,0.2l0.9,0.4
			c1.3,0.8,2.6,1.3,3.8-0.1c0-0.1,0.3,0,0.4,0.1C94,54,94.2,53.8,94,53.4z"/>
		<path class="st3" d="M46.3,43.5c1,0.8,1.4-0.1,2-0.6c0.9-1,2-1.8,3.3-2.4c0.8,0.4,1-0.3,1.2-0.7c0.5-1,1.1-2,1.7-3
			c0.6-1.2,0.8-2.6,0.5-4c-0.1-0.8-0.4-1.4-1.3-1.3c-1,0.4-1,1.3-1.2,2.1c-0.1-0.1-0.2-0.2-0.3-0.3c0.3,1-0.3,1.4-0.6,2
			s-0.8,1-1.6,0.6c-0.1,0.5-0.3,1-0.7,1.4c-0.3,0.4-0.8,0.7-1.3,0.9c-0.6,0.3-1.1,0.7-1.5,1.2h0.1c-0.5,0.5-0.4,1.2-0.7,1.7
			C45.5,42,45.6,42.9,46.3,43.5z"/>
		<path class="st4" d="M84.7,43.8c-0.9,0-1.7,0.6-2.1,1.4c-0.7,1.1-1.8,2-3,2.6c-2,0.3-4,0.4-6,0.4c-0.9-0.1-1.9,0.1-2.7,0.4
			c-0.8,0.3-1.7,0.2-2.3,0.8c-1.9-0.7-3.6-2-4.6-3.7c-0.1-0.1-0.2-0.2-0.4-0.3c-0.1,0-0.1,0-0.2,0c0-0.1,0-0.1,0-0.2
			c-0.7-1.3-1.7-1.1-2.9-0.8c0,0.3-0.2,0.5-0.3,0.7c-0.3,0.8-0.8,1.6-1.4,2.3c-0.3,0.2-0.1,0.8-1,0.9c-1.3,0.2-1.3-0.9-1.9-1.2
			c-0.2,0.4-0.2,0.9,0,1.3c0,0.2,0.1,0.6-0.4,0.5c-1.1-0.2-1.3,0.7-1.5,1.4s-0.2,1.4-0.8,1.9c-1.7,0.8-3.2,1.9-4.6,3.2
			c-0.3,0.3-3.2,3.1-2.6,4.1c0.3,0.5,1.4,0.3,1.9,0.2c2.9-0.5,4.8-3,5.6-4.2c1-0.5,2.2-0.3,3.1-0.8c0.4-0.5,0.9-0.9,1.3-1.4
			c0.7,0.5,1.5,0.3,2.3,0.5c0.5,0.2,1.3,0.1,1.5,0.8c0.3,0.8,0.8,1.5,1.3,2.2c0.5-0.1,1-0.3,1.5-0.7c0.4-0.3,0.8-0.7,1.1-1.2
			c0.5-0.8,1.2-0.5,1.7,0.6c1,0.1,1.1-0.7,1.1-1.3c0-0.6,0.1-1.3,0.4-1.8c0.2-0.5,0.6-1,1-1.3h0.2c1.5,0,3.1,0.5,4.6-0.4
			c2.1,0,4.3,0.2,5.8-1.7C81.8,47,84.1,46.3,84.7,43.8z"/>
		<path class="st3" d="M59.8,36.3c1.1-0.2,2.3-1.4,3.2,0.3c0.1,0.3,0.5,0.1,0.7,0c0.2-0.1,0.5,0,0.5,0.4c0.1,1.9,1.5,3.7,0.8,5.7
			c1.9,2.7,4.8,2.7,7.6,2.9c0.8,0,1.6-0.1,2.4-0.1c2.4-0.1,4.2-2.2,4.1-4.6c0,0,0-0.1,0-0.1c-0.4-1.1-1.4-1.9-2.5-2h-0.2l-0.8-4.7
			c-0.5,0.2-0.4,0.7-0.7,1c-0.6-0.7-0.6-0.8-0.1-1.7C75,33.1,75,33,75,32.9c0-0.1-0.1-0.2-0.1-0.3l0,0H75c1.9,0.2,3.9-0.3,5.5-1.3
			c0.9-0.6,1.5-1.2,1.3-2.4l-2.6,1.3c-2.8,0.7-5.6,1.2-8.4,1.4l-0.4-0.1c-1.2,0.1-1,0.7-0.4,1.4c-2.4,0.2-2.4,0.2-1.8-1.5
			c-0.7-1.2-1.8-2.1-3.1-2.6c-0.7,0-1.3-0.3-2,0c-1.2,0.8-3-0.1-4.1,1.2c0.9,0.9,0.9,0.9-0.5,1.5c-0.8,0.5-1.7,0.8-2.6,0.9
			c0.2,1.9-0.1,3.8-0.8,5.6C56.9,37.7,58.3,36.7,59.8,36.3z M74.1,32.5L74.1,32.5c-0.6,1.3-0.5,0-0.6-0.1L74.1,32.5z M67.4,33.8
			l-0.2,0.2l-0.1-0.1C67.2,33.8,67.3,33.8,67.4,33.8L67.4,33.8z"/>
		<path class="st3" d="M63.9,72.8c0.5,0.5,0.7,1,0,1.4c-1.5,0.3-1.6,0.3-0.8,1.2c0.8,0.7,1.2,1.7,2.3,2c0.6-0.4,0.4-1.3,0.9-1.9
			c0.7,0.4,0.6,1.1,0.8,1.6c0.1,0.3,0.3,0.6,0.6,0.8c0.3,0.2,0.6,0.3,0.9,0.3c0.6,0.1,1.1-0.3,1.3-0.8c0-1.2,1-2.2,2.2-2.3
			c0.7-0.1,1.3-1.1,0.5-1.6c-1-0.5-1.1-1.2-1.3-2.1c-0.1-0.4-0.2-0.7-0.5-1c-0.2-0.3-0.5-0.5-0.8-0.6c-0.8-0.4-1.5-0.8-2.2-1.4
			c1.7,0,3.3-0.1,4.8,0.1c1.1,0,2.2,0,3.3-0.1c1.6-0.4,3.1-0.9,4.5-1.7c0.8-0.4,1.1-1.2,1.6-1.8s1.2-1.3,0.6-2.2c-0.2,0-0.3,0-0.5,0
			c-0.2,0-0.3,0.1-0.4,0.3c-1.9,1.7-4.4,2.6-7,2.5c-2.1,0-3.9,0.9-5.9,1.3c-0.9,0.3-2,0.2-2.8-0.3c-0.5-0.5-0.9-1.1-1.1-1.7
			c-0.3-0.7-0.5-1.5-1.4-1.8c-0.9,0-1.3,1.2-2.3,0.9c-0.2,0-0.5,0.1-0.6,0.3c-0.2,0.2-0.3,0.4-0.3,0.6c0.1,0.6,0,1.2-0.2,1.7
			c-0.5,1.2-0.2,2.5,0.7,3.4C61.8,70.9,62.8,71.9,63.9,72.8z"/>
		<path class="st4" d="M82.8,99.9c-0.6,1.2-1.5,2.2-2.6,3c0-1.4,0-1.4-1.2-1.1c-0.6,0.2-1.3,0.2-1.9-0.1c-1.2-0.9-2.8-1.2-4.2-0.7
			c-0.5,0.1-1,0-1.4,0.4c-1.1,1.3-2.6,1-4,0.8c-0.1,0-0.2,0-0.3,0c-0.1,0-0.2,0.1-0.3,0.2c-1.8,0.4-3.7,0.3-5.5-0.3
			c0.2-0.5-0.2-1-0.2-1.5c-0.1-0.3-0.3-0.7-0.6-0.9C59.5,98,59.5,98,58,99.5c-1.1,1.1-2.1,2.4-3,3.7c-0.5,0.8-1.2,1.5-2,1.9h-0.4
			c0.8-1.3-0.6-1.2-1.3-1.5c0.3-1.2-0.7-2.1-0.9-3.2c-0.2-0.7-0.8-0.6-1.3-0.1s-1.2,1.3-1.8,1.9c-0.3-0.1-0.3-0.4-0.4-0.6
			c-0.5-0.1-1-0.4-1.4-0.3c-0.8,0.3-1.4,1-2.5,0.5c-0.2-0.1-0.2,0.3-0.2,0.6c-0.8,0.3-1,0.8,0,1.3c0.9,0.3,1.4,1.1,1.4,2
			c1.7,1.5,3.8,2.5,6.1,3c1,0.2,1.8-0.8,2.8-0.5c1.7-0.6,2.8,0.5,3.8,1.6c0.5,0.7,1.2,1.2,2,1.6c1.5,0.7,2.7,2.1,3.3,3.7
			c0.3,0.7,0.7,1.2,1.2,1.7c0.5,0.5,1.1,0.9,1.8,1.1c1.7,0.7,2.9-0.2,3-2c-0.1-0.9-0.1-1.8,0-2.8c0-2.6-1.5-4.9-3.8-6
			c-0.9-0.3-1.7-0.7-2.4-1.3c0.1,0,0.3-0.1,0.4-0.2c0.1-0.1,0.2-0.2,0.3-0.4c0.1-0.4,0.5-0.7,0.9-0.6c0.2,0,0.4,0.2,0.5,0.3
			c0.9,1.2,1.9,1.1,3,0.6c0.7,0.1,0.8-0.2,0.8-0.8c0.3,0.2,0.5,0.3,0.8,0.4c0.3,0.1,0.6,0.1,0.9,0c1.3-0.3,2.3,0.3,3.4,0.6
			c0.9,0.3,1.6-0.7,2.5-0.3c0.8,0.3,1.8,0.1,2.4-0.6c1.5-0.6,3-1.3,4.4-2.3c1-0.6,1.9-1.4,2.4-2.4c0.1-0.1,0.2-0.2,0.3-0.3
			c0.1-0.1,0.1-0.2,0.1-0.4C84.3,98.4,84,98.4,82.8,99.9z M50.7,103.8c0.1-0.2,0.3-0.1,0.4-0.1C51,103.7,50.8,103.7,50.7,103.8z"/>
		<path class="st3" d="M93.4,74.8c-0.3-0.3-0.4-0.6-0.5-1c-0.4-2.4-1.1-4.8-2.2-7c-0.3-0.6-1.1-1.2-0.7-2.1c-0.6-0.7-1.3-0.2-2-0.3
			c0,0.1,0,0.2,0,0.3c0,0.1-0.1,0.2-0.2,0.2c-0.1,0.1-0.2,0.1-0.3,0.1c-0.1,0-0.2,0-0.3,0h-1.6l0.3,0.6c0.8-0.3,1.5-0.2,1.2,0.8
			c-0.5,1.6,0.2,2.5,1.5,3.3c0.1,0.1,0.2,0.1,0.3,0.3c0.2,0.2,0.3,0.5,0.2,0.8c0,0.1-0.1,0.3-0.2,0.4c-0.7,1.1,0.1,1.1,0.8,1
			c0.7-0.1,1.4-0.2,2.1-0.3c0,1.6-1,3.4,1.3,4C93.6,75.5,94,75.2,93.4,74.8z"/>
		<path class="st3" d="M81.9,81.5c0.1,0.3,0.2,0.5,0,0.8c-1.1,1-2,2-3.6,2.3c-1.8,0.3-3.6,0.1-5.4,0.3c-1.1,0.2-2.1,0.7-2.9-0.6
			c-0.2-0.2-0.7-0.3-1.1-0.3c-1.2,0.1-2.4-0.4-3.2-1.3c-0.8,0.7,0.1,1.3,0,2c0.5,0.5,1.2,0.9,1.9,1.1c1.1,0.3,2.3,0.2,3.4,0.6h2
			c2.5,0.1,5-0.3,7.3-1.3c2.3-1.1,4.2-3.8,4.1-6.1C83.3,79.7,82.9,80.9,81.9,81.5z"/>
		<path class="st4" d="M84.3,54.9c-1.1-0.5-1.1-0.5-1.8,0c-0.9,0.7-1.6,1.7-2.7,2.1c-0.6,1.1-1.4,2.1-0.4,3.3
			c-0.7-0.1-1.3,0.5-2.1,0.6c-0.8,0.2-1.7,0.3-2.5,0.2c-1.5,0.1-3.1-0.5-4.5,0.6c-1.3,0.4-2.7,0.4-3.9-0.1c-0.2,0.8,0.5,0.7,0.9,0.8
			c0.7,0.1,1.4,0.1,2.1,0.1c0.9-0.2,1.7-0.3,2.6-0.3c3,0.6,6.1,0,8.8-1.5c0.5-0.9,1.5-1.5,1.7-2.5C82.5,56.7,83.2,55.5,84.3,54.9z"
			/>
		<path class="st4" d="M88,110.7c-0.5,0.4-0.8,1.1-1.3,1.4c-1.3,0.6-2.1,2-2.1,3.4c0,0.6-0.2,1.2-0.6,1.6c-0.4,0.5-0.6,1-0.8,1.6
			c1.1,0.4,1.7-0.4,2.3-1.1c1.1-0.3,1.9-0.8,1.9-2c0-0.4,0.2-0.7,0.4-1c0.4-1.7,0.9-3.3,1.6-4.9C88.5,109.4,88.4,110.3,88,110.7z"/>
		<path class="st3" d="M65.4,80.9c-0.6,0.1-1.1-0.3-1.2-0.8c0,0,0,0,0-0.1c-0.3-1.2-1.3-1.8-1.9-2.8c-0.2-0.3-0.5-0.4-0.8,0
			c-0.1,0.2-0.6,0.4-0.1,0.8c0.8,0.6,0.7,1.6,0.9,2.5c0.6,0.4,0.5,1.2,0.9,1.7c-0.2,0.8,0.1,1.6,0.8,2c0.7,0.2,1,1.2,1.9,0.7
			c0.5-0.7,0-1.4-0.1-2.1C65.8,82.2,65.7,81.5,65.4,80.9z"/>
		<path class="st3" d="M66.7,99.5c-0.6-0.2-1.3-0.4-2-0.3c-0.2,0.4-0.5,0.7-0.8,1c-0.8,1.1-1.7,1.3-2.9,0.6
			c-0.5,0.6,0.3,0.9,0.4,1.3l0,0c1.6,1.2,3.7,1.4,5.5,0.5c0.3-0.5-0.1-1,0.3-1.5C67.8,100.4,67.3,99.9,66.7,99.5z"/>
		<path class="st3" d="M68,64.1c-0.7,0-1.4-0.3-1.9-0.8c-0.8-0.3-1-1.3-1.8-1.5c-0.4-0.1-0.9-0.3-1.2,0.1s0.3,0.7,0.4,1.1
			c0.5,0.4,0.8,0.9,0.9,1.5c0.2,0.9,0.7,1.6,1.3,2.2c0.3,0,0.7,0,1-0.2c0.3-0.1,0.6-0.3,0.9-0.5c0.7-0.6-0.4-0.5-0.4-0.8
			s0.2-0.3,0.4-0.3C68.2,64.8,68,64.4,68,64.1z"/>
		<path class="st4" d="M97.6,82.8c-1,2.6-1.7,5.4-3.5,7.6c-0.3,0.3-0.4,0.8-0.4,1.2c0.3,0,1-0.8,0.9,0.4c0,0.3,0.1,0.7,0.3,0.9
			c0.2,0.3,0.4,0.5,0.7,0.7c0.6,0.4,1.6,0.1,1.5-0.3c-0.1-0.8,0.5-1.6-0.1-2.3c-0.6-0.7-0.4-1.8,0.3-2.3c0.1-0.4,0.1-0.8,0.3-1.2
			C97.8,85.9,98.4,84.4,97.6,82.8z"/>
		<path class="st3" d="M88.2,99.3c-0.1-0.2-0.2-0.4-0.3-0.5c-0.1-0.1-0.3-0.2-0.5-0.3c-0.2-0.2-0.4-0.4-0.5-0.7
			c-0.1-0.2-0.2-0.5-0.2-0.8c0-0.8-0.5-0.9-1.1-0.9c-0.4-0.1-0.6,0.2-0.9,0.4c-0.3,1,0.3,1.9,0,2.9l-0.1,0.6c0.1,0.7,0.5,0.8,1,0.7
			c0.2-0.4-0.3-1.1,0.4-1.2s0.5,0.4,0.5,0.8c0.2,2.2,1.8,4,4,4.3c0.1-0.1,0.1-0.2,0.2-0.3c0-0.1,0-0.2,0-0.4
			C89.7,102.6,88.8,101,88.2,99.3z"/>
		<path class="st3" d="M63.2,45.4c0.5,0.4,0.9,0.9,1.2,1.5c0.8,1.6,2.5,2.6,4.4,2.5c0.8-0.2,1.6,0.1,2.3-0.4
			c0.4-1.2-0.6-1.4-1.3-1.8c-2.2-0.5-4.3-1.2-5.4-3.5c-0.1-0.3-0.5-0.7-0.9-0.4c-0.8,0.7-2,0.3-2.8,1C61.6,44.2,62.6,44.6,63.2,45.4
			z"/>
		<path class="st3" d="M75.6,45.5c1.6,0.2,3.2-0.5,4.2-1.8c0.6-0.9,1.4-1.6,2.4-2.1c-0.1-0.1-0.2-0.2-0.3-0.3
			c-0.1-0.1-0.3-0.1-0.4-0.1c-0.6-0.1-1.3,0.1-1.7-0.7c-0.2-0.4-0.3-0.3-1,0.1c0.3,1.5-0.6,2.3-1.6,3.3c-1,1-2.3,1.4-3.7,1.2
			c-0.2,0-0.3,0-0.5,0c-0.1,0.1-0.3,0.2-0.4,0.3C73.7,46,74.6,45.4,75.6,45.5z"/>
		<path class="st3" d="M64,26.7c0.2,0.4,0.3,0.8,0.6,1.1s0.8,0.4,0.5,1c0.9,1,1.9,1.8,3,2.6c0.5,0.3,0.8,0.1,0.7-0.4
			c-0.1-0.5,0-1.1,0.1-1.6c-0.5-0.7-1.5-1-1.7-2l-1.8-1.4c-1.1-0.1-2.3-0.3-2.5,1.4C63.5,27.5,63.3,26.6,64,26.7z"/>
		<g class="st1">
			<path class="st5" d="M43.4,74.1c0.8,0,1.6-0.4,2.4-0.3l0,0c1.3,0.1,1.8-1.3,2.9-1.6c-0.3,0.4-0.5,0.9-0.5,1.5
				c0.5,0.2,0.6-0.4,1-0.5c0.3-0.5,0.7-1,1.1-1.4c0.5-0.6,1.1-1.1,1.8-1.3l0,0h0.6c0.5,0,1,0,1.4-0.1c0.6,0,1.1,0.1,1.6,0.3
				c0.3,0.1,0.6,0.2,0.8,0.5c0.2,0.2,0.3,0.5,0.4,0.8c0.2,0.6,0.3,1.3,1.2,1.3c0.4,0,0.8,0.1,1-0.4c0.8,0.7,1.2,1.7,2.3,2
				c0.4,0.5,0.7,1,1.5,1.1s0.6,0.6,0.5,1.1l0,0c-0.6,0.2-1.2-0.6-1.8,0c1.7,0.7,3.5,0.9,5.3,0.6c1-0.2,2-0.2,2.9-0.1
				c1.9,0.2,3.9,0.1,5.8-0.4c1.3-0.2,2.5-1,3.1-2.2c0.2-0.1,0.4-0.3,0.6-0.5c0.2-0.2,0.3-0.5,0.3-0.7c0.1-0.4,0.2-1.1,0.9-1
				c-0.2,0.6-0.2,1.2,0.6,1.1c1-0.2,2.1,0.1,2.9,0.8c2,1.3,4.1,0.5,6.2,0.2c0.1,0,0.1-0.3,0.2-0.4c0.9,0.4,1.9,0.5,2.8,0.2
				c0.6-0.2,1.2-0.1,1.7,0.1c1.1,0.4,1.5,0.1,1.6-1.2c0.3-1.6,0.1-3.1-1.4-3.8c-1-0.5-1.7-1.5-1.9-2.6c-0.5-1.7-0.8-3.3,0.3-4.8
				c0.1-0.1,0.1-0.3,0.2-0.5c0.1-0.3,0.1-0.7,0-1c-0.1-0.3-0.2-0.6-0.5-0.9c-0.2-0.3-0.5-0.5-0.8-0.6c-0.3-0.2-0.7-0.2-1-0.2
				c-1.2,0-2.5-0.1-3.7-0.2c-2.4-0.2-4.7-0.7-7.2-0.4c-0.6-0.2-1,0.3-1.6,0.3c0,0.1,0,0.2,0,0.3c-0.7,0.8-1.6,1.4-2.5,1.8
				c-0.9,0.4-2,0.7-3,0.7c-3.1,0.2-6.2,0.1-9.3,0.1c-0.2,0-0.4,0-0.6-0.1h0.2c0.5-0.1,1.2,0,1.1-0.8c-0.8-0.8-2.1,0-2.8-0.9
				c-0.2-0.4-0.7-0.5-0.9-1.1C60.7,57.1,60,57,58.8,58c0,0.4,0.8,0.3,0.6,0.9c-2.1,0-4.1,0.9-6.2-0.1c-0.2-0.1-0.4,0.1-0.6,0.1
				c-2.7-0.2-5.1,1.3-7.7,1.7c-0.4,0.1-0.5,0.4-0.6,0.7c0.1,0,0.3,0,0.4,0c-0.3,0.8,0.3,1.6,0.4,2.3c0.3,1.9,0.3,3.4-1.4,4.7
				c-1,0.6-1.8,1.5-2.3,2.6l0,0C40.3,72.9,41.1,74,43.4,74.1z M74.8,67.2L74.8,67.2L74.8,67.2z M74.1,69.6l-0.3-0.2
				c0.1,0,0.1-0.1,0.2-0.2C74,69.3,74,69.4,74.1,69.6L74.1,69.6z"/>
			<path class="st5" d="M100.4,101L100.4,101c-2.4-2.4-4.7-5-7.3-7.2c-1.2-0.7-2.7-0.9-4-0.5c-1,0.1-1.9,0.4-2.7,1v0.1
				c-0.4,0-0.7-0.1-1.1-0.1c-1,0-1.8,0.3-2,1.4c-0.2-0.2-0.4-0.4-0.5-0.7c-0.1-0.2-0.2-0.5-0.2-0.8v-0.1c0.1,0.2,0.3,0.3,0.5,0.3
				c1-0.9,2.3-0.9,3.4-1.4c0.7-0.3,1.5-0.5,2.3-0.7h0.4c0.8-0.2,1.8-0.7,2.2-0.1c0.7,0.8,1.1,0.3,1.6,0.2c1.3-0.6,1.6-2.2,2.6-3
				c2.1-2,2.2-2.8,0.4-4.3c-1.1-0.8-1.4-2.3-0.7-3.4c0.5-0.8,0.9-1.8,0.9-2.8c0.3-2.7-1-3.8-3.6-3.1c-0.8,0.4-1.7,0.6-2.7,0.7
				c-2.7-0.2-5.4-0.1-8.1,0.4c-0.2-0.5-0.2-1.1-0.1-1.6c0.2-0.5-0.1-1.1-0.7-1.3c0,0,0,0-0.1,0c-0.1,0-0.2,0-0.4,0
				c-0.1,0-0.2,0-0.4,0.1c-0.1,0.1-0.2,0.1-0.3,0.3c-0.1,0.1-0.1,0.2-0.2,0.3c-0.5,1.6-1.7,2.3-3,3c-0.8,0.1-1.5,0.7-2.3,0.8
				c-0.6,0.1-1.1,0.7-1.8,0.5c-2.2-0.6-4.3-0.3-6.5-0.4c-0.7,0-1.3,0-1.9-0.2c-1-0.4-2.1-0.5-3.2-0.4c-0.6,0.2-1.1-0.1-1.3-0.7
				c0-0.1,0-0.2,0-0.3c-0.3-1.2-1.3-1.8-1.9-2.8c-0.1-0.2-0.4-0.3-0.6-0.2c-0.1,0-0.2,0.1-0.2,0.2c-0.1,0.2-0.6,0.4-0.1,0.8
				c0.8,0.6,0.7,1.6,0.9,2.5l0,0c-0.4,0.7-1.1,1.3-1.6,2c-0.3,0.5-0.8,1-1.4,0.4c1.2-0.6,1-1.8,1.2-2.8c-1.3,0.1-2.6-0.1-3.7-0.6
				C49.4,75,46.2,75.5,43,76c-1.3,0.2-1.7,1-1.7,2.2c0,1.4,0.1,2.8,0.6,4.1c0,0.1,0.1,0.3,0.1,0.4c0.1,1.4-0.5,2.8-1.5,3.7
				c-1.4,1.3-1.3,2,0.2,3.2c0.4,0.4,0.8,0.8,1.3,1.1s1.3,0.3,1.3,1.2c0.3,0,0.3-0.8,0.9-0.3s1.5,0.7,2.1,1.3
				c0.5,0.6,1.5,0.7,2.1,0.1c0,0,0.1-0.1,0.1-0.1c0.7-0.7,0.5-3.2-0.3-4.3s-1.3-0.6-1.8-0.1c0.2-0.3,0.3-0.6,0.3-0.9
				c0-0.3-0.1-0.7-0.3-0.9c-0.2-0.4,0-0.8-0.1-1.3v-0.2c0.5-0.1,1-0.1,1.5-0.1c1.5-0.3,2.1,0.3,2,1.8c0,0.3-0.1,0.8,0.3,0.7
				c1-0.3,1,0.3,1.3,1c0.4,0.9,0.8,0.9,1.8,0.2c0.1-0.1,0.4-0.1,0.5,0c0.5,0.7,1.4,0,1.9,0.6c-0.2,0.4-1,0.4-0.7,1.1
				c0.2,0.4,0.6,0.6,1,0.6l-0.1,0.1c-0.2,0.8,0.1,1.6,0.7,2.1c0.8,0.7,1.8,0.7,2.7,1.1c0.7,0.1,1.3,0.3,1.9,0.4
				c1.9,0.3,3.7,0.7,5.6-0.3c0-0.1,0-0.1,0-0.2c0.9,0.2,1.8,1,2.9,0.3c0,0.1,0,0.1,0.1,0.2c0.6,0.8,1.5,0.6,2.3,0.6
				c0.8-0.2,1.5-0.3,2.3-0.4c1.8,0.2,3.5-0.6,4.4-2.2c0.4-0.6,0.9-1.1,1.6-1.4c0.7-0.3,1.4-0.5,2.1-0.5c0.7,0,1.4-0.1,2-0.3
				c0,0.1,0,0.3,0,0.4c-0.8,0.5-2.1,0.2-2.6,1.3c0.3,0.4,0.5,0.9,0.7,1.5c-0.2-0.1-0.4-0.1-0.7-0.2c-0.4-0.1-0.6,0.2-0.9,0.4
				c-0.5,0.5-1,0.9-1.6,1.2c-3,1.2-6.2,1.8-9.4,1.8c-2.3,0-4.7,0-7-0.1c-0.6-0.2-1.3-0.4-2-0.3c-0.2,0.3-0.4,0.5-0.6,0.8
				c-1.2-0.2-2.4-0.3-3.5-0.3c-1.1-1.7-1.1-1.6-2.6-0.2c-0.1,0.1-0.2,0.2-0.3,0.3c-2.1,0.2-3.6,0.4-5-0.4c-0.8-0.5-1.4-1.1-1.9-1.9
				L46.3,94c-0.5-0.6-1.2-1.1-2-1.4c-0.7-0.3-1,0-1.2,0.6c-0.8,0.6-1.5,1.5-1.8,2.4c-0.6,1.5-1.8,2.7-3.3,3.3
				c-0.6,0.3-1.1,0.6-1.6,1.1c-0.6,0.5-0.3,1.1-0.2,1.6s0.6,0.8,1,0.7c1,0.1,2,0.2,3,0.4c1.7,1.5,3.8,2.5,6.1,3
				c1,0.2,1.8-0.8,2.8-0.5c0.8,0.4,1.6,0.9,2.4,1.3c1.1,0.4,2.2,2.9,2.2,4.1s-0.3,2.1,0.3,3.1l0,0c0.4,0.6,0.7,1.4,1.4,1.5
				c2.6,0.5,5.1,1.4,7.8,1.7l0,0l0.3,0.1l0,0l0,0c0.5,0.3,1.1,0.4,1.7,0.3c2.4,0,4.9-0.2,7.3-0.1c1.8,0.1,3.6-0.4,5.2-1.3l0,0l0,0
				l1,0.1c0.1,0,0.2,0,0.3,0c0.1,0,0.2-0.1,0.2-0.1c1,0.3,1.5-0.6,2-1.2c1.1-0.3,1.9-0.8,1.9-2c0-0.4,0.2-0.7,0.4-1
				c0.5-1.7,1-3.3,1.7-4.9l1-0.7c0.6,0,1.1,0.6,1.7,0.2c1.4-0.8,3-0.6,4.5-0.9c0.9-0.4,2.1-0.2,2.7-1.2l0,0c1.9-0.3,3.9-0.1,5.6-1.3
				C101.3,102.3,101,101.6,100.4,101z M57.5,114.8L57.5,114.8L57.5,114.8L57.5,114.8z"/>
			<path class="st5" d="M42.2,40.7c1,0.8,1.4-0.1,2-0.6c0.3,0.5,0.2,1.2,0.8,1.5c-0.4,1-0.8,2.3-0.2,3.2c0.5,0.7,0.9,1.5,1,2.4
				c0.1,0.9,0.1,1.7-0.2,2.6c-0.2,1.1-0.9,1.9-2,2.2c0.3,0.2,0.6,0.4,1,0.5l0,0c-0.3,0.3-3.2,3.1-2.6,4.1c0.1,0.1,0.2,0.2,0.4,0.3
				c1.5,1,1.9,0.8,3.2-0.4c1.1,0.4,2.2,1.1,3.3,0.6c1.2-0.5,2.6-0.8,3.9-0.8c0.3,0.1,0.5,0.1,0.8-0.1l0,0c2.8-1.1,2.8-1.1,4.8-0.9
				c0,0.8,0.1,1.5,1.1,1.6c1.2-0.4,1.2-0.4,1.4,0.8c0.1,0.2,0.2,0.4,0.4,0.5c0.4,0.2,0.8,0.4,1.2,0.6c-0.2,0.8,0.5,0.7,0.9,0.8
				c0.7,0.1,1.4,0.1,2.1,0.1c0.8-0.2,1.7-0.3,2.6-0.2c3,0.6,6.1,0,8.8-1.5c0.5-0.9,1.5-1.5,1.7-2.5l0,0c0.6-0.2,1.1-0.7,1.7-0.4
				c0.3,0.1,0.5,0.5,0.8,0.2c0.6-0.7,1.1-0.2,1.7,0c0.5,0.3,1.3,0,1.6,0.5c0.8,0.8,1.8,1.4,2.9,1.7c1.2,0.6,2.6,0.5,3.7-0.3
				c1-0.4,1.8-1.4,3.1-1.5c0.6-0.1,1.3-1,1.4-2c0.2-0.8-0.3-1.6-1.1-1.7c-0.1,0-0.2,0-0.3,0c-2.4,0.1-3.5-1.2-2.9-3.4l0,0
				c0.8-1.1,1.6-2.2,2.2-3.3c0.8-1.4,0.5-2.2-0.9-3.3c-0.3-0.7-1.2-0.7-1.6-1.2c0.9,0.4,2-0.6,2.8,0.3c0.8,0.7,1.2,0.1,1.6-0.4
				c1.5-1.4,0.3-5-2.3-5.2c-0.5,0-1.1-0.1-1.6-0.4c-0.5-0.3-1-0.8-0.6-1.3c0.8-0.9,0.3-1.7,0.2-2.6c0.8-2.5,0.8-2.5-1.5-3.8
				c0,0-0.1-0.1-0.1-0.1c0.8-0.7,1.2-1.6,1.3-2.6c-0.5-1.5-2-1.6-3.2-2.1c-3-0.6-5.5,0.9-8.3,1.6c0,0.1-0.1,0.1-0.1,0.2
				c-1.7-0.6-1.9-0.5-2.5,1.2c0,0.2-0.1,0.4-0.3,0.5c-0.1,0.1-0.3,0.3-0.4,0.3c-0.4-0.1-0.7-0.1-1.1,0c-0.4,0.1-0.7,0.3-0.9,0.5
				c0,0.1,0,0.1,0,0.2c-1.6,0.2-3.2,0.3-4.8,0.3c-1.6,0-3-0.6-4.6-0.3c-0.5-0.7-1.5-1-1.7-2l-1.7-1.4c-1.1-0.1-2.3-0.3-2.5,1.4
				c0.6,0,0.4-0.9,1-0.8c0.2,0.4,0.3,0.8,0.6,1.1s0.8,0.4,0.5,1c-0.7,0-1.3-0.3-2,0c-1.2,0.8-3-0.1-4.1,1.2c0.8,0.9,0.9,0.9-0.2,1.4
				c0.4-1.3-1-1.1-1.7-1.5c1.7-1.4,1.8-1.6,1.5-2.8C54,22,53,21.4,50.9,21.9c-1.9,0.3-3.7,0.8-4.1,3.1c0.1,0.7-0.2,1.4,0.3,2
				c-0.1,0.2,0,0.5-0.2,0.6c-1.1,1.1-1.5,2.8-0.9,4.2c0.1,0.5,0,1-0.2,1.4c-0.1,0.5-0.3,1-0.7,1.4c-0.3,0.4-0.7,0.7-1.1,0.9
				c-0.6,0.3-1.1,0.7-1.5,1.2l0,0c-0.5,0.5-0.4,1.2-0.7,1.7C41.5,39.4,41.4,40.1,42.2,40.7z M58.6,36.5L58.6,36.5
				c0.7,0.4,1.5,0.9,1.2,1.7c-0.5,1.3,0.5,1.3,1.1,1.6l0,0l0,0c1.9,2.7,4.8,2.7,7.6,2.9c1,0.6,1.9-0.1,2.9,0
				c1.6,0.2,3.2-0.4,4.2-1.7c0.6-0.9,1.4-1.6,2.4-2.1c0.2-1,1.2-1.7,2.3-1.5c0,0,0,0,0.1,0c0,0.1,0,0.2,0.1,0.2
				c0.9,1.1,1.2,2.6,2.1,3.8c-0.1,0-0.1,0-0.2,0.1c0,0-0.1,0.1-0.1,0.1c-2.1-1.8-2.9-1.8-5.2,0c-1,0.8-2,1.7-2.8,2.7
				c0,0,0,0.1,0,0.1c-2.9-0.2-5.8,0.1-8.8,0.1c-2.2-0.5-4.3-1.2-5.4-3.5c-0.1-0.3-0.5-0.7-0.9-0.4c-0.8,0.7-2,0.3-2.8,1
				c0,0.2-0.1,0.5-0.3,0.6c-0.5-0.7-2.3-0.7-1.3-2.2V40c0.8-0.9,1.5-1.8,2.1-2.8C57.2,36.5,58,36.2,58.6,36.5
				C58.6,36.4,58.6,36.5,58.6,36.5L58.6,36.5z M63.2,31l-0.2,0.2L63,31.1L63.2,31L63.2,31z M70.9,30c0-0.1-0.1-0.1-0.1-0.1h-0.1H71
				C70.9,29.9,70.9,30,70.9,30L70.9,30z M69.9,29.9c-0.5,1.2-0.4-0.1-0.5-0.2c0.2,0,0.4,0.1,0.6,0.1C69.9,29.8,69.9,29.9,69.9,29.9
				L69.9,29.9z M79.7,29.8l-0.1-0.1h0.1L79.7,29.8z M85.3,28.9C85.3,28.9,85.3,29,85.3,28.9L85.3,28.9l-0.2-0.1c0,0,0.1-0.1,0.1-0.1
				C85.2,28.8,85.2,28.9,85.3,28.9L85.3,28.9z M48.9,49.3H49h0.1l0,0l-0.3,0.2L48.9,49.3z M43.4,56.9c0.1,0,0.3,0,0.4-0.1
				C43.7,56.9,43.5,56.9,43.4,56.9L43.4,56.9z M75,57.5l0.1-0.3c0.1,0.1,0.2,0.2,0.3,0.3C75.2,57.4,75.1,57.4,75,57.5z"/>
		</g>
		<path class="st6" d="M46.5,92.7c0.4,1.1,1.2,2,2.2,2.7c1.8,1.1,3.6,0.4,6.7,0.3c2.3-0.1,2.8,0.2,6.3,0.5
			c12.6,1.1,20.8,1.8,26.7,1.3c0.8-0.1,3-0.3,4.2,1c0.8,0.8,1.1,2,0.7,3.1c-0.9,2-5.4,1.6-8.7,1.4c-19.2-1.3-28.8-2-34-0.4
			c-1.1,0.3-3.7,1.2-5.5,0c-2.5-1.7-3.1-5.2-1.4-7.7C44.4,93.8,45.4,93.1,46.5,92.7L46.5,92.7z"/>
		<path class="st6" d="M80.4,56.8c2.4-0.3,4.8,0.2,7.2,0.4c1.2,0.1,2.5,0.2,3.7,0.2c0.3,0,0.7,0.1,1,0.2c0.3,0.1,0.6,0.3,0.8,0.6
			c0.2,0.3,0.4,0.6,0.5,0.9c0.1,0.3,0.1,0.7,0,1c0,0.2-0.1,0.3-0.2,0.5c-1.1,1.6-0.7,3.2-0.2,4.8c0.2,1.1,0.9,2.1,1.9,2.6
			c1.5,0.8,1.7,2.3,1.4,3.8c-0.5,0-0.4,1.2-1.2,0.7c-0.6-0.4-1.4-0.9-1.2-1.6c0.4-1.4-0.6-1.9-1.4-2.1c-2.5-0.8-3.5-2.6-4.1-5
			c-0.4-1.3-1.4-2.3-2.6-2.8c-0.7-0.2-1.3-0.2-2-0.3c-0.2-0.1-0.3-0.1-0.5-0.1C80.8,60.3,80.3,59.7,80.4,56.8z"/>
		<path class="st7" d="M52.5,79.4c-0.1,0.1-0.2,0.2-0.3,0.3c-0.1,0.1-0.3,0.1-0.4,0.1c-0.2,0.3-0.5,0.6-0.9,0.8
			c-0.8,0.3-1.7,0.4-2.5,0.2c-1.8-0.3-2.4,0.1-2.6,2.1c0.2,0.4,0.3,0.8,0.4,1.2c0.1,0.4-0.1,0.9,0.1,1.3c0.7,1.2,0.1,1.9-0.7,2.7
			c-1,0.7-2,1.7-3.3,0.4c-0.4-0.4-1.1,0.1-1.7-0.1c-1.5-1.2-1.6-1.9-0.2-3.2c0.5-0.4,1-1,1.2-1.7c0.3-0.6,0.4-1.3,0.3-2
			c-0.8-2.4,1.1-4.1,1.6-6.1c0.2-0.6,1.4-1,1.7-0.3c0.9,2,2.4,1.1,3.6,0.8c1.6-0.4,2.8,0.6,4.1,0.9C54.2,77.1,53.9,78.5,52.5,79.4z"
			/>
		<path class="st7" d="M49.2,48L49.2,48H49c-0.4,0.8-0.8,1.5-1.3,2.2c-0.5,0.6-1.2,0.9-2,1c-0.8,0.1-1.5-0.1-2.1-0.6
			c1.1-0.3,1.8-1.1,2-2.2c0.5-1.7,0.2-3.5-0.8-5c-0.6-0.9-0.2-2.1,0.2-3.2c1.7-1.1,4-1,5.6,0.3c0.6,0.6,1.1,1.3,1.5,2.1
			c0.1,1,0.5,2.1-1,2.6c-0.6,0.2-0.6,1-0.8,1.5S50,48.1,49.2,48z"/>
		<path class="st6" d="M91,23.1c0,1-0.5,2-1.3,2.6c-0.4,0.8-1.2,0.8-1.9,0.8c-0.9,0-1.8,0.3-2.5,1c-1.2,0-2.4-0.4-3.3-1.1
			c-0.4-0.3-0.8-0.7-1.1-1.1c-0.3-0.5-0.6-0.9-1-1.3c-0.3-0.4-0.8-0.8-0.4-1.4c2.7-0.6,5.3-2.1,8.3-1.6C89,21.5,90.5,21.6,91,23.1z"
			/>
		<path class="st6" d="M90.3,72.8c-0.4-0.3-1.1-0.2-1-1c-1.1-3.2-1.7-6.6-3.3-9.6c-0.2-0.5-0.4-1,0.1-1.5c0.6-0.1,1.2-0.1,1.4,0.7
			c0,0.3,0.2,0.5,0.3,0.7c0.2,0.2,0.4,0.4,0.7,0.5c0.4,0.2,0.7,0.6,0.8,1c-0.5,1.2,0.8,1.9,0.9,2.9c0.1,0.7,1.1,1.1,1.9,1.3
			c1,0.2,1.9,0.8,2.6,1.6c0.4,0.4,1.1,0.9-0.1,1.2c-0.2,0-0.2,0.6,0.1,0.6c0.9-0.1,0.5,0.9,1,1.1c0.7,0.6,0-1.6,1-0.5
			c-0.1,1.4-0.5,1.6-1.6,1.2c-0.6-0.2-1.2-0.2-1.8,0C92.2,73.3,91.2,73.3,90.3,72.8L90.3,72.8z"/>
		<path class="st7" d="M47.3,25.7c-0.5-0.6-0.2-1.3-0.3-2c0.4-2.3,2.2-2.8,4.1-3.1c2.2-0.5,3.1,0,3.6,2.3c0.3,1.2,0.2,1.4-1.5,2.8
			c0.8,0.4,2.3,0.2,1.6,1.8c-0.4,0.4-0.8,0.6-1.3,0.8c-0.5,0.2-1,0.2-1.5,0.2c-0.5-0.2-0.9-0.5-1.1-0.9c-0.8-0.7-1.4-1.8-2.8-1.3
			C47.5,26.7,47.5,26,47.3,25.7z"/>
		<path class="st6" d="M56.7,60.5c0.4-0.4,0.6-0.9,0.3-1.3s-0.8-0.2-1.3-0.2c-1.1,0.2-2.1,0.4-3.2,0.4c-1,0.1-1.9,0.5-2.6,1.2
			c-1.3,0.8-2.4,1-3.4-0.1c-0.3-0.3-0.6-0.5-1-0.7c-0.4-0.1-0.8-0.1-1.2,0c0.1-0.3,0.2-0.6,0.6-0.7c2.6-0.5,5-1.8,7.7-1.7
			c0.2,0,0.5-0.1,0.6,0c2.1,1,4.1,0.1,6.2,0.1c0.2-0.6-0.6-0.5-0.6-0.9c1.3-1,1.9-0.9,2.2,0.5c0.1,0.6,0.6,0.7,0.9,1.1
			c0.7,0.9,2,0.1,2.8,0.9c0.1,0.9-0.6,0.8-1.1,0.8c-0.7,0.1-1.5,0.1-2.3,0.1c-0.6-0.1-0.9-0.5-1.3-0.8s-1-0.4-1.2,0.3
			C58.1,59.9,58,61.4,56.7,60.5z"/>
		<path class="st6" d="M90,44.7c-0.1-0.7-0.4-1.4-0.9-2c-0.2-0.4-0.5-0.6-0.9-0.8c-0.4-0.2-0.8-0.2-1.2,0c-0.7,0.3-1.6,0.4-2,1.2
			c-1.3-0.1-2.3-1-2.5-2.2c-0.3-0.6,0.1-0.7,0.5-0.7c0.9,0.5,1.6-0.3,2.5-0.3c0.6-0.1,1.2-0.2,1.9-0.3c1.2,0.1,2.5,0,3.7-0.3
			c0.4,0.5,1.3,0.5,1.6,1.2c0,1.1-0.3,2.2-0.7,3.3c-0.2,0.8-1,1.3-1.7,1.1C90.1,44.7,90.1,44.7,90,44.7z"/>
		<path class="st6" d="M41.4,69.5c0.7,1.2,0.7,1.1,1.5,0.2c1-1.3,2.1-2.5,3.1-3.8c0.3-0.3,0.5-0.7,1.1-0.5c0.2,0.1,0.4,0.3,0.5,0.5
			c0.1,0.2,0.1,0.5,0,0.7c-0.1,1.2-0.5,2.3-1.2,3.3c-0.7,0.8-0.9,1.3-0.4,2.1c0.1,0.1,0,0.3,0,0.5c-0.8-0.1-1.6,0.4-2.4,0.3
			C41.3,72.7,40.5,71.6,41.4,69.5z"/>
		<path class="st8" d="M93,100.4c1.2-0.6,1.6-2,1-3.1c0,0,0,0,0,0c1.2,0.2,2.2,0.3,1.7,1.8c-0.1,0.8-0.1,1.5,0,2.3
			c1.2,0.5,2.3-0.7,3.5-0.3c0.1,0,0.3-0.2,0.3-0.3c-0.4-1.2,0.7-0.7,1.1-1c0.6,0.6,0.9,1.2,0.3,2c-1.7,1.2-3.7,1.1-5.6,1.3
			c-2.1,0.8-3.4,0.3-4.4-1.4C91.3,100.7,92.1,100.6,93,100.4z"/>
		<path class="st7" d="M46.3,91.6c-0.6-0.6-1.5-0.8-2.1-1.3s-0.5,0.3-0.9,0.3c0-0.9-0.8-0.8-1.3-1.2s-0.9-0.7-1.3-1.1
			c1.6-1,2-1,3,0.6c0.4-0.9,1.3-0.8,1.9-1.2s1.4-1.8,2.5-0.4c0.8,1,1.1,3.6,0.3,4.3C47.9,92.2,47,92.2,46.3,91.6
			C46.4,91.6,46.3,91.6,46.3,91.6z"/>
		<path class="st7" d="M49.6,27.8c-0.8,0.6-0.4,1.8-0.9,2.6c-0.6,0.4-0.5,1.1-1,1.6s-1.1,1-1.7,0.1c0.2-0.4,0.3-0.9,0.2-1.4
			c-0.6-1.5-0.2-3.1,0.9-4.2c0.1-0.1,0.1-0.4,0.2-0.6c0.3,0,0.4,0.6,0.8,0.4c1.7-1,2.2,0.6,3.2,1.3C50.8,28,50,27.2,49.6,27.8z"/>
		<path class="st6" d="M91.3,29.7c-0.7,0.4-1.1,0.2-1.3-0.7c-0.5-1.7-1.1-1.8-2.3-0.4c-0.9,0.3-1.8-0.2-2.2-1.1
			c-0.4-1.4,0.7-1.3,1.4-1.4c0.9,0,1.9-0.2,2.8-0.4c0,0,0,0.1,0.1,0.1C92,27.1,92,27.1,91.3,29.7z"/>
		<path class="st9" d="M78,73.2l0.7,0.3c-0.6,1.2-1.7,2-3.1,2.2c-1.9,0.5-3.9,0.7-5.8,0.4c-1-0.1-2-0.1-2.9,0.1
			c-1.8,0.3-3.6,0.1-5.3-0.6c0.7-0.6,1.2,0.2,1.8,0c0.4,0,0.8,0,1.2-0.2c1-0.2,2-0.7,3,0c0.4,0.2,1.1,0,1.6-0.1
			c0.9-0.3,1.9-0.4,2.9-0.3c1.4,0.1,2.8-0.3,3.9-1.1C76.5,73.5,77.1,72.8,78,73.2z"/>
		<path class="st6" d="M54.2,112.6v-2.4c0.8,1.7,2.8,1.9,3.5,3.4c0.5-0.4-0.4-0.8,0.3-1c0.3-0.1,0.8-0.1,0.8,0.3
			c-0.2,1.8,1.3,1.6,2.2,2c0.8,0.4,1.7,0.2,2.4,0.9c-2.7-0.2-5.2-1.2-7.8-1.7C54.8,114,54.5,113.2,54.2,112.6z"/>
		<path class="st8" d="M86.3,105c-0.7-0.2-1.5-0.5-2.2-0.8c-0.6-0.5-1.5-0.4-2,0.1c-0.1,0.1-0.1,0.1-0.1,0.2
			c-0.4-1.5-0.1-2.9-0.1-4.4c0-0.3,0.1-0.7,0-0.8c-1-0.8-0.2-1.7-0.1-2.6c-0.4-0.6-0.5-1.2,0.3-1.4s1,0.3,1.1,1
			c0.3,2.2,1.8,3.2,3.6,3.9c0.7,0.1,1.4,0.3,2.1,0.6c0.8,0.3,1.4,0.6,0.3,1.3c-0.3,0.2-1,0.3-0.7,0.9s0.8,0.3,1.3,0.1
			c1.2-0.3,2.2-0.3,2.8,1c-1.5,0.4-3.1,0.1-4.5,0.9C87.4,105.6,86.9,105,86.3,105z"/>
		<path class="st8" d="M92.5,104.3c-0.9-0.4-2.1-1.3-2.7-0.6c-0.9,1.1-1.3,0.2-1.8,0c-1-0.5-1-1,0.1-1.5c0.4-0.2,0.8-0.4,1.2-0.5
			c-0.2-0.2-0.5-0.2-0.7-0.3c0.8-1.2,1.6-0.6,2.3,0c1,1.6,2.6,1.7,4.3,1.7C94.6,104.1,93.5,103.9,92.5,104.3z"/>
		<path class="st7" d="M83.3,103.5c-1-0.1-1.1-0.5-1-1.2c0.3-1.9-0.2-3.8-0.4-5.6c-0.3-0.3-0.7-0.6-1.2-0.7c-1.6,1.2-3,2.6-4.9,3.4
			c-0.8,0.3-1.5,0.7-2.1,1.3c-0.5,1.2,0.3,2.2,0.3,3.3c0,0.2,0.6,0.3,0.2,0.5c-1.5,0.7-0.9,1.6-0.4,2.5c0.2,0.5,0.4,1.1,0.4,1.7
			c0,0.2,0.1,0.3,0.1,0.4c0.2,0.4,0.3,0.9,0.8,0.9s0.6-0.6,0.7-1c0.1-0.3,0.3-0.7,0.5-1c0.3-0.4,0.3-1.3,1.2-1.1
			c0.8,0.1,1.4,0.9,1.3,1.7c0,0,0,0,0,0.1c-0.9-0.9-1.5-0.6-1.8,0.3c-0.8,1.9-0.4,4,0.9,5.6l1,0.1c0.2,0,0.5,0,0.6-0.2
			c0.9-1.1,1.5-2.4,1.6-3.8c0-0.5,0.3-1,0.7-1.3c1.3-1.2,2.5-2.6,3.7-3.9l0.9-0.7C85.7,103.8,84.4,103.6,83.3,103.5z"/>
		<path class="st10" d="M76.6,83.8c1.2,0.3,1.6-0.4,1.3-1.4c-0.2-0.8,0.5-0.3,0.6-0.6c1-0.2,1.7-1,1.8-2c-0.1-1.3,0.7-1.6,1.4-1.9
			c1-0.6,1.1-1.1,0.4-2c-0.2-0.5-0.2-1.1-0.1-1.6c0.2-0.5-0.1-1.1-0.7-1.2c0,0,0,0-0.1,0c-0.1,0-0.2,0-0.4,0c-0.1,0-0.2,0.1-0.4,0.1
			c-0.1,0.1-0.2,0.1-0.3,0.2c-0.1,0.1-0.1,0.2-0.2,0.3c-0.5,1.6-1.7,2.3-3,3c-0.1,0.4-0.6,0.8-0.3,1.2s0.7-0.1,1-0.2
			c1.4,0,1.7-1.2,2.3-2.1c-0.1,0.6-0.7,1.1-0.9,1.8c-0.7,2-2.4,3.5-4.5,4c-1.8,0.5-3.6,0.8-5.5,0.8c-0.8,0-1.8-0.2-2.4,0.6
			c0,0.8,0.2,1.3,1.1,0.8c0.1-0.3,0.4-0.2,0.7-0.2c0.2,0.2,0.5,0.2,0.8,0.2c1.3-0.4,2.1,0,2.6,1.4c0.4,1.2,1.4,1.2,2.4,0.3
			C74.9,84.3,75.5,83.5,76.6,83.8z"/>
		<path class="st11" d="M94.2,50.4c-2.4,0.2-3.5-1.2-2.9-3.4c-0.2-0.9-0.5-1.9-0.9-2.7c-0.2-0.7-0.5-1.3-0.9-1.9
			c-0.3-0.4-0.6-0.7-1.1-0.8c-0.4-0.2-0.9-0.2-1.4-0.1c-0.9,0.2-2,0.3-2.1,1.6l0.3,0.3c0.1,0,0.2,0.1,0.3,0.1c0.1,0,0.2,0,0.3-0.1
			c1.9-0.7,1.7-0.6,2.4,1.4c0.5,1.7,0.3,3.7,1.4,5.2c-1.3,0.2-2.7,0.7-4,0.3c-0.3,0.4-0.7,0.3-1,0.2c-0.8-0.2-1.7-0.2-2.6,0
			c0.9,0.9,1.1,2.2,0.6,3.3c0.5,0.3,1.3,0,1.6,0.5c0.8,0.8,1.8,1.4,2.9,1.7c1.2,0.6,2.6,0.5,3.7-0.3c1-0.4,1.8-1.4,3.1-1.5
			c0.6-0.1,1.3-1,1.4-2c0.2-0.8-0.3-1.6-1.1-1.7C94.3,50.4,94.2,50.4,94.2,50.4z"/>
		<path class="st11" d="M71,62c3-0.1,5.7-0.8,7.7-3.3l0,0c-0.2,0.7-0.5,1.4-0.9,2c1.8,0.6,1,2.2,1.2,3.5c0.6-0.5,1-0.7,0.9-1.5
			c-0.1-0.9,0.4-1.7,1.3-1.8c0.2,0,0.4,0,0.6,0c0.8,0,2,1.1,2.4-0.6c-0.4-0.6-1-0.3-1.5-0.3c-1.1,0-1.6-0.3-1.6-1.5
			c0-0.3,0-0.7-0.1-1c-0.1-0.3-0.3-0.6-0.5-0.8c-0.6-0.2-1,0.3-1.6,0.3c0,0.1,0,0.2,0,0.3c-1.4,1.6-3.4,2.6-5.6,2.7
			c-3.1,0.2-6.2,0.1-9.3,0.1c-1.1,0.5-1.1,2.1-2.3,2.6c0.2,0.2,0.4,0.4,0.6,0.5c0.9,0.2,1.8,0.1,2.7-0.2c1.1-0.2,2.3,0.1,3.2-0.5
			C69,62.1,70,61.9,71,62z"/>
		<path class="st11" d="M59.1,52.6C58.6,49.7,57.8,49,55,49h-1.1c-0.3,0-0.6,0.2-0.9,0.4c-0.2,0.2-0.4,0.5-0.4,0.9l0,0
			c-1,0.4-2.4-0.4-3,1.1c-0.9,1.7-2.9,1.9-4.2,3.1c-0.4,0.5-0.9,0.8-1.4,1.1c-0.7,0.3-1.2-0.4-1.9-0.2c1.8,1.2,2.3,1.2,3.6-0.1
			c1.1,0.4,2.2,1.1,3.3,0.6c1.2-0.5,2.6-0.8,3.9-0.8c0.3,0.1,0.5,0,0.8-0.1l0,0c2.8-1.1,2.8-1.1,4.8-1c0.8-0.5,0.1-0.9,0-1.4
			C58.6,52.2,58.8,52.5,59.1,52.6z"/>
		<path class="st8" d="M75.6,43.8c-1.3,1-2.9,1-4.4,1c-1.4,0-2.8-0.3-4.2,0.3c-0.2-0.8-1.2-1-1.3-1.8c3,0,5.9-0.3,8.9-0.1
			C74.5,43.9,75.3,43.4,75.6,43.8z"/>
		<path class="st6" d="M93.3,92.6c-1.2-0.7-2.7-0.9-4.1-0.5c-0.2,0-0.3,0-0.5,0c-0.8,0.1-1.6,0.4-2.2,1c0,0,0,0.1,0,0.1
			c-0.4,0-0.7-0.1-1.1-0.1c-1,0-1.8,0.3-2,1.4c0.3,0.5,0.5,1.1,0.7,1.7c0.4,1.6,1.4,2.9,2.7,3.9c1.4-0.4,2.8-1,4.1-1.9
			c0.4,1,1.2,1.9,2.2,2.3c1.4-0.2,1.4-1.4,1.9-2.6c0.3,0.8,0.3,1.6,0.2,2.4c-0.1,1.1,0.5,1.5,1.5,1.4c1.6-0.2,3.3-0.2,4-2.1
			C98.1,97.4,95.9,94.8,93.3,92.6z"/>
		<path class="st12" d="M76.7,106.1c-0.3,1.5-1.6,2.4-1.5,4l-0.6-0.9c-0.6,1.5-1.3,2.9-2.9,3.6c-0.8,0.5-1.6,0.8-2.5,1.1l-0.1,0.2
			c-0.2,0.6-0.2,1.2-1.1,1.2c-0.7,0-1.3,0.1-2,0.1s-1.5-0.3-2.1,0.3c0.5,0.3,1.1,0.4,1.7,0.3c2.4,0,4.9-0.2,7.3-0.1
			c1.8,0.1,3.6-0.3,5.2-1.3c-0.2-0.9-0.1-2-1-2.8c-0.1-0.1-0.1-0.2-0.2-0.3c0-0.1,0-0.2,0.1-0.3c0.4-0.6,0.6-1.4,0.5-2.2
			c0-0.3,0.3-0.6,0.7-0.6c0.6,0,0.3,0.4,0.2,0.7s-0.1,0.5,0.3,0.6c0.2,0,0.5,0,0.5-0.2c0-0.8,0.6-1.5-0.1-2.4S77.2,107.1,76.7,106.1
			z"/>
		<path class="st6" d="M42.3,81.2c0-1.8,0.3-3.6,2-4.7c0.1-0.1,0.2-0.4,0.2-0.4c-1.6-1.3,0.5-0.7,0.5-1.1c0.7,1.9,0.7,1.8,2.6,1.6
			c0.3,0,0.6,0.1,0.8,0c1.2-0.2,2.3-0.4,3.3,0.5c0.1,0.1,0.3-0.1,0.5-0.1c0.7-0.2,1,0,1.2,0.7s0.1,1-0.6,1.2
			c-0.4,0.1-0.2,0.4-0.1,0.6c0.5,0.3,1.1,0.5,1.6-0.1c0.1-0.2,0.3-0.3,0.5-0.4c0.2-0.1,0.4-0.2,0.6-0.2c1.2-0.6,1-1.8,1.2-2.8
			c-1.3,0.1-2.6-0.1-3.7-0.6c-3.1-1.6-6.3-1.2-9.6-0.6c-1.3,0.2-1.7,1-1.7,2.2c0,1.5,0.2,3,0.7,4.5C42.1,81.3,42.3,81.3,42.3,81.2z"
			/>
		<path class="st6" d="M44.5,91.3c-0.7-0.3-1,0-1.2,0.6c-0.8,0.6-1.5,1.5-1.8,2.4c-0.6,1.5-1.8,2.7-3.4,3.3
			c-0.6,0.3-1.1,0.6-1.6,1.1c-0.6,0.5-0.3,1-0.2,1.6s0.6,0.8,1,0.7c1,0.1,2,0.2,3,0.4c0.7-0.7,0.8-1.3-0.2-1.8
			c-0.4-0.2-0.8-0.4-1.3-0.6s0-0.4,0.2-0.6c1.4-0.3,2.7-0.6,4.1-0.9c0.6-0.8,1.3-1.4,2.2-1.9c2.2-0.8,2.2-0.9,1.2-3
			C45.9,92.1,45.3,91.6,44.5,91.3z"/>
		<path class="st6" d="M56.4,87.3c-1-0.5-2.1-0.7-3.2-0.7c-1.4,0.1-2.6-0.9-2.8-2.3c0-0.9,0.7-1,1.2-1.3c0.8-0.3,1.1-1.1,0.9-1.9
			c-0.1-0.1-0.1-0.3-0.2-0.4c-0.1-0.3-0.2-0.6-0.3-0.9l-1,0.4l0,0l0,0c-0.7,0.3-1.5,0.4-2.2,0.1c-2.3-0.7-3.5,0.3-3.3,2.7l0,0l0.6,1
			c0.6-0.4,1.3-0.2,1.9-0.3c1.5-0.3,2.1,0.3,2,1.8c0,0.3-0.1,0.8,0.3,0.7c1-0.3,1,0.3,1.3,0.9c0.4,0.9,0.8,0.9,1.8,0.2
			c0.1-0.1,0.4-0.1,0.5,0c0.5,0.7,1.4,0,1.9,0.6c-0.2,0.4-1,0.4-0.7,1.1s0.7,0.6,1.2,0.6c0.6-0.3,1.6,0.1,1.6-0.9
			C57.8,88,57.1,87.6,56.4,87.3z"/>
		<path class="st12" d="M89,91.3c0-0.1,0-0.2,0-0.4c0-0.1-0.1-0.2-0.2-0.3c-0.1-0.1-0.2-0.2-0.3-0.2c-0.1-0.1-0.2-0.1-0.3-0.1
			c-0.2,0-0.4-0.1-0.5-0.2c-0.1-0.1-0.2-0.2-0.3-0.3h0.1c0.5-0.6,0.2-1-0.3-1.3c-0.3-0.2-0.9-0.3-0.9-0.7c-0.1-1.4-1.2-1.4-2.1-1.8
			c-1.8-0.5-2.1-1.5-1.7-3.3c0.2-1.1,1.3-1.6,1.4-2.5c0.1-1.4,0.8-1.1,1.6-0.9c0.7,0.1,1.3,0.2,1.9,0.5c1.4,1,2.7,0.6,3.9-0.2
			c0.6-0.4,1.2-0.8,1.9-0.3c0.3,0.5,0.3,1.2,0.2,1.7c-0.1,1.2-0.5,2.3-0.6,3.5c0,0,0,0.1,0,0.1c-0.4,0.2-0.5,0.7-0.6,1.1
			s0.2,1.2,0.3,1.8s0.3,1.2-0.4,1.4s-0.8-0.5-0.9-1c-0.4-1.3-1-1.5-1.9-0.5c-0.6,1.2-0.5,2.5,0.1,3.7c0.8-0.2,1.8-0.7,2.2-0.2
			c0.7,0.8,1.1,0.3,1.6,0.2c1.3-0.6,1.6-2.2,2.6-3c2.1-2,2.2-2.8,0.4-4.3c-1.1-0.8-1.4-2.3-0.7-3.4c0.5-0.8,0.8-1.8,0.9-2.8
			c0.3-2.7-0.9-3.8-3.6-3.1c-0.8,0.4-1.7,0.6-2.7,0.7c-2.7-0.2-5.4-0.1-8.1,0.4c-0.1,0.9-0.7,1.8-1.5,2.3c-0.2,0-0.3,0.1-0.4,0.3
			c-0.1,0.1-0.2,0.3-0.2,0.4c0,1.3-1,2-1.7,3c-1.9-0.3-0.2,1.3-0.9,1.7c-1.9-0.6-2.6-0.4-3.3,1.2C73,85.3,72,85,72.2,84
			c0.3-1.7-0.9-1.3-1.7-1.3c-0.6,0.1-1.3,0.2-1.9,0.3c0.5,0.4,1.1,0.6,1.8,0.6c0.4,0,0,1.3,0.5,1.9c0.1,0.2,0.2,0.4,0.4,0.5
			c1.3,0.7,2,2,2,3.4c-0.1,0.1-0.1,0.3-0.1,0.4c-0.3,0.3-0.7,0.7-0.5,1.3c0.3,1-0.4,1.3-1.1,1c-1-0.4-1.5,0.1-2,0.8
			c-0.1,0.1-0.1,0.2-0.1,0.2c0,0.1,0,0.2,0.1,0.3c0.6,0.8,1.5,0.6,2.3,0.5c0.7-0.2,1.5-0.3,2.3-0.3c1.8,0.2,3.5-0.6,4.4-2.2
			c0.4-0.6,0.9-1.1,1.6-1.5c0.7-0.3,1.4-0.5,2.1-0.5c0.7,0,1.4-0.1,2-0.3c0,0.1,0,0.3,0,0.4c-0.8,0.5-2.1,0.2-2.6,1.3
			c0.7,0.7,0.5,2,1.6,2.4c1-0.9,2.3-0.9,3.4-1.4C87.4,91.6,88.2,91.4,89,91.3z"/>
		<path class="st6" d="M76.2,24.8c0.3-0.2,0.6-0.5,0.7-0.8c0.6-1.7,0.8-1.8,2.5-1.1c0.4,0.9,1.5,1.2,1.8,2.2c0,0-0.1,0.1-0.1,0.1
			c-0.3,0.3-0.2,0.8-0.3,1.1c-0.1,0.7-0.7,1.2-1.4,1.1c-0.1,0-0.1,0-0.2,0c-0.6-0.1-1-0.7-0.9-1.3c0,0,0-0.1,0-0.1
			c0-0.3-0.1-0.5-0.4-0.4c-0.9,0.4-1.6,1.1-2.7,1c-0.4-0.3-1.1-0.4-1-1.2c0.3-0.2,0.6-0.4,0.9-0.5C75.5,24.7,75.8,24.7,76.2,24.8
			L76.2,24.8z"/>
		<path class="st6" d="M80.8,92.6c1.3,1,0.3,2,0,2.9c-0.1-0.4-0.2-1-0.8-0.4c-0.3,0.3-0.7,0.7-0.9,1.1c-0.2,0.3-0.6,0.6-0.9,0.8
			c-0.4,0.2-0.8,0.2-1.2,0.2c-1.4-0.1-2.4,1.1-3.8,1c-1.3-0.7-2.7-1.4-4.3-0.7c-1.2,0-2.4-1.2-3.7-0.3c-0.4,0.3-1,0.3-0.9,1.1
			c0.1,0.4-0.4,0.4-0.7,0.3L63,98.4l-1-1c1.3-0.3,1.2-1,0.7-1.9c2.3,0.1,4.7,0.2,7,0.1c3.2,0,6.4-0.6,9.4-1.8
			C79.7,93.6,80.3,93.1,80.8,92.6z"/>
		<path class="st7" d="M91,79.3c-1.3,1-1.9,1-3.2,0.1c-0.3-0.2-0.6-0.3-0.9-0.3l-3.7-0.7c0.6,1.6,0.6,1.6-0.9,2.5
			c-0.1,0.1-0.2,0.2-0.3,0.3c1,0.9,0,1.6-0.3,2.2c-0.5,0.8,0,1.2,0.4,1.7c0.5,0.5,1.1,0.9,1.7,1.2c0.7,0.3,1.4,0.4,2.1,0.3
			c-0.3,1-0.4,1.9,0.9,1.9c0.6,0,0.9,0.3,0.6,1c-0.2,1.2,1.2,1,1.6,1.6h0.4c0.4-1.2-0.2-2.5,0.3-3.6c0.3-0.3,0.5-0.7,0.8-1
			c1.8-2.3,3.1-4.8,3.1-7.8C92.8,78.4,91.7,78.6,91,79.3z"/>
		<path class="st10" d="M90,44.7c0.3,0.8,0.8,1.6,1.3,2.3c0.8-1.1,1.6-2.2,2.2-3.3c0.8-1.4,0.5-2.2-0.9-3.3c0,0.6-1,0.6-0.9,1.4
			C92.1,43,91.3,44.3,90,44.7z"/>
		<path class="st7" d="M73.9,100.8c-0.7-0.3-1.3,0.6-1.6,0.3c-1.2-0.8-2,0-3,0.3l0,0c-1.7-1.2-3.7-0.8-5.6-1c0,0.2,0,0.4-0.2,0.6
			c-0.1,0.1-0.2,0.2-0.3,0.3l-0.2-0.1c-0.7-0.2-1.4,0.2-2.1-0.2c-2-1.1-2.1-1-3.5,0.7c0.1,0.3,0.2,0.5,0.5,0.7
			c0.2,0.2,0.5,0.3,0.7,0.3c0.7,0.2,1.4,0.5,2,0.9c0.8,0.6,2.4,1,2.1,2.6c0,0.1,0.2,0.3,0.3,0.3c0.7-0.1,0.6,0.4,0.6,0.8
			c0,0.5,0.1,1.1,0.3,1.6l0,0c-0.6,1-0.2,2-0.2,3c0,0.8-0.7,1.7-1.3,1.7c-1.2,0-3.3-1.8-3.7-3c-0.1-0.3-0.1-0.7-0.3-0.9
			c-1.1-0.9-1.4-2.6-3.2-2.9c-0.8-0.3-1.4-0.8-1.8-1.5c-0.8-1.1-1.9-1.8-3.2-2.1c-0.8-0.2-1,0.1-1.1,0.8c0.8,0.4,1.6,0.9,2.4,1.3
			c1,0.4,2.2,2.9,2.2,4.1s-0.3,2.1,0.3,3.2c0.6-0.4,0.1-1,0.2-1.2c1.3,0.7,2.5,1.7,3.9,2.5c1.7,1,3.4,1.2,5.1,1.9l0.3,0.1
			c1.4-0.1,2.8,0.1,4.2,0c1.1-0.1,1.6-0.5,1.4-1.5c0.9,0.1,1.9-0.3,2.4-1.1c2.2-0.6,2.9-1.6,3-3.9c0-0.1,0-0.2,0-0.3l0,0
			c0.2-0.9-0.1-1.8-0.7-2.6c-0.5-0.6-0.5-1.2,0.4-1.5c0.3-0.1,0.6-0.3,0.8-0.6l-0.7-0.2C74.9,103,73.7,102,73.9,100.8z M64,109
			L64,109L64,109z M67.3,101L67.3,101L67.3,101C67.3,100.9,67.3,101,67.3,101L67.3,101z"/>
		<path class="st10" d="M82.4,31.3c0.5,0.4,1,0.7,1.6,0.9v0.1c2.3,1.1,3.9,3.2,6.4,3.9l0.9,0L91,35.2c-1.3-1.7-2.6-3.4-2-5.7
			c0.1-0.2-0.2-0.4-0.4-0.4s-0.8,0-1-0.4c-0.6-0.5-1.6-0.4-2.2-1.1c-0.9-0.9-2.3-0.9-3.3-1.5l0,0c-0.2-0.5-0.7-0.6-1-1
			c-1.2-0.3-0.5,0.6-0.6,1c0,0.7,1.3,1.4,0,2s-0.7,1-0.2,1.5S81.9,30.5,82.4,31.3z"/>
		<path class="st7" d="M55.2,78.8c-1-0.6-1.7,0.8-2.7,0.4c-0.3,0.1-0.6,0.3-0.7,0.5c0.1,1.4,0.1,2.6-1.3,3.5c-1,0.7-0.5,2,0.3,2.9
			c1.2,1.2,2.8,0.7,4.2,1.1c2.2,0.7,2.3,0.9,0.9,2.4c-0.2,0.8,0.1,1.6,0.7,2.1c0.8,0.7,1.8,0.7,2.7,1.1c0.7,0,1.3,0.3,1.9,0.4
			c1.9,0.3,3.7,0.7,5.5-0.3c0-0.1,0-0.1,0-0.2c1,0.2,1.9,1.1,2.9,0.3c0,0,0-0.1,0-0.1l0,0c0.7-0.3,1.4-0.5,2.2-0.5
			c0.7,0,1.3-0.5,1.4-1.2c0,0,0,0,0-0.1c0.1-0.5,0.2-0.9,0.3-1.4c0.3-1.6,0-2.9-1.5-3.8c-0.2-0.1-0.3-0.2-0.4-0.4
			c-0.1-0.2-0.2-0.3-0.3-0.5c-0.1-1.7-1.3-2.2-2.7-2.4c-0.3,0-0.6,0-0.9,0.2l-0.3,0.2c-0.3-0.1-0.5-0.3-0.4-0.8
			c-1.6-1.1-3.6-1.1-5.3-1.7c-0.7,0-0.8-1.1-1.6-1c0,0,0,0,0,0.1l0,0l-0.9-1.5c0-0.1,0.1-0.2,0.1-0.2c0-0.8-0.1-1.5-1.1-1.7
			c-0.4,0.7-1.1,1.3-1.6,2C56.3,78.9,55.8,79.5,55.2,78.8z"/>
		<path class="st10" d="M50.1,68.1c0.2-0.7,0.5-1.4,1-2c0.5-0.8,1.4-0.7,2-1.3c0,0,0.3,0.6,0.8,0.6s1.1-0.2,1.2-0.7
			c0.2-1.5,1.3-2.7,1.5-4.2c0.1-0.2,0.2-0.3,0.3-0.4c0.1-0.1,0.3-0.2,0.5-0.2c0.7-0.1,0.8-0.6,0.7-1.2c0-0.1-0.1-0.2-0.1-0.3
			c-0.1-0.1-0.2-0.2-0.3-0.3c-0.1-0.1-0.2-0.1-0.3-0.1c-0.1,0-0.2,0-0.4,0c-2.2,0.3-4.5,0.1-6.4,1.5c-1,0.9-2.5,0.8-3.3-0.1
			c0,0,0,0,0,0c-0.5-0.6-1.4-0.7-2.1-0.2c0,0,0,0-0.1,0.1c-0.8,1,0,1.9,0.2,2.8c0.3,1.8,0.3,3.4-1.4,4.7c-1,0.6-1.8,1.6-2.3,2.6
			c0.4,1.4,0.8,1.6,1.7,0.6c0.8-0.8,1.3-1.7,2.1-2.5c0.5-0.5,0.8-1.2,1.8-1.4c0.1,1.2-0.3,2.5-1.1,3.4c-0.8,0.7-0.8,1.9-0.1,2.7
			c0.1,0.1,0.1,0.1,0.2,0.2c1.3,0.1,1.8-1.3,2.9-1.6C50.1,70.3,49.8,69.1,50.1,68.1z"/>
		<path class="st10" d="M84,73.1c2,1.3,4.1,0.5,6.2,0.2c0.1,0,0.1-0.3,0.2-0.4c0-0.7-0.7-0.8-0.9-1.3c-0.8-0.6-1.2-1.6-1-2.6
			c0.1-0.6,0-1.5-0.6-1.4c-1.6,0.2-2.2-0.6-2.6-1.9c0-0.2-0.3-0.3-0.5-0.4c-0.8-0.5-1.2-1.5-1.1-2.4c0.1-1.3-0.5-1.8-1.8-1.4
			c-0.7,0.4-1.2,1.1-1.4,1.9c0,0.8,0.6,1.2,1,1.8c1.2,1.4,1.1,2.5-0.3,3.5c-0.3,0.9-0.9,1.7-0.8,2.7c-0.2,0.6-0.2,1.2,0.6,1.1
			C82.1,72.1,83.2,72.4,84,73.1z"/>
		<path class="st10" d="M59.5,55.6c1.2-0.4,1.2-0.4,1.4,0.8c0.1,0.2,0.2,0.4,0.4,0.5c0.4,0.2,0.8,0.4,1.2,0.6c1.2,1,2.5,0.5,3.8,0.5
			c0-0.1,0.1-0.3,0.1-0.4h3.4c1.3,0,2.8,0.3,4-0.4c1.3-0.4,1.2-0.5,1.6-1.7c0.3-0.8,0.5-1.6,0.5-2.4c-1.1-1.3-1.7-3.1-3.3-4l0,0l0,0
			c-0.2-0.7,0.5-1.1,0.5-1.8c-1,0-1.7-0.8-2.6-0.3l0.1-0.4H66c-0.1,0.1-0.2,0.2-0.3,0.4l0,0c-0.4,0.1-0.9,0.1-1.2,0.7
			c-0.3,0.6-0.5,1.3-0.6,2c0,0.5,0.1,1.1-0.3,1.4c-0.8-1.4-1.6-1.5-2.7-0.2c-0.5,0.6-1.1,1-1.9,1.2c-0.3,0.1-0.7,0.2-0.8,0.6
			c0,0.5,0,0.9,0.2,1.4C58.4,54.8,58.5,55.5,59.5,55.6z"/>
		<path class="st10" d="M75.9,68.9c-0.6-1.3,0-2.7-0.7-4c-0.8-0.5-1.7-0.5-2.5-0.1c-0.6,0.4-1.1,0.2-1.7-0.3c0.5-0.3,1.1,0,1.3-0.6
			h-3.9H63c0.6,1,1.5,1.8,2.6,2.1c1,0.3,1.6,1.3,1.4,2.3c0,0,0,0.1,0,0.1c-0.2,1-0.3,1.6,1,1.1c0.1,0,0.1,0,0.2-0.1
			c0.1,0,0.1,0,0.2,0c0.1,0,0.1,0.1,0.2,0.1c0,0,0.1,0.1,0.1,0.2c0,0.1,0,0.2,0,0.2c0,0.1,0,0.2-0.1,0.2c0,0.1-0.1,0.1-0.2,0.2
			c-0.1,0.1-0.1,0.1-0.2,0.1c-0.3,0.1-0.6,0.2-0.9,0.3c-1.3,0-1.8,0.5-1.7,1.7c0.1,0.7-0.1,1.3-0.8,1.3s-1.3-0.2-1.4-1.1
			c0-0.6,0.1-1.1-0.4-1.5s-0.7-0.7-1.1-0.6s-0.1,0.7-0.3,1c-0.2,0.6-0.3,1.2-0.2,1.8c0.4,0.5,0.7,1,1.5,1.1s0.6,0.6,0.5,1.1
			c2,0.6,4,0,5.9-0.1c0.2-0.1,0.4-0.3,0.4-0.6c0.1-0.1,0.1-0.3,0.1-0.4c0.3-0.1,0.5-0.1,0.8,0c0.3,0,0.5,0.1,0.8,0.3
			c0.4,0.3,0.8,0.4,1.1-0.2s0.5-0.8,0.1-1.2s-0.4-0.8-0.7-1.2c0-0.1,0.1-0.2,0.1-0.3c0-0.3,0-0.6,0-0.9C72.1,71,72,70.8,72,70.6
			c0-0.4-0.1-0.8,0.3-1c0.6,0.5,0.1,1.4,0.7,1.9c0.7,2,1.8,2.6,3.4,1.8c-0.7-0.7-0.8-1.8-0.1-2.5C76.6,70.3,77,69.4,75.9,68.9z
			 M73.9,68.1l0.2-0.2c0,0.1,0,0.2,0,0.3L73.9,68.1z M74.9,65.9L74.9,65.9L74.9,65.9z"/>
		<path class="st6" d="M63.7,98.5c0.3-0.1,0.7-0.1,0.3-0.6s-0.2-0.8,0.3-1c0.2,0,0.4,0.2,0.6,0c1.6-1.6,2.8,0.1,4.1,0.5
			c-0.8,0-1.5,0.1-1.8,1c-0.1,0.2-0.3,0.7-0.5,0.5C65.7,98.5,64.6,99.1,63.7,98.5z"/>
		<path class="st6" d="M73.2,98.2c1.3-0.8,2.6-1.6,4.3-1.5c0.6-0.1,1.1-0.2,1.6-0.5c-0.7,1.6-1.5,3-3.6,3c-0.1-0.5,1-0.5,0.3-1.2
			C75.1,98.2,74.2,99,73.2,98.2z"/>
		<path class="st8" d="M85,49.6c-1.6-0.5-3.4-0.1-4.7-1.4c0.8-0.5,1.3-1.5,1.2-2.5c-0.1-0.7,0.4-0.6,0.8-0.8c1-0.7,2.4-0.3,3.2-1.3
			c0-0.1,0-0.2,0-0.3c0-0.1-0.1-0.2-0.2-0.3c-1.1-0.5-2-1.4-2.6-2.5c-2.3-2-3-2-5.3-0.2c-1,0.8-2,1.7-2.9,2.6
			c-0.3,1,0.6,0.9,1.2,1.1c0.6-0.1,1.2-0.4,1.8-0.8c-1.6,1.6-3.4,3.1-6.1,2.8c-0.2,0-0.4,0.1-0.6,0.2c-0.5,0.5-0.6,1,0.2,1.1
			c1.3,0,1.5,0.8,1.6,1.8c1.3,1.2,1.8,3.1,3.5,4c1.5,0.1,2-1.5,3.3-1.9c-0.5,0.9-1.3,1.7-0.6,2.8c0.6-0.2,1.1-0.7,1.7-0.4
			c0.3,0.1,0.6,0.5,0.8,0.2c0.6-0.7,1.1-0.2,1.7,0c1.1-0.8,0.6-1.9,0.4-2.8c0.9-0.4,2,0.6,2.7-0.6C85.7,50,85.3,49.7,85,49.6
			L85,49.6z"/>
		<path class="st8" d="M77.2,76.5c-0.8,0.1-1.5,0.7-2.3,0.8c-0.6,0.1-1.1,0.7-1.8,0.5c-2.2-0.6-4.3-0.3-6.5-0.4
			c-0.7,0.1-1.3,0-1.9-0.2c-1-0.4-2.1-0.5-3.2-0.4c-0.4,0.7-0.3,1.5,0.1,2.1c1.4,2,3.8,2.2,5.7,2.4c2.9,0.4,5.8,0.2,8.6-0.8
			c1.2-0.5,2.5-1.2,2.4-2.9C77.8,77.3,76.9,77.4,77.2,76.5z"/>
		<path class="st8" d="M93.2,33.9c-0.5,0-1.1-0.1-1.6-0.4c-0.5-0.3-1-0.8-0.5-1.3c0.8-0.9,0.3-1.7,0.1-2.6c-0.6-0.3-0.8-0.8-1.1-1.4
			s-0.7-1-1.4-0.9c-0.7,0-1.2,0.5-1.2,1.2c0,0,0,0,0,0.1c0.6,0.7,1,1.5,1,2.5c0,1.7,0.9,3.3,2.4,4.3c0,0.1,0,0.2,0.1,0.3
			c-0.2,0-0.4-0.1-0.6-0.1l-0.6-0.1c-1.1-0.6-2.1-1.3-3.2-2c-0.7-0.7-1.5-1.2-2.5-1.3c-0.3-0.7-1.3-0.7-1.7-1.3
			c-2.2-0.9-4.8,0.2-5,2.2c-0.1,1.3-0.1,2.7-0.1,4c0.2,0.3,0.5,0.3,0.9,0.4c0.2-1,1.2-1.7,2.2-1.5c0,0,0.1,0,0.1,0l0.1,0.2
			c1,1.2,1.3,2.8,2.3,4c0.1,0.1,0.2,0.2,0.3,0.2c0.1,0,0.3,0,0.4,0c1.9-0.5,3.9-0.7,5.8-0.7c0.6,0,1.2-0.3,1.6-0.8
			c0.9,0.4,2-0.6,2.8,0.3c0.8,0.7,1.2,0.1,1.6-0.4C97,37.7,95.8,34.1,93.2,33.9z"/>
		<path class="st8" d="M60.7,68.6c-1.3-0.9-2.4-1.9-3.5-3.1c-1-0.8-1.2-2.3-0.5-3.4c0.3-0.5,0.2-1.2-0.2-1.5c-0.7,1-1.8,1.7-1.6,3.1
			c0.1,0.7-0.3,1.4-1,1.6c-0.5-0.2-0.3-0.8-0.6-1.1s-0.3-0.5-0.6-0.5c-0.6,0.2-0.1,0.4,0,0.7s0.1,0.4-0.2,0.4
			c-2.1,0-2.3,1.7-2.8,3.1c-0.4,0.9,0,2.1-0.8,2.9c-0.3,0.4-0.5,0.9-0.5,1.5c0.5,0.2,0.6-0.4,1-0.5c0.3-0.5,0.7-1,1.1-1.4
			c0.5-0.6,1.1-1.1,1.8-1.3l0,0h0.6c0.5,0,1,0,1.5-0.1c0.6,0,1.1,0.1,1.6,0.3c0.3,0.1,0.6,0.2,0.8,0.5c0.2,0.2,0.3,0.5,0.4,0.8
			c0.2,0.6,0.3,1.3,1.2,1.3c0.4,0,0.8,0.1,1-0.4c-0.1-0.3-0.3-0.6-0.2-0.7s0.3,0.1,0.5,0.2s0.5,0.2,0.7-0.1s0.4-0.4,0.6-0.6
			c0.5-0.4,0.6-1,0.2-1.5C60.8,68.7,60.7,68.7,60.7,68.6z"/>
		<path class="st8" d="M81.6,64.4c-0.2-0.1-0.4-0.2-0.6-0.4c-0.1-0.2-0.2-0.4-0.3-0.7c0.5-0.5,0.6-1.3,1.3-1.6
			c0.1-0.1,0.1-0.3,0.1-0.5c0-0.2-0.1-0.3-0.2-0.4c-1.4-0.5-2,0-2.6,2.3c0.1-1.3,0-2.4-1.5-2.3c-0.7,0.3-0.7,1.2-1.4,1.6l0,0l0,0
			L72.2,64c-0.2,0.1-0.4,0.2-0.6,0.2c-0.4,0-0.8-0.1-0.9,0.4s0.4,0.6,0.7,0.7c0.5,0.1,1,0,1.4-0.2c0.3-0.2,0.7-0.2,1-0.2
			c0.4,0,0.7,0.2,0.9,0.4c0.3,1.1,0,2.4,0.7,3.4c0.4,0.6,0.8,1.2,0.3,1.9c-0.6,0.7-0.6,1.8-0.2,2.6c-1.1-0.2-2.1-1-2.3-2.1
			c-0.3-0.7-0.1-1.6-1.1-1.8c-0.9,0.4-0.4,1.2-0.6,1.8v0.9c0.6,1.8,0.6,1.8-1.3,2c-0.4,0.1-0.8,0.3-1.1,0.7v0.6
			c1.3,0.5,2.6,0.1,3.9,0.1c1.4,0,2.8-0.6,3.7-1.6c0.2-0.2,0.4-0.3,0.7-0.5l0.2,0.1c0.1,0.1,0.3,0.1,0.5,0.1c0.2,0,0.3,0,0.4-0.1
			c0.2-0.1,0.4-0.3,0.6-0.5c0.2-0.2,0.3-0.5,0.3-0.7c0.1-0.4,0.2-1.1,0.9-1c0.8-0.6,1.2-1.6,1-2.6c1.4-0.2,2-0.6,1.5-1.4
			S82.9,65,81.6,64.4z"/>
		<path class="st8" d="M61.4,35.5c-0.5-0.7-0.3-1.6-0.5-2.5c-0.1-0.4,0.2-0.9-0.4-1.3c-0.9-0.6-0.7,0.6-1.2,0.6
			c-0.7-1.9-0.7-1.9-2.5-0.8l-0.3,0.2c-0.2,0-0.3,0-0.5,0c-1.4,0.4-2.8,0.9-4.1,1.4c0.4-1.8,1.1-3.4,0.1-5l-0.6-0.9
			c-0.6,0-1.3-0.4-1.7,0.3c0.7-0.2,0.8,0.3,0.9,0.8c0.5,3.1-1.2,5.5-2.9,7.8l0,0c-1.5,0.3-2.8,0.8-3.3,2.5c0.3,0.5,0.2,1.2,0.8,1.5
			c2.7-0.7,5.1-0.3,6.6,2.4c0.1,0.1,0.1,0.2,0.2,0.3c0.2,0.9,0.6,1.6,1.7,1.6c0.4,0.1,0.8,0,1.1-0.2c0.3-0.2,0.5-0.5,0.6-0.9
			c0.4-0.8,1.3-1.4,1-2.5C56,40.3,54,40.4,55,38.8c0,0,0,0,0-0.1c0.7-1,1.7-1.7,2.1-2.8c0.3-0.7,1-1,1.7-0.7c0,0,0,0,0,0l0,0
			c0.7,0.4,1.5,0.9,1.2,1.7c-0.5,1.3,0.5,1.3,1.1,1.6C62,37.8,62.2,36.4,61.4,35.5z"/>
		<path class="st6" d="M70.6,31c-0.7-0.9-0.8-1.7,0.4-2.3c0.4-0.5,0.9-0.5,1.5-0.5c2.2-0.1,4.3-1.3,5.4-3.2c0.2-0.3,0.4-0.7,0.8-0.5
			c0.4,0.2,0.5,0.6,0.4,1c0,0,0,0.1-0.1,0.1c-0.2,0.5-0.6,1.1,0.2,1.3s1.3-0.1,1.4-0.9c0.8,0.2,0.8,1.1,1.3,1.5
			c0.3,0.2,0,0.4-0.2,0.6c-0.5,0.5-1,0.5-1.8,0.2c1,1.2,2.4,1.5,2.7,3c-1.6-0.8-2.9-0.1-4.2,0.9c-0.2,0.2-0.4,0.5-0.4,0.8
			c-0.1,0.3,0,0.6,0.1,0.8c0.6,1.3,0,2.3-0.4,3.3c-0.2,0.1-0.5,0.2-0.7,0.4c-0.7,0.7-1,0.3-1.1-0.4s-0.3-0.8-0.9-0.6
			c-0.5-0.8-1.4-1.4-2.3-1.6c-1.1-0.7-0.8-1.9-0.9-2.9C71.5,31.3,71.2,31,70.6,31z"/>
		<path class="st6" d="M64.7,25.4c1.6-0.3,3.1,0.4,4.7,0.3c1.6,0.1,3.3,0,4.9-0.3c0.3,0.3,1,0.2,1,0.9c-0.1,0.3-0.4,0.6-0.6,0.7
			c-0.3,0.2-0.6,0.3-0.9,0.3c-2.4,0.1-4.8,1.2-7.3,0.4c-0.2,0-0.5,0-0.6,0.2c0,0.1,0,0.1,0,0.2c0,0,0,0.1,0,0.1c0,0,0.1,0.1,0.1,0.1
			c0,0,0.1,0.1,0.2,0.1c0.3,0.1,0.8-0.3,1,0.5c-1.5-0.1-3,1.6-4.4-0.5c0.6-0.1,1-0.5,1.3-1c0.2-0.1,0.6-0.2,0.4-0.3
			C63.3,26.3,63.9,25.9,64.7,25.4z"/>
		<path class="st12" d="M90,49.4c-0.4-0.6-0.7-1.3-0.6-2c0.2-1.7-0.8-3-1-4.6c0-0.1,0-0.2-0.1-0.3c-0.1-0.1-0.2-0.1-0.3-0.2
			c-0.1-0.1-0.2-0.1-0.3-0.1c-0.1,0-0.2,0-0.3,0.1c-0.7,0.4-1.6,0.4-2,1.1c-0.3,0.5-0.9,0.2-1.3,0.4c-0.6,0.4-1.7-0.2-2,0.9
			c-0.4,0.2-1.3-0.7-1.3,0.5c0,1.5,0,1.5-1.2,2.2c-0.4,0.2-0.2,0.5-0.1,0.7c0.8,0.7,1.7,1.2,2.7,1.6c0.9-0.1,1.7,0,2.5,0.2l0.9,0.4
			c1.3,0.8,2.6,1.3,3.8-0.1c0,0,0.3,0,0.4,0.1C90,50,90.2,49.8,90,49.4z"/>
		<path class="st12" d="M42.3,39.5c1,0.8,1.4-0.1,2-0.6c0.9-1,2-1.8,3.3-2.4c0.8,0.4,1-0.3,1.2-0.7c0.5-1,1.1-2,1.7-3
			c0.6-1.2,0.8-2.6,0.5-4c-0.1-0.8-0.4-1.4-1.3-1.3c-1,0.4-1,1.3-1.2,2.1c-0.1-0.1-0.2-0.2-0.3-0.3c0.3,1-0.3,1.4-0.6,2
			s-0.8,1-1.6,0.6c-0.2,1.1-0.9,2-1.9,2.4c-0.6,0.3-1.1,0.7-1.5,1.2h0.1c-0.5,0.5-0.4,1.2-0.7,1.7C41.5,38,41.6,38.9,42.3,39.5z"/>
		<path class="st12" d="M80.7,39.8c-0.9,0-1.7,0.6-2.1,1.4c-0.7,1.1-1.8,2-3,2.6c-2,0.3-4,0.4-6,0.4c-0.9-0.1-1.9,0.1-2.7,0.4
			c-0.8,0.3-1.7,0.2-2.3,0.8c-1.9-0.7-3.6-2-4.6-3.7c-0.1-0.1-0.2-0.2-0.4-0.3h-0.2c0,0,0-0.1,0-0.2c-0.7-1.3-1.7-1.1-2.9-0.8
			c0,0.3-0.2,0.5-0.3,0.7c-0.3,0.9-0.8,1.6-1.4,2.3c-0.3,0.2-0.1,0.8-1,0.9c-1.3,0.2-1.3-0.9-1.9-1.2c-0.2,0.4-0.2,0.9,0,1.3
			c0,0.2,0.1,0.6-0.4,0.5c-1.1-0.2-1.3,0.7-1.5,1.4s-0.2,1.4-0.8,1.9c-1.7,0.8-3.2,1.9-4.6,3.2c-0.3,0.3-3.2,3.1-2.6,4.1
			c0.3,0.5,1.4,0.3,1.9,0.2c2.9-0.5,4.8-3,5.6-4.2c1-0.5,2.2-0.3,3.1-0.8c0.4-0.5,0.9-0.9,1.3-1.4c0.7,0.5,1.5,0.3,2.3,0.5
			c0.5,0.2,1.3,0.1,1.5,0.8c0.2,0.9,0.9,1.4,1.3,2.2c0.5-0.1,1-0.3,1.5-0.7c0.4-0.3,0.8-0.7,1.1-1.2c0.5-0.8,1.2-0.5,1.7,0.6
			c1,0.1,1.1-0.7,1.1-1.3c0-0.6,0.1-1.2,0.4-1.8c0.2-0.5,0.6-1,1-1.4h0.2c1.5,0,3.1,0.5,4.6-0.4c2.1,0,4.3,0.2,5.8-1.7
			C77.8,43,80.1,42.3,80.7,39.8z"/>
		<path class="st12" d="M55.8,32.2c1.1-0.2,2.3-1.4,3.2,0.3c0.1,0.3,0.5,0.1,0.7,0s0.5,0,0.5,0.4c0.1,1.9,1.5,3.7,0.8,5.7
			c1.9,2.7,4.8,2.7,7.6,2.9c0.8,0,1.6-0.2,2.4-0.2c2.4-0.1,4.2-2.2,4.1-4.6c0,0,0-0.1,0-0.1c-0.4-1.1-1.4-1.9-2.5-2h-0.2l-0.8-4.7
			c-0.5,0.1-0.4,0.7-0.7,1c-0.6-0.7-0.6-0.8-0.1-1.7C71,29.1,71,29,71,28.9c0-0.1-0.1-0.2-0.1-0.3l0,0H71c1.9,0.2,3.9-0.3,5.5-1.3
			c0.9-0.6,1.5-1.2,1.3-2.4l-2.6,1.3c-2.8,0.7-5.6,1.2-8.4,1.4l-0.4-0.1c-1.2,0.1-1,0.7-0.4,1.4c-2.4,0.2-2.4,0.2-1.8-1.5
			c-0.7-1.2-1.8-2.1-3.1-2.6c-0.7,0-1.3-0.3-2,0c-1.2,0.8-3-0.1-4.1,1.2c0.9,0.9,0.9,0.9-0.5,1.5c-0.8,0.5-1.7,0.8-2.6,0.9
			c0.2,1.9-0.1,3.8-0.8,5.6C52.9,33.7,54.3,32.7,55.8,32.2z M70.1,28.5L70.1,28.5c-0.6,1.3-0.5,0-0.6-0.1L70.1,28.5z M63.4,29.7
			l-0.2,0.2l-0.1-0.1C63.2,29.8,63.3,29.8,63.4,29.7L63.4,29.7z"/>
		<path class="st12" d="M59.9,68.8c0.5,0.5,0.7,1,0,1.4c-1.5,0.3-1.6,0.3-0.8,1.2c0.8,0.7,1.2,1.7,2.3,2c0.6-0.4,0.4-1.3,0.9-1.9
			c0.7,0.4,0.6,1.1,0.8,1.6c0.1,0.3,0.3,0.6,0.6,0.8c0.3,0.2,0.6,0.3,0.9,0.3c0.6,0.1,1.1-0.3,1.3-0.8c0-1.2,1-2.2,2.2-2.3
			c0.7-0.1,1.3-1.1,0.5-1.6c-1-0.5-1.1-1.2-1.3-2.1c-0.1-0.3-0.2-0.7-0.5-0.9c-0.2-0.3-0.5-0.5-0.8-0.7c-0.8-0.4-1.5-0.8-2.2-1.4
			c1.7,0,3.3-0.1,4.8,0.1c1.1,0,2.2,0,3.3-0.1c1.6-0.4,3.1-0.9,4.5-1.7c0.8-0.4,1.1-1.2,1.6-1.8s1.2-1.3,0.6-2.2c-0.2,0-0.3,0-0.5,0
			c-0.2,0-0.3,0.1-0.4,0.3c-1.9,1.7-4.4,2.6-7,2.5c-2.1,0-3.9,0.9-5.9,1.3c-0.9,0.3-2,0.2-2.8-0.3c-0.5-0.5-0.9-1.1-1.1-1.7
			c-0.3-0.7-0.5-1.5-1.4-1.8c-0.9,0-1.3,1.3-2.3,0.9c-0.2,0-0.5,0.1-0.6,0.3c-0.2,0.2-0.3,0.4-0.3,0.6c0.1,0.6,0,1.2-0.2,1.7
			c-0.5,1.2-0.2,2.5,0.7,3.4C57.8,66.8,58.8,67.9,59.9,68.8z"/>
		<path class="st12" d="M78.8,95.9c-0.6,1.2-1.5,2.2-2.6,3c0-1.4,0-1.4-1.2-1.1c-0.6,0.2-1.3,0.2-1.9-0.1c-1.2-0.9-2.8-1.2-4.2-0.7
			c-0.5,0.1-1,0-1.4,0.4c-1.1,1.3-2.6,1-4,0.8c-0.1,0-0.2,0-0.3,0.1c-0.1,0-0.2,0.1-0.3,0.2c-1.8,0.4-3.7,0.3-5.5-0.3
			c0.2-0.5-0.2-1-0.2-1.5c-0.1-0.3-0.3-0.7-0.6-0.9C55.5,94,55.5,94,54,95.5c-1.1,1.1-2.1,2.4-3,3.7c-0.5,0.8-1.2,1.5-2,1.9h-0.4
			c0.8-1.3-0.6-1.2-1.3-1.5c0.3-1.2-0.7-2.1-0.9-3.2c-0.2-0.7-0.8-0.6-1.3-0.1s-1,1.3-1.7,1.9c-0.3-0.1-0.3-0.4-0.4-0.6
			c-0.5-0.1-1-0.4-1.4-0.3c-0.8,0.3-1.4,1-2.5,0.5C39,97.6,39,97.9,39,98.2c-0.8,0.3-1,0.8,0,1.3c0.8,0.3,1.4,1.1,1.4,1.9
			c1.7,1.5,3.8,2.5,6.1,3c1,0.2,1.8-0.8,2.8-0.5c1.7-0.6,2.8,0.5,3.8,1.6c0.5,0.7,1.2,1.2,2,1.6c1.5,0.7,2.7,2.1,3.3,3.7
			c0.3,0.7,0.7,1.2,1.2,1.7c0.5,0.5,1.1,0.9,1.8,1.1c1.7,0.7,2.9-0.2,3-2c-0.1-0.9-0.1-1.8,0-2.8c0-2.6-1.5-4.9-3.8-6
			c-0.9-0.3-1.7-0.7-2.4-1.3c0.1,0,0.3-0.1,0.4-0.2c0.1-0.1,0.2-0.2,0.3-0.4c0.1-0.4,0.5-0.7,0.9-0.6c0.2,0,0.4,0.2,0.5,0.3
			c0.9,1.2,1.9,1.1,3,0.6c0.7,0.1,0.8-0.2,0.8-0.8c0.3,0.2,0.5,0.3,0.8,0.4c0.3,0.1,0.6,0.1,0.9,0c1.3-0.3,2.3,0.3,3.4,0.6
			c0.9,0.3,1.6-0.7,2.5-0.3c0.8,0.3,1.8,0.1,2.4-0.6c1.5-0.6,3-1.3,4.4-2.3c1-0.6,1.9-1.4,2.4-2.4c0.1-0.1,0.2-0.2,0.3-0.3
			c0.1-0.1,0.1-0.3,0.1-0.4C80.3,94.4,80,94.4,78.8,95.9z M46.7,99.7c0.1-0.2,0.3-0.1,0.4-0.1L46.7,99.7z"/>
		<path class="st12" d="M89.4,70.8c-0.3-0.3-0.4-0.6-0.5-1c-0.4-2.4-1.1-4.8-2.2-7c-0.3-0.6-1.1-1.2-0.7-2.1c-0.6-0.7-1.3-0.2-2-0.3
			c0,0.2-0.1,0.4-0.2,0.5c-0.1,0.1-0.2,0.1-0.3,0.1c-0.1,0-0.2,0-0.3,0h-1.6l0.3,0.6c0.8-0.3,1.5-0.2,1.2,0.8
			c-0.5,1.6,0.2,2.5,1.5,3.3c0.1,0.1,0.2,0.1,0.3,0.3c0.2,0.2,0.3,0.5,0.2,0.8c0,0.1-0.1,0.3-0.2,0.4c-0.7,1.1,0.1,1.1,0.8,1
			c0.7-0.1,1.4-0.2,2.1-0.3c0,1.6-1,3.4,1.3,4C89.6,71.5,90,71.2,89.4,70.8z"/>
		<path class="st12" d="M77.9,77.5c0.1,0.3,0.2,0.5,0,0.8c-1.1,1-2,2-3.6,2.3c-1.8,0.3-3.6,0.1-5.4,0.3c-1.1,0.2-2.1,0.7-2.9-0.6
			c-0.3-0.3-0.7-0.4-1.1-0.3c-1.2,0.1-2.4-0.4-3.2-1.3c-0.8,0.7,0,1.4,0,2c0.5,0.5,1.2,0.9,1.9,1.1c1.1,0.3,2.3,0.2,3.4,0.6h2
			c2.5,0.1,5-0.3,7.3-1.3c2.3-1.1,4.2-3.8,4.1-6.1C79.3,75.7,78.9,76.9,77.9,77.5z"/>
		<path class="st9" d="M80.3,50.8c-1.1-0.5-1.1-0.5-1.8,0c-0.9,0.7-1.6,1.7-2.7,2.1c-0.6,1.1-1.4,2.1-0.4,3.3
			c-0.7-0.1-1.3,0.5-2.1,0.6C72.6,57,71.7,57,70.8,57c-1.5,0.1-3.1-0.5-4.5,0.6c-1.3,0.4-2.7,0.4-3.9-0.1c-0.2,0.8,0.5,0.7,0.9,0.8
			c0.7,0.1,1.4,0.1,2.1,0.1C66.2,58,67.1,58,68,58c3,0.6,6.1,0,8.8-1.5c0.5-0.9,1.5-1.5,1.7-2.5C78.5,52.7,79.2,51.5,80.3,50.8z"/>
		<path class="st9" d="M84,106.7c-0.5,0.4-0.8,1.1-1.3,1.4c-1.3,0.6-2.1,2-2.1,3.4c0,0.6-0.2,1.2-0.6,1.6c-0.4,0.5-0.6,1-0.8,1.6
			c1.1,0.4,1.7-0.4,2.3-1.1c1.1-0.3,1.9-0.8,1.9-2c0-0.4,0.2-0.7,0.4-1c0.4-1.7,0.9-3.3,1.6-4.9C84.5,105.4,84.4,106.3,84,106.7z"/>
		<path class="st9" d="M61.4,76.9c-0.6,0.1-1.1-0.3-1.2-0.8c0,0,0-0.1,0-0.1c-0.3-1.2-1.3-1.8-1.9-2.8c-0.2-0.3-0.5-0.4-0.8,0
			c-0.1,0.2-0.6,0.4-0.1,0.8c0.8,0.6,0.7,1.6,0.9,2.5c0.6,0.4,0.5,1.2,0.9,1.7c-0.2,0.8,0.1,1.5,0.8,1.9c0.7,0.2,1,1.2,1.9,0.7
			c0.5-0.7,0-1.4-0.1-2.1C61.8,78.1,61.6,77.5,61.4,76.9z"/>
		<path class="st9" d="M62.7,95.5c-0.6-0.2-1.3-0.4-2-0.3c-0.2,0.3-0.5,0.7-0.8,1c-0.8,1.1-1.7,1.3-2.9,0.6
			c-0.5,0.6,0.3,0.9,0.4,1.3l0,0c1.6,1.2,3.7,1.4,5.5,0.5c0.3-0.5-0.1-1,0.3-1.5C63.8,96.3,63.3,95.9,62.7,95.5z"/>
		<path class="st9" d="M64,60.1c-0.7,0-1.4-0.3-1.9-0.7c-0.8-0.3-1-1.3-1.8-1.5c-0.4-0.1-0.9-0.3-1.2,0.1s0.3,0.7,0.4,1.1
			c0.5,0.4,0.8,0.9,0.9,1.5c0.2,0.9,0.7,1.6,1.3,2.2c0.3,0,0.7,0,1-0.2c0.3-0.1,0.6-0.3,0.9-0.5c0.7-0.6-0.4-0.5-0.4-0.8
			s0.2-0.3,0.4-0.3C64.2,60.7,64,60.3,64,60.1z"/>
		<path class="st9" d="M93.6,78.8c-1,2.6-1.7,5.4-3.5,7.6c-0.2,0.2-0.3,0.3-0.3,0.6c0,0.2,0,0.4,0,0.6c0.3,0,1-0.8,0.9,0.4
			c0,0.3,0.1,0.7,0.3,0.9c0.2,0.3,0.4,0.5,0.7,0.7c0.6,0.4,1.6,0.1,1.5-0.3c-0.1-0.8,0.5-1.6-0.1-2.3s-0.3-1.6,0.3-2.3
			c0.1-0.4,0.1-0.8,0.3-1.2C93.8,81.9,94.4,80.4,93.6,78.8z"/>
		<path class="st9" d="M84.2,95.3c0-0.2-0.1-0.4-0.3-0.5c-0.1-0.1-0.3-0.2-0.5-0.3c-0.2-0.2-0.4-0.4-0.5-0.7
			c-0.1-0.2-0.2-0.5-0.2-0.8c0-0.8-0.5-0.9-1.1-0.9c-0.4-0.1-0.6,0.2-0.9,0.4c-0.3,1,0.3,1.9,0,2.9l-0.1,0.6c0.1,0.7,0.5,0.8,1,0.7
			c0.2-0.4-0.3-1.1,0.4-1.2s0.5,0.4,0.5,0.8c0.2,2.2,1.8,4,4,4.4c0.1-0.1,0.1-0.2,0.2-0.3c0-0.1,0-0.2,0-0.4
			C85.7,98.6,84.8,97,84.2,95.3z"/>
		<path class="st9" d="M59.2,41.4c0.5,0.4,0.9,0.9,1.2,1.5c0.8,1.6,2.5,2.6,4.4,2.5c0.8-0.2,1.6,0.1,2.3-0.4
			c0.4-1.2-0.6-1.4-1.3-1.8c-2.2-0.5-4.3-1.2-5.4-3.5c-0.1-0.3-0.5-0.7-0.9-0.4c-0.8,0.7-2,0.3-2.8,1C57.6,40.2,58.6,40.6,59.2,41.4
			z"/>
		<path class="st9" d="M71.6,41.5c1.6,0.2,3.2-0.5,4.2-1.8c0.6-0.9,1.4-1.6,2.4-2.1c-0.1-0.1-0.2-0.3-0.3-0.3
			c-0.1-0.1-0.3-0.1-0.4-0.1c-0.6-0.1-1.3,0.1-1.7-0.7c-0.2-0.4-0.3-0.3-1,0.1c0.3,1.5-0.6,2.3-1.6,3.3c-1,1-2.3,1.4-3.7,1.2
			c-0.2,0-0.3,0-0.5,0c-0.1,0.1-0.3,0.2-0.4,0.3C69.7,42,70.6,41.3,71.6,41.5z"/>
		<path class="st9" d="M60,22.7c0.2,0.4,0.3,0.8,0.6,1.1s0.8,0.4,0.5,1c0.9,1,1.9,1.8,3,2.6c0.5,0.3,0.8,0.1,0.7-0.4
			c-0.1-0.5,0-1.1,0.1-1.6c-0.5-0.7-1.5-1-1.7-2l-1.7-1.4c-1.1-0.1-2.3-0.3-2.5,1.4C59.5,23.5,59.3,22.6,60,22.7z"/>
	</g>
</g>
<g id="Capa_2_2_">
	<g id="Capa_1-2_1_">
		<circle class="st0" cx="69" cy="278.5" r="69.5"/>
		<path class="st4" d="M99.2,285.9L72.7,228l-24.2,54c-3.7,6.6-7.3,13.2-6.9,20.7c0.7,14.4,12.7,31,31.2,31s30.6-16.5,31.2-31
			C104,296.8,101.9,291.9,99.2,285.9z"/>
		<path class="st3" d="M84.7,265.4c-0.9,0.4,3.4,8,4.9,20.4c1.1,9,2.8,22.3-5.3,30.3c-5.3,5.3-12.7,6.1-14.8,6.4
			c-9.6,1.1-16.6-3.2-17-2.4s6.1,6.3,14.8,7.7c6.8,1,16.6-0.1,24.1-7.5c6-5.9,9-14.2,8.2-22.6c-0.3-2.7-1.3-5.2-3.3-10.2
			C91.9,276.3,85.7,264.9,84.7,265.4z"/>
		<path class="st3" d="M72,238.4c-1.3-0.3-2.6,9.3-9.6,23.2c-3.6,7.2-6.3,10.5-8.1,17.9c-1.5,5.9-1.8,11.9-1.1,12.1
			c0.7,0.2,1.9-8.2,7.3-19.2c5.1-10.1,8.8-12.1,11-20.9C73.1,245.1,73.1,238.6,72,238.4z"/>
		<path class="st13" d="M95.3,282.1l-26.5-57.9l-24.2,54c-3.7,6.6-7.2,13.2-6.9,20.8c0.7,14.4,12.7,31,31.2,31s30.6-16.5,31.2-31
			C100.1,293,98.1,288.1,95.3,282.1z"/>
		<path class="st14" d="M80.8,261.6c-0.9,0.4,3.4,8,4.9,20.4c1.1,9,2.7,22.3-5.3,30.3c-5.3,5.3-12.7,6.1-14.8,6.4
			c-9.6,1.1-16.6-3.3-17-2.4c-0.4,0.9,6.1,6.3,14.9,7.7c8.8,1.4,17.7-1.4,24.1-7.5c6-5.9,9-14.2,8.2-22.6c-0.3-2.7-1.3-5.3-3.3-10.2
			C88,272.5,81.9,261.2,80.8,261.6z"/>
		<path class="st15" d="M68.2,234.6c-1.3-0.3-2.6,9.3-9.7,23.2c-3.6,7.2-6.2,10.5-8.1,17.9c-1.5,5.9-1.8,11.9-1.1,12.1
			c0.7,0.1,1.9-8.2,7.4-19.2c5.1-10.1,8.8-12.1,11-20.9C69.2,241.3,69.2,234.9,68.2,234.6z"/>
	</g>
</g>
</svg>
