<svg xmlns="http://www.w3.org/2000/svg" viewBox="0 0 139 139"><defs><style>.cls-1{fill:#fe7754;fill-opacity:0.2;}.cls-2,.cls-3,.cls-6{opacity:0.16;}.cls-3,.cls-4{fill:#f6ccbe;}.cls-3,.cls-6{isolation:isolate;}.cls-5{fill:#ffcbbc;}.cls-10,.cls-6{fill:#53524f;}.cls-7{fill:#a6a6a6;}.cls-8{fill:#c9c7c6;}.cls-9{fill:#909090;}.cls-11{fill:#d3d0cd;}.cls-12{fill:#7d7c7a;}.cls-13{fill:#e4e1dd;}</style></defs><g id="Capa_2" data-name="Capa 2"><g id="Capa_1-2" data-name="Capa 1"><circle class="cls-1" cx="69.5" cy="69.5" r="69.5"/><g class="cls-2"><path class="cls-3" d="M47.4,78.11c.83,0,1.57-.41,2.39-.35h0c1.31.13,1.76-1.33,2.87-1.6a3.31,3.31,0,0,0-.5,1.46c.53.18.62-.37,1-.48.35-.47.68-1,1.07-1.41A4.21,4.21,0,0,1,56,74.39h0l.58,0A8.87,8.87,0,0,0,58,74.28a4.82,4.82,0,0,1,1.64.31,1.53,1.53,0,0,1,.75.47,1.48,1.48,0,0,1,.37.8c.16.62.33,1.29,1.2,1.31.36,0,.8.12,1-.36.77.66,1.18,1.71,2.28,2,.4.49.74,1,1.5,1.11s.62.6.47,1.1h0c-.58.17-1.15-.59-1.8,0a9.39,9.39,0,0,0,5.29.58,8.75,8.75,0,0,1,2.93-.11,14.37,14.37,0,0,0,5.8-.44,4,4,0,0,0,3.07-2.19,2,2,0,0,0,.89-1.25c.14-.45.19-1.09.94-1-.17.58-.22,1.25.61,1.07a3.75,3.75,0,0,1,2.89.78c2,1.25,4.1.47,6.17.19.08,0,.12-.29.19-.44A3.75,3.75,0,0,0,97,78.3a2.55,2.55,0,0,1,1.72.09c1.1.42,1.45.13,1.59-1.22.35-1.57.12-3.07-1.39-3.83a3.56,3.56,0,0,1-1.88-2.6c-.48-1.66-.81-3.26.25-4.82a1.09,1.09,0,0,0,.15-.46,2.31,2.31,0,0,0,0-1,2.44,2.44,0,0,0-.46-.89,2.33,2.33,0,0,0-.79-.61,2.26,2.26,0,0,0-1-.24c-1.24,0-2.49-.1-3.74-.22-2.37-.21-4.74-.69-7.15-.38-.58-.21-1,.3-1.57.3a.76.76,0,0,0,0,.3,7.93,7.93,0,0,1-2.53,1.83,7.79,7.79,0,0,1-3,.72c-3.08.15-6.17.09-9.26.11a5.6,5.6,0,0,1-.59-.07l.2,0c.48-.07,1.18,0,1.08-.84-.79-.78-2.08,0-2.82-.89-.23-.4-.73-.54-.86-1.12-.28-1.39-.93-1.5-2.19-.52,0,.4.77.29.57.88-2.07,0-4.14.88-6.21-.1-.16-.08-.42.06-.63.06-2.73-.15-5.12,1.25-7.72,1.7-.41.07-.5.37-.56.7a2,2,0,0,1,.42,0c-.33.81.29,1.58.41,2.34.29,1.85.29,3.44-1.43,4.75a6.42,6.42,0,0,0-2.32,2.62v0C44.33,76.91,45.11,78.06,47.4,78.11ZM78.82,71.2l0,0v0Zm-.76,2.39-.25-.19a1.56,1.56,0,0,0,.2-.16c0,.1,0,.22,0,.34Z"/><path class="cls-3" d="M104.4,105.06h0c-2.44-2.38-4.65-5-7.28-7.18a5.21,5.21,0,0,0-4-.48,2.4,2.4,0,0,0-.46,0,3.6,3.6,0,0,0-2.19,1l0,.13a10.56,10.56,0,0,0-1.12-.09c-1,0-1.82.27-2,1.42a1.78,1.78,0,0,1-.47-.66,2,2,0,0,1-.17-.79v-.13a1.3,1.3,0,0,0,.54.35c1-.88,2.27-.91,3.39-1.41a12.51,12.51,0,0,1,2.3-.65h.41c.76-.21,1.75-.74,2.24-.14.66.78,1.06.32,1.61.14,1.29-.61,1.55-2.16,2.59-3,2.13-2,2.2-2.75.41-4.26a2.58,2.58,0,0,1-.69-3.42,5.51,5.51,0,0,0,.89-2.82c.34-2.67-1-3.81-3.55-3.06a8.08,8.08,0,0,1-2.66.7A33.64,33.64,0,0,0,86,81.1a3.18,3.18,0,0,1-.09-1.62,1,1,0,0,0-.71-1.26.92.92,0,0,0-.37,0,.89.89,0,0,0-.36.11.92.92,0,0,0-.28.24.84.84,0,0,0-.16.33c-.46,1.56-1.7,2.27-3,2.95-.85.06-1.5.66-2.3.82-.62.13-1.11.68-1.83.49-2.15-.55-4.35-.29-6.52-.36a5.08,5.08,0,0,1-1.94-.23,6,6,0,0,0-3.2-.37A1.05,1.05,0,0,1,64,81.24c-.25-1.16-1.31-1.82-1.93-2.75-.19-.29-.53-.4-.78,0-.14.22-.57.37-.1.75.78.63.65,1.63.88,2.5h0c-.44.73-1.13,1.27-1.58,2-.28.47-.76,1-1.42.36,1.16-.63,1-1.77,1.21-2.84a7,7,0,0,1-3.73-.61c-3.13-1.63-6.33-1.17-9.58-.59-1.29.22-1.67,1-1.73,2.15a12.54,12.54,0,0,0,.56,4.08c0,.14.07.27.11.41a4.4,4.4,0,0,1-1.55,3.69c-1.37,1.26-1.25,2,.24,3.2.43.37.83.75,1.31,1.09s1.28.28,1.28,1.16c.33,0,.35-.76.87-.31s1.53.7,2.13,1.31a1.46,1.46,0,0,0,2.19,0c.73-.66.48-3.25-.35-4.28s-1.27-.58-1.77-.12a1.63,1.63,0,0,0,.29-.93,1.66,1.66,0,0,0-.32-.93c-.22-.35,0-.83-.08-1.27l0-.15a10.44,10.44,0,0,1,1.59-.13c1.51-.29,2.09.27,2,1.79,0,.33-.14.83.26.72,1-.27,1,.33,1.32,1,.42.87.84.86,1.82.18.12-.08.41-.11.46,0,.49.66,1.4,0,1.93.63-.17.43-1,.43-.71,1.08a1,1,0,0,0,1,.56l-.1.11a2.29,2.29,0,0,0,.7,2.14c.75.72,1.79.73,2.68,1.09.66.06,1.26.35,1.9.45,1.86.3,3.74.71,5.56-.25a2.07,2.07,0,0,0,0-.22c.95.15,1.83,1,2.86.3a.32.32,0,0,0,.07.19c.63.75,1.52.56,2.27.55A15.7,15.7,0,0,1,78,98.94a4.52,4.52,0,0,0,4.43-2.18A4.64,4.64,0,0,1,84,95.32a4.58,4.58,0,0,1,2.12-.52,5.07,5.07,0,0,0,2-.29,1,1,0,0,0,0,.38c-.84.49-2.06.19-2.61,1.28a4.84,4.84,0,0,1,.66,1.46,1.87,1.87,0,0,0-.66-.15c-.4-.07-.63.22-.9.42A6.28,6.28,0,0,1,83,99.13a26.21,26.21,0,0,1-9.42,1.78c-2.3,0-4.65,0-7-.11a4.92,4.92,0,0,0-2-.33c-.19.28-.4.53-.61.79a32,32,0,0,0-3.54-.33c-1.11-1.65-1.13-1.61-2.58-.15a3.71,3.71,0,0,0-.27.29c-2.11.2-3.57.43-5-.41a5.66,5.66,0,0,1-1.87-1.93L50.35,98a4.78,4.78,0,0,0-2-1.37c-.65-.35-1,0-1.21.55a5.49,5.49,0,0,0-1.84,2.42,6.08,6.08,0,0,1-1.35,2,6.22,6.22,0,0,1-2,1.31A5.67,5.67,0,0,0,40.38,104c-.62.54-.31,1-.24,1.61s.62.75,1,.73a22,22,0,0,1,3,.43,13.39,13.39,0,0,0,6.11,3c1,.16,1.8-.76,2.79-.48.82.39,1.56.92,2.4,1.26,1.06.45,2.21,2.94,2.21,4.13s-.3,2.14.27,3.14v0c.39.58.66,1.42,1.37,1.55,2.63.47,5.12,1.45,7.78,1.67l0,0,.35.06h0l0,0a3,3,0,0,0,1.72.31c2.43,0,4.88-.23,7.3-.07a9.27,9.27,0,0,0,5.15-1.27v-.05l0,0,1,.09a.74.74,0,0,0,.33,0,.8.8,0,0,0,.22-.13c1,.26,1.47-.55,2-1.15,1.06-.28,1.86-.81,1.93-2a1.68,1.68,0,0,1,.43-1A38.08,38.08,0,0,1,89.22,111l1-.73c.56,0,1.1.61,1.71.24,1.4-.82,3-.56,4.47-.91.92-.39,2.09-.21,2.71-1.24h0c1.9-.27,3.9-.12,5.56-1.34C105.28,106.28,105,105.65,104.4,105.06ZM61.48,118.83l.05,0,0,0Z"/><path class="cls-3" d="M46.17,44.76c1,.79,1.39-.1,2-.58.29.5.2,1.21.8,1.54-.41,1-.8,2.26-.22,3.16a5.76,5.76,0,0,1,1,2.38,5.83,5.83,0,0,1-.18,2.56,2.65,2.65,0,0,1-2,2.2,3.08,3.08,0,0,0,1,.5h0c-.34.33-3.21,3.13-2.59,4.1a.67.67,0,0,0,.41.26c1.49,1,1.94.85,3.18-.36,1.06.39,2.21,1.06,3.25.62a12.3,12.3,0,0,1,3.88-.82,1.11,1.11,0,0,0,.78-.07h0c2.84-1.07,2.85-1.07,4.84-.94,0,.78.11,1.48,1.09,1.57,1.23-.37,1.21-.37,1.37.74a.83.83,0,0,0,.4.48c.37.23.76.41,1.15.62-.17.81.46.71.91.75.68.07,1.37.07,2.06.09a9.64,9.64,0,0,1,2.59-.23,13,13,0,0,0,8.82-1.49c.54-.88,1.53-1.45,1.72-2.55v0c.55-.23,1.07-.7,1.73-.38.27.14.54.52.81.19.58-.74,1.11-.21,1.67,0,.5.35,1.26,0,1.64.55a5.56,5.56,0,0,0,2.91,1.65,3.65,3.65,0,0,0,3.7-.27c1-.44,1.78-1.42,3.08-1.55.61-.07,1.27-1,1.38-2s-.5-1.81-1.28-1.76c-2.37.15-3.51-1.18-2.9-3.39v0c.76-1.11,1.59-2.18,2.24-3.34.78-1.4.5-2.21-.88-3.28-.31-.68-1.16-.62-1.57-1.16.91.37,2-.57,2.84.3.76.65,1.19.09,1.64-.42,1.48-1.45.29-5-2.3-5.17a3.15,3.15,0,0,1-1.56-.37c-.49-.31-1-.84-.56-1.31.81-.89.33-1.7.15-2.56.77-2.55.77-2.55-1.49-3.84,0,0-.06-.09-.08-.13a3.6,3.6,0,0,0,1.28-2.62c-.49-1.55-2-1.6-3.16-2.08-3-.59-5.54.93-8.28,1.56a.77.77,0,0,0-.1.18c-1.67-.59-1.89-.49-2.51,1.16a1,1,0,0,1-.26.5,1.2,1.2,0,0,1-.45.32,2.62,2.62,0,0,0-1.08.05,2.42,2.42,0,0,0-.94.52.48.48,0,0,0,0,.17,25.07,25.07,0,0,1-4.8.26c-1.56,0-3-.56-4.6-.32-.49-.73-1.51-1-1.67-2l-1.72-1.36c-1.11-.07-2.33-.31-2.45,1.43.58,0,.41-.91,1-.84.2.36.26.81.62,1.1s.82.41.48,1c-.66.06-1.31-.32-2,0-1.24.8-3-.08-4.08,1.2.8.84.87.93-.15,1.35.37-1.26-1-1.12-1.73-1.52,1.71-1.42,1.83-1.64,1.55-2.84-.5-2.2-1.45-2.8-3.63-2.26-1.92.31-3.69.81-4.12,3.1.12.66-.22,1.38.33,2-.06.2,0,.47-.17.61a3.86,3.86,0,0,0-.87,4.21,2,2,0,0,1-.23,1.41,3.25,3.25,0,0,1-.66,1.42,3.22,3.22,0,0,1-1.26.93,3.7,3.7,0,0,0-1.45,1.21h0c-.55.45-.41,1.17-.68,1.74A1.54,1.54,0,0,0,46.17,44.76ZM62.63,40.5v0c.7.36,1.5.89,1.19,1.67-.51,1.28.51,1.26,1.11,1.64l0,0v0c1.9,2.67,4.81,2.67,7.64,2.88,1,.59,1.93-.08,2.91,0A4.48,4.48,0,0,0,79.66,45a6.09,6.09,0,0,1,2.43-2.09,1.9,1.9,0,0,1,2.33-1.44,1,1,0,0,0,.06.23c.94,1.12,1.23,2.62,2.1,3.78a.44.44,0,0,0-.16.06.43.43,0,0,0-.11.12c-2.12-1.81-2.89-1.78-5.15,0a23.8,23.8,0,0,0-2.85,2.65.22.22,0,0,1,0,.11c-2.92-.18-5.83.13-8.75.08C67.32,48,65.23,47.34,64.18,45c-.13-.3-.52-.7-.92-.37-.84.67-2,.32-2.84,1a1.07,1.07,0,0,1-.28.63c-.45-.73-2.27-.66-1.29-2.21l0-.06a16.69,16.69,0,0,0,2.11-2.85,1.28,1.28,0,0,1,1.7-.68ZM67.23,35l-.16.16L67,35.11l.26-.06Zm7.63-1a.65.65,0,0,0-.1-.15l-.05,0H75a1,1,0,0,0-.17.19Zm-1-.09c-.54,1.17-.43-.07-.49-.17.19,0,.38.06.56.07a.28.28,0,0,0-.08.11Zm9.82-.15-.09-.11.13,0Zm5.64-.85s0,.06,0,.08l-.07-.06-.12-.11a.94.94,0,0,1,.1-.1,1.55,1.55,0,0,0,0,.21ZM52.86,53.35H53l.1,0h0l-.3.15Zm-5.48,7.54.41-.06a.89.89,0,0,1-.39.09ZM79,61.48l.1-.31a1.48,1.48,0,0,0,.25.31,1.35,1.35,0,0,0-.35,0Z"/></g><path class="cls-4" d="M50.49,96.71a5.65,5.65,0,0,0,2.24,2.66c1.82,1,3.64.42,6.71.29,2.26-.1,2.82.17,6.33.48,12.59,1.12,20.8,1.84,26.65,1.26.79-.07,3-.32,4.18,1a3,3,0,0,1,.68,3.1c-.94,2-5.43,1.58-8.65,1.36-19.2-1.31-28.81-2-33.95-.39-1.14.35-3.67,1.22-5.55,0a5.52,5.52,0,0,1,1.38-9.75Z"/><path class="cls-5" d="M84.42,60.82c2.41-.31,4.78.17,7.16.38,1.24.12,2.49.19,3.74.22a2.22,2.22,0,0,1,1,.24,2.16,2.16,0,0,1,.79.61,2.44,2.44,0,0,1,.46.89,2.31,2.31,0,0,1,0,1,1.1,1.1,0,0,1-.16.46c-1.06,1.56-.72,3.16-.24,4.82A3.53,3.53,0,0,0,99.08,72c1.5.76,1.73,2.26,1.38,3.83-.5.05-.45,1.17-1.18.68-.55-.39-1.4-.87-1.18-1.61.42-1.41-.57-1.87-1.4-2.13-2.52-.78-3.49-2.59-4.14-5a4.42,4.42,0,0,0-1-1.69,4.37,4.37,0,0,0-1.65-1.09c-.65-.16-1.31-.18-2-.33a2.54,2.54,0,0,0-.47-.14C84.77,64.27,84.29,63.67,84.42,60.82Z"/><path class="cls-4" d="M56.54,83.47a.7.7,0,0,1-.3.26.66.66,0,0,1-.39.08,2.42,2.42,0,0,1-.86.76,4,4,0,0,1-2.53.18c-1.82-.32-2.36.13-2.63,2.06a13,13,0,0,1,.44,1.24c.06.44-.14.92.09,1.28.72,1.15.06,1.91-.66,2.69-1,.74-2,1.69-3.28.39-.4-.39-1.14.08-1.71-.07-1.48-1.17-1.6-2-.24-3.21a4.3,4.3,0,0,0,1.23-1.66,4.41,4.41,0,0,0,.33-2c-.82-2.38,1.06-4.08,1.61-6.11.17-.63,1.42-1,1.73-.27.92,2,2.43,1.14,3.64.85,1.61-.39,2.81.56,4.14.93C58.24,81.14,57.87,82.53,56.54,83.47Z"/><path class="cls-4" d="M53.2,52.05l-.09,0H53a18.46,18.46,0,0,1-1.31,2.22,3,3,0,0,1-4.08.43,2.63,2.63,0,0,0,2-2.19A5.88,5.88,0,0,0,49.81,50a5.76,5.76,0,0,0-1-2.38c-.58-.9-.19-2.12.22-3.16a4.64,4.64,0,0,1,5.56.33,6.33,6.33,0,0,1,1.5,2.08c.13,1.05.47,2.13-1,2.59-.58.19-.6,1-.84,1.49S54.05,52.14,53.2,52.05Z"/><path class="cls-5" d="M95,27.13a3.51,3.51,0,0,1-1.29,2.62c-.39.85-1.21.76-1.92.84a3.6,3.6,0,0,0-2.46.94A5.84,5.84,0,0,1,86,30.45a4.72,4.72,0,0,1-1.09-1.14,5.66,5.66,0,0,0-1-1.35c-.31-.38-.79-.76-.36-1.35,2.74-.63,5.31-2.15,8.28-1.56C93,25.53,94.48,25.58,95,27.13Z"/><path class="cls-5" d="M94.31,76.83c-.38-.29-1.13-.21-1-1-1.14-3.2-1.7-6.59-3.31-9.62-.24-.46-.44-1,.12-1.48.61-.06,1.17-.14,1.37.71a1.56,1.56,0,0,0,.33.74,1.49,1.49,0,0,0,.66.47,1.44,1.44,0,0,1,.76,1c-.53,1.24.83,1.85.93,2.93.06.73,1.07,1.14,1.88,1.31a4.7,4.7,0,0,1,2.55,1.6c.37.45,1.1.87-.14,1.16-.22,0-.22.6.13.56.93-.12.46.86,1,1.07.66.58,0-1.62,1-.49-.13,1.35-.49,1.64-1.59,1.22A2.67,2.67,0,0,0,97.16,77a3.8,3.8,0,0,1-2.83-.15Z"/><path class="cls-5" d="M51.27,29.75c-.55-.58-.21-1.31-.33-2,.43-2.3,2.2-2.8,4.12-3.1,2.18-.54,3.13,0,3.63,2.26.28,1.19.16,1.42-1.55,2.84.77.42,2.33.23,1.61,1.82a3.43,3.43,0,0,1-1.25.8,3.55,3.55,0,0,1-1.48.18,2.25,2.25,0,0,1-1.14-.87c-.82-.66-1.4-1.76-2.77-1.25C51.52,30.7,51.52,30,51.27,29.75Z"/><path class="cls-4" d="M60.68,64.55c.38-.38.63-.92.33-1.31s-.83-.22-1.32-.16a17.61,17.61,0,0,1-3.21.41,5.17,5.17,0,0,0-2.63,1.16c-1.26.83-2.4,1-3.43-.09a2.06,2.06,0,0,0-1-.65,2.12,2.12,0,0,0-1.17-.06c.06-.32.15-.62.56-.69,2.6-.46,5-1.85,7.72-1.71.21,0,.47-.13.63-.05,2.07,1,4.14.14,6.21.1.19-.59-.56-.48-.57-.88,1.26-1,1.9-.87,2.19.52.13.58.63.71.86,1.12.74.93,2,.11,2.82.88.1.86-.6.78-1.08.85a12.2,12.2,0,0,1-2.26.06c-.59-.06-.91-.53-1.32-.85s-1-.4-1.23.3C62.14,64,62,65.41,60.68,64.55Z"/><path class="cls-5" d="M94,48.69a4.18,4.18,0,0,0-.88-2,1.64,1.64,0,0,0-2.07-.73c-.73.27-1.58.39-2,1.17a2.69,2.69,0,0,1-2.53-2.24c-.33-.6.08-.69.53-.74.88.45,1.64-.28,2.46-.35a9.78,9.78,0,0,1,1.88-.25,10.8,10.8,0,0,0,3.67-.28c.41.54,1.27.48,1.57,1.16a10,10,0,0,1-.69,3.25A1.46,1.46,0,0,1,94,48.69Z"/><path class="cls-5" d="M45.36,73.51c.7,1.14.69,1.13,1.49.15,1-1.26,2.1-2.49,3.12-3.75.29-.35.55-.72,1.06-.53a1,1,0,0,1,.51.5,1.05,1.05,0,0,1,.05.72,6.56,6.56,0,0,1-1.23,3.25c-.69.74-.88,1.29-.43,2.13.06.13,0,.33,0,.48-.82-.07-1.56.37-2.4.35C45.25,76.76,44.46,75.62,45.36,73.51Z"/><path class="cls-5" d="M97,104.46a2.35,2.35,0,0,0,1-3.19c1.23.19,2.17.26,1.69,1.78a8,8,0,0,0,0,2.3c1.2.47,2.3-.66,3.53-.3.08,0,.33-.24.33-.3-.38-1.18.73-.66,1.1-1,.6.59.88,1.23.28,2-1.66,1.22-3.66,1.07-5.56,1.35-2.14.74-3.38.32-4.39-1.44C95.27,104.74,96.11,104.58,97,104.46Z"/><path class="cls-5" d="M50.32,95.59c-.6-.62-1.5-.76-2.13-1.32s-.55.29-.87.31c0-.87-.81-.81-1.28-1.15s-.89-.72-1.32-1.09c1.6-1,2-1,3,.6.36-.92,1.29-.8,1.94-1.2s1.37-1.85,2.48-.44c.83,1,1.08,3.64.35,4.28A1.47,1.47,0,0,1,50.32,95.59Z"/><path class="cls-4" d="M53.56,31.8c-.83.65-.4,1.77-.89,2.56-.6.35-.49,1.14-1,1.57s-1.07,1-1.66.06a2,2,0,0,0,.23-1.41,3.87,3.87,0,0,1,.87-4.21c.12-.15.11-.41.17-.62.33,0,.38.63.77.39,1.68-1,2.23.66,3.2,1.32C54.78,32.05,54,31.22,53.56,31.8Z"/><path class="cls-5" d="M95.26,33.71c-.74.4-1.06.22-1.32-.66-.52-1.7-1.13-1.75-2.32-.35a1.76,1.76,0,0,1-2.16-1.08c-.43-1.36.69-1.29,1.43-1.44a10.62,10.62,0,0,0,2.79-.44s0,.11.09.13C96,31.16,96,31.16,95.26,33.71Z"/><path class="cls-4" d="M82,77.17l.68.35a4,4,0,0,1-3.07,2.19,14.54,14.54,0,0,1-5.8.45,8.74,8.74,0,0,0-2.93.1,9.39,9.39,0,0,1-5.29-.58c.65-.59,1.22.17,1.8,0a2.59,2.59,0,0,0,1.23-.19c1-.21,2-.68,3,0,.38.24,1.09,0,1.64-.06a7.64,7.64,0,0,1,2.89-.28A5.45,5.45,0,0,0,80,78C80.53,77.56,81.05,76.84,82,77.17Z"/><path class="cls-5" d="M58.15,116.59v-2.43c.82,1.7,2.79,1.86,3.5,3.41.51-.41-.42-.82.26-1,.3-.08.84-.1.79.29-.23,1.79,1.31,1.56,2.23,2,.75.38,1.74.21,2.38.93-2.67-.22-5.17-1.2-7.78-1.67C58.79,118,58.55,117.17,58.15,116.59Z"/><path class="cls-5" d="M90.34,109a12.87,12.87,0,0,1-2.15-.81,1.42,1.42,0,0,0-2.14.33c-.45-1.5-.1-2.94-.11-4.37,0-.26.06-.68,0-.76-1-.83-.23-1.71-.14-2.57-.42-.57-.49-1.18.25-1.44s1,.35,1.12,1c.28,2.15,1.78,3.18,3.59,3.93a10.77,10.77,0,0,1,2.06.6c.81.29,1.4.61.3,1.34-.33.21-1,.31-.66.9s.83.26,1.32.14c1.15-.28,2.24-.29,2.81,1-1.48.36-3.09.09-4.49.92C91.45,109.6,90.91,109,90.34,109Z"/><path class="cls-5" d="M96.54,108.33c-.87-.39-2.11-1.31-2.65-.61-.88,1.13-1.29.22-1.79,0-1-.53-1-1,.08-1.52.37-.21.78-.36,1.18-.54-.2-.25-.49-.19-.74-.26.81-1.14,1.57-.62,2.34,0,1,1.64,2.63,1.69,4.29,1.67C98.63,108.12,97.46,107.93,96.54,108.33Z"/><path class="cls-5" d="M87.33,107.54c-1-.09-1.1-.47-1-1.16.33-1.92-.23-3.76-.44-5.62a2.31,2.31,0,0,0-1.21-.69c-1.58,1.21-3,2.64-4.88,3.42a5.8,5.8,0,0,0-2.07,1.26c-.54,1.17.33,2.21.28,3.33,0,.23.61.32.16.53-1.48.66-.91,1.59-.44,2.54a5.18,5.18,0,0,1,.39,1.73,2.46,2.46,0,0,0,.11.45c.19.38.27.93.79.93s.57-.58.74-1a6.45,6.45,0,0,1,.46-1c.33-.42.31-1.28,1.18-1.08A1.53,1.53,0,0,1,82.74,113c-.86-.92-1.47-.61-1.82.31a5.29,5.29,0,0,0,.93,5.57l1,.1a.91.91,0,0,0,.33,0,.7.7,0,0,0,.29-.19,6.9,6.9,0,0,0,1.64-3.82,2,2,0,0,1,.66-1.3c1.26-1.24,2.46-2.55,3.65-3.87l.94-.72C89.68,107.81,88.38,107.65,87.33,107.54Z"/><path class="cls-4" d="M80.64,87.76c1.19.27,1.58-.39,1.29-1.35-.22-.77.47-.35.57-.63a2.48,2.48,0,0,0,1.83-2c-.07-1.25.73-1.57,1.39-2,1-.57,1.13-1.14.44-2a3,3,0,0,1-.08-1.61,1,1,0,0,0-.72-1.26.92.92,0,0,0-.37,0,1.18,1.18,0,0,0-.36.12.92.92,0,0,0-.28.24,1,1,0,0,0-.16.33c-.46,1.56-1.71,2.26-3,3-.12.39-.62.78-.33,1.15s.66-.13,1-.17c1.45,0,1.72-1.18,2.28-2.08-.09.63-.66,1.11-.89,1.74a6.44,6.44,0,0,1-4.46,4,17.59,17.59,0,0,1-5.49.75c-.84,0-1.77-.23-2.43.58,0,.75.17,1.29,1.1.84.14-.27.41-.22.65-.22a1.21,1.21,0,0,0,.79.18c1.33-.4,2.06,0,2.58,1.36.43,1.15,1.43,1.22,2.36.33C78.94,88.28,79.52,87.51,80.64,87.76Z"/><path class="cls-5" d="M98.16,54.43c-2.37.15-3.51-1.18-2.89-3.39a15,15,0,0,0-.86-2.74,4.91,4.91,0,0,0-.89-1.89,2.17,2.17,0,0,0-1.06-.85,2.26,2.26,0,0,0-1.36-.07c-.9.23-2,.31-2.06,1.62l.32.33a.71.71,0,0,0,.31.08.65.65,0,0,0,.31-.08c1.91-.67,1.73-.61,2.39,1.36.54,1.73.33,3.67,1.38,5.24-1.35.19-2.66.71-4,.29-.29.41-.66.27-1,.15a5.31,5.31,0,0,0-2.55,0,3,3,0,0,1,.61,3.31c.49.35,1.25,0,1.64.54A5.54,5.54,0,0,0,91.28,60a3.65,3.65,0,0,0,3.7-.27c1-.44,1.78-1.42,3.08-1.55.61-.07,1.28-1,1.39-2S98.94,54.38,98.16,54.43Z"/><path class="cls-4" d="M75,66c3-.13,5.72-.82,7.72-3.25l0,0h0a5.83,5.83,0,0,1-.92,2c1.85.58,1,2.22,1.17,3.53.59-.47,1-.69.94-1.48A1.57,1.57,0,0,1,85.8,65c.83,0,2,1.13,2.36-.64-.37-.59-1-.35-1.47-.32-1.06,0-1.64-.33-1.6-1.49a2.19,2.19,0,0,0-.13-.95,2.37,2.37,0,0,0-.53-.82c-.58-.21-1,.31-1.57.31a.48.48,0,0,0,0,.29A7.94,7.94,0,0,1,77.28,64c-3.08.14-6.17.08-9.25.11-1.11.55-1.11,2.07-2.28,2.58a2.74,2.74,0,0,0,.6.52A5.42,5.42,0,0,0,69,67.05c1.06-.16,2.3.06,3.16-.48A5.21,5.21,0,0,1,75,66Z"/><path class="cls-5" d="M63.07,56.6C62.58,53.67,61.84,53,59,53H57.86a1.49,1.49,0,0,0-.89.4,1.46,1.46,0,0,0-.44.87h0c-1,.37-2.37-.38-3,1-.91,1.71-2.92,1.93-4.23,3.11a5.22,5.22,0,0,1-1.38,1.13c-.66.26-1.17-.37-1.89-.24,1.83,1.24,2.25,1.21,3.59-.09,1.06.38,2.22,1.05,3.25.61A12.07,12.07,0,0,1,56.77,59a1.14,1.14,0,0,0,.79-.08h0c2.84-1.07,2.84-1.07,4.84-.94.81-.45.09-.91,0-1.37C62.61,56.23,62.84,56.52,63.07,56.6Z"/><path class="cls-4" d="M79.6,47.82c-1.31,1-2.89,1-4.45,1-1.39,0-2.8-.29-4.16.27-.18-.79-1.15-1-1.31-1.85,3,0,5.91-.28,8.87-.08C78.54,47.88,79.34,47.44,79.6,47.82Z"/><path class="cls-5" d="M97.25,96.59a5.24,5.24,0,0,0-4.06-.49,3.59,3.59,0,0,0-.46.05,3.72,3.72,0,0,0-2.19.95.32.32,0,0,1,0,.14c-.37,0-.74-.08-1.12-.1-1,0-1.82.28-2,1.44a12.47,12.47,0,0,1,.66,1.66,7.05,7.05,0,0,0,2.69,3.9,13.81,13.81,0,0,0,4.07-1.87,4,4,0,0,0,2.2,2.31c1.37-.17,1.38-1.43,1.87-2.54a4.77,4.77,0,0,1,.16,2.39c-.05,1.07.48,1.53,1.46,1.42,1.58-.2,3.29-.22,4-2.08C102.08,101.39,99.87,98.79,97.25,96.59Z"/><path class="cls-5" d="M80.65,110.15c-.33,1.52-1.59,2.4-1.51,4l-.58-.86c-.59,1.5-1.27,2.92-2.92,3.6a13.15,13.15,0,0,1-2.53,1.16l-.13.17c-.18.57-.22,1.23-1.13,1.19-.68,0-1.35.12-2,.12s-1.52-.3-2.14.33a2.88,2.88,0,0,0,1.72.31c2.44,0,4.88-.23,7.3-.07a9.27,9.27,0,0,0,5.15-1.27c-.24-1-.09-2-1-2.76a.43.43,0,0,1-.15-.28.48.48,0,0,1,.06-.33,3.19,3.19,0,0,0,.48-2.16c0-.33.31-.61.66-.61.59,0,.33.37.24.68s-.1.53.3.56c.22,0,.54,0,.54-.24,0-.78.63-1.47-.09-2.38S81.17,111.07,80.65,110.15Z"/><path class="cls-4" d="M46.27,85.21c0-1.84.28-3.56,2-4.66.1-.07.2-.4.16-.43-1.6-1.32.47-.7.49-1.14.7,1.85.69,1.85,2.58,1.57.27,0,.56.09.81,0,1.15-.23,2.3-.45,3.29.47.06.06.3-.07.46-.11.66-.2,1,0,1.22.68s.06,1-.62,1.2c-.43.1-.21.4-.14.64.53.32,1.06.49,1.57-.08a1.46,1.46,0,0,1,.48-.41,1.43,1.43,0,0,1,.61-.14c1.16-.63,1-1.77,1.2-2.83a7.07,7.07,0,0,1-3.73-.61c-3.13-1.64-6.33-1.17-9.58-.6-1.29.23-1.66,1-1.72,2.15a12.44,12.44,0,0,0,.68,4.49C46.13,85.36,46.27,85.29,46.27,85.21Z"/><path class="cls-5" d="M48.53,95.34c-.66-.35-1,0-1.21.55a5.49,5.49,0,0,0-1.84,2.42,6.08,6.08,0,0,1-1.35,2,6.22,6.22,0,0,1-2,1.31,5.72,5.72,0,0,0-1.58,1.09c-.61.54-.3,1-.24,1.61s.63.75,1,.73a23.66,23.66,0,0,1,3,.43c.73-.71.83-1.31-.22-1.85-.43-.21-.85-.39-1.28-.57s0-.43.19-.61c1.38-.25,2.74-.57,4.11-.88a7.37,7.37,0,0,1,2.16-1.86c2.18-.85,2.23-.89,1.17-3A5,5,0,0,0,48.53,95.34Z"/><path class="cls-4" d="M60.39,91.33a6.87,6.87,0,0,0-3.22-.65,2.64,2.64,0,0,1-2.81-2.34c0-.93.74-1,1.21-1.32a1.47,1.47,0,0,0,.62-2.3,6.9,6.9,0,0,1-.33-.9l-1,.39a.06.06,0,0,1,0,0v0a3,3,0,0,1-2.21.14c-2.3-.67-3.45.27-3.29,2.7h0L50,88c.58-.4,1.26-.16,1.89-.28,1.52-.28,2.09.27,2,1.8,0,.32-.14.83.27.71,1-.26,1,.33,1.31,1,.42.87.84.86,1.82.19.12-.08.41-.11.46,0,.5.66,1.4,0,1.93.63-.16.42-1,.42-.7,1.08s.74.55,1.23.55c.56-.27,1.56.11,1.61-.86C61.77,92,61.08,91.58,60.39,91.33Z"/><path class="cls-5" d="M93,95.28a1.09,1.09,0,0,0,0-.36.86.86,0,0,0-.15-.32.78.78,0,0,0-.27-.24,1.17,1.17,0,0,0-.33-.11,1.2,1.2,0,0,1-.51-.21,1.26,1.26,0,0,1-.29-.32h.06c.54-.57.23-1-.28-1.31-.33-.22-.87-.28-.89-.66-.08-1.42-1.15-1.46-2.14-1.75-1.78-.54-2.08-1.47-1.71-3.28.22-1.06,1.34-1.56,1.38-2.46.07-1.42.81-1.08,1.59-.88a5.43,5.43,0,0,1,1.88.53c1.39,1,2.67.61,3.94-.22.59-.38,1.2-.84,1.94-.27a2.38,2.38,0,0,1,.16,1.72c-.11,1.2-.53,2.34-.55,3.54a.2.2,0,0,0,0,.1c-.43.17-.48.65-.58,1.13s.23,1.17.28,1.75.25,1.23-.41,1.4-.77-.5-.9-1c-.36-1.31-1-1.46-1.88-.48a3.93,3.93,0,0,0,.06,3.64c.76-.2,1.75-.73,2.24-.14.66.79,1.07.33,1.62.15,1.29-.62,1.55-2.16,2.58-3,2.13-2,2.2-2.76.4-4.26a2.57,2.57,0,0,1-.67-3.42,5.66,5.66,0,0,0,.88-2.82c.34-2.67-.94-3.82-3.55-3.06a8.34,8.34,0,0,1-2.66.7,34.16,34.16,0,0,0-8.08.37A3,3,0,0,1,84.66,82a1,1,0,0,0-.41.28,1,1,0,0,0-.21.44C84,84,83,84.77,82.37,85.74c-1.86-.33-.24,1.35-.86,1.73-1.89-.64-2.56-.4-3.29,1.24-1.19.58-2.18.31-2-.65.27-1.71-.86-1.28-1.67-1.28a12.05,12.05,0,0,0-1.89.33,2.52,2.52,0,0,0,1.76.6c.44,0,0,1.29.5,1.88.14.16.21.4.38.51a3.81,3.81,0,0,1,2,3.43.89.89,0,0,0-.07.4c-.33.35-.66.68-.47,1.26.3,1-.4,1.26-1.06,1-1-.39-1.5.09-2,.77a.4.4,0,0,0-.1.24.41.41,0,0,0,.08.24c.63.75,1.52.56,2.27.55a17.24,17.24,0,0,1,2.25-.35,4.53,4.53,0,0,0,4.43-2.17A4.67,4.67,0,0,1,84.21,94a4.61,4.61,0,0,1,2.12-.52,5.29,5.29,0,0,0,2-.28,1,1,0,0,0,0,.38c-.84.48-2.06.18-2.61,1.27.66.74.46,2,1.59,2.45,1-.88,2.27-.91,3.39-1.41A13.48,13.48,0,0,1,93,95.28Z"/><path class="cls-4" d="M80.21,28.77a1.25,1.25,0,0,0,.71-.82c.63-1.66.84-1.76,2.54-1.16.43.87,1.5,1.22,1.78,2.21,0,0-.09.07-.13.1-.33.33-.15.78-.28,1.15a1.3,1.3,0,0,1-1.64,1.08,1.13,1.13,0,0,1-.89-1.44c0-.33-.06-.52-.44-.4-.89.35-1.64,1.11-2.68,1-.44-.3-1.11-.42-1-1.19a2.42,2.42,0,0,1,.94-.52,2.62,2.62,0,0,1,1.08,0Z"/><path class="cls-4" d="M84.8,96.63c1.32,1,.26,2,0,2.93-.1-.43-.16-1-.76-.43a10.47,10.47,0,0,0-.94,1.06,2.41,2.41,0,0,1-.92.76,2.54,2.54,0,0,1-1.18.23c-1.39-.1-2.43,1.1-3.81,1-1.35-.66-2.68-1.43-4.25-.69-1.24,0-2.37-1.23-3.71-.29-.41.29-1,.29-.87,1.08.06.41-.38.42-.71.26l-.68-.1-1-1c1.27-.31,1.24-1,.65-1.87,2.34.09,4.7.16,7,.11a26.21,26.21,0,0,0,9.42-1.78A6.69,6.69,0,0,0,84.8,96.63Z"/><path class="cls-4" d="M95,83.31c-1.27,1-1.91,1-3.24.11a2.31,2.31,0,0,0-.93-.26c-1.22-.2-2.43-.43-3.67-.65.62,1.6.62,1.6-.94,2.51a1.14,1.14,0,0,0-.27.35c1,.88,0,1.62-.31,2.19-.46.83,0,1.23.38,1.67a4.71,4.71,0,0,0,1.73,1.19,4.77,4.77,0,0,0,2.08.34c-.29,1-.43,1.88.95,1.91.61,0,.91.33.61,1-.16,1.24,1.19,1,1.64,1.63h.41c.39-1.18-.21-2.45.33-3.63.26-.33.49-.7.76-1,1.78-2.3,3.14-4.75,3.14-7.76A2.17,2.17,0,0,0,95,83.31Z"/><path class="cls-5" d="M94,48.69A10.66,10.66,0,0,0,95.28,51c.75-1.11,1.58-2.18,2.24-3.34.77-1.4.49-2.21-.89-3.28,0,.61-1,.6-.87,1.39A2.41,2.41,0,0,1,94,48.69Z"/><path class="cls-5" d="M77.93,104.87c-.66-.3-1.26.55-1.64.28-1.18-.84-2,0-3,.33,0,0,0,0,0,0-1.73-1.16-3.73-.77-5.62-1a.84.84,0,0,1-.15.57.81.81,0,0,1-.27.25l-.21-.08c-.66-.24-1.36.16-2.06-.2-2.05-1.08-2.07-1.05-3.53.71a1.5,1.5,0,0,0,.45.66,1.38,1.38,0,0,0,.72.34,5.79,5.79,0,0,1,2,.88c.84.6,2.43,1,2.11,2.62,0,.08.21.3.3.3.72-.07.62.43.62.84a2.93,2.93,0,0,0,.32,1.57h0c-.57,1-.24,2-.24,3,0,.75-.72,1.74-1.32,1.74-1.23,0-3.35-1.76-3.67-3-.08-.31-.1-.73-.31-.9-1.11-.9-1.43-2.58-3.15-2.93a3.09,3.09,0,0,1-1.77-1.49,5.5,5.5,0,0,0-3.22-2.08c-.76-.22-1,.13-1.06.78.82.39,1.56.92,2.41,1.26,1,.44,2.2,2.94,2.2,4.13s-.3,2.14.27,3.14c.64-.41.11-1,.16-1.22,1.34.66,2.47,1.72,3.91,2.54,1.66,1,3.44,1.18,5.09,1.9l.35.06c1.4-.09,2.8.08,4.2,0,1.05-.07,1.55-.49,1.37-1.5a2.44,2.44,0,0,0,2.38-1.08c2.15-.6,2.9-1.6,3-3.94a1.17,1.17,0,0,1,0-.27h0a3.1,3.1,0,0,0-.66-2.55c-.52-.56-.49-1.17.42-1.47a1,1,0,0,0,.75-.58l-.73-.17C78.92,107,77.69,106,77.93,104.87ZM68,113h0v0Zm3.22-7.92-.06,0,.07-.06s0,.07,0,.1Z"/><path class="cls-4" d="M86.41,35.3a3.9,3.9,0,0,0,1.6.89v.09c2.27,1.09,3.95,3.17,6.42,3.91l.87,0L95,39.26c-1.31-1.68-2.6-3.38-2-5.75.07-.2-.15-.39-.38-.44s-.78,0-1-.36c-.63-.54-1.59-.42-2.16-1.08-.94-.88-2.3-.89-3.35-1.53v0c-.15-.5-.74-.58-1-1-1.16-.3-.52.58-.64,1,0,.66,1.29,1.42,0,1.95s-.65,1-.15,1.53S85.9,34.49,86.41,35.3Z"/><path class="cls-4" d="M59.18,82.84c-1-.6-1.73.75-2.73.45a1.25,1.25,0,0,0-.74.53c.14,1.37.11,2.56-1.28,3.5-1,.67-.54,2,.35,2.89,1.23,1.2,2.79.71,4.16,1.13,2.16.66,2.26.9.86,2.43a2.33,2.33,0,0,0,.7,2.14c.75.71,1.79.72,2.69,1.09.65,0,1.26.34,1.9.44,1.86.3,3.74.71,5.55-.25a1.74,1.74,0,0,0,0-.22c1,.15,1.87,1.09,2.93.25a.15.15,0,0,1,0-.09h0a6.77,6.77,0,0,1,2.16-.52,1.28,1.28,0,0,0,1.38-1.27,13.6,13.6,0,0,1,.3-1.41c.27-1.56,0-2.9-1.47-3.79a1.18,1.18,0,0,1-.43-.37,1.39,1.39,0,0,1-.25-.52c-.14-1.68-1.26-2.21-2.71-2.4a1.26,1.26,0,0,0-.9.2l-.29.23c-.33-.11-.5-.35-.45-.84-1.61-1.09-3.56-1.09-5.33-1.67-.73,0-.77-1.11-1.58-1,0,0,0,0,0,.06l0-.05-.88-1.46a2.29,2.29,0,0,0,.1-.23c0-.78-.09-1.54-1.11-1.66-.44.74-1.13,1.27-1.58,2C60.32,83,59.84,83.5,59.18,82.84Z"/><path class="cls-5" d="M54.06,72.13a5.65,5.65,0,0,1,1-2c.46-.75,1.44-.71,2.05-1.26,0,0,.33.61.79.61s1.11-.21,1.16-.68c.15-1.52,1.26-2.69,1.47-4.17a1,1,0,0,1,.34-.37.93.93,0,0,1,.48-.17c.73-.11.83-.63.72-1.2a1,1,0,0,0-.14-.33,1.06,1.06,0,0,0-.27-.25,1,1,0,0,0-.35-.14,1.15,1.15,0,0,0-.37,0c-2.2.31-4.54.08-6.43,1.52a2.36,2.36,0,0,1-3.37-.19A1.47,1.47,0,0,0,49,63.38c-.79,1,0,1.86.16,2.76.29,1.85.29,3.44-1.44,4.75a6.57,6.57,0,0,0-2.32,2.62c.36,1.4.78,1.55,1.73.59.76-.78,1.33-1.73,2.1-2.5.51-.5.84-1.24,1.76-1.44a4.77,4.77,0,0,1-1.07,3.44,1.9,1.9,0,0,0,.06,2.87c1.32.12,1.77-1.34,2.88-1.61C54.1,74.35,53.76,73.09,54.06,72.13Z"/><path class="cls-5" d="M88,77.08c2,1.25,4.1.47,6.17.19.08,0,.13-.29.19-.44,0-.67-.71-.79-.91-1.29a2.45,2.45,0,0,1-1-2.56c.13-.56,0-1.54-.63-1.45-1.64.23-2.23-.57-2.56-1.92,0-.19-.29-.33-.47-.44a2.56,2.56,0,0,1-1.06-2.4c.1-1.31-.53-1.81-1.81-1.41A2.87,2.87,0,0,0,84.5,67.3c0,.81.57,1.24,1,1.78,1.19,1.45,1.1,2.46-.26,3.49-.26.89-.91,1.66-.8,2.66-.17.58-.21,1.25.61,1.07A3.75,3.75,0,0,1,88,77.08Z"/><path class="cls-5" d="M63.5,59.58c1.22-.37,1.2-.37,1.36.74a.83.83,0,0,0,.4.48c.37.23.77.41,1.16.62,1.16,1,2.53.52,3.83.53,0-.13.08-.26.11-.39h3.43c1.34,0,2.75.28,4-.41,1.35-.4,1.15-.47,1.58-1.71A7.73,7.73,0,0,0,79.87,57c-1.09-1.33-1.7-3.06-3.28-4h0l0,0c-.17-.66.48-1.13.54-1.82-1,0-1.72-.76-2.63-.29l.13-.44-4.6,0a1,1,0,0,0-.26.38v0c-.43.11-.88.08-1.21.74A4.46,4.46,0,0,0,68,53.64a1.83,1.83,0,0,1-.33,1.43c-.85-1.41-1.64-1.5-2.74-.24A3.27,3.27,0,0,1,63.07,56c-.35.11-.71.2-.83.61A3.77,3.77,0,0,0,62.4,58C62.4,58.79,62.51,59.48,63.5,59.58Z"/><path class="cls-4" d="M79.91,72.89c-.56-1.26,0-2.71-.7-4a2.45,2.45,0,0,0-2.53-.07c-.62.45-1.14.23-1.7-.25.47-.31,1.13,0,1.27-.61l-3.88,0H67a4.38,4.38,0,0,0,2.63,2.13,1.9,1.9,0,0,1,1.36,2.41c-.21,1-.35,1.58,1,1.08a.66.66,0,0,1,.2-.06.43.43,0,0,1,.19,0,.39.39,0,0,1,.17.11.42.42,0,0,1,.1.17.69.69,0,0,1,0,.24,1.05,1.05,0,0,1-.06.24.7.7,0,0,1-.15.19.57.57,0,0,1-.22.11,3,3,0,0,1-.89.26c-1.33,0-1.83.45-1.71,1.67.08.74-.12,1.28-.81,1.31s-1.34-.17-1.38-1.06c0-.55.07-1.1-.39-1.53s-.66-.66-1.12-.57-.1.66-.26,1a3.65,3.65,0,0,0-.21,1.76c.41.49.74,1,1.51,1.11s.61.61.46,1.1c2,.55,4,0,5.93-.07a1.29,1.29,0,0,0,.45-.58,2.7,2.7,0,0,0,.14-.4,1.71,1.71,0,0,1,.81-.05,1.75,1.75,0,0,1,.75.3c.37.25.81.36,1.11-.16s.52-.77.06-1.17-.39-.82-.66-1.17c0-.09.07-.18.12-.29a4.15,4.15,0,0,0,0-.93,2.66,2.66,0,0,1-.12-.56c0-.37-.06-.79.3-1,.62.5.12,1.41.69,1.94.69,2,1.78,2.59,3.4,1.85a1.78,1.78,0,0,1-.1-2.49C80.64,74.32,81,73.39,79.91,72.89Zm-2-.8.2-.16c0,.12,0,.23,0,.35Zm1-2.17v0h0Z"/><path class="cls-4" d="M67.69,102.53c.33-.07.72-.11.25-.56s-.2-.82.33-1c.16,0,.44.18.61,0,1.59-1.61,2.77.09,4.11.49-.79,0-1.52.1-1.83,1-.08.23-.27.65-.52.51C69.68,102.51,68.6,103.1,67.69,102.53Z"/><path class="cls-4" d="M77.23,102.17c1.31-.78,2.57-1.64,4.27-1.46a4.12,4.12,0,0,0,1.64-.52c-.68,1.57-1.53,3-3.61,3-.07-.51,1-.55.27-1.2C79.08,102.23,78.18,103,77.23,102.17Z"/><path class="cls-5" d="M89,53.58c-1.57-.5-3.43-.07-4.7-1.38a2.71,2.71,0,0,0,1.2-2.46c-.11-.68.43-.61.79-.77,1-.71,2.38-.33,3.23-1.31a.69.69,0,0,0,0-.35.89.89,0,0,0-.19-.31,6.09,6.09,0,0,1-2.63-2.47c-2.26-2-3-2-5.33-.15A23.8,23.8,0,0,0,78.44,47c-.25,1,.57.93,1.16,1.06a4.47,4.47,0,0,0,1.75-.82C79.76,48.91,78,50.33,75.21,50a1.12,1.12,0,0,0-.61.21c-.52.49-.6,1,.23,1.06,1.34,0,1.53.82,1.57,1.84,1.35,1.18,1.83,3.11,3.48,4,1.52.12,2-1.47,3.25-1.92-.49.89-1.35,1.67-.61,2.8.56-.23,1.08-.71,1.73-.38.28.14.55.51.81.19.59-.74,1.12-.21,1.68,0,1.13-.8.6-1.87.4-2.81.92-.37,2,.63,2.66-.58a1,1,0,0,0-.33-.5,1.15,1.15,0,0,0-.52-.31Z"/><path class="cls-4" d="M81.18,80.54c-.85,0-1.5.66-2.3.82-.62.14-1.11.69-1.83.5-2.15-.56-4.34-.3-6.52-.37a5,5,0,0,1-1.93-.23,6,6,0,0,0-3.21-.36A2,2,0,0,0,65.52,83c1.37,2,3.81,2.16,5.67,2.42a17.17,17.17,0,0,0,8.55-.85c1.19-.48,2.49-1.19,2.4-2.89C81.8,81.3,80.89,81.43,81.18,80.54Z"/><path class="cls-5" d="M97.23,38a3.16,3.16,0,0,1-1.57-.37c-.49-.31-1-.84-.54-1.31.8-.89.32-1.7.14-2.56-.57-.29-.8-.84-1.14-1.36s-.71-1-1.43-.89a1.21,1.21,0,0,0-1.2,1.28,3.69,3.69,0,0,1,1,2.47,5.21,5.21,0,0,0,2.37,4.26.47.47,0,0,0,.06.33,3.7,3.7,0,0,0-.57-.07l-.62-.1a25.72,25.72,0,0,1-3.15-2,4.37,4.37,0,0,0-2.49-1.34c-.33-.72-1.25-.67-1.68-1.27-2.18-.94-4.84.18-5,2.21-.07,1.31-.06,2.66-.14,4,.21.32.54.35.87.43a1.89,1.89,0,0,1,2.32-1.44l.06.23c1,1.21,1.28,2.84,2.3,4a1,1,0,0,0,.35.22.94.94,0,0,0,.41,0,23.45,23.45,0,0,1,5.84-.7,1.93,1.93,0,0,0,1.57-.76c.92.37,2-.57,2.84.3.76.66,1.19.09,1.64-.42C101,41.67,99.83,38.1,97.23,38Z"/><path class="cls-5" d="M64.67,72.62a18.16,18.16,0,0,1-3.45-3.09,2.49,2.49,0,0,1-.49-3.38,1.22,1.22,0,0,0-.24-1.55c-.65,1-1.77,1.72-1.64,3.07a1.47,1.47,0,0,1-1,1.59c-.48-.21-.34-.77-.6-1.09s-.26-.55-.59-.45c-.61.2-.13.43,0,.66s.08.44-.22.44c-2.08,0-2.26,1.73-2.81,3.12-.39.94,0,2.1-.84,2.91a3.45,3.45,0,0,0-.51,1.46c.54.18.63-.37,1-.48.35-.47.68-1,1.07-1.41a4.15,4.15,0,0,1,1.75-1.34h0l.59,0A8.8,8.8,0,0,0,58.17,73a4.82,4.82,0,0,1,1.64.31,1.53,1.53,0,0,1,.75.47,1.48,1.48,0,0,1,.37.8c.15.62.33,1.29,1.2,1.31.37,0,.8.12,1-.36-.06-.25-.26-.57-.17-.71s.33.1.48.18.49.16.66-.13.37-.39.56-.56A1.08,1.08,0,0,0,64.67,72.62Z"/><path class="cls-5" d="M85.59,68.46A1.43,1.43,0,0,1,85,68a1.4,1.4,0,0,1-.27-.68c.54-.47.62-1.31,1.31-1.64a.79.79,0,0,0,.08-.45.8.8,0,0,0-.17-.44c-1.42-.48-2,0-2.59,2.3.14-1.35,0-2.38-1.54-2.34-.7.31-.7,1.22-1.36,1.58v0l0,0L76.22,68a.92.92,0,0,1-.27.16.75.75,0,0,1-.33,0c-.39,0-.82-.12-.86.43s.37.63.73.75a1.86,1.86,0,0,0,1.4-.2,1.63,1.63,0,0,1,1-.21,1.7,1.7,0,0,1,.95.41c.33,1.12,0,2.37.65,3.43.43.6.78,1.24.28,1.93a2.33,2.33,0,0,0-.16,2.58,2.83,2.83,0,0,1-2.35-2.1c-.28-.65-.1-1.58-1.08-1.81-.9.36-.44,1.18-.61,1.78l0,.94c.55,1.8.55,1.81-1.25,2a2.35,2.35,0,0,0-1.08.65l0,.62c1.31.5,2.63.11,3.94.13a5,5,0,0,0,3.71-1.64,6.42,6.42,0,0,1,.65-.48l.17.08a.94.94,0,0,0,.46.13.87.87,0,0,0,.45-.13,1.84,1.84,0,0,0,.57-.54,2.07,2.07,0,0,0,.32-.71c.13-.45.19-1.09.93-1a2.52,2.52,0,0,0,1-2.62c1.41-.17,2-.61,1.52-1.42S86.87,69,85.59,68.46Z"/><path class="cls-5" d="M65.42,39.54c-.48-.72-.3-1.64-.55-2.47-.12-.39.15-.85-.41-1.27-.87-.65-.74.62-1.23.62-.66-1.91-.66-1.91-2.47-.77l-.33.21a4.35,4.35,0,0,0-.51,0,39.68,39.68,0,0,0-4.13,1.41c.44-1.75,1.13-3.36.07-4.95l-.62-.88c-.59,0-1.25-.4-1.68.32.72-.19.81.29.88.81.49,3.14-1.23,5.48-2.87,7.84l0,0c-1.51.27-2.83.81-3.29,2.47.3.51.2,1.22.82,1.55,2.74-.65,5.13-.35,6.64,2.4a2.56,2.56,0,0,0,.2.26c.24.87.58,1.59,1.69,1.64a1.51,1.51,0,0,0,1.07-.23,1.47,1.47,0,0,0,.62-.9c.4-.81,1.28-1.42,1-2.49C60,44.27,58,44.42,59,42.8l0,0c.66-1,1.65-1.72,2.11-2.85a1.29,1.29,0,0,1,1.71-.69v0c.7.37,1.5.9,1.19,1.68-.51,1.27.51,1.25,1.11,1.64A2.13,2.13,0,0,0,65.42,39.54Z"/><path class="cls-5" d="M74.6,35c-.72-.89-.81-1.68.37-2.27.36-.54.94-.48,1.47-.52A6.35,6.35,0,0,0,81.8,29c.2-.26.41-.66.76-.48a.76.76,0,0,1,.3,1.11c-.22.45-.55,1.07.24,1.31s1.28-.06,1.37-.91c.75.21.79,1.06,1.32,1.48.25.19,0,.42-.22.63-.46.46-1,.51-1.85.2,1,1.22,2.45,1.55,2.67,3-1.62-.77-2.91-.11-4.15.93a1.47,1.47,0,0,0-.42.76,1.39,1.39,0,0,0,.09.85c.62,1.27,0,2.26-.42,3.33a3,3,0,0,0-.69.4c-.73.71-1,.33-1.06-.44s-.29-.86-.89-.57a3.85,3.85,0,0,0-2.3-1.64c-1.12-.69-.79-1.9-.94-2.89C75.51,35.33,75.24,35.05,74.6,35Z"/><path class="cls-4" d="M68.66,29.44c1.6-.27,3.13.35,4.72.33a25.08,25.08,0,0,0,4.88-.28c.27.33,1,.16,1,.84a1.65,1.65,0,0,1-.63.75,1.72,1.72,0,0,1-.94.27c-2.42.12-4.79,1.17-7.26.42-.22,0-.46,0-.56.2a.41.41,0,0,0,0,.16.44.44,0,0,0,0,.15.29.29,0,0,0,.1.12.51.51,0,0,0,.15.07c.33.1.77-.25,1,.45-1.47-.11-3,1.64-4.37-.54a1.84,1.84,0,0,0,1.28-1c.17-.08.57-.18.37-.33C67.28,30.29,67.86,29.87,68.66,29.44Z"/><path class="cls-5" d="M94,53.44a3,3,0,0,1-.61-2c.19-1.68-.81-3-1-4.63a.59.59,0,0,0-.09-.31.64.64,0,0,0-.24-.22.62.62,0,0,0-.33-.08.66.66,0,0,0-.33.09c-.68.36-1.55.38-2,1.1-.33.53-.93.15-1.31.37-.64.37-1.71-.19-2,.94-.41.22-1.29-.66-1.29.53,0,1.5,0,1.5-1.23,2.15-.38.2-.15.47-.08.7a8,8,0,0,0,2.72,1.59,6,6,0,0,1,2.54.21l.94.4c1.28.77,2.56,1.34,3.79-.11,0-.06.29,0,.44.09C94,54,94.23,53.82,94,53.44Z"/><path class="cls-4" d="M46.3,43.46c1,.8,1.4-.11,2-.59a9.77,9.77,0,0,1,3.28-2.4c.77.43,1-.26,1.23-.68.53-1,1.1-2,1.65-3a6.44,6.44,0,0,0,.55-4c-.1-.77-.39-1.38-1.34-1.28-1,.41-1,1.31-1.2,2.15a1.18,1.18,0,0,0-.25-.25c.28,1-.28,1.39-.64,2s-.8,1-1.56.58a3.15,3.15,0,0,1-.66,1.42,3.21,3.21,0,0,1-1.28.93,3.8,3.8,0,0,0-1.46,1.21h.06c-.55.46-.41,1.18-.68,1.74A1.56,1.56,0,0,0,46.3,43.46Z"/><path class="cls-5" d="M84.69,43.83a2.37,2.37,0,0,0-2.09,1.41,6.79,6.79,0,0,1-3,2.58,35.36,35.36,0,0,1-6,.36,6.31,6.31,0,0,0-2.72.38c-.76.26-1.67.17-2.25.85A8.89,8.89,0,0,1,64,45.72a.78.78,0,0,0-.37-.3.71.71,0,0,0-.2,0,1.24,1.24,0,0,0,0-.16c-.66-1.31-1.73-1.13-2.86-.83a1.15,1.15,0,0,1-.35.71,7.67,7.67,0,0,1-1.38,2.32c-.35.22-.12.76-1,.87-1.28.16-1.26-.93-1.93-1.22a1.55,1.55,0,0,0,0,1.25c0,.23.1.56-.37.48-1.06-.18-1.3.65-1.54,1.36s-.15,1.39-.75,1.89a16.79,16.79,0,0,0-4.57,3.17c-.35.32-3.21,3.12-2.6,4.09.33.49,1.39.33,1.89.24,2.91-.46,4.82-3,5.62-4.22,1-.47,2.15-.3,3.12-.85.4-.49.9-.9,1.35-1.36.66.54,1.52.28,2.26.51.54.16,1.29.09,1.47.78a8.93,8.93,0,0,0,1.32,2.16,3.83,3.83,0,0,0,1.49-.65,4,4,0,0,0,1.08-1.23c.46-.76,1.16-.47,1.73.6,1,.09,1.07-.66,1.07-1.27a4.09,4.09,0,0,1,.39-1.82,4.16,4.16,0,0,1,1-1.35l.23,0c1.54,0,3.12.48,4.57-.43,2.11,0,4.31.19,5.84-1.74C81.79,47,84.13,46.3,84.69,43.83Z"/><path class="cls-4" d="M59.82,36.26c1.08-.19,2.25-1.44,3.22.27.13.26.49.09.74,0s.52,0,.54.37c.13,1.91,1.48,3.65.76,5.66,1.9,2.68,4.81,2.68,7.64,2.88.81,0,1.62-.14,2.44-.14a4.33,4.33,0,0,0,4.07-4.65,3,3,0,0,0-2.5-2l-.23,0-.75-4.7c-.46.15-.44.71-.7,1-.6-.73-.59-.76-.1-1.71a.48.48,0,0,0,.08-.31.53.53,0,0,0-.14-.29l0,0H75a8.94,8.94,0,0,0,5.54-1.34c.88-.56,1.54-1.22,1.29-2.38l-2.57,1.31a49.35,49.35,0,0,1-8.45,1.4l-.38-.07c-1.21.13-1,.69-.42,1.37-2.38.17-2.38.17-1.79-1.46a6,6,0,0,0-3.11-2.59c-.65,0-1.31-.33-2,0-1.24.79-3-.09-4.08,1.19.89.94.89.94-.52,1.49a7.07,7.07,0,0,1-2.63.89A11.94,11.94,0,0,1,55.11,38C56.93,37.67,58.27,36.68,59.82,36.26Zm14.25-3.73-.07.09c-.54,1.17-.43-.07-.5-.16Zm-6.71,1.23-.16.16-.11-.08c.09,0,.17-.05.27-.09Z"/><path class="cls-4" d="M63.93,72.85c.53.52.69,1,0,1.44-1.55.32-1.57.35-.8,1.23.77.65,1.17,1.7,2.27,2,.63-.44.39-1.31.87-1.87.66.41.59,1.09.83,1.61a1.59,1.59,0,0,0,.6.75,1.71,1.71,0,0,0,.92.3,1.11,1.11,0,0,0,1.25-.85,2.35,2.35,0,0,1,2.19-2.33c.73-.11,1.33-1.12.51-1.55-1-.53-1.12-1.24-1.26-2.14a2.24,2.24,0,0,0-.47-1,2.2,2.2,0,0,0-.85-.63,9.89,9.89,0,0,1-2.17-1.39c1.71,0,3.28-.08,4.83.09A25.56,25.56,0,0,0,76,68.38a20.14,20.14,0,0,0,4.52-1.68c.78-.4,1.11-1.2,1.64-1.83s1.23-1.26.57-2.22a1.11,1.11,0,0,0-.48.05.93.93,0,0,0-.41.26,10,10,0,0,1-7,2.51c-2.06,0-3.91.87-5.86,1.26a3.3,3.3,0,0,1-2.83-.32A6.83,6.83,0,0,1,65,64.68c-.33-.71-.52-1.55-1.44-1.81-.9,0-1.31,1.25-2.33.9a1,1,0,0,0-.63.27,1,1,0,0,0-.33.61,3.34,3.34,0,0,1-.17,1.74,3.08,3.08,0,0,0,.7,3.39A42.73,42.73,0,0,0,63.93,72.85Z"/><path class="cls-5" d="M82.83,99.89a7.61,7.61,0,0,1-2.58,3c0-1.37,0-1.42-1.16-1.09a2.16,2.16,0,0,1-1.86-.14,4.75,4.75,0,0,0-4.22-.74c-.46.13-1,0-1.37.4-1.14,1.31-2.57,1-4,.85a1,1,0,0,0-.33,0,1.17,1.17,0,0,0-.3.19,10.78,10.78,0,0,1-5.52-.29c.2-.51-.17-1-.17-1.48a2.2,2.2,0,0,0-.63-.9C59.51,98,59.52,98,58,99.49a25.51,25.51,0,0,0-3,3.68,4.91,4.91,0,0,1-2,1.89l-.42,0c.79-1.34-.61-1.2-1.29-1.54.27-1.22-.69-2.11-.93-3.2-.15-.65-.85-.59-1.32-.12s-1.17,1.27-1.76,1.91c-.29-.12-.33-.37-.38-.64-.46-.1-1-.4-1.37-.28-.82.27-1.44,1-2.46.47-.17-.09-.21.25-.16.55-.79.35-1,.83,0,1.31a2,2,0,0,1,1.38,2,13.38,13.38,0,0,0,6.1,3c1,.17,1.8-.76,2.79-.47,1.72-.6,2.78.52,3.79,1.58a6,6,0,0,0,2,1.64,6.19,6.19,0,0,1,3.25,3.67,5.07,5.07,0,0,0,1.21,1.72,4.85,4.85,0,0,0,1.79,1.09c1.72.68,2.93-.15,3-2a14.14,14.14,0,0,1,0-2.76,6.48,6.48,0,0,0-3.8-6,7.29,7.29,0,0,1-2.42-1.31,1.1,1.1,0,0,0,.4-.21.87.87,0,0,0,.25-.37.75.75,0,0,1,1.37-.25c.86,1.22,1.86,1.06,3,.61.66.1.84-.24.81-.76a2.43,2.43,0,0,0,.84.41,2.29,2.29,0,0,0,.94,0c1.29-.35,2.3.33,3.39.63.87.27,1.62-.65,2.51-.29a2.15,2.15,0,0,0,2.38-.58,20,20,0,0,0,4.38-2.27,6.82,6.82,0,0,0,2.44-2.45.69.69,0,0,0,.25-.31.73.73,0,0,0,.08-.38C84.29,98.39,84,98.44,82.83,99.89Zm-32.15,3.86c.07-.16.25-.11.41-.09A2.71,2.71,0,0,1,50.68,103.75Z"/><path class="cls-4" d="M93.45,74.82a1.5,1.5,0,0,1-.47-1,25.87,25.87,0,0,0-2.19-7c-.3-.58-1.07-1.18-.68-2.06-.57-.69-1.31-.22-2-.32a.62.62,0,0,1,0,.27.63.63,0,0,1-.16.23.62.62,0,0,1-.25.14.66.66,0,0,1-.28,0H85.78l.33.61c.77-.29,1.49-.18,1.2.78-.49,1.64.19,2.51,1.5,3.28a.9.9,0,0,1,.33.25.93.93,0,0,1,.21.76.86.86,0,0,1-.16.38c-.72,1.08.07,1.12.75,1a20.24,20.24,0,0,1,2.13-.3c0,1.56-1,3.37,1.25,4C93.59,75.51,94,75.23,93.45,74.82Z"/><path class="cls-4" d="M81.86,81.53c.09.25.22.52,0,.75-1.06,1-2,2-3.6,2.25-1.79.3-3.61.08-5.37.35-1.07.16-2.09.65-2.91-.55-.15-.24-.73-.33-1.06-.27a3.82,3.82,0,0,1-3.18-1.3c-.76.66.05,1.35,0,2a3.67,3.67,0,0,0,1.91,1.08c1.13.33,2.33.17,3.43.59h2a16.91,16.91,0,0,0,7.3-1.26c2.31-1.1,4.21-3.82,4.1-6.14C83.34,79.69,82.91,80.92,81.86,81.53Z"/><path class="cls-5" d="M84.34,54.87c-1.1-.53-1.1-.51-1.76,0-.9.69-1.57,1.69-2.71,2.09-.59,1.08-1.45,2.14-.36,3.25-.66-.13-1.35.45-2.13.56a7.2,7.2,0,0,1-2.53.21c-1.51.06-3.12-.52-4.49.57a5.8,5.8,0,0,1-3.94-.13c-.18.81.46.71.9.75.68.07,1.38.07,2.07.09A9.61,9.61,0,0,1,72,62a13,13,0,0,0,8.82-1.49c.54-.88,1.52-1.45,1.71-2.55A3.61,3.61,0,0,1,84.34,54.87Z"/><path class="cls-5" d="M88,110.67c-.49.39-.79,1.07-1.32,1.4a3.67,3.67,0,0,0-2.08,3.41,2.88,2.88,0,0,1-.6,1.64,4.48,4.48,0,0,0-.81,1.58c1.14.45,1.65-.43,2.27-1.08,1.06-.27,1.86-.8,1.93-2a1.75,1.75,0,0,1,.43-1,37.72,37.72,0,0,1,1.59-4.89C88.53,109.43,88.42,110.32,88,110.67Z"/><path class="cls-4" d="M65.39,80.9A1.06,1.06,0,0,1,64.14,80c-.26-1.16-1.31-1.82-1.93-2.75-.2-.28-.53-.39-.78,0-.14.22-.57.37-.11.75.79.63.66,1.64.88,2.5.58.4.55,1.17.91,1.71a1.8,1.8,0,0,0,.8,2c.66.17,1,1.17,1.91.71.47-.71,0-1.38-.1-2.07A4,4,0,0,0,65.39,80.9Z"/><path class="cls-4" d="M66.73,99.52a4.92,4.92,0,0,0-2-.33c-.24.36-.53.66-.77,1-.8,1.13-1.65,1.25-2.89.59-.49.63.33.88.41,1.31h0a5.49,5.49,0,0,0,5.54.5c.33-.47-.09-1,.27-1.54C67.81,100.36,67.28,99.92,66.73,99.52Z"/><path class="cls-4" d="M68,64.08a2.77,2.77,0,0,1-1.93-.75c-.76-.28-1-1.26-1.82-1.46-.42-.1-.86-.28-1.19.09s.33.67.38,1.06a2.38,2.38,0,0,1,.94,1.47,3.71,3.71,0,0,0,1.34,2.17,2.56,2.56,0,0,0,1-.15,2.37,2.37,0,0,0,.89-.53c.74-.61-.39-.46-.39-.8s.18-.33.43-.35C68.19,64.76,68,64.36,68,64.08Z"/><path class="cls-5" d="M97.62,82.83c-1,2.62-1.72,5.36-3.52,7.61a1.43,1.43,0,0,0-.38,1.2c.33,0,1-.76.93.4a2.07,2.07,0,0,0,.25.95,2,2,0,0,0,.65.71c.63.45,1.55.06,1.48-.32-.14-.8.47-1.6-.08-2.34a1.68,1.68,0,0,1,.27-2.33,7.6,7.6,0,0,1,.26-1.24C97.75,85.93,98.39,84.4,97.62,82.83Z"/><path class="cls-4" d="M88.19,99.32a1.1,1.1,0,0,0-.29-.5,1,1,0,0,0-.5-.26,1.9,1.9,0,0,1-.47-.65,2,2,0,0,1-.17-.79c0-.76-.48-.87-1.05-.92-.4-.07-.63.22-.91.42-.25,1,.27,1.94,0,2.93l-.1.57c.05.66.49.77,1,.71.16-.41-.25-1.08.43-1.21s.53.41.53.79a4.89,4.89,0,0,0,4,4.35.88.88,0,0,0,.16-.32.93.93,0,0,0,0-.37A15.9,15.9,0,0,1,88.19,99.32Z"/><path class="cls-4" d="M63.17,45.39a4,4,0,0,1,1.17,1.52,4.6,4.6,0,0,0,4.36,2.53c.76-.16,1.59.11,2.3-.39.4-1.2-.59-1.43-1.31-1.85-2.22-.49-4.32-1.15-5.36-3.47-.13-.31-.53-.7-.92-.37-.84.67-2,.32-2.84,1A2.66,2.66,0,0,1,63.17,45.39Z"/><path class="cls-4" d="M75.63,45.49a4.54,4.54,0,0,0,4.17-1.78,5.94,5.94,0,0,1,2.42-2.1.84.84,0,0,0-.3-.32.82.82,0,0,0-.43-.12c-.64-.07-1.32.14-1.69-.73-.16-.39-.33-.32-1,.13.33,1.54-.63,2.32-1.61,3.35a4.17,4.17,0,0,1-3.68,1.16.88.88,0,0,0-.48,0,.81.81,0,0,0-.36.3C73.66,46.05,74.64,45.36,75.63,45.49Z"/><path class="cls-4" d="M64,26.7c.2.36.26.81.62,1.1s.83.41.46,1a23.88,23.88,0,0,0,3,2.63c.47.29.79.11.68-.39a5.27,5.27,0,0,1,.08-1.59c-.49-.73-1.52-1-1.67-2L65.39,26.1c-1.12-.06-2.33-.3-2.46,1.43C63.52,27.52,63.34,26.63,64,26.7Z"/><g class="cls-2"><path class="cls-6" d="M43.4,74.09c.83,0,1.57-.41,2.39-.34h0c1.31.12,1.76-1.34,2.87-1.61a3.31,3.31,0,0,0-.5,1.46c.53.18.62-.37,1-.47a17,17,0,0,1,1.07-1.42A4.29,4.29,0,0,1,52,70.37h0l.58,0A7.9,7.9,0,0,0,54,70.26a4.82,4.82,0,0,1,1.64.31,1.53,1.53,0,0,1,.75.47,1.48,1.48,0,0,1,.37.8c.16.62.33,1.29,1.2,1.31.36,0,.8.12,1-.36.77.66,1.18,1.71,2.28,2,.4.49.74,1,1.5,1.11s.62.6.47,1.1h0c-.58.17-1.15-.59-1.8,0a9.39,9.39,0,0,0,5.29.58,8.49,8.49,0,0,1,2.93-.1,14.37,14.37,0,0,0,5.8-.45,4,4,0,0,0,3.07-2.19,2.09,2.09,0,0,0,.57-.54,2,2,0,0,0,.32-.71c.14-.45.19-1.09.94-1-.17.57-.22,1.24.61,1.06a3.75,3.75,0,0,1,2.89.78c2,1.25,4.1.47,6.17.19.08,0,.12-.28.19-.43a3.8,3.8,0,0,0,2.83.15,2.61,2.61,0,0,1,1.72.09c1.1.42,1.46.13,1.59-1.22.34-1.57.12-3.07-1.39-3.82a3.59,3.59,0,0,1-1.88-2.61c-.48-1.66-.81-3.26.25-4.82a1.09,1.09,0,0,0,.15-.46,2.31,2.31,0,0,0,0-1,2.44,2.44,0,0,0-.46-.89,2.33,2.33,0,0,0-.79-.61,2.4,2.4,0,0,0-1-.24c-1.24,0-2.49-.1-3.74-.22-2.37-.21-4.74-.69-7.15-.38-.58-.21-1,.31-1.57.31a.71.71,0,0,0,0,.29,7.93,7.93,0,0,1-2.53,1.83,7.79,7.79,0,0,1-3,.72c-3.08.15-6.17.09-9.26.11a5.6,5.6,0,0,1-.59-.07l.2,0c.48-.07,1.18,0,1.08-.84-.79-.78-2.08,0-2.82-.89-.23-.4-.73-.54-.86-1.11-.28-1.39-.93-1.51-2.19-.53,0,.4.77.3.57.89-2.07,0-4.14.87-6.21-.11-.16-.08-.42.06-.63.06-2.73-.15-5.12,1.25-7.72,1.71-.41.06-.5.36-.56.69a2,2,0,0,1,.42,0c-.33.81.29,1.58.41,2.34.29,1.85.29,3.44-1.43,4.75a6.42,6.42,0,0,0-2.32,2.62v0C40.33,72.9,41.11,74,43.4,74.09Zm31.42-6.91,0,0v0Zm-.76,2.39-.25-.19a1.56,1.56,0,0,0,.2-.16c0,.1,0,.22,0,.34Z"/><path class="cls-6" d="M100.4,101h0c-2.44-2.38-4.65-5-7.28-7.18a5.21,5.21,0,0,0-4-.48,4.78,4.78,0,0,0-2.65,1l0,.13a10.56,10.56,0,0,0-1.12-.09c-1,0-1.82.27-2,1.42a1.78,1.78,0,0,1-.47-.66,2,2,0,0,1-.17-.79v-.13a1.3,1.3,0,0,0,.54.35c1-.88,2.27-.91,3.39-1.4a11.81,11.81,0,0,1,2.3-.66h.41c.76-.2,1.75-.73,2.24-.14.66.78,1.06.33,1.61.15,1.29-.62,1.55-2.16,2.59-3,2.13-2,2.2-2.76.41-4.27a2.58,2.58,0,0,1-.69-3.42,5.51,5.51,0,0,0,.89-2.82c.34-2.67-1-3.81-3.55-3.06a8.08,8.08,0,0,1-2.66.7,33.64,33.64,0,0,0-8.08.38,3.15,3.15,0,0,1-.09-1.61,1,1,0,0,0-.71-1.27,1.14,1.14,0,0,0-.37,0,.89.89,0,0,0-.36.11,1,1,0,0,0-.28.25.74.74,0,0,0-.16.32c-.46,1.56-1.7,2.27-3,3-.85.06-1.5.66-2.3.82-.62.13-1.11.69-1.83.5-2.15-.56-4.35-.3-6.52-.37a5.08,5.08,0,0,1-1.94-.23,6,6,0,0,0-3.2-.37A1.05,1.05,0,0,1,60,77.22c-.25-1.16-1.31-1.82-1.93-2.75a.43.43,0,0,0-.78,0c-.14.22-.57.37-.1.75.78.63.65,1.64.88,2.5h0c-.44.74-1.13,1.27-1.58,2-.28.47-.76,1-1.42.36,1.16-.63,1-1.77,1.21-2.83a7.17,7.17,0,0,1-3.73-.61c-3.13-1.64-6.33-1.17-9.58-.6-1.29.23-1.67,1-1.73,2.15a12.5,12.5,0,0,0,.56,4.08c0,.14.07.28.11.41a4.4,4.4,0,0,1-1.55,3.69c-1.37,1.26-1.25,2,.24,3.21.43.36.83.75,1.31,1.08s1.28.28,1.28,1.16c.33,0,.35-.76.87-.31s1.53.7,2.13,1.31a1.46,1.46,0,0,0,2.19,0c.73-.65.48-3.24-.35-4.28s-1.27-.58-1.77-.12a1.63,1.63,0,0,0,.29-.93,1.6,1.6,0,0,0-.32-.92c-.22-.36,0-.84-.08-1.28l0-.15A10.44,10.44,0,0,1,47.66,85c1.51-.29,2.09.27,2,1.79,0,.33-.14.83.26.72,1-.27,1,.33,1.32,1,.42.87.84.86,1.82.18.12-.07.41-.1.46,0,.49.66,1.4,0,1.93.63-.17.43-1,.43-.71,1.08a1,1,0,0,0,1,.56l-.1.12a2.3,2.3,0,0,0,.7,2.14c.75.71,1.79.72,2.68,1.08.66.06,1.26.35,1.9.45,1.86.3,3.74.71,5.56-.25a2.07,2.07,0,0,0,0-.22c.95.15,1.83,1,2.86.3a.32.32,0,0,0,.07.19c.63.75,1.52.56,2.27.55A15.7,15.7,0,0,1,74,94.92a4.53,4.53,0,0,0,4.43-2.17A4.67,4.67,0,0,1,80,91.3a4.58,4.58,0,0,1,2.12-.52,5.07,5.07,0,0,0,2-.29,1,1,0,0,0,0,.38c-.84.49-2.06.19-2.61,1.28a4.84,4.84,0,0,1,.66,1.46,1.87,1.87,0,0,0-.66-.15c-.4-.07-.63.22-.9.42A6.28,6.28,0,0,1,79,95.11a26.21,26.21,0,0,1-9.42,1.78c-2.3,0-4.65,0-7-.11a4.92,4.92,0,0,0-2-.33c-.19.28-.4.53-.61.79a32,32,0,0,0-3.54-.33c-1.11-1.65-1.13-1.61-2.58-.15-.1.09-.18.2-.27.29-2.11.2-3.57.43-5-.41a5.57,5.57,0,0,1-1.87-1.93L46.35,94a4.88,4.88,0,0,0-2-1.37c-.65-.35-1,0-1.21.55a5.49,5.49,0,0,0-1.84,2.42A6,6,0,0,1,38,98.9,5.67,5.67,0,0,0,36.38,100c-.62.54-.31,1.05-.24,1.61s.62.75,1,.73a23.66,23.66,0,0,1,3,.43,13.39,13.39,0,0,0,6.11,3c1,.16,1.8-.76,2.79-.47.82.38,1.56.91,2.4,1.25,1.06.45,2.21,2.94,2.21,4.13s-.3,2.14.27,3.14v0c.39.57.66,1.41,1.37,1.54,2.63.47,5.12,1.45,7.78,1.67l0,0,.35.06h0l0,0a3,3,0,0,0,1.72.31c2.43,0,4.88-.23,7.3-.07a9.27,9.27,0,0,0,5.15-1.27v0l0,0,1,.1a.93.93,0,0,0,.33,0,.8.8,0,0,0,.22-.13c1,.26,1.47-.55,2-1.15,1.06-.27,1.86-.81,1.93-2a1.63,1.63,0,0,1,.43-1A37.72,37.72,0,0,1,85.22,107l1-.72c.56,0,1.1.6,1.71.23,1.4-.82,3-.56,4.47-.91.92-.39,2.09-.21,2.71-1.23h0c1.9-.28,3.9-.13,5.56-1.35C101.28,102.26,101,101.63,100.4,101ZM57.48,114.81l.05,0h0Z"/><path class="cls-6" d="M42.17,40.74c1,.8,1.39-.1,2-.58.29.5.2,1.22.8,1.54-.41,1-.8,2.26-.22,3.16a5.76,5.76,0,0,1,1,2.38,5.83,5.83,0,0,1-.18,2.56,2.64,2.64,0,0,1-2,2.2,2.74,2.74,0,0,0,1,.5h0c-.34.33-3.21,3.13-2.59,4.1a.68.68,0,0,0,.41.27c1.49,1,1.94.84,3.18-.37,1.06.39,2.21,1.06,3.25.62a12.3,12.3,0,0,1,3.88-.82,1.05,1.05,0,0,0,.78-.07h0c2.84-1.07,2.85-1.07,4.84-.94,0,.78.11,1.48,1.09,1.57,1.23-.37,1.21-.37,1.37.75a.84.84,0,0,0,.4.47c.37.23.76.41,1.15.62-.17.81.46.71.91.75.68.07,1.37.07,2.06.09a9.64,9.64,0,0,1,2.59-.23,13,13,0,0,0,8.82-1.49c.54-.88,1.53-1.45,1.72-2.54v0c.55-.22,1.07-.7,1.73-.37.27.13.54.51.81.18.58-.74,1.11-.21,1.67,0,.5.35,1.26,0,1.64.55a5.56,5.56,0,0,0,2.91,1.65,3.65,3.65,0,0,0,3.7-.27c1-.44,1.78-1.42,3.08-1.54.61-.08,1.27-1,1.38-2A1.44,1.44,0,0,0,94,51.7c-2.37.14-3.51-1.19-2.9-3.39v0c.76-1.12,1.59-2.18,2.24-3.35.78-1.39.5-2.2-.88-3.28C92.16,41,91.31,41,90.9,40.5c.91.37,2-.57,2.84.3.76.65,1.19.09,1.64-.42,1.49-1.44.29-5-2.3-5.17a3,3,0,0,1-1.56-.37c-.49-.31-1-.84-.56-1.31.81-.89.33-1.7.15-2.56.77-2.55.77-2.54-1.49-3.84,0,0-.06-.08-.08-.13a3.6,3.6,0,0,0,1.28-2.62c-.49-1.55-2-1.6-3.16-2.08-3-.59-5.54.93-8.28,1.56a1.62,1.62,0,0,0-.1.18c-1.67-.59-1.89-.49-2.51,1.16a1,1,0,0,1-.26.5,1.35,1.35,0,0,1-.45.33,2.32,2.32,0,0,0-1.08,0,2.19,2.19,0,0,0-.94.52.43.43,0,0,0,0,.16,25.92,25.92,0,0,1-4.8.27c-1.56,0-3-.57-4.6-.33-.49-.73-1.51-1-1.67-2l-1.72-1.36c-1.11-.07-2.33-.3-2.45,1.43.58,0,.41-.9,1-.84.2.36.26.81.62,1.11s.82.4.48,1c-.66,0-1.31-.33-2,0-1.24.79-3-.09-4.08,1.19.8.85.87.93-.15,1.35.37-1.26-1-1.12-1.73-1.51,1.71-1.42,1.83-1.64,1.55-2.84-.5-2.21-1.45-2.81-3.63-2.27-1.92.31-3.69.81-4.12,3.1.12.66-.22,1.39.33,2-.06.21,0,.47-.17.61a3.86,3.86,0,0,0-.87,4.21,2,2,0,0,1-.23,1.41,3.25,3.25,0,0,1-.66,1.42A3.22,3.22,0,0,1,44,35.6a3.7,3.7,0,0,0-1.45,1.21h0c-.55.45-.41,1.18-.68,1.74C41.45,39.38,41.36,40.09,42.17,40.74Zm16.46-4.26v0c.7.36,1.5.9,1.19,1.68-.51,1.27.51,1.25,1.11,1.63l0,0v0c1.9,2.68,4.81,2.68,7.64,2.88,1,.6,1.93-.08,2.91,0A4.5,4.5,0,0,0,75.66,41a6,6,0,0,1,2.43-2.1,1.9,1.9,0,0,1,2.33-1.44.86.86,0,0,0,.06.23c.94,1.12,1.23,2.62,2.1,3.78a.44.44,0,0,0-.16.06.43.43,0,0,0-.11.12c-2.12-1.81-2.89-1.78-5.15,0a23.8,23.8,0,0,0-2.85,2.65.22.22,0,0,1,0,.11c-2.92-.18-5.83.13-8.75.08C63.32,44,61.23,43.32,60.18,41c-.13-.3-.52-.7-.92-.37-.84.67-2,.33-2.84,1a1,1,0,0,1-.28.63c-.45-.72-2.27-.66-1.29-2.21l0-.06a17,17,0,0,0,2.11-2.84,1.27,1.27,0,0,1,1.7-.69ZM63.23,31l-.16.16L63,31.09l.26-.06Zm7.63-1a.4.4,0,0,0-.1-.15l-.05,0H71a1,1,0,0,0-.17.19Zm-1-.1c-.54,1.17-.43-.07-.49-.17.19,0,.38.06.56.07a.28.28,0,0,0-.08.11Zm9.82-.15-.09-.1.13,0Zm5.64-.85s0,.06,0,.08l-.07-.06-.12-.11a.94.94,0,0,1,.1-.1,1.55,1.55,0,0,0,0,.21ZM48.86,49.33H49l.1,0h0l-.3.16Zm-5.48,7.54a3.32,3.32,0,0,0,.41-.06.89.89,0,0,1-.39.09ZM75,57.46l.1-.31a1.48,1.48,0,0,0,.25.31,1.35,1.35,0,0,0-.35,0Z"/></g><path class="cls-7" d="M46.49,92.69a5.65,5.65,0,0,0,2.24,2.66c1.82,1.05,3.64.42,6.71.29,2.26-.1,2.82.17,6.33.48,12.59,1.12,20.8,1.84,26.65,1.27.79-.08,3-.33,4.18,1a3,3,0,0,1,.68,3.1c-.94,2-5.43,1.58-8.65,1.36-19.2-1.31-28.81-2-33.95-.39-1.14.35-3.67,1.22-5.55,0a5.52,5.52,0,0,1,1.38-9.75Z"/><path class="cls-7" d="M80.42,56.8c2.41-.31,4.78.17,7.16.38,1.24.12,2.49.19,3.74.22a2.36,2.36,0,0,1,1,.24,2.16,2.16,0,0,1,.79.61,2.44,2.44,0,0,1,.46.89,2.31,2.31,0,0,1,0,1,1.1,1.1,0,0,1-.16.46c-1.06,1.56-.72,3.16-.24,4.82A3.57,3.57,0,0,0,95.08,68c1.5.75,1.73,2.25,1.38,3.82-.5,0-.45,1.18-1.18.68-.55-.39-1.4-.87-1.18-1.61.42-1.41-.57-1.86-1.4-2.12-2.52-.78-3.49-2.6-4.14-5A4.28,4.28,0,0,0,85.93,61c-.65-.16-1.31-.18-2-.33a2.54,2.54,0,0,0-.47-.14C80.77,60.25,80.29,59.65,80.42,56.8Z"/><path class="cls-8" d="M52.54,79.45a.72.72,0,0,1-.3.27.74.74,0,0,1-.39.07,2.42,2.42,0,0,1-.86.76,4.06,4.06,0,0,1-2.53.19c-1.82-.33-2.36.12-2.63,2.05A13,13,0,0,1,46.27,84c.06.45-.14.92.09,1.28.72,1.15.06,1.91-.66,2.69-1,.74-2,1.69-3.28.39-.4-.39-1.14.08-1.71-.07-1.48-1.17-1.6-1.95-.24-3.21a4.26,4.26,0,0,0,1.23-1.65,4.46,4.46,0,0,0,.33-2c-.82-2.38,1.06-4.07,1.61-6.1.17-.64,1.42-1,1.73-.28.92,2,2.43,1.14,3.64.85,1.61-.38,2.81.56,4.14.93C54.24,77.12,53.87,78.52,52.54,79.45Z"/><path class="cls-8" d="M49.2,48l-.09,0H49a17.71,17.71,0,0,1-1.31,2.22,3,3,0,0,1-1.95,1,3,3,0,0,1-2.13-.58,2.65,2.65,0,0,0,2-2.2,5.73,5.73,0,0,0-.78-4.95c-.58-.9-.19-2.12.22-3.16a4.64,4.64,0,0,1,5.56.33,6.33,6.33,0,0,1,1.5,2.08c.13,1,.47,2.13-1,2.6-.58.18-.6,1-.84,1.48S50.05,48.12,49.2,48Z"/><path class="cls-7" d="M91,23.11a3.54,3.54,0,0,1-1.29,2.63c-.39.84-1.21.76-1.92.83a3.56,3.56,0,0,0-2.46.95A5.93,5.93,0,0,1,82,26.43a4.55,4.55,0,0,1-1.09-1.14,5.61,5.61,0,0,0-1-1.34c-.31-.39-.79-.77-.36-1.36,2.74-.63,5.31-2.15,8.28-1.56C89,21.52,90.48,21.56,91,23.11Z"/><path class="cls-7" d="M90.31,72.82c-.38-.3-1.13-.22-1-1-1.14-3.2-1.7-6.58-3.31-9.62-.24-.46-.44-1,.12-1.48.61-.06,1.17-.14,1.37.71a1.56,1.56,0,0,0,.33.74,1.41,1.41,0,0,0,.66.47,1.44,1.44,0,0,1,.76,1c-.53,1.24.83,1.85.93,2.93.06.73,1.07,1.14,1.88,1.31a4.7,4.7,0,0,1,2.55,1.6c.37.45,1.1.87-.14,1.16-.22,0-.22.6.13.56.93-.12.46.86,1,1.07.66.58,0-1.62,1-.49-.13,1.36-.49,1.64-1.59,1.22A2.6,2.6,0,0,0,93.16,73a3.8,3.8,0,0,1-2.83-.16Z"/><path class="cls-8" d="M47.27,25.74c-.55-.59-.21-1.32-.33-2,.43-2.3,2.2-2.79,4.12-3.1,2.18-.54,3.13,0,3.63,2.26.28,1.19.16,1.42-1.55,2.84.77.42,2.33.23,1.61,1.82a3.43,3.43,0,0,1-1.25.8,3.4,3.4,0,0,1-1.48.18,2.25,2.25,0,0,1-1.14-.87c-.82-.66-1.4-1.76-2.77-1.25C47.52,26.68,47.52,26,47.27,25.74Z"/><path class="cls-7" d="M56.68,60.53c.38-.38.63-.92.33-1.31s-.83-.22-1.32-.16a18.53,18.53,0,0,1-3.21.42,5.07,5.07,0,0,0-2.63,1.15c-1.26.84-2.4,1-3.43-.09a2.06,2.06,0,0,0-1-.65,2,2,0,0,0-1.17,0c.06-.33.15-.63.56-.7,2.6-.45,5-1.85,7.72-1.71.21,0,.47-.13.63,0,2.07,1,4.14.14,6.21.1.19-.59-.56-.48-.57-.88,1.26-1,1.9-.87,2.19.52.13.58.63.71.86,1.12.74.93,2,.11,2.82.88.1.86-.6.78-1.08.85a10.68,10.68,0,0,1-2.26.06c-.59-.06-.91-.53-1.32-.85s-1-.4-1.23.31C58.14,59.93,58,61.39,56.68,60.53Z"/><path class="cls-7" d="M90,44.67a4.18,4.18,0,0,0-.88-2,1.63,1.63,0,0,0-.89-.76,1.6,1.6,0,0,0-1.18,0c-.73.27-1.58.39-2,1.17a2.69,2.69,0,0,1-2.53-2.24c-.33-.6.08-.69.53-.74.88.45,1.64-.28,2.46-.35a10.63,10.63,0,0,1,1.88-.25,10.8,10.8,0,0,0,3.67-.28c.41.54,1.27.48,1.57,1.16a10,10,0,0,1-.69,3.25A1.46,1.46,0,0,1,90,44.67Z"/><path class="cls-7" d="M41.36,69.49c.7,1.15.69,1.14,1.49.15,1-1.26,2.1-2.49,3.12-3.75.29-.35.55-.72,1.06-.53a1,1,0,0,1,.51.5,1.05,1.05,0,0,1,.05.72,6.53,6.53,0,0,1-1.23,3.25c-.69.75-.88,1.29-.43,2.13.06.13,0,.33,0,.48-.82-.06-1.56.37-2.4.35C41.25,72.74,40.46,71.6,41.36,69.49Z"/><path class="cls-9" d="M93,100.44a2.34,2.34,0,0,0,1-3.18c1.23.18,2.17.25,1.69,1.77a8,8,0,0,0,0,2.3c1.2.47,2.3-.66,3.53-.3.08,0,.33-.23.33-.3-.38-1.17.73-.66,1.1-1,.6.58.88,1.22.28,2-1.66,1.22-3.66,1.07-5.56,1.35-2.14.75-3.38.33-4.39-1.44C91.27,100.72,92.11,100.56,93,100.44Z"/><path class="cls-8" d="M46.32,91.57c-.6-.62-1.5-.76-2.13-1.31s-.55.28-.87.3c0-.87-.81-.81-1.28-1.15s-.89-.72-1.32-1.09c1.6-1,2-1,3,.6.36-.92,1.29-.8,1.94-1.2s1.37-1.85,2.48-.44c.83,1,1.08,3.64.35,4.28A1.47,1.47,0,0,1,46.32,91.57Z"/><path class="cls-8" d="M49.56,27.78c-.83.65-.4,1.77-.89,2.56-.6.36-.49,1.14-1,1.57s-1.07,1-1.66.06a2,2,0,0,0,.23-1.41,3.87,3.87,0,0,1,.87-4.21c.12-.15.11-.41.17-.61.33,0,.38.62.77.39,1.68-1,2.23.65,3.2,1.31C50.78,28,50,27.2,49.56,27.78Z"/><path class="cls-7" d="M91.26,29.69c-.74.4-1.06.22-1.32-.66-.52-1.7-1.13-1.75-2.32-.35a1.76,1.76,0,0,1-2.16-1.08c-.43-1.36.69-1.29,1.43-1.44a10.62,10.62,0,0,0,2.79-.44s0,.11.09.13C92,27.15,92,27.14,91.26,29.69Z"/><path class="cls-10" d="M78,73.15l.68.35a4,4,0,0,1-3.07,2.19,14.36,14.36,0,0,1-5.8.45,8.74,8.74,0,0,0-2.93.1,9.39,9.39,0,0,1-5.29-.58c.65-.59,1.22.17,1.8,0a2.59,2.59,0,0,0,1.23-.19c1-.21,2-.68,3,0,.38.24,1.09,0,1.64-.06a7.85,7.85,0,0,1,2.89-.28A5.45,5.45,0,0,0,76,74C76.53,73.54,77.05,72.83,78,73.15Z"/><path class="cls-7" d="M54.15,112.57v-2.43c.82,1.7,2.79,1.86,3.5,3.41.51-.41-.42-.81.26-1,.3-.08.84-.1.79.29-.23,1.79,1.31,1.56,2.23,2,.75.39,1.74.21,2.38.93-2.67-.22-5.17-1.2-7.78-1.67C54.79,114,54.55,113.15,54.15,112.57Z"/><path class="cls-9" d="M86.34,105a12.87,12.87,0,0,1-2.15-.81,1.42,1.42,0,0,0-2.14.33c-.45-1.5-.1-2.93-.11-4.37,0-.26.06-.68,0-.76-1-.83-.23-1.71-.14-2.57-.42-.57-.49-1.18.25-1.44s1,.35,1.12,1c.28,2.15,1.78,3.18,3.59,3.93a10.77,10.77,0,0,1,2.06.6c.81.29,1.4.62.3,1.34-.33.22-1,.31-.66.9s.83.27,1.32.14c1.15-.28,2.24-.29,2.81,1-1.48.36-3.09.1-4.49.93C87.45,105.59,86.91,105,86.34,105Z"/><path class="cls-9" d="M92.54,104.31c-.87-.38-2.11-1.31-2.65-.61-.88,1.13-1.29.23-1.79,0-1-.53-1-1,.08-1.52.37-.21.78-.36,1.18-.54-.2-.24-.49-.18-.74-.25.81-1.15,1.57-.63,2.34,0,1,1.64,2.63,1.69,4.29,1.67C94.63,104.1,93.46,103.91,92.54,104.31Z"/><path class="cls-8" d="M83.33,103.52c-1-.09-1.1-.47-1-1.16.33-1.92-.23-3.75-.44-5.62a2.31,2.31,0,0,0-1.21-.69c-1.58,1.21-3,2.64-4.88,3.42a5.8,5.8,0,0,0-2.07,1.26c-.54,1.17.33,2.21.28,3.33,0,.23.61.33.16.53-1.48.66-.91,1.59-.44,2.54a5.18,5.18,0,0,1,.39,1.73,2.46,2.46,0,0,0,.11.45c.19.38.27.93.79.93s.57-.58.74-1a6.45,6.45,0,0,1,.46-1c.33-.42.31-1.28,1.18-1.07a1.52,1.52,0,0,1,1.32,1.76c-.86-.92-1.47-.61-1.82.31a5.29,5.29,0,0,0,.93,5.57l1,.1a.7.7,0,0,0,.62-.22,6.9,6.9,0,0,0,1.64-3.82,2,2,0,0,1,.66-1.3c1.26-1.24,2.46-2.55,3.65-3.86l.94-.73C85.68,103.79,84.38,103.63,83.33,103.52Z"/><path class="cls-11" d="M76.64,83.75c1.19.26,1.58-.39,1.29-1.36-.22-.77.47-.35.57-.62a2.49,2.49,0,0,0,1.83-2c-.07-1.25.73-1.56,1.39-1.95,1-.57,1.13-1.14.44-2a3.08,3.08,0,0,1-.08-1.62,1,1,0,0,0-.72-1.26.92.92,0,0,0-.37,0,1.18,1.18,0,0,0-.36.12.92.92,0,0,0-.28.24,1,1,0,0,0-.16.33c-.46,1.56-1.71,2.26-3,3-.12.39-.62.78-.33,1.15s.66-.12,1-.17c1.45,0,1.72-1.18,2.28-2.08-.09.63-.66,1.11-.89,1.75a6.45,6.45,0,0,1-4.46,4,17.6,17.6,0,0,1-5.49.76c-.84,0-1.77-.24-2.43.57,0,.75.17,1.29,1.1.84.14-.27.41-.21.65-.21a1.15,1.15,0,0,0,.79.17c1.33-.4,2.06,0,2.58,1.36.43,1.15,1.43,1.22,2.36.33C74.94,84.26,75.52,83.5,76.64,83.75Z"/><path class="cls-12" d="M94.16,50.41c-2.37.15-3.51-1.18-2.89-3.39a15,15,0,0,0-.86-2.74,4.91,4.91,0,0,0-.89-1.89,2.17,2.17,0,0,0-1.06-.85,2.34,2.34,0,0,0-1.36-.07c-.9.23-2,.31-2.06,1.62l.32.33a.71.71,0,0,0,.31.08.65.65,0,0,0,.31-.08c1.91-.67,1.73-.61,2.39,1.36.54,1.73.33,3.67,1.38,5.24-1.35.19-2.66.71-4,.29-.29.41-.66.27-1,.15a5.31,5.31,0,0,0-2.55,0,3,3,0,0,1,.61,3.31c.49.35,1.25,0,1.64.55a5.53,5.53,0,0,0,2.9,1.65,3.65,3.65,0,0,0,3.7-.27c1-.44,1.78-1.42,3.08-1.54.61-.08,1.28-1,1.39-2A1.46,1.46,0,0,0,94.16,50.41Z"/><path class="cls-12" d="M71,62c3-.13,5.72-.82,7.72-3.25h0a5.87,5.87,0,0,1-.92,2c1.85.58,1,2.22,1.17,3.53.59-.47,1-.69.94-1.48A1.57,1.57,0,0,1,81.8,61c.83,0,2,1.13,2.36-.64-.37-.59-1-.35-1.47-.32-1.06,0-1.64-.33-1.6-1.48a2.22,2.22,0,0,0-.13-1,2.37,2.37,0,0,0-.53-.82c-.58-.21-1,.31-1.57.31a.48.48,0,0,0,0,.29A7.94,7.94,0,0,1,73.28,60c-3.08.15-6.17.08-9.25.11-1.11.55-1.11,2.08-2.28,2.58a2.5,2.5,0,0,0,.6.52A5.42,5.42,0,0,0,65,63c1.06-.15,2.3.07,3.16-.48A5.21,5.21,0,0,1,71,62Z"/><path class="cls-12" d="M59.07,52.58C58.58,49.65,57.84,49,55,49H53.86a1.49,1.49,0,0,0-.89.4,1.46,1.46,0,0,0-.44.87h0c-1,.37-2.37-.38-3,1.06-.91,1.7-2.92,1.92-4.23,3.1a5.22,5.22,0,0,1-1.38,1.13c-.66.26-1.17-.37-1.89-.24,1.83,1.24,2.25,1.22,3.59-.09,1.06.38,2.22,1.06,3.25.61A12.34,12.34,0,0,1,52.77,55a1.2,1.2,0,0,0,.79-.07h0c2.84-1.08,2.84-1.08,4.84-.95.81-.45.09-.91,0-1.37C58.61,52.21,58.84,52.51,59.07,52.58Z"/><path class="cls-9" d="M75.6,43.8c-1.31,1-2.89,1-4.45,1-1.39,0-2.8-.29-4.16.27-.18-.79-1.15-1-1.31-1.85,3,0,5.91-.28,8.87-.08C74.54,43.86,75.34,43.42,75.6,43.8Z"/><path class="cls-7" d="M93.25,92.57a5.19,5.19,0,0,0-4.06-.48,3.57,3.57,0,0,0-.46,0,3.68,3.68,0,0,0-2.19,1,.3.3,0,0,1,0,.13c-.37,0-.74-.08-1.12-.1-1,0-1.82.28-2,1.44a12.47,12.47,0,0,1,.66,1.66,7.05,7.05,0,0,0,2.69,3.9,13.81,13.81,0,0,0,4.07-1.87,4,4,0,0,0,2.2,2.32c1.37-.18,1.38-1.44,1.87-2.55a4.77,4.77,0,0,1,.16,2.39c-.05,1.07.48,1.54,1.46,1.42,1.58-.19,3.29-.22,4-2.08C98.08,97.37,95.87,94.77,93.25,92.57Z"/><path class="cls-13" d="M76.65,106.13c-.33,1.52-1.59,2.4-1.51,4l-.58-.86c-.59,1.5-1.27,2.92-2.92,3.61A13.11,13.11,0,0,1,69.11,114l-.13.17c-.18.57-.22,1.23-1.13,1.19-.68,0-1.35.13-2,.13s-1.52-.31-2.14.32a2.88,2.88,0,0,0,1.72.31c2.44,0,4.88-.23,7.3-.07a9.19,9.19,0,0,0,5.15-1.27c-.24-.95-.09-2-1-2.75a.49.49,0,0,1-.15-.28.47.47,0,0,1,.06-.33,3.22,3.22,0,0,0,.48-2.17c0-.33.31-.61.66-.61.59,0,.33.37.24.68s-.1.53.3.56c.22,0,.54,0,.54-.24,0-.78.63-1.47-.09-2.38S77.17,107.05,76.65,106.13Z"/><path class="cls-7" d="M42.27,81.19c0-1.84.28-3.56,2-4.66.1-.07.2-.4.16-.43-1.6-1.31.47-.7.49-1.14.7,1.86.69,1.85,2.58,1.58.27,0,.56.08.81,0,1.15-.23,2.3-.45,3.29.47.06.06.3-.06.46-.11.66-.2,1,0,1.22.68s.06,1-.62,1.2c-.43.1-.21.4-.14.64.53.33,1.06.5,1.57-.07a1.26,1.26,0,0,1,.48-.41,1.31,1.31,0,0,1,.61-.15c1.16-.63,1-1.77,1.2-2.83a7.07,7.07,0,0,1-3.73-.61c-3.13-1.64-6.33-1.17-9.58-.6-1.29.23-1.66,1-1.72,2.16a12.42,12.42,0,0,0,.68,4.48C42.13,81.35,42.27,81.27,42.27,81.19Z"/><path class="cls-7" d="M44.53,91.32c-.66-.35-1,0-1.21.55a5.49,5.49,0,0,0-1.84,2.42,6,6,0,0,1-3.38,3.32,5.72,5.72,0,0,0-1.58,1.09c-.61.54-.3,1-.24,1.61s.63.75,1,.73a23.66,23.66,0,0,1,3,.43c.73-.71.83-1.31-.22-1.84-.43-.22-.85-.39-1.28-.57s0-.44.19-.61c1.38-.25,2.74-.58,4.11-.89a7.37,7.37,0,0,1,2.16-1.86c2.18-.85,2.23-.89,1.17-3A5,5,0,0,0,44.53,91.32Z"/><path class="cls-7" d="M56.39,87.32a6.75,6.75,0,0,0-3.22-.66,2.64,2.64,0,0,1-2.81-2.33c0-.94.74-1,1.21-1.33a1.47,1.47,0,0,0,.62-2.3,6.9,6.9,0,0,1-.33-.9l-1,.39a.06.06,0,0,1,0,0v0a3,3,0,0,1-2.21.14c-2.3-.67-3.45.27-3.29,2.7h0L46,84c.58-.4,1.26-.15,1.89-.27,1.52-.29,2.09.26,2,1.79,0,.33-.14.83.27.72,1-.27,1,.32,1.31.95.42.88.84.87,1.82.19.12-.08.41-.11.46,0,.5.66,1.4,0,1.93.63-.16.42-1,.42-.7,1.08s.74.56,1.23.56c.56-.28,1.56.1,1.61-.87C57.77,88,57.08,87.56,56.39,87.32Z"/><path class="cls-13" d="M89,91.26a1.09,1.09,0,0,0,0-.36.94.94,0,0,0-.15-.32.78.78,0,0,0-.27-.24.91.91,0,0,0-.33-.1,1.35,1.35,0,0,1-.51-.21,1.3,1.3,0,0,1-.29-.33h.06c.54-.57.23-1-.28-1.31-.33-.22-.87-.28-.89-.66-.08-1.42-1.15-1.45-2.14-1.75-1.78-.53-2.08-1.46-1.71-3.27.22-1.07,1.34-1.57,1.38-2.47.07-1.42.81-1.08,1.59-.88a5.43,5.43,0,0,1,1.88.53c1.39,1,2.67.61,3.94-.22.59-.38,1.2-.84,1.94-.27a2.41,2.41,0,0,1,.16,1.73c-.11,1.19-.53,2.33-.55,3.53a.18.18,0,0,0,0,.1c-.43.17-.48.65-.58,1.14s.23,1.16.28,1.75.25,1.23-.41,1.4-.77-.51-.9-1c-.36-1.31-1-1.46-1.88-.48a4,4,0,0,0,.06,3.65c.76-.21,1.75-.74,2.24-.15.66.79,1.07.33,1.62.15,1.29-.61,1.55-2.16,2.58-3,2.13-2,2.2-2.75.41-4.26a2.57,2.57,0,0,1-.68-3.42,5.63,5.63,0,0,0,.88-2.82c.34-2.67-.94-3.81-3.55-3.06a8.34,8.34,0,0,1-2.66.7,33.64,33.64,0,0,0-8.08.38A3,3,0,0,1,80.66,78a.87.87,0,0,0-.41.27,1,1,0,0,0-.21.44C80,80,79,80.75,78.37,81.72c-1.86-.33-.24,1.35-.86,1.73-1.89-.64-2.56-.4-3.29,1.24-1.19.59-2.18.31-2-.65.27-1.71-.86-1.28-1.67-1.28a12.05,12.05,0,0,0-1.89.33,2.52,2.52,0,0,0,1.76.61c.44,0,0,1.28.5,1.87.14.16.21.4.38.51a3.81,3.81,0,0,1,2,3.43.92.92,0,0,0-.07.4c-.33.35-.66.68-.47,1.26.3,1-.4,1.26-1.06,1-1-.39-1.5.09-2,.77a.4.4,0,0,0-.1.24.46.46,0,0,0,.08.25c.63.75,1.52.56,2.27.54a15.67,15.67,0,0,1,2.25-.34,4.55,4.55,0,0,0,4.43-2.18A4.54,4.54,0,0,1,80.21,90a4.75,4.75,0,0,1,2.12-.53,5.29,5.29,0,0,0,2-.28,1,1,0,0,0,0,.38c-.84.49-2.06.18-2.61,1.27.66.74.46,2,1.59,2.45,1-.88,2.27-.91,3.39-1.41A13.48,13.48,0,0,1,89,91.26Z"/><path class="cls-7" d="M76.21,24.75a1.25,1.25,0,0,0,.71-.82c.63-1.66.84-1.76,2.54-1.15.43.86,1.5,1.21,1.78,2.2,0,0-.09.07-.13.1-.33.33-.15.78-.28,1.15a1.29,1.29,0,0,1-1.64,1.08,1.13,1.13,0,0,1-.89-1.44c0-.33-.06-.51-.44-.4-.89.35-1.64,1.11-2.68,1-.44-.3-1.11-.42-1-1.18a2.32,2.32,0,0,1,.94-.53,2.46,2.46,0,0,1,1.08,0Z"/><path class="cls-7" d="M80.8,92.61c1.32,1,.26,2,0,2.93-.1-.43-.16-1-.76-.43a10.47,10.47,0,0,0-.94,1.06,2.41,2.41,0,0,1-.92.76,2.54,2.54,0,0,1-1.18.23c-1.39-.1-2.43,1.1-3.81,1-1.35-.66-2.68-1.43-4.25-.69-1.24,0-2.37-1.23-3.71-.29-.41.29-1,.29-.87,1.08.06.41-.38.42-.71.26L63,98.41l-.95-1c1.27-.31,1.24-1,.65-1.87,2.34.09,4.7.16,7,.12a26.65,26.65,0,0,0,9.42-1.78A6.49,6.49,0,0,0,80.8,92.61Z"/><path class="cls-8" d="M91,79.29c-1.27,1-1.91,1-3.24.12a2,2,0,0,0-.93-.26l-3.67-.66c.62,1.6.62,1.6-.94,2.51a1.14,1.14,0,0,0-.27.35c1,.88,0,1.62-.31,2.2-.46.82,0,1.22.38,1.66a4.71,4.71,0,0,0,1.73,1.19,4.93,4.93,0,0,0,2.08.35c-.29,1-.43,1.87.95,1.9.61,0,.91.33.61,1-.16,1.24,1.19,1,1.64,1.64h.41c.39-1.19-.21-2.46.33-3.64.26-.32.49-.7.76-1,1.78-2.29,3.14-4.75,3.14-7.76A2.18,2.18,0,0,0,91,79.29Z"/><path class="cls-11" d="M90,44.67A11,11,0,0,0,91.28,47c.75-1.12,1.58-2.18,2.24-3.35.77-1.4.49-2.2-.89-3.28,0,.61-1,.61-.87,1.39A2.41,2.41,0,0,1,90,44.67Z"/><path class="cls-8" d="M73.93,100.85c-.66-.3-1.26.55-1.64.29-1.18-.85-2,0-3,.32,0,0,0,0,0,0-1.73-1.17-3.73-.78-5.62-1a.84.84,0,0,1-.15.57.81.81,0,0,1-.27.25l-.21-.08c-.66-.24-1.36.17-2.06-.2-2-1.08-2.07-1-3.53.71a1.5,1.5,0,0,0,.45.66,1.38,1.38,0,0,0,.72.34,5.79,5.79,0,0,1,2,.88c.84.6,2.43,1,2.11,2.63,0,.07.21.29.3.29.72-.07.62.43.62.85a2.91,2.91,0,0,0,.32,1.56h0c-.57,1-.24,2-.24,3,0,.75-.72,1.74-1.32,1.74-1.23,0-3.35-1.76-3.67-3-.08-.31-.1-.73-.31-.9-1.11-.9-1.43-2.58-3.15-2.92a3.15,3.15,0,0,1-1.77-1.5,5.5,5.5,0,0,0-3.22-2.08c-.76-.22-1,.13-1.06.79.82.39,1.56.91,2.41,1.25,1,.45,2.2,2.94,2.2,4.13s-.3,2.14.27,3.15c.64-.42.11-1,.16-1.23,1.34.66,2.47,1.72,3.91,2.54,1.66,1,3.44,1.18,5.09,1.9l.35.07c1.4-.1,2.8.07,4.2,0,1.05-.07,1.55-.48,1.37-1.5a2.44,2.44,0,0,0,2.38-1.08c2.15-.6,2.9-1.6,3-3.93a1.26,1.26,0,0,1,0-.28h0a3.11,3.11,0,0,0-.66-2.55c-.52-.56-.49-1.17.42-1.47a1,1,0,0,0,.75-.58l-.73-.17C74.92,103,73.69,102,73.93,100.85ZM64,109h0v0ZM67.26,101,67.2,101l.07-.06s0,.07,0,.11Z"/><path class="cls-11" d="M82.41,31.29a3.88,3.88,0,0,0,1.6.88v.1c2.27,1.08,3.95,3.17,6.42,3.9l.87-.05L91,35.24c-1.31-1.68-2.6-3.38-2-5.74.07-.21-.15-.39-.38-.44s-.78,0-1-.37c-.63-.54-1.59-.42-2.16-1.08-.94-.88-2.3-.88-3.35-1.53v0c-.15-.5-.74-.58-1-1-1.16-.31-.52.57-.64,1,0,.66,1.29,1.42,0,1.95s-.65,1-.15,1.53S81.9,30.48,82.41,31.29Z"/><path class="cls-8" d="M55.18,78.82c-1-.6-1.73.76-2.73.45a1.25,1.25,0,0,0-.74.53c.14,1.38.11,2.56-1.28,3.5-1,.67-.54,2,.35,2.89,1.23,1.2,2.79.72,4.16,1.13,2.16.66,2.26.9.86,2.43a2.32,2.32,0,0,0,.7,2.14c.75.71,1.79.73,2.69,1.09.65,0,1.26.34,1.9.45,1.86.29,3.74.7,5.55-.26a1.42,1.42,0,0,0,0-.22c1,.15,1.87,1.09,2.93.25a.15.15,0,0,1,0-.09h0a6.76,6.76,0,0,1,2.16-.51,1.3,1.3,0,0,0,1.38-1.28,13.6,13.6,0,0,1,.3-1.41c.27-1.56,0-2.9-1.47-3.78a1.21,1.21,0,0,1-.43-.38,1.39,1.39,0,0,1-.25-.52c-.14-1.68-1.26-2.21-2.71-2.4a1.26,1.26,0,0,0-.9.2l-.29.23c-.33-.11-.5-.35-.45-.84-1.61-1.09-3.56-1.09-5.33-1.67-.73,0-.77-1.11-1.58-1,0,0,0,0,0,.06l0,0-.88-1.46a1.6,1.6,0,0,0,.1-.23c0-.78-.09-1.53-1.11-1.66-.44.74-1.13,1.27-1.58,2C56.32,78.94,55.84,79.48,55.18,78.82Z"/><path class="cls-11" d="M50.06,68.11a5.65,5.65,0,0,1,1-2c.46-.75,1.44-.71,2.05-1.26,0,0,.33.62.79.62s1.11-.21,1.16-.69c.15-1.52,1.26-2.69,1.47-4.17a1,1,0,0,1,.34-.37,1,1,0,0,1,.48-.17c.73-.1.83-.63.72-1.2a1,1,0,0,0-.14-.33,1.06,1.06,0,0,0-.27-.25.93.93,0,0,0-.35-.13.77.77,0,0,0-.37,0c-2.2.3-4.54.07-6.43,1.51a2.36,2.36,0,0,1-3.37-.19A1.47,1.47,0,0,0,45,59.36c-.79,1,0,1.86.16,2.76.29,1.85.29,3.44-1.44,4.75a6.57,6.57,0,0,0-2.32,2.62c.36,1.4.78,1.56,1.73.59.76-.78,1.33-1.73,2.1-2.5.51-.5.84-1.24,1.76-1.44a4.77,4.77,0,0,1-1.07,3.44,1.9,1.9,0,0,0,.06,2.87c1.32.12,1.77-1.34,2.88-1.61C50.1,70.33,49.76,69.07,50.06,68.11Z"/><path class="cls-11" d="M84,73.06c2,1.25,4.1.47,6.17.19.08,0,.13-.28.19-.43,0-.68-.71-.79-.91-1.3a2.45,2.45,0,0,1-1-2.56c.13-.55,0-1.53-.63-1.45-1.64.23-2.23-.57-2.56-1.92,0-.19-.29-.32-.47-.44a2.56,2.56,0,0,1-1.06-2.4c.1-1.31-.53-1.81-1.81-1.41a2.87,2.87,0,0,0-1.38,1.94c0,.82.57,1.24,1,1.78,1.19,1.45,1.1,2.46-.26,3.49-.26.89-.91,1.67-.8,2.67-.17.57-.21,1.24.61,1.06A3.75,3.75,0,0,1,84,73.06Z"/><path class="cls-11" d="M59.5,55.56c1.22-.37,1.2-.37,1.36.75a.84.84,0,0,0,.4.47c.37.23.77.41,1.16.62,1.16,1.05,2.53.52,3.83.53,0-.12.08-.26.11-.39h3.43c1.34,0,2.75.28,4-.41,1.35-.4,1.15-.46,1.58-1.71A7.73,7.73,0,0,0,75.87,53c-1.09-1.34-1.7-3.06-3.28-4h0l0,0c-.17-.66.48-1.13.54-1.81-1,0-1.72-.77-2.63-.3l.13-.44-4.6,0a1,1,0,0,0-.26.38v0c-.43.11-.88.08-1.21.74A4.49,4.49,0,0,0,64,49.62c0,.51.06,1.06-.33,1.43-.85-1.41-1.64-1.5-2.74-.24A3.27,3.27,0,0,1,59.07,52c-.35.11-.71.2-.83.61A3.77,3.77,0,0,0,58.4,54C58.4,54.77,58.51,55.47,59.5,55.56Z"/><path class="cls-11" d="M75.91,68.87c-.56-1.26,0-2.71-.7-4a2.45,2.45,0,0,0-2.53-.06c-.62.44-1.14.22-1.7-.26.47-.31,1.13,0,1.27-.61l-3.88,0H63a4.38,4.38,0,0,0,2.63,2.13,1.9,1.9,0,0,1,1.36,2.41c-.21,1-.35,1.58,1,1.08a.46.46,0,0,1,.2-.05.32.32,0,0,1,.19,0,.39.39,0,0,1,.17.11.42.42,0,0,1,.1.17.69.69,0,0,1,0,.24.84.84,0,0,1-.06.24.7.7,0,0,1-.15.19.57.57,0,0,1-.22.11,3,3,0,0,1-.89.26c-1.33,0-1.83.46-1.71,1.67.08.74-.12,1.28-.81,1.31s-1.34-.16-1.38-1.06c0-.55.07-1.1-.39-1.53s-.66-.66-1.12-.57-.1.66-.26,1a3.65,3.65,0,0,0-.21,1.76c.41.49.74,1,1.51,1.12s.61.6.46,1.09c2,.55,4,0,5.93-.07a1.29,1.29,0,0,0,.45-.58,2.7,2.7,0,0,0,.14-.4,1.85,1.85,0,0,1,.81,0,1.75,1.75,0,0,1,.75.3c.37.26.81.36,1.11-.16s.52-.77.06-1.17-.39-.82-.66-1.17c0-.09.07-.18.12-.29a4.15,4.15,0,0,0,0-.93,2.71,2.71,0,0,1-.12-.55c0-.38-.06-.8.3-1,.62.5.12,1.41.69,1.94.69,2,1.78,2.59,3.4,1.85a1.78,1.78,0,0,1-.1-2.49C76.64,70.3,77,69.37,75.91,68.87Zm-2-.8.2-.16c0,.12,0,.24,0,.35Zm1-2.17v0h0Z"/><path class="cls-7" d="M63.69,98.51c.33-.07.72-.11.25-.55s-.2-.83.33-1c.16,0,.44.18.61,0,1.59-1.61,2.77.09,4.11.49-.79,0-1.52.1-1.83,1-.08.23-.27.65-.52.51C65.68,98.49,64.6,99.08,63.69,98.51Z"/><path class="cls-7" d="M73.23,98.15c1.31-.78,2.57-1.64,4.27-1.46a4.12,4.12,0,0,0,1.64-.52c-.68,1.57-1.53,3-3.61,3-.07-.5,1-.54.27-1.2C75.08,98.21,74.18,99,73.23,98.15Z"/><path class="cls-9" d="M85,49.57c-1.57-.51-3.43-.08-4.7-1.39a2.71,2.71,0,0,0,1.2-2.46c-.11-.68.43-.61.79-.77,1-.71,2.38-.33,3.23-1.31a.69.69,0,0,0,0-.35.77.77,0,0,0-.19-.3,6.17,6.17,0,0,1-2.63-2.48c-2.26-2-3-2-5.33-.15A23.8,23.8,0,0,0,74.44,43c-.25,1.05.57.94,1.16,1.06a4.34,4.34,0,0,0,1.75-.82C75.76,44.89,74,46.32,71.21,46a1,1,0,0,0-.61.2c-.52.49-.6,1,.23,1.06,1.34,0,1.53.82,1.57,1.84,1.35,1.18,1.83,3.11,3.48,4,1.52.12,2-1.47,3.25-1.92-.49.89-1.35,1.67-.61,2.8.56-.23,1.08-.7,1.73-.38.28.14.55.52.81.19.59-.74,1.12-.21,1.68,0,1.13-.8.6-1.87.4-2.8.92-.38,2,.62,2.66-.59a1.3,1.3,0,0,0-.85-.8Z"/><path class="cls-9" d="M77.18,76.52c-.85.06-1.5.66-2.3.82-.62.14-1.11.69-1.83.5-2.15-.56-4.34-.3-6.52-.37a5,5,0,0,1-1.93-.23,6,6,0,0,0-3.21-.36A2,2,0,0,0,61.52,79c1.37,2,3.81,2.16,5.67,2.42a17.17,17.17,0,0,0,8.55-.85c1.19-.48,2.49-1.19,2.4-2.89C77.8,77.28,76.89,77.41,77.18,76.52Z"/><path class="cls-9" d="M93.23,33.93a3.16,3.16,0,0,1-1.57-.37c-.49-.31-1-.84-.54-1.31.8-.89.32-1.7.14-2.56-.57-.29-.8-.84-1.14-1.35s-.71-1-1.43-.9a1.21,1.21,0,0,0-1.2,1.29,3.64,3.64,0,0,1,1,2.46,5.24,5.24,0,0,0,2.37,4.27.45.45,0,0,0,.06.32,3.7,3.7,0,0,0-.57-.07l-.62-.09a25.79,25.79,0,0,1-3.15-2,4.37,4.37,0,0,0-2.49-1.34c-.33-.71-1.25-.67-1.68-1.27-2.18-.94-4.84.18-5,2.21-.07,1.31-.06,2.67-.14,4,.21.32.54.35.87.43a1.89,1.89,0,0,1,2.32-1.44l.06.23c1,1.21,1.28,2.85,2.3,4a1,1,0,0,0,.35.21.94.94,0,0,0,.41,0,23.45,23.45,0,0,1,5.84-.7,1.93,1.93,0,0,0,1.57-.76c.92.38,2-.56,2.84.3.76.66,1.19.09,1.64-.42C97,37.66,95.83,34.08,93.23,33.93Z"/><path class="cls-9" d="M60.67,68.61a18.55,18.55,0,0,1-3.45-3.1,2.49,2.49,0,0,1-.49-3.38,1.22,1.22,0,0,0-.24-1.55c-.65,1-1.77,1.73-1.64,3.07a1.47,1.47,0,0,1-1,1.59c-.48-.21-.34-.76-.6-1.09s-.26-.55-.59-.45c-.61.2-.13.43,0,.66s.08.44-.22.44c-2.08,0-2.26,1.73-2.81,3.12-.39.94,0,2.1-.84,2.91a3.45,3.45,0,0,0-.51,1.46c.54.18.63-.37,1-.47a17,17,0,0,1,1.07-1.42,4.23,4.23,0,0,1,1.75-1.34h0l.59,0A7.83,7.83,0,0,0,54.17,69a4.82,4.82,0,0,1,1.64.31,1.53,1.53,0,0,1,.75.47,1.48,1.48,0,0,1,.37.8c.15.62.33,1.29,1.2,1.31.37,0,.8.12,1-.36-.06-.25-.26-.57-.17-.71s.33.1.48.18.49.16.66-.13.37-.39.56-.56A1.07,1.07,0,0,0,60.67,68.61Z"/><path class="cls-9" d="M81.59,64.44A1.43,1.43,0,0,1,81,64a1.4,1.4,0,0,1-.27-.68c.54-.46.62-1.31,1.31-1.63a.84.84,0,0,0,.08-.46.8.8,0,0,0-.17-.44c-1.42-.47-2,0-2.59,2.3.14-1.35,0-2.38-1.54-2.34-.7.31-.7,1.22-1.36,1.58v0l0,0L72.22,64a.79.79,0,0,1-.6.2c-.39,0-.82-.11-.86.44s.37.62.73.74a1.86,1.86,0,0,0,1.4-.2,1.63,1.63,0,0,1,1-.21,1.7,1.7,0,0,1,.95.41c.33,1.12,0,2.37.65,3.44.43.59.78,1.23.28,1.92a2.33,2.33,0,0,0-.16,2.58,2.83,2.83,0,0,1-2.35-2.09c-.28-.66-.1-1.59-1.08-1.82-.9.36-.44,1.18-.61,1.78l0,.94c.55,1.8.55,1.81-1.25,2a2.37,2.37,0,0,0-1.08.66l0,.61c1.31.51,2.63.11,3.94.13a5,5,0,0,0,3.71-1.64c.2-.17.42-.32.65-.48l.17.08a.94.94,0,0,0,.46.13.87.87,0,0,0,.45-.13,1.84,1.84,0,0,0,.57-.54,2.07,2.07,0,0,0,.32-.71c.13-.45.19-1.09.93-1a2.54,2.54,0,0,0,1-2.63c1.41-.17,2-.61,1.52-1.42S82.87,65,81.59,64.44Z"/><path class="cls-9" d="M61.42,35.52c-.48-.71-.3-1.63-.55-2.46-.12-.4.15-.86-.41-1.28-.87-.65-.74.62-1.23.62-.66-1.91-.66-1.91-2.47-.76l-.33.2a4.35,4.35,0,0,0-.51,0,37.61,37.61,0,0,0-4.13,1.42c.44-1.76,1.13-3.37.07-5l-.62-.88c-.59,0-1.25-.4-1.68.32.72-.19.81.29.88.81.49,3.14-1.23,5.48-2.87,7.85l0,0c-1.51.28-2.83.81-3.29,2.47.3.51.2,1.22.82,1.55,2.74-.65,5.13-.35,6.64,2.41a2.43,2.43,0,0,0,.2.25c.24.88.58,1.59,1.69,1.64a1.51,1.51,0,0,0,1.07-.23,1.47,1.47,0,0,0,.62-.9c.4-.81,1.28-1.41,1-2.49C56,40.25,54,40.41,55,38.79c0,0,0,0,0-.06.66-1,1.65-1.72,2.11-2.85a1.29,1.29,0,0,1,1.71-.69v0c.7.37,1.5.9,1.19,1.68-.51,1.27.51,1.25,1.11,1.64A2.13,2.13,0,0,0,61.42,35.52Z"/><path class="cls-7" d="M70.6,31c-.72-.89-.81-1.68.37-2.26.36-.55.94-.49,1.47-.53A6.35,6.35,0,0,0,77.8,25c.2-.25.41-.66.76-.47a.75.75,0,0,1,.3,1.1c-.22.46-.55,1.07.24,1.32s1.28-.06,1.37-.92c.75.21.79,1.06,1.32,1.48.25.2,0,.42-.22.63-.46.46-1,.51-1.85.2,1,1.22,2.45,1.55,2.67,2.95-1.62-.77-2.91-.11-4.15.93a1.51,1.51,0,0,0-.42.76,1.39,1.39,0,0,0,.09.85c.62,1.27,0,2.26-.42,3.33a3.36,3.36,0,0,0-.69.4c-.73.71-1,.33-1.06-.44s-.29-.85-.89-.57a3.85,3.85,0,0,0-2.3-1.64c-1.12-.69-.79-1.9-.94-2.89C71.51,31.31,71.24,31,70.6,31Z"/><path class="cls-7" d="M64.66,25.42c1.6-.26,3.13.35,4.72.33a25.08,25.08,0,0,0,4.88-.28c.27.33,1,.16,1,.85a1.68,1.68,0,0,1-.63.74,1.64,1.64,0,0,1-.94.27c-2.42.12-4.79,1.17-7.26.42-.22,0-.46,0-.56.2a.45.45,0,0,0,0,.16.38.38,0,0,0,0,.15.29.29,0,0,0,.1.12.34.34,0,0,0,.15.07c.33.11.77-.25,1,.46-1.47-.12-3,1.63-4.37-.55a1.84,1.84,0,0,0,1.28-1c.17-.07.57-.18.37-.33C63.28,26.27,63.86,25.85,64.66,25.42Z"/><path class="cls-13" d="M90,49.42a3,3,0,0,1-.61-2c.19-1.67-.81-3.05-1-4.62a.62.62,0,0,0-.09-.32A.64.64,0,0,0,88,42.3a.62.62,0,0,0-.33-.08.66.66,0,0,0-.33.09c-.68.36-1.55.38-2,1.1-.33.53-.93.15-1.31.37-.64.37-1.71-.19-2,.94-.41.22-1.29-.66-1.29.53,0,1.5,0,1.5-1.23,2.16-.38.2-.15.46-.08.69a8,8,0,0,0,2.72,1.59,6,6,0,0,1,2.54.21l.94.4c1.28.77,2.56,1.34,3.79-.11,0,0,.29.05.44.09C90,50,90.23,49.8,90,49.42Z"/><path class="cls-13" d="M42.3,39.45c1,.79,1.4-.12,2-.6a9.77,9.77,0,0,1,3.28-2.4c.77.43,1-.26,1.23-.68.53-1,1.1-2,1.65-3a6.44,6.44,0,0,0,.55-4c-.1-.77-.39-1.38-1.34-1.28-1,.41-1,1.31-1.2,2.15a1.48,1.48,0,0,0-.25-.25c.28,1-.28,1.39-.64,2s-.8,1-1.56.58a3.14,3.14,0,0,1-1.94,2.35,3.9,3.9,0,0,0-1.46,1.21h.06c-.55.46-.41,1.18-.68,1.74A1.58,1.58,0,0,0,42.3,39.45Z"/><path class="cls-13" d="M80.69,39.81a2.37,2.37,0,0,0-2.09,1.41,6.73,6.73,0,0,1-3,2.58,35.36,35.36,0,0,1-6,.36,6.47,6.47,0,0,0-2.72.38c-.76.26-1.67.17-2.25.85A8.84,8.84,0,0,1,60,41.7a.84.84,0,0,0-.37-.3l-.2,0a.83.83,0,0,0,0-.15c-.66-1.32-1.73-1.14-2.86-.84a1.12,1.12,0,0,1-.35.71,7.85,7.85,0,0,1-1.38,2.33c-.35.21-.12.75-1,.86-1.28.16-1.26-.93-1.93-1.22a1.55,1.55,0,0,0,0,1.25c0,.23.1.56-.37.48-1.06-.17-1.3.65-1.54,1.37s-.15,1.38-.75,1.88a17,17,0,0,0-4.57,3.17c-.35.33-3.21,3.13-2.6,4.09.33.49,1.39.33,1.89.24,2.91-.46,4.82-3,5.62-4.22,1-.47,2.15-.3,3.12-.85.4-.49.9-.9,1.35-1.36.66.54,1.52.28,2.26.51.54.17,1.29.1,1.47.78.22.88.91,1.43,1.32,2.17a3.85,3.85,0,0,0,1.49-.66,4,4,0,0,0,1.08-1.23c.46-.76,1.16-.47,1.73.6,1,.09,1.07-.66,1.07-1.27a4,4,0,0,1,.39-1.81,4.1,4.1,0,0,1,1-1.36l.23,0c1.54-.05,3.12.48,4.57-.43,2.11,0,4.31.19,5.84-1.74C77.79,43,80.13,42.28,80.69,39.81Z"/><path class="cls-13" d="M55.82,32.24c1.08-.19,2.25-1.44,3.22.27.13.26.49.09.74,0s.52,0,.54.37c.13,1.91,1.48,3.65.76,5.66,1.9,2.68,4.81,2.68,7.64,2.89.81,0,1.62-.15,2.44-.15a4.33,4.33,0,0,0,4.07-4.65,3,3,0,0,0-2.5-2l-.23,0-.75-4.7c-.46.15-.44.71-.7,1-.6-.74-.59-.77-.1-1.72a.48.48,0,0,0,.08-.31.53.53,0,0,0-.14-.29l0,0H71a8.81,8.81,0,0,0,5.54-1.34c.88-.56,1.54-1.22,1.29-2.38l-2.57,1.31a50.36,50.36,0,0,1-8.45,1.41l-.38-.08c-1.21.13-1,.7-.42,1.37-2.38.17-2.38.17-1.79-1.46a6,6,0,0,0-3.11-2.59c-.65,0-1.31-.33-2,0-1.24.79-3-.09-4.08,1.19.89.94.89.94-.52,1.49a7.07,7.07,0,0,1-2.63.89A11.94,11.94,0,0,1,51.11,34C52.93,33.65,54.27,32.66,55.82,32.24Zm14.25-3.73L70,28.6c-.54,1.17-.43-.07-.5-.16Zm-6.71,1.23-.16.17-.11-.09c.09,0,.17-.05.27-.09Z"/><path class="cls-13" d="M59.93,68.83c.53.52.69,1,0,1.44-1.55.33-1.57.35-.8,1.23.77.65,1.17,1.71,2.27,2,.63-.43.39-1.31.87-1.86.66.4.59,1.08.83,1.6a1.66,1.66,0,0,0,.6.76,1.7,1.7,0,0,0,.92.29,1.1,1.1,0,0,0,1.25-.85,2.35,2.35,0,0,1,2.19-2.33c.73-.11,1.33-1.12.51-1.55-1-.53-1.12-1.24-1.26-2.14a2.24,2.24,0,0,0-.47-.95A2.31,2.31,0,0,0,66,65.8a9.89,9.89,0,0,1-2.17-1.39c1.71,0,3.28-.08,4.83.09A25.56,25.56,0,0,0,72,64.36a20.14,20.14,0,0,0,4.52-1.68c.78-.4,1.11-1.2,1.64-1.83s1.23-1.26.57-2.22a1.11,1.11,0,0,0-.48,0,.93.93,0,0,0-.41.26,10,10,0,0,1-7,2.51c-2.06,0-3.91.87-5.86,1.27a3.34,3.34,0,0,1-2.83-.33A6.83,6.83,0,0,1,61,60.66c-.33-.71-.52-1.55-1.44-1.81-.9,0-1.31,1.25-2.33.9a1.06,1.06,0,0,0-.63.27,1,1,0,0,0-.33.61,3.34,3.34,0,0,1-.17,1.74,3.07,3.07,0,0,0,.7,3.39A40.78,40.78,0,0,0,59.93,68.83Z"/><path class="cls-13" d="M78.83,95.87a7.61,7.61,0,0,1-2.58,3c0-1.37,0-1.42-1.16-1.09a2.16,2.16,0,0,1-1.86-.14A4.78,4.78,0,0,0,69,96.92c-.46.14-1,0-1.37.4-1.14,1.31-2.57,1-4,.85a1,1,0,0,0-.33.06.92.92,0,0,0-.3.18,10.78,10.78,0,0,1-5.52-.29c.2-.5-.17-1-.17-1.48a2.2,2.2,0,0,0-.63-.9C55.51,94,55.52,94,54,95.47a26.07,26.07,0,0,0-3,3.68,4.91,4.91,0,0,1-2,1.89l-.42,0c.79-1.34-.61-1.2-1.29-1.54.27-1.22-.69-2.1-.93-3.2-.15-.65-.85-.59-1.32-.12S44,97.49,43.39,98.13c-.29-.11-.33-.37-.38-.64-.46-.1-1-.4-1.37-.28-.82.27-1.44,1-2.46.47-.17-.09-.21.25-.16.55-.79.35-1,.83,0,1.31a2,2,0,0,1,1.38,1.95,13.38,13.38,0,0,0,6.1,3c1,.17,1.8-.75,2.79-.47,1.72-.6,2.78.52,3.79,1.58a5.87,5.87,0,0,0,2,1.64,6.22,6.22,0,0,1,3.25,3.67,5.07,5.07,0,0,0,1.21,1.72,5,5,0,0,0,1.79,1.1c1.72.67,2.93-.16,3-2a14.25,14.25,0,0,1,0-2.77,6.49,6.49,0,0,0-3.8-6,7.29,7.29,0,0,1-2.42-1.31.86.86,0,0,0,.4-.21.9.9,0,0,0,.25-.36.75.75,0,0,1,1.37-.26c.86,1.22,1.86,1.06,3,.61.66.1.84-.24.81-.76a2.43,2.43,0,0,0,.84.41,2.29,2.29,0,0,0,.94,0c1.29-.35,2.3.33,3.39.63.87.27,1.62-.65,2.51-.28a2.18,2.18,0,0,0,2.38-.58,20,20,0,0,0,4.38-2.28,6.74,6.74,0,0,0,2.44-2.45.72.72,0,0,0,.25-.3.76.76,0,0,0,.08-.39C80.29,94.37,80,94.42,78.83,95.87ZM46.68,99.73c.07-.16.25-.11.41-.08Z"/><path class="cls-13" d="M89.45,70.8a1.5,1.5,0,0,1-.47-1,26,26,0,0,0-2.19-7.05c-.3-.58-1.07-1.18-.68-2.06-.57-.69-1.31-.22-2-.32a.62.62,0,0,1-.21.5.52.52,0,0,1-.25.14.66.66,0,0,1-.28,0H81.78l.33.61c.77-.29,1.49-.18,1.2.78-.49,1.64.19,2.51,1.5,3.28a.9.9,0,0,1,.33.25.93.93,0,0,1,.21.76.86.86,0,0,1-.16.38c-.72,1.09.07,1.12.75,1a20.24,20.24,0,0,1,2.13-.3c0,1.56-1,3.37,1.25,4C89.59,71.49,90,71.21,89.45,70.8Z"/><path class="cls-13" d="M77.86,77.51c.09.25.22.52,0,.75-1.06,1-2,2-3.6,2.25-1.79.3-3.61.08-5.37.35-1.07.16-2.09.66-2.91-.55A1.28,1.28,0,0,0,64.89,80a3.79,3.79,0,0,1-3.18-1.3c-.76.66,0,1.36,0,2a3.6,3.6,0,0,0,1.91,1.08c1.13.33,2.33.17,3.43.59h2a16.91,16.91,0,0,0,7.3-1.26c2.31-1.1,4.21-3.81,4.1-6.14C79.34,75.67,78.91,76.9,77.86,77.51Z"/><path class="cls-10" d="M80.34,50.85c-1.1-.53-1.1-.51-1.76,0-.9.7-1.57,1.69-2.71,2.09-.59,1.08-1.45,2.14-.36,3.25-.66-.13-1.35.45-2.13.57a7.44,7.44,0,0,1-2.53.2c-1.51.06-3.12-.52-4.49.58a5.86,5.86,0,0,1-3.94-.14c-.18.81.46.71.9.75.68.07,1.38.07,2.07.09A9.61,9.61,0,0,1,68,58a13,13,0,0,0,8.82-1.49c.54-.88,1.52-1.45,1.71-2.55A3.61,3.61,0,0,1,80.34,50.85Z"/><path class="cls-10" d="M84,106.65c-.49.39-.79,1.07-1.32,1.4a3.68,3.68,0,0,0-2.08,3.41,2.88,2.88,0,0,1-.6,1.64,4.48,4.48,0,0,0-.81,1.58c1.14.45,1.65-.43,2.27-1.08,1.06-.27,1.86-.8,1.93-2a1.78,1.78,0,0,1,.43-1,37.72,37.72,0,0,1,1.59-4.89C84.53,105.41,84.42,106.3,84,106.65Z"/><path class="cls-10" d="M61.39,76.88a1.05,1.05,0,0,1-1.25-.94c-.26-1.15-1.31-1.82-1.93-2.75-.2-.28-.53-.39-.78,0-.14.23-.57.38-.11.75.79.64.66,1.64.88,2.5.58.4.55,1.17.91,1.72a1.79,1.79,0,0,0,.8,1.94c.66.17,1,1.18,1.91.71.47-.71,0-1.38-.1-2.07A4,4,0,0,0,61.39,76.88Z"/><path class="cls-10" d="M62.73,95.5a4.92,4.92,0,0,0-2-.32c-.24.35-.53.65-.77,1-.8,1.13-1.65,1.25-2.89.59-.49.64.33.88.41,1.31h0a5.49,5.49,0,0,0,5.54.5c.33-.47-.09-1,.27-1.54C63.81,96.34,63.28,95.9,62.73,95.5Z"/><path class="cls-10" d="M64,60.06a2.81,2.81,0,0,1-1.93-.74c-.76-.29-1-1.27-1.82-1.47-.42-.1-.86-.28-1.19.09s.33.67.38,1.06a2.41,2.41,0,0,1,.94,1.47,3.71,3.71,0,0,0,1.34,2.17,2.56,2.56,0,0,0,1-.15,2.37,2.37,0,0,0,.89-.53c.74-.61-.39-.46-.39-.8s.18-.33.43-.35C64.19,60.74,64,60.34,64,60.06Z"/><path class="cls-10" d="M93.62,78.81c-1,2.63-1.72,5.36-3.52,7.62a1.42,1.42,0,0,0-.33.55,1.4,1.4,0,0,0,0,.64c.33,0,1-.76.93.41a2.06,2.06,0,0,0,.25.94,2,2,0,0,0,.65.71c.63.45,1.55.06,1.48-.32-.14-.8.47-1.6-.08-2.34s-.33-1.61.27-2.33a7.6,7.6,0,0,1,.26-1.24C93.75,81.92,94.39,80.38,93.62,78.81Z"/><path class="cls-10" d="M84.19,95.3a1,1,0,0,0-.29-.49,1,1,0,0,0-.5-.27,1.9,1.9,0,0,1-.47-.65,2,2,0,0,1-.17-.79c0-.76-.48-.87-1.05-.92-.4-.07-.63.22-.91.42-.25,1,.27,1.94,0,2.93l-.1.57c.05.66.49.77,1,.72.16-.41-.25-1.09.43-1.22s.53.41.53.79a4.9,4.9,0,0,0,4,4.36,1,1,0,0,0,.16-.33.93.93,0,0,0,0-.37A15.78,15.78,0,0,1,84.19,95.3Z"/><path class="cls-10" d="M59.17,41.37a4.12,4.12,0,0,1,1.17,1.52,4.6,4.6,0,0,0,4.36,2.53c.76-.16,1.59.12,2.3-.39.4-1.2-.59-1.43-1.31-1.85-2.22-.49-4.32-1.15-5.36-3.47-.13-.3-.53-.7-.92-.37-.84.67-2,.32-2.84,1A2.66,2.66,0,0,1,59.17,41.37Z"/><path class="cls-10" d="M71.63,41.47a4.54,4.54,0,0,0,4.17-1.78,5.84,5.84,0,0,1,2.42-2.09.8.8,0,0,0-.3-.33.73.73,0,0,0-.43-.11c-.64-.08-1.32.13-1.69-.73-.16-.39-.33-.33-1,.12.33,1.54-.63,2.32-1.61,3.35a4.14,4.14,0,0,1-3.68,1.16.88.88,0,0,0-.48,0,.81.81,0,0,0-.36.3C69.66,42,70.64,41.34,71.63,41.47Z"/><path class="cls-10" d="M60,22.68c.2.36.26.81.62,1.1s.83.41.46,1a23.09,23.09,0,0,0,3,2.63c.47.29.79.12.68-.39a5.27,5.27,0,0,1,.08-1.59c-.49-.72-1.52-1-1.67-2l-1.72-1.37c-1.12-.06-2.33-.3-2.46,1.44C59.52,23.5,59.34,22.61,60,22.68Z"/></g></g></svg>